G04 (created by PCBNEW (2013-mar-13)-testing) date Tue 03 Sep 2013 07:06:26 PM EDT*
%MOIN*%
G04 Gerber Fmt 3.4, Leading zero omitted, Abs format*
%FSLAX34Y34*%
G01*
G70*
G90*
G04 APERTURE LIST*
%ADD10C,0.005906*%
%ADD11C,0.004724*%
%ADD12C,0.007874*%
%ADD13C,0.011811*%
%ADD14C,0.003937*%
%ADD15C,0.009843*%
%ADD16C,0.015748*%
%ADD17C,0.017717*%
%ADD18C,0.019685*%
G04 APERTURE END LIST*
G54D10*
G54D11*
X57332Y-41703D02*
X57397Y-41900D01*
X57463Y-41703D01*
X57594Y-41796D02*
X57622Y-41806D01*
X57632Y-41815D01*
X57641Y-41834D01*
X57641Y-41862D01*
X57632Y-41881D01*
X57622Y-41890D01*
X57604Y-41900D01*
X57529Y-41900D01*
X57529Y-41703D01*
X57594Y-41703D01*
X57613Y-41712D01*
X57622Y-41721D01*
X57632Y-41740D01*
X57632Y-41759D01*
X57622Y-41778D01*
X57613Y-41787D01*
X57594Y-41796D01*
X57529Y-41796D01*
X57716Y-41843D02*
X57810Y-41843D01*
X57697Y-41900D02*
X57763Y-41703D01*
X57829Y-41900D01*
X57866Y-41703D02*
X57979Y-41703D01*
X57922Y-41900D02*
X57922Y-41703D01*
X58044Y-41825D02*
X58194Y-41825D01*
X58260Y-41703D02*
X58372Y-41703D01*
X58316Y-41900D02*
X58316Y-41703D01*
X58438Y-41796D02*
X58503Y-41796D01*
X58532Y-41900D02*
X58438Y-41900D01*
X58438Y-41703D01*
X58532Y-41703D01*
X58607Y-41890D02*
X58635Y-41900D01*
X58682Y-41900D01*
X58700Y-41890D01*
X58710Y-41881D01*
X58719Y-41862D01*
X58719Y-41843D01*
X58710Y-41825D01*
X58700Y-41815D01*
X58682Y-41806D01*
X58644Y-41796D01*
X58625Y-41787D01*
X58616Y-41778D01*
X58607Y-41759D01*
X58607Y-41740D01*
X58616Y-41721D01*
X58625Y-41712D01*
X58644Y-41703D01*
X58691Y-41703D01*
X58719Y-41712D01*
X58775Y-41703D02*
X58888Y-41703D01*
X58832Y-41900D02*
X58832Y-41703D01*
G54D12*
X61002Y-44745D02*
X60871Y-44557D01*
X60778Y-44745D02*
X60778Y-44351D01*
X60928Y-44351D01*
X60965Y-44370D01*
X60984Y-44388D01*
X61002Y-44426D01*
X61002Y-44482D01*
X60984Y-44520D01*
X60965Y-44538D01*
X60928Y-44557D01*
X60778Y-44557D01*
X61171Y-44538D02*
X61302Y-44538D01*
X61359Y-44745D02*
X61171Y-44745D01*
X61171Y-44351D01*
X61359Y-44351D01*
X61509Y-44726D02*
X61565Y-44745D01*
X61659Y-44745D01*
X61696Y-44726D01*
X61715Y-44707D01*
X61734Y-44670D01*
X61734Y-44632D01*
X61715Y-44595D01*
X61696Y-44576D01*
X61659Y-44557D01*
X61584Y-44538D01*
X61546Y-44520D01*
X61527Y-44501D01*
X61509Y-44463D01*
X61509Y-44426D01*
X61527Y-44388D01*
X61546Y-44370D01*
X61584Y-44351D01*
X61677Y-44351D01*
X61734Y-44370D01*
X61902Y-44538D02*
X62034Y-44538D01*
X62090Y-44745D02*
X61902Y-44745D01*
X61902Y-44351D01*
X62090Y-44351D01*
X62202Y-44351D02*
X62427Y-44351D01*
X62315Y-44745D02*
X62315Y-44351D01*
G54D11*
X49377Y-22106D02*
X49358Y-22096D01*
X49330Y-22096D01*
X49302Y-22106D01*
X49283Y-22125D01*
X49274Y-22143D01*
X49265Y-22181D01*
X49265Y-22209D01*
X49274Y-22246D01*
X49283Y-22265D01*
X49302Y-22284D01*
X49330Y-22293D01*
X49349Y-22293D01*
X49377Y-22284D01*
X49386Y-22275D01*
X49386Y-22209D01*
X49349Y-22209D01*
X49471Y-22293D02*
X49471Y-22096D01*
X49583Y-22293D01*
X49583Y-22096D01*
X49677Y-22293D02*
X49677Y-22096D01*
X49724Y-22096D01*
X49752Y-22106D01*
X49771Y-22125D01*
X49780Y-22143D01*
X49790Y-22181D01*
X49790Y-22209D01*
X49780Y-22246D01*
X49771Y-22265D01*
X49752Y-22284D01*
X49724Y-22293D01*
X49677Y-22293D01*
X50330Y-22190D02*
X50359Y-22200D01*
X50368Y-22209D01*
X50377Y-22228D01*
X50377Y-22256D01*
X50368Y-22275D01*
X50359Y-22284D01*
X50340Y-22293D01*
X50265Y-22293D01*
X50265Y-22096D01*
X50330Y-22096D01*
X50349Y-22106D01*
X50359Y-22115D01*
X50368Y-22134D01*
X50368Y-22153D01*
X50359Y-22171D01*
X50349Y-22181D01*
X50330Y-22190D01*
X50265Y-22190D01*
X50452Y-22237D02*
X50546Y-22237D01*
X50434Y-22293D02*
X50499Y-22096D01*
X50565Y-22293D01*
X50602Y-22096D02*
X50715Y-22096D01*
X50658Y-22293D02*
X50658Y-22096D01*
X50930Y-22218D02*
X51080Y-22218D01*
X51005Y-22293D02*
X51005Y-22143D01*
X51277Y-22293D02*
X51165Y-22293D01*
X51221Y-22293D02*
X51221Y-22096D01*
X51202Y-22125D01*
X51183Y-22143D01*
X51165Y-22153D01*
X51352Y-22115D02*
X51362Y-22106D01*
X51380Y-22096D01*
X51427Y-22096D01*
X51446Y-22106D01*
X51455Y-22115D01*
X51465Y-22134D01*
X51465Y-22153D01*
X51455Y-22181D01*
X51343Y-22293D01*
X51465Y-22293D01*
X51521Y-22096D02*
X51586Y-22293D01*
X51652Y-22096D01*
X59255Y-21954D02*
X59283Y-21963D01*
X59293Y-21973D01*
X59302Y-21991D01*
X59302Y-22020D01*
X59293Y-22038D01*
X59283Y-22048D01*
X59265Y-22057D01*
X59190Y-22057D01*
X59190Y-21860D01*
X59255Y-21860D01*
X59274Y-21870D01*
X59283Y-21879D01*
X59293Y-21898D01*
X59293Y-21916D01*
X59283Y-21935D01*
X59274Y-21945D01*
X59255Y-21954D01*
X59190Y-21954D01*
X59377Y-22001D02*
X59471Y-22001D01*
X59358Y-22057D02*
X59424Y-21860D01*
X59490Y-22057D01*
X59527Y-21860D02*
X59640Y-21860D01*
X59583Y-22057D02*
X59583Y-21860D01*
X59705Y-21982D02*
X59855Y-21982D01*
X60061Y-22038D02*
X60052Y-22048D01*
X60024Y-22057D01*
X60005Y-22057D01*
X59977Y-22048D01*
X59958Y-22029D01*
X59949Y-22010D01*
X59940Y-21973D01*
X59940Y-21945D01*
X59949Y-21907D01*
X59958Y-21888D01*
X59977Y-21870D01*
X60005Y-21860D01*
X60024Y-21860D01*
X60052Y-21870D01*
X60061Y-21879D01*
X60146Y-22057D02*
X60146Y-21860D01*
X60146Y-21954D02*
X60258Y-21954D01*
X60258Y-22057D02*
X60258Y-21860D01*
X60464Y-22057D02*
X60399Y-21963D01*
X60352Y-22057D02*
X60352Y-21860D01*
X60427Y-21860D01*
X60446Y-21870D01*
X60455Y-21879D01*
X60464Y-21898D01*
X60464Y-21926D01*
X60455Y-21945D01*
X60446Y-21954D01*
X60427Y-21963D01*
X60352Y-21963D01*
X60652Y-21870D02*
X60633Y-21860D01*
X60605Y-21860D01*
X60577Y-21870D01*
X60558Y-21888D01*
X60549Y-21907D01*
X60539Y-21945D01*
X60539Y-21973D01*
X60549Y-22010D01*
X60558Y-22029D01*
X60577Y-22048D01*
X60605Y-22057D01*
X60624Y-22057D01*
X60652Y-22048D01*
X60661Y-22038D01*
X60661Y-21973D01*
X60624Y-21973D01*
X64704Y-21803D02*
X64695Y-21822D01*
X64695Y-21850D01*
X64704Y-21878D01*
X64723Y-21897D01*
X64742Y-21906D01*
X64779Y-21916D01*
X64807Y-21916D01*
X64845Y-21906D01*
X64864Y-21897D01*
X64882Y-21878D01*
X64892Y-21850D01*
X64892Y-21831D01*
X64882Y-21803D01*
X64873Y-21794D01*
X64807Y-21794D01*
X64807Y-21831D01*
X64892Y-21709D02*
X64695Y-21709D01*
X64892Y-21597D01*
X64695Y-21597D01*
X64892Y-21503D02*
X64695Y-21503D01*
X64695Y-21456D01*
X64704Y-21428D01*
X64723Y-21409D01*
X64742Y-21400D01*
X64779Y-21391D01*
X64807Y-21391D01*
X64845Y-21400D01*
X64864Y-21409D01*
X64882Y-21428D01*
X64892Y-21456D01*
X64892Y-21503D01*
X63793Y-22047D02*
X63793Y-21897D01*
X63868Y-21972D02*
X63718Y-21972D01*
X63671Y-21822D02*
X63671Y-21700D01*
X63746Y-21766D01*
X63746Y-21737D01*
X63756Y-21719D01*
X63765Y-21709D01*
X63784Y-21700D01*
X63831Y-21700D01*
X63849Y-21709D01*
X63859Y-21719D01*
X63868Y-21737D01*
X63868Y-21794D01*
X63859Y-21812D01*
X63849Y-21822D01*
X63849Y-21616D02*
X63859Y-21606D01*
X63868Y-21616D01*
X63859Y-21625D01*
X63849Y-21616D01*
X63868Y-21616D01*
X63671Y-21541D02*
X63671Y-21419D01*
X63746Y-21484D01*
X63746Y-21456D01*
X63756Y-21437D01*
X63765Y-21428D01*
X63784Y-21419D01*
X63831Y-21419D01*
X63849Y-21428D01*
X63859Y-21437D01*
X63868Y-21456D01*
X63868Y-21512D01*
X63859Y-21531D01*
X63849Y-21541D01*
X63671Y-21362D02*
X63868Y-21297D01*
X63671Y-21231D01*
X62848Y-21906D02*
X62848Y-21756D01*
X62923Y-21831D02*
X62773Y-21831D01*
X62726Y-21569D02*
X62726Y-21662D01*
X62820Y-21672D01*
X62811Y-21662D01*
X62801Y-21644D01*
X62801Y-21597D01*
X62811Y-21578D01*
X62820Y-21569D01*
X62839Y-21559D01*
X62886Y-21559D01*
X62904Y-21569D01*
X62914Y-21578D01*
X62923Y-21597D01*
X62923Y-21644D01*
X62914Y-21662D01*
X62904Y-21672D01*
X62726Y-21503D02*
X62923Y-21437D01*
X62726Y-21372D01*
X61825Y-22000D02*
X61825Y-21850D01*
X61900Y-21925D02*
X61750Y-21925D01*
X61721Y-21766D02*
X61712Y-21756D01*
X61703Y-21737D01*
X61703Y-21691D01*
X61712Y-21672D01*
X61721Y-21662D01*
X61740Y-21653D01*
X61759Y-21653D01*
X61787Y-21662D01*
X61900Y-21775D01*
X61900Y-21653D01*
X61768Y-21484D02*
X61900Y-21484D01*
X61693Y-21531D02*
X61834Y-21578D01*
X61834Y-21456D01*
X61703Y-21409D02*
X61900Y-21344D01*
X61703Y-21278D01*
G54D12*
X60091Y-31201D02*
X60091Y-31482D01*
X60073Y-31539D01*
X60035Y-31576D01*
X59979Y-31595D01*
X59941Y-31595D01*
X60223Y-31201D02*
X60448Y-31201D01*
X60335Y-31595D02*
X60335Y-31201D01*
X60560Y-31482D02*
X60748Y-31482D01*
X60523Y-31595D02*
X60654Y-31201D01*
X60785Y-31595D01*
X61122Y-31220D02*
X61085Y-31201D01*
X61029Y-31201D01*
X60973Y-31220D01*
X60935Y-31257D01*
X60916Y-31295D01*
X60898Y-31370D01*
X60898Y-31426D01*
X60916Y-31501D01*
X60935Y-31539D01*
X60973Y-31576D01*
X61029Y-31595D01*
X61066Y-31595D01*
X61122Y-31576D01*
X61141Y-31557D01*
X61141Y-31426D01*
X61066Y-31426D01*
G54D11*
X73461Y-29954D02*
X73555Y-29954D01*
X73443Y-30010D02*
X73508Y-29813D01*
X73574Y-30010D01*
X73639Y-30010D02*
X73639Y-29813D01*
X73752Y-30010D01*
X73752Y-29813D01*
X73846Y-30010D02*
X73846Y-29813D01*
X73892Y-29813D01*
X73921Y-29822D01*
X73939Y-29841D01*
X73949Y-29860D01*
X73958Y-29897D01*
X73958Y-29925D01*
X73949Y-29963D01*
X73939Y-29982D01*
X73921Y-30000D01*
X73892Y-30010D01*
X73846Y-30010D01*
X74155Y-30010D02*
X74089Y-29916D01*
X74042Y-30010D02*
X74042Y-29813D01*
X74117Y-29813D01*
X74136Y-29822D01*
X74146Y-29832D01*
X74155Y-29850D01*
X74155Y-29879D01*
X74146Y-29897D01*
X74136Y-29907D01*
X74117Y-29916D01*
X74042Y-29916D01*
X74277Y-29813D02*
X74314Y-29813D01*
X74333Y-29822D01*
X74352Y-29841D01*
X74361Y-29879D01*
X74361Y-29944D01*
X74352Y-29982D01*
X74333Y-30000D01*
X74314Y-30010D01*
X74277Y-30010D01*
X74258Y-30000D01*
X74239Y-29982D01*
X74230Y-29944D01*
X74230Y-29879D01*
X74239Y-29841D01*
X74258Y-29822D01*
X74277Y-29813D01*
X74446Y-30010D02*
X74446Y-29813D01*
X74539Y-30010D02*
X74539Y-29813D01*
X74586Y-29813D01*
X74614Y-29822D01*
X74633Y-29841D01*
X74642Y-29860D01*
X74652Y-29897D01*
X74652Y-29925D01*
X74642Y-29963D01*
X74633Y-29982D01*
X74614Y-30000D01*
X74586Y-30010D01*
X74539Y-30010D01*
X74736Y-29935D02*
X74886Y-29935D01*
X74980Y-30010D02*
X74980Y-29813D01*
X75055Y-29813D01*
X75074Y-29822D01*
X75083Y-29832D01*
X75092Y-29850D01*
X75092Y-29879D01*
X75083Y-29897D01*
X75074Y-29907D01*
X75055Y-29916D01*
X74980Y-29916D01*
X75158Y-29813D02*
X75205Y-30010D01*
X75242Y-29869D01*
X75280Y-30010D01*
X75327Y-29813D01*
X75514Y-30010D02*
X75449Y-29916D01*
X75402Y-30010D02*
X75402Y-29813D01*
X75477Y-29813D01*
X75495Y-29822D01*
X75505Y-29832D01*
X75514Y-29850D01*
X75514Y-29879D01*
X75505Y-29897D01*
X75495Y-29907D01*
X75477Y-29916D01*
X75402Y-29916D01*
X75812Y-31197D02*
X75822Y-31168D01*
X75831Y-31159D01*
X75850Y-31150D01*
X75878Y-31150D01*
X75897Y-31159D01*
X75906Y-31168D01*
X75915Y-31187D01*
X75915Y-31262D01*
X75718Y-31262D01*
X75718Y-31197D01*
X75728Y-31178D01*
X75737Y-31168D01*
X75756Y-31159D01*
X75775Y-31159D01*
X75793Y-31168D01*
X75803Y-31178D01*
X75812Y-31197D01*
X75812Y-31262D01*
X75915Y-30962D02*
X75915Y-31075D01*
X75915Y-31018D02*
X75718Y-31018D01*
X75747Y-31037D01*
X75765Y-31056D01*
X75775Y-31075D01*
X75784Y-30793D02*
X75915Y-30793D01*
X75709Y-30840D02*
X75850Y-30887D01*
X75850Y-30765D01*
X75812Y-32220D02*
X75822Y-32192D01*
X75831Y-32183D01*
X75850Y-32173D01*
X75878Y-32173D01*
X75897Y-32183D01*
X75906Y-32192D01*
X75915Y-32211D01*
X75915Y-32286D01*
X75718Y-32286D01*
X75718Y-32220D01*
X75728Y-32201D01*
X75737Y-32192D01*
X75756Y-32183D01*
X75775Y-32183D01*
X75793Y-32192D01*
X75803Y-32201D01*
X75812Y-32220D01*
X75812Y-32286D01*
X75915Y-31986D02*
X75915Y-32098D01*
X75915Y-32042D02*
X75718Y-32042D01*
X75747Y-32061D01*
X75765Y-32080D01*
X75775Y-32098D01*
X75737Y-31911D02*
X75728Y-31901D01*
X75718Y-31883D01*
X75718Y-31836D01*
X75728Y-31817D01*
X75737Y-31808D01*
X75756Y-31798D01*
X75775Y-31798D01*
X75803Y-31808D01*
X75915Y-31920D01*
X75915Y-31798D01*
X75812Y-33165D02*
X75822Y-33137D01*
X75831Y-33128D01*
X75850Y-33118D01*
X75878Y-33118D01*
X75897Y-33128D01*
X75906Y-33137D01*
X75915Y-33156D01*
X75915Y-33231D01*
X75718Y-33231D01*
X75718Y-33165D01*
X75728Y-33146D01*
X75737Y-33137D01*
X75756Y-33128D01*
X75775Y-33128D01*
X75793Y-33137D01*
X75803Y-33146D01*
X75812Y-33165D01*
X75812Y-33231D01*
X75915Y-32931D02*
X75915Y-33043D01*
X75915Y-32987D02*
X75718Y-32987D01*
X75747Y-33006D01*
X75765Y-33024D01*
X75775Y-33043D01*
X75718Y-32809D02*
X75718Y-32790D01*
X75728Y-32771D01*
X75737Y-32762D01*
X75756Y-32753D01*
X75793Y-32743D01*
X75840Y-32743D01*
X75878Y-32753D01*
X75897Y-32762D01*
X75906Y-32771D01*
X75915Y-32790D01*
X75915Y-32809D01*
X75906Y-32828D01*
X75897Y-32837D01*
X75878Y-32846D01*
X75840Y-32856D01*
X75793Y-32856D01*
X75756Y-32846D01*
X75737Y-32837D01*
X75728Y-32828D01*
X75718Y-32809D01*
X75812Y-34095D02*
X75822Y-34067D01*
X75831Y-34057D01*
X75850Y-34048D01*
X75878Y-34048D01*
X75897Y-34057D01*
X75906Y-34067D01*
X75915Y-34086D01*
X75915Y-34161D01*
X75718Y-34161D01*
X75718Y-34095D01*
X75728Y-34076D01*
X75737Y-34067D01*
X75756Y-34057D01*
X75775Y-34057D01*
X75793Y-34067D01*
X75803Y-34076D01*
X75812Y-34095D01*
X75812Y-34161D01*
X75803Y-33936D02*
X75793Y-33954D01*
X75784Y-33964D01*
X75765Y-33973D01*
X75756Y-33973D01*
X75737Y-33964D01*
X75728Y-33954D01*
X75718Y-33936D01*
X75718Y-33898D01*
X75728Y-33879D01*
X75737Y-33870D01*
X75756Y-33861D01*
X75765Y-33861D01*
X75784Y-33870D01*
X75793Y-33879D01*
X75803Y-33898D01*
X75803Y-33936D01*
X75812Y-33954D01*
X75822Y-33964D01*
X75840Y-33973D01*
X75878Y-33973D01*
X75897Y-33964D01*
X75906Y-33954D01*
X75915Y-33936D01*
X75915Y-33898D01*
X75906Y-33879D01*
X75897Y-33870D01*
X75878Y-33861D01*
X75840Y-33861D01*
X75822Y-33870D01*
X75812Y-33879D01*
X75803Y-33898D01*
X75812Y-35119D02*
X75822Y-35090D01*
X75831Y-35081D01*
X75850Y-35072D01*
X75878Y-35072D01*
X75897Y-35081D01*
X75906Y-35090D01*
X75915Y-35109D01*
X75915Y-35184D01*
X75718Y-35184D01*
X75718Y-35119D01*
X75728Y-35100D01*
X75737Y-35090D01*
X75756Y-35081D01*
X75775Y-35081D01*
X75793Y-35090D01*
X75803Y-35100D01*
X75812Y-35119D01*
X75812Y-35184D01*
X75718Y-34903D02*
X75718Y-34940D01*
X75728Y-34959D01*
X75737Y-34969D01*
X75765Y-34987D01*
X75803Y-34997D01*
X75878Y-34997D01*
X75897Y-34987D01*
X75906Y-34978D01*
X75915Y-34959D01*
X75915Y-34922D01*
X75906Y-34903D01*
X75897Y-34894D01*
X75878Y-34884D01*
X75831Y-34884D01*
X75812Y-34894D01*
X75803Y-34903D01*
X75793Y-34922D01*
X75793Y-34959D01*
X75803Y-34978D01*
X75812Y-34987D01*
X75831Y-34997D01*
X75812Y-36063D02*
X75822Y-36035D01*
X75831Y-36026D01*
X75850Y-36017D01*
X75878Y-36017D01*
X75897Y-36026D01*
X75906Y-36035D01*
X75915Y-36054D01*
X75915Y-36129D01*
X75718Y-36129D01*
X75718Y-36063D01*
X75728Y-36045D01*
X75737Y-36035D01*
X75756Y-36026D01*
X75775Y-36026D01*
X75793Y-36035D01*
X75803Y-36045D01*
X75812Y-36063D01*
X75812Y-36129D01*
X75784Y-35848D02*
X75915Y-35848D01*
X75709Y-35895D02*
X75850Y-35942D01*
X75850Y-35820D01*
X75812Y-37087D02*
X75822Y-37059D01*
X75831Y-37050D01*
X75850Y-37040D01*
X75878Y-37040D01*
X75897Y-37050D01*
X75906Y-37059D01*
X75915Y-37078D01*
X75915Y-37153D01*
X75718Y-37153D01*
X75718Y-37087D01*
X75728Y-37068D01*
X75737Y-37059D01*
X75756Y-37050D01*
X75775Y-37050D01*
X75793Y-37059D01*
X75803Y-37068D01*
X75812Y-37087D01*
X75812Y-37153D01*
X75737Y-36965D02*
X75728Y-36956D01*
X75718Y-36937D01*
X75718Y-36890D01*
X75728Y-36871D01*
X75737Y-36862D01*
X75756Y-36853D01*
X75775Y-36853D01*
X75803Y-36862D01*
X75915Y-36975D01*
X75915Y-36853D01*
X75812Y-38111D02*
X75822Y-38083D01*
X75831Y-38073D01*
X75850Y-38064D01*
X75878Y-38064D01*
X75897Y-38073D01*
X75906Y-38083D01*
X75915Y-38101D01*
X75915Y-38176D01*
X75718Y-38176D01*
X75718Y-38111D01*
X75728Y-38092D01*
X75737Y-38083D01*
X75756Y-38073D01*
X75775Y-38073D01*
X75793Y-38083D01*
X75803Y-38092D01*
X75812Y-38111D01*
X75812Y-38176D01*
X75718Y-37942D02*
X75718Y-37923D01*
X75728Y-37904D01*
X75737Y-37895D01*
X75756Y-37886D01*
X75793Y-37876D01*
X75840Y-37876D01*
X75878Y-37886D01*
X75897Y-37895D01*
X75906Y-37904D01*
X75915Y-37923D01*
X75915Y-37942D01*
X75906Y-37961D01*
X75897Y-37970D01*
X75878Y-37979D01*
X75840Y-37989D01*
X75793Y-37989D01*
X75756Y-37979D01*
X75737Y-37970D01*
X75728Y-37961D01*
X75718Y-37942D01*
X75915Y-39364D02*
X75718Y-39364D01*
X75859Y-39298D01*
X75718Y-39233D01*
X75915Y-39233D01*
X75915Y-39139D02*
X75718Y-39139D01*
X75906Y-39055D02*
X75915Y-39026D01*
X75915Y-38980D01*
X75906Y-38961D01*
X75897Y-38952D01*
X75878Y-38942D01*
X75859Y-38942D01*
X75840Y-38952D01*
X75831Y-38961D01*
X75822Y-38980D01*
X75812Y-39017D01*
X75803Y-39036D01*
X75793Y-39045D01*
X75775Y-39055D01*
X75756Y-39055D01*
X75737Y-39045D01*
X75728Y-39036D01*
X75718Y-39017D01*
X75718Y-38970D01*
X75728Y-38942D01*
X75718Y-38820D02*
X75718Y-38783D01*
X75728Y-38764D01*
X75747Y-38745D01*
X75784Y-38736D01*
X75850Y-38736D01*
X75887Y-38745D01*
X75906Y-38764D01*
X75915Y-38783D01*
X75915Y-38820D01*
X75906Y-38839D01*
X75887Y-38858D01*
X75850Y-38867D01*
X75784Y-38867D01*
X75747Y-38858D01*
X75728Y-38839D01*
X75718Y-38820D01*
X75906Y-40149D02*
X75915Y-40121D01*
X75915Y-40074D01*
X75906Y-40056D01*
X75897Y-40046D01*
X75878Y-40037D01*
X75859Y-40037D01*
X75840Y-40046D01*
X75831Y-40056D01*
X75822Y-40074D01*
X75812Y-40112D01*
X75803Y-40131D01*
X75793Y-40140D01*
X75775Y-40149D01*
X75756Y-40149D01*
X75737Y-40140D01*
X75728Y-40131D01*
X75718Y-40112D01*
X75718Y-40065D01*
X75728Y-40037D01*
X75906Y-39962D02*
X75915Y-39934D01*
X75915Y-39887D01*
X75906Y-39868D01*
X75897Y-39859D01*
X75878Y-39850D01*
X75859Y-39850D01*
X75840Y-39859D01*
X75831Y-39868D01*
X75822Y-39887D01*
X75812Y-39925D01*
X75803Y-39943D01*
X75793Y-39953D01*
X75775Y-39962D01*
X75756Y-39962D01*
X75737Y-39953D01*
X75728Y-39943D01*
X75718Y-39925D01*
X75718Y-39878D01*
X75728Y-39850D01*
X73229Y-40253D02*
X73238Y-40224D01*
X73238Y-40178D01*
X73229Y-40159D01*
X73219Y-40149D01*
X73201Y-40140D01*
X73182Y-40140D01*
X73163Y-40149D01*
X73154Y-40159D01*
X73144Y-40178D01*
X73135Y-40215D01*
X73126Y-40234D01*
X73116Y-40243D01*
X73098Y-40253D01*
X73079Y-40253D01*
X73060Y-40243D01*
X73051Y-40234D01*
X73041Y-40215D01*
X73041Y-40168D01*
X73051Y-40140D01*
X73219Y-39943D02*
X73229Y-39953D01*
X73238Y-39981D01*
X73238Y-40000D01*
X73229Y-40028D01*
X73210Y-40046D01*
X73191Y-40056D01*
X73154Y-40065D01*
X73126Y-40065D01*
X73088Y-40056D01*
X73069Y-40046D01*
X73051Y-40028D01*
X73041Y-40000D01*
X73041Y-39981D01*
X73051Y-39953D01*
X73060Y-39943D01*
X73238Y-39859D02*
X73041Y-39859D01*
X73238Y-39746D02*
X73126Y-39831D01*
X73041Y-39746D02*
X73154Y-39859D01*
X73238Y-39364D02*
X73041Y-39364D01*
X73182Y-39298D01*
X73041Y-39233D01*
X73238Y-39233D01*
X73041Y-39101D02*
X73041Y-39064D01*
X73051Y-39045D01*
X73069Y-39026D01*
X73107Y-39017D01*
X73173Y-39017D01*
X73210Y-39026D01*
X73229Y-39045D01*
X73238Y-39064D01*
X73238Y-39101D01*
X73229Y-39120D01*
X73210Y-39139D01*
X73173Y-39148D01*
X73107Y-39148D01*
X73069Y-39139D01*
X73051Y-39120D01*
X73041Y-39101D01*
X73229Y-38942D02*
X73238Y-38914D01*
X73238Y-38867D01*
X73229Y-38848D01*
X73219Y-38839D01*
X73201Y-38830D01*
X73182Y-38830D01*
X73163Y-38839D01*
X73154Y-38848D01*
X73144Y-38867D01*
X73135Y-38905D01*
X73126Y-38923D01*
X73116Y-38933D01*
X73098Y-38942D01*
X73079Y-38942D01*
X73060Y-38933D01*
X73051Y-38923D01*
X73041Y-38905D01*
X73041Y-38858D01*
X73051Y-38830D01*
X73238Y-38745D02*
X73041Y-38745D01*
X73135Y-38111D02*
X73144Y-38083D01*
X73154Y-38073D01*
X73173Y-38064D01*
X73201Y-38064D01*
X73219Y-38073D01*
X73229Y-38083D01*
X73238Y-38101D01*
X73238Y-38176D01*
X73041Y-38176D01*
X73041Y-38111D01*
X73051Y-38092D01*
X73060Y-38083D01*
X73079Y-38073D01*
X73098Y-38073D01*
X73116Y-38083D01*
X73126Y-38092D01*
X73135Y-38111D01*
X73135Y-38176D01*
X73238Y-37876D02*
X73238Y-37989D01*
X73238Y-37933D02*
X73041Y-37933D01*
X73069Y-37951D01*
X73088Y-37970D01*
X73098Y-37989D01*
X73135Y-37087D02*
X73144Y-37059D01*
X73154Y-37050D01*
X73173Y-37040D01*
X73201Y-37040D01*
X73219Y-37050D01*
X73229Y-37059D01*
X73238Y-37078D01*
X73238Y-37153D01*
X73041Y-37153D01*
X73041Y-37087D01*
X73051Y-37068D01*
X73060Y-37059D01*
X73079Y-37050D01*
X73098Y-37050D01*
X73116Y-37059D01*
X73126Y-37068D01*
X73135Y-37087D01*
X73135Y-37153D01*
X73041Y-36975D02*
X73041Y-36853D01*
X73116Y-36918D01*
X73116Y-36890D01*
X73126Y-36871D01*
X73135Y-36862D01*
X73154Y-36853D01*
X73201Y-36853D01*
X73219Y-36862D01*
X73229Y-36871D01*
X73238Y-36890D01*
X73238Y-36946D01*
X73229Y-36965D01*
X73219Y-36975D01*
X73135Y-36063D02*
X73144Y-36035D01*
X73154Y-36026D01*
X73173Y-36017D01*
X73201Y-36017D01*
X73219Y-36026D01*
X73229Y-36035D01*
X73238Y-36054D01*
X73238Y-36129D01*
X73041Y-36129D01*
X73041Y-36063D01*
X73051Y-36045D01*
X73060Y-36035D01*
X73079Y-36026D01*
X73098Y-36026D01*
X73116Y-36035D01*
X73126Y-36045D01*
X73135Y-36063D01*
X73135Y-36129D01*
X73041Y-35838D02*
X73041Y-35932D01*
X73135Y-35942D01*
X73126Y-35932D01*
X73116Y-35913D01*
X73116Y-35867D01*
X73126Y-35848D01*
X73135Y-35838D01*
X73154Y-35829D01*
X73201Y-35829D01*
X73219Y-35838D01*
X73229Y-35848D01*
X73238Y-35867D01*
X73238Y-35913D01*
X73229Y-35932D01*
X73219Y-35942D01*
X73135Y-35119D02*
X73144Y-35090D01*
X73154Y-35081D01*
X73173Y-35072D01*
X73201Y-35072D01*
X73219Y-35081D01*
X73229Y-35090D01*
X73238Y-35109D01*
X73238Y-35184D01*
X73041Y-35184D01*
X73041Y-35119D01*
X73051Y-35100D01*
X73060Y-35090D01*
X73079Y-35081D01*
X73098Y-35081D01*
X73116Y-35090D01*
X73126Y-35100D01*
X73135Y-35119D01*
X73135Y-35184D01*
X73041Y-35006D02*
X73041Y-34875D01*
X73238Y-34959D01*
X73135Y-34095D02*
X73144Y-34067D01*
X73154Y-34057D01*
X73173Y-34048D01*
X73201Y-34048D01*
X73219Y-34057D01*
X73229Y-34067D01*
X73238Y-34086D01*
X73238Y-34161D01*
X73041Y-34161D01*
X73041Y-34095D01*
X73051Y-34076D01*
X73060Y-34067D01*
X73079Y-34057D01*
X73098Y-34057D01*
X73116Y-34067D01*
X73126Y-34076D01*
X73135Y-34095D01*
X73135Y-34161D01*
X73238Y-33954D02*
X73238Y-33917D01*
X73229Y-33898D01*
X73219Y-33889D01*
X73191Y-33870D01*
X73154Y-33861D01*
X73079Y-33861D01*
X73060Y-33870D01*
X73051Y-33879D01*
X73041Y-33898D01*
X73041Y-33936D01*
X73051Y-33954D01*
X73060Y-33964D01*
X73079Y-33973D01*
X73126Y-33973D01*
X73144Y-33964D01*
X73154Y-33954D01*
X73163Y-33936D01*
X73163Y-33898D01*
X73154Y-33879D01*
X73144Y-33870D01*
X73126Y-33861D01*
X73135Y-33165D02*
X73144Y-33137D01*
X73154Y-33128D01*
X73173Y-33118D01*
X73201Y-33118D01*
X73219Y-33128D01*
X73229Y-33137D01*
X73238Y-33156D01*
X73238Y-33231D01*
X73041Y-33231D01*
X73041Y-33165D01*
X73051Y-33146D01*
X73060Y-33137D01*
X73079Y-33128D01*
X73098Y-33128D01*
X73116Y-33137D01*
X73126Y-33146D01*
X73135Y-33165D01*
X73135Y-33231D01*
X73238Y-32931D02*
X73238Y-33043D01*
X73238Y-32987D02*
X73041Y-32987D01*
X73069Y-33006D01*
X73088Y-33024D01*
X73098Y-33043D01*
X73238Y-32743D02*
X73238Y-32856D01*
X73238Y-32799D02*
X73041Y-32799D01*
X73069Y-32818D01*
X73088Y-32837D01*
X73098Y-32856D01*
X73135Y-32141D02*
X73144Y-32113D01*
X73154Y-32104D01*
X73173Y-32095D01*
X73201Y-32095D01*
X73219Y-32104D01*
X73229Y-32113D01*
X73238Y-32132D01*
X73238Y-32207D01*
X73041Y-32207D01*
X73041Y-32141D01*
X73051Y-32123D01*
X73060Y-32113D01*
X73079Y-32104D01*
X73098Y-32104D01*
X73116Y-32113D01*
X73126Y-32123D01*
X73135Y-32141D01*
X73135Y-32207D01*
X73238Y-31907D02*
X73238Y-32020D01*
X73238Y-31963D02*
X73041Y-31963D01*
X73069Y-31982D01*
X73088Y-32001D01*
X73098Y-32020D01*
X73041Y-31841D02*
X73041Y-31720D01*
X73116Y-31785D01*
X73116Y-31757D01*
X73126Y-31738D01*
X73135Y-31729D01*
X73154Y-31720D01*
X73201Y-31720D01*
X73219Y-31729D01*
X73229Y-31738D01*
X73238Y-31757D01*
X73238Y-31813D01*
X73229Y-31832D01*
X73219Y-31841D01*
X73135Y-31197D02*
X73144Y-31168D01*
X73154Y-31159D01*
X73173Y-31150D01*
X73201Y-31150D01*
X73219Y-31159D01*
X73229Y-31168D01*
X73238Y-31187D01*
X73238Y-31262D01*
X73041Y-31262D01*
X73041Y-31197D01*
X73051Y-31178D01*
X73060Y-31168D01*
X73079Y-31159D01*
X73098Y-31159D01*
X73116Y-31168D01*
X73126Y-31178D01*
X73135Y-31197D01*
X73135Y-31262D01*
X73238Y-30962D02*
X73238Y-31075D01*
X73238Y-31018D02*
X73041Y-31018D01*
X73069Y-31037D01*
X73088Y-31056D01*
X73098Y-31075D01*
X73041Y-30784D02*
X73041Y-30878D01*
X73135Y-30887D01*
X73126Y-30878D01*
X73116Y-30859D01*
X73116Y-30812D01*
X73126Y-30793D01*
X73135Y-30784D01*
X73154Y-30775D01*
X73201Y-30775D01*
X73219Y-30784D01*
X73229Y-30793D01*
X73238Y-30812D01*
X73238Y-30859D01*
X73229Y-30878D01*
X73219Y-30887D01*
X75840Y-42440D02*
X75840Y-42290D01*
X75915Y-42365D02*
X75765Y-42365D01*
X75718Y-42215D02*
X75718Y-42094D01*
X75793Y-42159D01*
X75793Y-42131D01*
X75803Y-42112D01*
X75812Y-42103D01*
X75831Y-42094D01*
X75878Y-42094D01*
X75897Y-42103D01*
X75906Y-42112D01*
X75915Y-42131D01*
X75915Y-42187D01*
X75906Y-42206D01*
X75897Y-42215D01*
X75897Y-42009D02*
X75906Y-42000D01*
X75915Y-42009D01*
X75906Y-42019D01*
X75897Y-42009D01*
X75915Y-42009D01*
X75718Y-41934D02*
X75718Y-41812D01*
X75793Y-41878D01*
X75793Y-41850D01*
X75803Y-41831D01*
X75812Y-41822D01*
X75831Y-41812D01*
X75878Y-41812D01*
X75897Y-41822D01*
X75906Y-41831D01*
X75915Y-41850D01*
X75915Y-41906D01*
X75906Y-41925D01*
X75897Y-41934D01*
X75718Y-41756D02*
X75915Y-41691D01*
X75718Y-41625D01*
X73163Y-42300D02*
X73163Y-42150D01*
X73238Y-42225D02*
X73088Y-42225D01*
X73041Y-41962D02*
X73041Y-42056D01*
X73135Y-42065D01*
X73126Y-42056D01*
X73116Y-42037D01*
X73116Y-41991D01*
X73126Y-41972D01*
X73135Y-41962D01*
X73154Y-41953D01*
X73201Y-41953D01*
X73219Y-41962D01*
X73229Y-41972D01*
X73238Y-41991D01*
X73238Y-42037D01*
X73229Y-42056D01*
X73219Y-42065D01*
X73041Y-41897D02*
X73238Y-41831D01*
X73041Y-41766D01*
X75728Y-41173D02*
X75718Y-41192D01*
X75718Y-41220D01*
X75728Y-41248D01*
X75747Y-41267D01*
X75765Y-41276D01*
X75803Y-41286D01*
X75831Y-41286D01*
X75868Y-41276D01*
X75887Y-41267D01*
X75906Y-41248D01*
X75915Y-41220D01*
X75915Y-41201D01*
X75906Y-41173D01*
X75897Y-41164D01*
X75831Y-41164D01*
X75831Y-41201D01*
X75915Y-41079D02*
X75718Y-41079D01*
X75915Y-40967D01*
X75718Y-40967D01*
X75915Y-40873D02*
X75718Y-40873D01*
X75718Y-40826D01*
X75728Y-40798D01*
X75747Y-40779D01*
X75765Y-40770D01*
X75803Y-40761D01*
X75831Y-40761D01*
X75868Y-40770D01*
X75887Y-40779D01*
X75906Y-40798D01*
X75915Y-40826D01*
X75915Y-40873D01*
X73051Y-41173D02*
X73041Y-41192D01*
X73041Y-41220D01*
X73051Y-41248D01*
X73069Y-41267D01*
X73088Y-41276D01*
X73126Y-41286D01*
X73154Y-41286D01*
X73191Y-41276D01*
X73210Y-41267D01*
X73229Y-41248D01*
X73238Y-41220D01*
X73238Y-41201D01*
X73229Y-41173D01*
X73219Y-41164D01*
X73154Y-41164D01*
X73154Y-41201D01*
X73238Y-41079D02*
X73041Y-41079D01*
X73238Y-40967D01*
X73041Y-40967D01*
X73238Y-40873D02*
X73041Y-40873D01*
X73041Y-40826D01*
X73051Y-40798D01*
X73069Y-40779D01*
X73088Y-40770D01*
X73126Y-40761D01*
X73154Y-40761D01*
X73191Y-40770D01*
X73210Y-40779D01*
X73229Y-40798D01*
X73238Y-40826D01*
X73238Y-40873D01*
G54D13*
X47230Y-15109D02*
X47567Y-15109D01*
X47398Y-15700D02*
X47398Y-15109D01*
X47989Y-15672D02*
X47933Y-15700D01*
X47820Y-15700D01*
X47764Y-15672D01*
X47736Y-15615D01*
X47736Y-15390D01*
X47764Y-15334D01*
X47820Y-15306D01*
X47933Y-15306D01*
X47989Y-15334D01*
X48017Y-15390D01*
X48017Y-15447D01*
X47736Y-15503D01*
X48354Y-15700D02*
X48298Y-15672D01*
X48270Y-15615D01*
X48270Y-15109D01*
X48804Y-15672D02*
X48748Y-15700D01*
X48636Y-15700D01*
X48579Y-15672D01*
X48551Y-15615D01*
X48551Y-15390D01*
X48579Y-15334D01*
X48636Y-15306D01*
X48748Y-15306D01*
X48804Y-15334D01*
X48832Y-15390D01*
X48832Y-15447D01*
X48551Y-15503D01*
X49086Y-15306D02*
X49086Y-15897D01*
X49086Y-15334D02*
X49142Y-15306D01*
X49254Y-15306D01*
X49311Y-15334D01*
X49339Y-15362D01*
X49367Y-15419D01*
X49367Y-15587D01*
X49339Y-15643D01*
X49311Y-15672D01*
X49254Y-15700D01*
X49142Y-15700D01*
X49086Y-15672D01*
X49620Y-15700D02*
X49620Y-15306D01*
X49620Y-15419D02*
X49648Y-15362D01*
X49676Y-15334D01*
X49732Y-15306D01*
X49789Y-15306D01*
X50210Y-15672D02*
X50154Y-15700D01*
X50042Y-15700D01*
X49985Y-15672D01*
X49957Y-15615D01*
X49957Y-15390D01*
X49985Y-15334D01*
X50042Y-15306D01*
X50154Y-15306D01*
X50210Y-15334D01*
X50239Y-15390D01*
X50239Y-15447D01*
X49957Y-15503D01*
X50464Y-15672D02*
X50520Y-15700D01*
X50632Y-15700D01*
X50688Y-15672D01*
X50717Y-15615D01*
X50717Y-15587D01*
X50688Y-15531D01*
X50632Y-15503D01*
X50548Y-15503D01*
X50492Y-15475D01*
X50464Y-15419D01*
X50464Y-15390D01*
X50492Y-15334D01*
X50548Y-15306D01*
X50632Y-15306D01*
X50688Y-15334D01*
X51195Y-15672D02*
X51138Y-15700D01*
X51026Y-15700D01*
X50970Y-15672D01*
X50942Y-15615D01*
X50942Y-15390D01*
X50970Y-15334D01*
X51026Y-15306D01*
X51138Y-15306D01*
X51195Y-15334D01*
X51223Y-15390D01*
X51223Y-15447D01*
X50942Y-15503D01*
X51476Y-15306D02*
X51476Y-15700D01*
X51476Y-15362D02*
X51504Y-15334D01*
X51560Y-15306D01*
X51645Y-15306D01*
X51701Y-15334D01*
X51729Y-15390D01*
X51729Y-15700D01*
X52263Y-15672D02*
X52207Y-15700D01*
X52095Y-15700D01*
X52038Y-15672D01*
X52010Y-15643D01*
X51982Y-15587D01*
X51982Y-15419D01*
X52010Y-15362D01*
X52038Y-15334D01*
X52095Y-15306D01*
X52207Y-15306D01*
X52263Y-15334D01*
X52741Y-15672D02*
X52685Y-15700D01*
X52573Y-15700D01*
X52516Y-15672D01*
X52488Y-15615D01*
X52488Y-15390D01*
X52516Y-15334D01*
X52573Y-15306D01*
X52685Y-15306D01*
X52741Y-15334D01*
X52769Y-15390D01*
X52769Y-15447D01*
X52488Y-15503D01*
X53810Y-15700D02*
X53613Y-15419D01*
X53473Y-15700D02*
X53473Y-15109D01*
X53697Y-15109D01*
X53754Y-15137D01*
X53782Y-15165D01*
X53810Y-15222D01*
X53810Y-15306D01*
X53782Y-15362D01*
X53754Y-15390D01*
X53697Y-15419D01*
X53473Y-15419D01*
X54147Y-15700D02*
X54091Y-15672D01*
X54063Y-15643D01*
X54035Y-15587D01*
X54035Y-15419D01*
X54063Y-15362D01*
X54091Y-15334D01*
X54147Y-15306D01*
X54232Y-15306D01*
X54288Y-15334D01*
X54316Y-15362D01*
X54344Y-15419D01*
X54344Y-15587D01*
X54316Y-15643D01*
X54288Y-15672D01*
X54232Y-15700D01*
X54147Y-15700D01*
X54597Y-15700D02*
X54597Y-15109D01*
X54597Y-15334D02*
X54654Y-15306D01*
X54766Y-15306D01*
X54822Y-15334D01*
X54850Y-15362D01*
X54879Y-15419D01*
X54879Y-15587D01*
X54850Y-15643D01*
X54822Y-15672D01*
X54766Y-15700D01*
X54654Y-15700D01*
X54597Y-15672D01*
X55216Y-15700D02*
X55160Y-15672D01*
X55132Y-15643D01*
X55104Y-15587D01*
X55104Y-15419D01*
X55132Y-15362D01*
X55160Y-15334D01*
X55216Y-15306D01*
X55300Y-15306D01*
X55357Y-15334D01*
X55385Y-15362D01*
X55413Y-15419D01*
X55413Y-15587D01*
X55385Y-15643D01*
X55357Y-15672D01*
X55300Y-15700D01*
X55216Y-15700D01*
X55582Y-15306D02*
X55807Y-15306D01*
X55666Y-15109D02*
X55666Y-15615D01*
X55694Y-15672D01*
X55750Y-15700D01*
X55807Y-15700D01*
X56425Y-15165D02*
X56453Y-15137D01*
X56510Y-15109D01*
X56650Y-15109D01*
X56706Y-15137D01*
X56735Y-15165D01*
X56763Y-15222D01*
X56763Y-15278D01*
X56735Y-15362D01*
X56397Y-15700D01*
X56763Y-15700D01*
X57128Y-15109D02*
X57185Y-15109D01*
X57241Y-15137D01*
X57269Y-15165D01*
X57297Y-15222D01*
X57325Y-15334D01*
X57325Y-15475D01*
X57297Y-15587D01*
X57269Y-15643D01*
X57241Y-15672D01*
X57185Y-15700D01*
X57128Y-15700D01*
X57072Y-15672D01*
X57044Y-15643D01*
X57016Y-15587D01*
X56988Y-15475D01*
X56988Y-15334D01*
X57016Y-15222D01*
X57044Y-15165D01*
X57072Y-15137D01*
X57128Y-15109D01*
X57888Y-15700D02*
X57550Y-15700D01*
X57719Y-15700D02*
X57719Y-15109D01*
X57663Y-15194D01*
X57606Y-15250D01*
X57550Y-15278D01*
X58084Y-15109D02*
X58450Y-15109D01*
X58253Y-15334D01*
X58338Y-15334D01*
X58394Y-15362D01*
X58422Y-15390D01*
X58450Y-15447D01*
X58450Y-15587D01*
X58422Y-15643D01*
X58394Y-15672D01*
X58338Y-15700D01*
X58169Y-15700D01*
X58113Y-15672D01*
X58084Y-15643D01*
X58703Y-15475D02*
X59153Y-15475D01*
X59547Y-15109D02*
X59603Y-15109D01*
X59659Y-15137D01*
X59687Y-15165D01*
X59715Y-15222D01*
X59744Y-15334D01*
X59744Y-15475D01*
X59715Y-15587D01*
X59687Y-15643D01*
X59659Y-15672D01*
X59603Y-15700D01*
X59547Y-15700D01*
X59491Y-15672D01*
X59462Y-15643D01*
X59434Y-15587D01*
X59406Y-15475D01*
X59406Y-15334D01*
X59434Y-15222D01*
X59462Y-15165D01*
X59491Y-15137D01*
X59547Y-15109D01*
X60025Y-15700D02*
X60137Y-15700D01*
X60194Y-15672D01*
X60222Y-15643D01*
X60278Y-15559D01*
X60306Y-15447D01*
X60306Y-15222D01*
X60278Y-15165D01*
X60250Y-15137D01*
X60194Y-15109D01*
X60081Y-15109D01*
X60025Y-15137D01*
X59997Y-15165D01*
X59969Y-15222D01*
X59969Y-15362D01*
X59997Y-15419D01*
X60025Y-15447D01*
X60081Y-15475D01*
X60194Y-15475D01*
X60250Y-15447D01*
X60278Y-15419D01*
X60306Y-15362D01*
X60559Y-15475D02*
X61009Y-15475D01*
X61403Y-15109D02*
X61459Y-15109D01*
X61515Y-15137D01*
X61543Y-15165D01*
X61571Y-15222D01*
X61600Y-15334D01*
X61600Y-15475D01*
X61571Y-15587D01*
X61543Y-15643D01*
X61515Y-15672D01*
X61459Y-15700D01*
X61403Y-15700D01*
X61347Y-15672D01*
X61318Y-15643D01*
X61290Y-15587D01*
X61262Y-15475D01*
X61262Y-15334D01*
X61290Y-15222D01*
X61318Y-15165D01*
X61347Y-15137D01*
X61403Y-15109D01*
X61796Y-15109D02*
X62162Y-15109D01*
X61965Y-15334D01*
X62050Y-15334D01*
X62106Y-15362D01*
X62134Y-15390D01*
X62162Y-15447D01*
X62162Y-15587D01*
X62134Y-15643D01*
X62106Y-15672D01*
X62050Y-15700D01*
X61881Y-15700D01*
X61825Y-15672D01*
X61796Y-15643D01*
G54D12*
X46212Y-16949D02*
X46456Y-16949D01*
X46325Y-17099D01*
X46381Y-17099D01*
X46419Y-17118D01*
X46437Y-17137D01*
X46456Y-17174D01*
X46456Y-17268D01*
X46437Y-17305D01*
X46419Y-17324D01*
X46381Y-17343D01*
X46269Y-17343D01*
X46231Y-17324D01*
X46212Y-17305D01*
X46606Y-16987D02*
X46625Y-16968D01*
X46662Y-16949D01*
X46756Y-16949D01*
X46794Y-16968D01*
X46812Y-16987D01*
X46831Y-17024D01*
X46831Y-17062D01*
X46812Y-17118D01*
X46587Y-17343D01*
X46831Y-17343D01*
X46944Y-16949D02*
X47075Y-17343D01*
X47206Y-16949D01*
X47637Y-17343D02*
X47637Y-16949D01*
X47731Y-16949D01*
X47787Y-16968D01*
X47825Y-17005D01*
X47844Y-17043D01*
X47862Y-17118D01*
X47862Y-17174D01*
X47844Y-17249D01*
X47825Y-17287D01*
X47787Y-17324D01*
X47731Y-17343D01*
X47637Y-17343D01*
X48256Y-17305D02*
X48237Y-17324D01*
X48181Y-17343D01*
X48143Y-17343D01*
X48087Y-17324D01*
X48050Y-17287D01*
X48031Y-17249D01*
X48012Y-17174D01*
X48012Y-17118D01*
X48031Y-17043D01*
X48050Y-17005D01*
X48087Y-16968D01*
X48143Y-16949D01*
X48181Y-16949D01*
X48237Y-16968D01*
X48256Y-16987D01*
X75341Y-21662D02*
X75341Y-21475D01*
X75453Y-21700D02*
X75059Y-21569D01*
X75453Y-21437D01*
X75453Y-21306D02*
X75059Y-21306D01*
X75453Y-21081D01*
X75059Y-21081D01*
X75453Y-20894D02*
X75059Y-20894D01*
X75059Y-20800D01*
X75078Y-20744D01*
X75116Y-20706D01*
X75153Y-20688D01*
X75228Y-20669D01*
X75284Y-20669D01*
X75359Y-20688D01*
X75397Y-20706D01*
X75434Y-20744D01*
X75453Y-20800D01*
X75453Y-20894D01*
X75453Y-20275D02*
X75266Y-20406D01*
X75453Y-20500D02*
X75059Y-20500D01*
X75059Y-20350D01*
X75078Y-20313D01*
X75097Y-20294D01*
X75134Y-20275D01*
X75191Y-20275D01*
X75228Y-20294D01*
X75247Y-20313D01*
X75266Y-20350D01*
X75266Y-20500D01*
X75059Y-20031D02*
X75059Y-19956D01*
X75078Y-19919D01*
X75116Y-19881D01*
X75191Y-19863D01*
X75322Y-19863D01*
X75397Y-19881D01*
X75434Y-19919D01*
X75453Y-19956D01*
X75453Y-20031D01*
X75434Y-20069D01*
X75397Y-20106D01*
X75322Y-20125D01*
X75191Y-20125D01*
X75116Y-20106D01*
X75078Y-20069D01*
X75059Y-20031D01*
X75453Y-19694D02*
X75059Y-19694D01*
X75453Y-19506D02*
X75059Y-19506D01*
X75059Y-19413D01*
X75078Y-19356D01*
X75116Y-19319D01*
X75153Y-19300D01*
X75228Y-19281D01*
X75284Y-19281D01*
X75359Y-19300D01*
X75397Y-19319D01*
X75434Y-19356D01*
X75453Y-19413D01*
X75453Y-19506D01*
X68488Y-45374D02*
X68488Y-44981D01*
X68582Y-44981D01*
X68638Y-45000D01*
X68676Y-45037D01*
X68695Y-45074D01*
X68713Y-45149D01*
X68713Y-45206D01*
X68695Y-45281D01*
X68676Y-45318D01*
X68638Y-45356D01*
X68582Y-45374D01*
X68488Y-45374D01*
X68882Y-45168D02*
X69013Y-45168D01*
X69070Y-45374D02*
X68882Y-45374D01*
X68882Y-44981D01*
X69070Y-44981D01*
X69370Y-45168D02*
X69426Y-45187D01*
X69445Y-45206D01*
X69463Y-45243D01*
X69463Y-45299D01*
X69445Y-45337D01*
X69426Y-45356D01*
X69388Y-45374D01*
X69238Y-45374D01*
X69238Y-44981D01*
X69370Y-44981D01*
X69407Y-45000D01*
X69426Y-45018D01*
X69445Y-45056D01*
X69445Y-45093D01*
X69426Y-45131D01*
X69407Y-45149D01*
X69370Y-45168D01*
X69238Y-45168D01*
X69632Y-44981D02*
X69632Y-45299D01*
X69651Y-45337D01*
X69670Y-45356D01*
X69707Y-45374D01*
X69782Y-45374D01*
X69820Y-45356D01*
X69838Y-45337D01*
X69857Y-45299D01*
X69857Y-44981D01*
X70251Y-45000D02*
X70213Y-44981D01*
X70157Y-44981D01*
X70101Y-45000D01*
X70063Y-45037D01*
X70044Y-45074D01*
X70026Y-45149D01*
X70026Y-45206D01*
X70044Y-45281D01*
X70063Y-45318D01*
X70101Y-45356D01*
X70157Y-45374D01*
X70194Y-45374D01*
X70251Y-45356D01*
X70269Y-45337D01*
X70269Y-45206D01*
X70194Y-45206D01*
X63263Y-46713D02*
X63488Y-46713D01*
X63376Y-47107D02*
X63376Y-46713D01*
X63620Y-47107D02*
X63620Y-46713D01*
X63995Y-47107D02*
X63807Y-47107D01*
X63807Y-46713D01*
X64070Y-46713D02*
X64295Y-46713D01*
X64182Y-47107D02*
X64182Y-46713D01*
X64426Y-46957D02*
X64726Y-46957D01*
X64895Y-47088D02*
X64951Y-47107D01*
X65044Y-47107D01*
X65082Y-47088D01*
X65101Y-47069D01*
X65119Y-47032D01*
X65119Y-46994D01*
X65101Y-46957D01*
X65082Y-46938D01*
X65044Y-46919D01*
X64970Y-46901D01*
X64932Y-46882D01*
X64913Y-46863D01*
X64895Y-46826D01*
X64895Y-46788D01*
X64913Y-46751D01*
X64932Y-46732D01*
X64970Y-46713D01*
X65063Y-46713D01*
X65119Y-46732D01*
X65288Y-46901D02*
X65419Y-46901D01*
X65476Y-47107D02*
X65288Y-47107D01*
X65288Y-46713D01*
X65476Y-46713D01*
X65869Y-47107D02*
X65738Y-46919D01*
X65644Y-47107D02*
X65644Y-46713D01*
X65794Y-46713D01*
X65832Y-46732D01*
X65851Y-46751D01*
X65869Y-46788D01*
X65869Y-46844D01*
X65851Y-46882D01*
X65832Y-46901D01*
X65794Y-46919D01*
X65644Y-46919D01*
X65982Y-46713D02*
X66113Y-47107D01*
X66244Y-46713D01*
X66451Y-46713D02*
X66526Y-46713D01*
X66563Y-46732D01*
X66601Y-46769D01*
X66619Y-46844D01*
X66619Y-46976D01*
X66601Y-47050D01*
X66563Y-47088D01*
X66526Y-47107D01*
X66451Y-47107D01*
X66413Y-47088D01*
X66376Y-47050D01*
X66357Y-46976D01*
X66357Y-46844D01*
X66376Y-46769D01*
X66413Y-46732D01*
X66451Y-46713D01*
G54D13*
X43751Y-40188D02*
X43751Y-39597D01*
X43948Y-40019D01*
X44145Y-39597D01*
X44145Y-40188D01*
X44538Y-39597D02*
X44651Y-39597D01*
X44707Y-39625D01*
X44763Y-39682D01*
X44791Y-39794D01*
X44791Y-39991D01*
X44763Y-40104D01*
X44707Y-40160D01*
X44651Y-40188D01*
X44538Y-40188D01*
X44482Y-40160D01*
X44426Y-40104D01*
X44398Y-39991D01*
X44398Y-39794D01*
X44426Y-39682D01*
X44482Y-39625D01*
X44538Y-39597D01*
X44960Y-39597D02*
X45298Y-39597D01*
X45129Y-40188D02*
X45129Y-39597D01*
X45607Y-39597D02*
X45719Y-39597D01*
X45776Y-39625D01*
X45832Y-39682D01*
X45860Y-39794D01*
X45860Y-39991D01*
X45832Y-40104D01*
X45776Y-40160D01*
X45719Y-40188D01*
X45607Y-40188D01*
X45551Y-40160D01*
X45494Y-40104D01*
X45466Y-39991D01*
X45466Y-39794D01*
X45494Y-39682D01*
X45551Y-39625D01*
X45607Y-39597D01*
X46451Y-40188D02*
X46254Y-39907D01*
X46113Y-40188D02*
X46113Y-39597D01*
X46338Y-39597D01*
X46394Y-39625D01*
X46422Y-39654D01*
X46451Y-39710D01*
X46451Y-39794D01*
X46422Y-39850D01*
X46394Y-39879D01*
X46338Y-39907D01*
X46113Y-39907D01*
X46704Y-39963D02*
X47154Y-39963D01*
X47772Y-40188D02*
X47575Y-39907D01*
X47435Y-40188D02*
X47435Y-39597D01*
X47660Y-39597D01*
X47716Y-39625D01*
X47744Y-39654D01*
X47772Y-39710D01*
X47772Y-39794D01*
X47744Y-39850D01*
X47716Y-39879D01*
X47660Y-39907D01*
X47435Y-39907D01*
X43728Y-32235D02*
X43728Y-31645D01*
X43925Y-32066D01*
X44122Y-31645D01*
X44122Y-32235D01*
X44516Y-31645D02*
X44628Y-31645D01*
X44685Y-31673D01*
X44741Y-31729D01*
X44769Y-31841D01*
X44769Y-32038D01*
X44741Y-32151D01*
X44685Y-32207D01*
X44628Y-32235D01*
X44516Y-32235D01*
X44460Y-32207D01*
X44403Y-32151D01*
X44375Y-32038D01*
X44375Y-31841D01*
X44403Y-31729D01*
X44460Y-31673D01*
X44516Y-31645D01*
X44938Y-31645D02*
X45275Y-31645D01*
X45106Y-32235D02*
X45106Y-31645D01*
X45584Y-31645D02*
X45697Y-31645D01*
X45753Y-31673D01*
X45809Y-31729D01*
X45838Y-31841D01*
X45838Y-32038D01*
X45809Y-32151D01*
X45753Y-32207D01*
X45697Y-32235D01*
X45584Y-32235D01*
X45528Y-32207D01*
X45472Y-32151D01*
X45444Y-32038D01*
X45444Y-31841D01*
X45472Y-31729D01*
X45528Y-31673D01*
X45584Y-31645D01*
X46428Y-32235D02*
X46231Y-31954D01*
X46091Y-32235D02*
X46091Y-31645D01*
X46316Y-31645D01*
X46372Y-31673D01*
X46400Y-31701D01*
X46428Y-31757D01*
X46428Y-31841D01*
X46400Y-31898D01*
X46372Y-31926D01*
X46316Y-31954D01*
X46091Y-31954D01*
X46681Y-32010D02*
X47131Y-32010D01*
X47694Y-32235D02*
X47412Y-32235D01*
X47412Y-31645D01*
X43956Y-23737D02*
X44041Y-23765D01*
X44069Y-23793D01*
X44097Y-23849D01*
X44097Y-23934D01*
X44069Y-23990D01*
X44041Y-24018D01*
X43984Y-24046D01*
X43759Y-24046D01*
X43759Y-23456D01*
X43956Y-23456D01*
X44012Y-23484D01*
X44041Y-23512D01*
X44069Y-23568D01*
X44069Y-23624D01*
X44041Y-23681D01*
X44012Y-23709D01*
X43956Y-23737D01*
X43759Y-23737D01*
X44322Y-23877D02*
X44603Y-23877D01*
X44266Y-24046D02*
X44462Y-23456D01*
X44659Y-24046D01*
X44772Y-23456D02*
X45109Y-23456D01*
X44940Y-24046D02*
X44940Y-23456D01*
X45222Y-23456D02*
X45559Y-23456D01*
X45390Y-24046D02*
X45390Y-23456D01*
X45756Y-23737D02*
X45953Y-23737D01*
X46037Y-24046D02*
X45756Y-24046D01*
X45756Y-23456D01*
X46037Y-23456D01*
X46628Y-24046D02*
X46431Y-23765D01*
X46290Y-24046D02*
X46290Y-23456D01*
X46515Y-23456D01*
X46571Y-23484D01*
X46600Y-23512D01*
X46628Y-23568D01*
X46628Y-23652D01*
X46600Y-23709D01*
X46571Y-23737D01*
X46515Y-23765D01*
X46290Y-23765D01*
X46993Y-23765D02*
X46993Y-24046D01*
X46796Y-23456D02*
X46993Y-23765D01*
X47190Y-23456D01*
X44066Y-18219D02*
X44066Y-17629D01*
X44291Y-17629D01*
X44347Y-17657D01*
X44375Y-17685D01*
X44403Y-17741D01*
X44403Y-17826D01*
X44375Y-17882D01*
X44347Y-17910D01*
X44291Y-17938D01*
X44066Y-17938D01*
X44600Y-17629D02*
X44741Y-18219D01*
X44853Y-17798D01*
X44966Y-18219D01*
X45106Y-17629D01*
X45669Y-18219D02*
X45472Y-17938D01*
X45331Y-18219D02*
X45331Y-17629D01*
X45556Y-17629D01*
X45613Y-17657D01*
X45641Y-17685D01*
X45669Y-17741D01*
X45669Y-17826D01*
X45641Y-17882D01*
X45613Y-17910D01*
X45556Y-17938D01*
X45331Y-17938D01*
X45922Y-17994D02*
X46372Y-17994D01*
X46653Y-18219D02*
X46653Y-17629D01*
X46934Y-18219D02*
X46934Y-17629D01*
X47272Y-18219D01*
X47272Y-17629D01*
G54D14*
X43385Y-47637D02*
X43385Y-14330D01*
X76692Y-47637D02*
X43385Y-47637D01*
X76692Y-14330D02*
X76692Y-47637D01*
X43385Y-14330D02*
X76692Y-14330D01*
X58267Y-43385D02*
X58267Y-43818D01*
X70610Y-44094D02*
X70177Y-44094D01*
X67775Y-44094D02*
X67342Y-44094D01*
X61102Y-34468D02*
X61102Y-34035D01*
X66771Y-37736D02*
X66771Y-38169D01*
X56594Y-32440D02*
X56161Y-32440D01*
X62795Y-32972D02*
X62795Y-32539D01*
X61102Y-36122D02*
X61102Y-35688D01*
X64015Y-43799D02*
X64015Y-44232D01*
X68503Y-34035D02*
X68503Y-34468D01*
X56161Y-34330D02*
X56594Y-34330D01*
X50826Y-19409D02*
X50196Y-18779D01*
X50196Y-18779D02*
X48858Y-18779D01*
X48858Y-18779D02*
X48228Y-19409D01*
X48228Y-19409D02*
X48228Y-21377D01*
X48228Y-21377D02*
X50826Y-21377D01*
X50826Y-21377D02*
X50826Y-19409D01*
X50708Y-20078D02*
G75*
G03X50708Y-20078I-1181J0D01*
G74*
G01*
X49448Y-17854D02*
X49448Y-17421D01*
X58031Y-18523D02*
X58031Y-18956D01*
X67755Y-24763D02*
X67125Y-24133D01*
X67125Y-24133D02*
X65787Y-24133D01*
X65787Y-24133D02*
X65157Y-24763D01*
X65157Y-24763D02*
X65157Y-26732D01*
X65157Y-26732D02*
X67755Y-26732D01*
X67755Y-26732D02*
X67755Y-24763D01*
X67637Y-25433D02*
G75*
G03X67637Y-25433I-1181J0D01*
G74*
G01*
X59586Y-28188D02*
X59153Y-28188D01*
X48228Y-26417D02*
X48858Y-27047D01*
X48858Y-27047D02*
X50196Y-27047D01*
X50196Y-27047D02*
X50826Y-26417D01*
X50826Y-26417D02*
X50826Y-24448D01*
X50826Y-24448D02*
X48228Y-24448D01*
X48228Y-24448D02*
X48228Y-26417D01*
X50708Y-25748D02*
G75*
G03X50708Y-25748I-1181J0D01*
G74*
G01*
X56850Y-23484D02*
X56850Y-23917D01*
X51870Y-25118D02*
X51437Y-25118D01*
X56850Y-24429D02*
X56850Y-24862D01*
X64448Y-24763D02*
X63818Y-24133D01*
X63818Y-24133D02*
X62480Y-24133D01*
X62480Y-24133D02*
X61850Y-24763D01*
X61850Y-24763D02*
X61850Y-26732D01*
X61850Y-26732D02*
X64448Y-26732D01*
X64448Y-26732D02*
X64448Y-24763D01*
X64330Y-25433D02*
G75*
G03X64330Y-25433I-1181J0D01*
G74*
G01*
X54330Y-36594D02*
X54330Y-36161D01*
X51673Y-37716D02*
X52106Y-37716D01*
X51830Y-45826D02*
X52263Y-45826D01*
X54330Y-35216D02*
X54330Y-35649D01*
X50728Y-39212D02*
X51161Y-39212D01*
X54330Y-32381D02*
X54330Y-32814D01*
X54566Y-40885D02*
X54566Y-41318D01*
X51358Y-31181D02*
X51791Y-31181D01*
X54409Y-43720D02*
X54409Y-44153D01*
X51161Y-37716D02*
X50728Y-37716D01*
X51318Y-45826D02*
X50885Y-45826D01*
X75118Y-26318D02*
X75118Y-26751D01*
X73543Y-22972D02*
X73543Y-22539D01*
X73543Y-21082D02*
X73543Y-20649D01*
X70492Y-21811D02*
X70925Y-21811D01*
X69744Y-27716D02*
X69311Y-27716D01*
X67244Y-23208D02*
X67244Y-22775D01*
X68366Y-27716D02*
X68799Y-27716D01*
X73543Y-24429D02*
X73543Y-24862D01*
X69547Y-21811D02*
X69980Y-21811D01*
X72539Y-29606D02*
X72972Y-29606D01*
X71240Y-27716D02*
X70807Y-27716D01*
X59094Y-21181D02*
X59094Y-19133D01*
X59094Y-19133D02*
X60118Y-19133D01*
X60118Y-19133D02*
X60118Y-21181D01*
X60118Y-21181D02*
X59094Y-21181D01*
X71181Y-17244D02*
X70866Y-17244D01*
X70866Y-17440D02*
X71181Y-17440D01*
X71181Y-17440D02*
X71023Y-17244D01*
X71023Y-17244D02*
X70866Y-17440D01*
X71259Y-17637D02*
X71259Y-17007D01*
X70787Y-17637D02*
X70787Y-17007D01*
X75433Y-27716D02*
X75433Y-27401D01*
X75236Y-27401D02*
X75236Y-27716D01*
X75236Y-27716D02*
X75433Y-27559D01*
X75433Y-27559D02*
X75236Y-27401D01*
X75039Y-27795D02*
X75669Y-27795D01*
X75039Y-27322D02*
X75669Y-27322D01*
X73543Y-25826D02*
X73543Y-25354D01*
X58031Y-24685D02*
X58031Y-25866D01*
X61181Y-24685D02*
X61181Y-25866D01*
X57677Y-42027D02*
X58661Y-42027D01*
X58661Y-42027D02*
X58661Y-43011D01*
X58661Y-43011D02*
X57677Y-43011D01*
X57677Y-43011D02*
X57677Y-42027D01*
X65507Y-43507D02*
X66492Y-43507D01*
X66492Y-43507D02*
X66492Y-44492D01*
X66492Y-44492D02*
X65507Y-44492D01*
X65507Y-44492D02*
X65507Y-43507D01*
X66492Y-46492D02*
X63500Y-46492D01*
X63500Y-46492D02*
X63500Y-45507D01*
X63500Y-45507D02*
X66492Y-45507D01*
X66492Y-45507D02*
X66492Y-46492D01*
X61318Y-22263D02*
X65334Y-22263D01*
X65334Y-22263D02*
X65334Y-23248D01*
X65334Y-23248D02*
X61318Y-23248D01*
X61318Y-23248D02*
X61318Y-22263D01*
X59027Y-22255D02*
X61035Y-22255D01*
X61035Y-22255D02*
X61035Y-23255D01*
X61035Y-23255D02*
X59027Y-23255D01*
X59027Y-23255D02*
X59027Y-22255D01*
X49027Y-22492D02*
X51035Y-22492D01*
X51035Y-22492D02*
X51035Y-23492D01*
X51035Y-23492D02*
X49027Y-23492D01*
X49027Y-23492D02*
X49027Y-22492D01*
X75460Y-29633D02*
X73452Y-29633D01*
X73452Y-29633D02*
X73452Y-28633D01*
X73452Y-28633D02*
X75460Y-28633D01*
X75460Y-28633D02*
X75460Y-29633D01*
X73523Y-42492D02*
X73523Y-30484D01*
X73523Y-30484D02*
X75492Y-30484D01*
X75492Y-30484D02*
X75492Y-42492D01*
X75492Y-42492D02*
X73523Y-42492D01*
X72933Y-45413D02*
X72933Y-45925D01*
X72933Y-45925D02*
X71791Y-45925D01*
X71791Y-45413D02*
X71791Y-45925D01*
X71791Y-45413D02*
X72933Y-45413D01*
X57736Y-39625D02*
X57224Y-39625D01*
X57224Y-39625D02*
X57224Y-38484D01*
X57736Y-38484D02*
X57224Y-38484D01*
X57736Y-38484D02*
X57736Y-39625D01*
X57736Y-38051D02*
X57224Y-38051D01*
X57224Y-38051D02*
X57224Y-36909D01*
X57736Y-36909D02*
X57224Y-36909D01*
X57736Y-36909D02*
X57736Y-38051D01*
X51673Y-39212D02*
X52106Y-39212D01*
X56791Y-43385D02*
X56791Y-43818D01*
X56791Y-42933D02*
X56791Y-42500D01*
X69665Y-44094D02*
X69232Y-44094D01*
X68720Y-44094D02*
X68287Y-44094D01*
X72066Y-44094D02*
X72500Y-44094D01*
X71122Y-44094D02*
X71555Y-44094D01*
X71653Y-38326D02*
X71653Y-37893D01*
X60708Y-43602D02*
X60708Y-43169D01*
X60708Y-42657D02*
X60708Y-42224D01*
X60708Y-41712D02*
X60708Y-41279D01*
X71653Y-36948D02*
X71653Y-37381D01*
X71653Y-36003D02*
X71653Y-36437D01*
X51437Y-19685D02*
X51870Y-19685D01*
X58031Y-18011D02*
X58031Y-17578D01*
X58031Y-21358D02*
X58031Y-21791D01*
X56220Y-22381D02*
X56220Y-22814D01*
X58031Y-20413D02*
X58031Y-20846D01*
X58031Y-19468D02*
X58031Y-19901D01*
X54724Y-22381D02*
X54724Y-22814D01*
X70807Y-19212D02*
X71240Y-19212D01*
X53228Y-22814D02*
X53228Y-22381D01*
X56850Y-25374D02*
X56850Y-25807D01*
X56850Y-26318D02*
X56850Y-26751D01*
X54881Y-26397D02*
X54881Y-26830D01*
X58897Y-40531D02*
X58897Y-40098D01*
X58681Y-37480D02*
X59114Y-37480D01*
X59114Y-39055D02*
X58681Y-39055D01*
X55826Y-36161D02*
X55826Y-36594D01*
X52618Y-38425D02*
X53051Y-38425D01*
X57401Y-40098D02*
X57401Y-40531D01*
X50216Y-31181D02*
X49783Y-31181D01*
X50216Y-37716D02*
X49783Y-37716D01*
X50216Y-39212D02*
X49783Y-39212D01*
X50374Y-45826D02*
X49940Y-45826D01*
X54330Y-34704D02*
X54330Y-34271D01*
X54566Y-43208D02*
X54566Y-42775D01*
X54330Y-33326D02*
X54330Y-33759D01*
X54566Y-41830D02*
X54566Y-42263D01*
X73543Y-23484D02*
X73543Y-23917D01*
X73543Y-21594D02*
X73543Y-22027D01*
X73543Y-26751D02*
X73543Y-26318D01*
X73543Y-27263D02*
X73543Y-27696D01*
X62795Y-32066D02*
X62795Y-31633D01*
X61417Y-46062D02*
G75*
G03X61417Y-46062I-393J0D01*
G74*
G01*
X62047Y-47086D02*
X60000Y-47086D01*
X60000Y-47086D02*
X60000Y-45039D01*
X60000Y-45039D02*
X62047Y-45039D01*
X62047Y-45039D02*
X62047Y-47086D01*
G54D15*
X62952Y-33976D02*
G75*
G03X62952Y-33976I-39J0D01*
G74*
G01*
G54D16*
X63897Y-34370D02*
G75*
G03X63897Y-34370I-78J0D01*
G74*
G01*
G54D14*
X63543Y-34094D02*
X66062Y-34094D01*
X66062Y-34094D02*
X66062Y-36614D01*
X66062Y-36614D02*
X63543Y-36614D01*
X63543Y-36614D02*
X63543Y-34094D01*
G54D15*
X52448Y-17696D02*
G75*
G03X52448Y-17696I-47J0D01*
G74*
G01*
G54D17*
X53669Y-18031D02*
G75*
G03X53669Y-18031I-86J0D01*
G74*
G01*
G54D14*
X53267Y-17736D02*
X55866Y-17736D01*
X55866Y-17736D02*
X55866Y-21791D01*
X55866Y-21791D02*
X53267Y-21791D01*
X53267Y-21791D02*
X53267Y-17736D01*
G54D12*
X58661Y-27677D02*
G75*
G03X58661Y-27677I-39J0D01*
G74*
G01*
G54D16*
X58346Y-28740D02*
G75*
G03X58346Y-28740I-78J0D01*
G74*
G01*
G54D14*
X58602Y-28435D02*
X58602Y-29832D01*
X58602Y-29832D02*
X56043Y-29832D01*
X56043Y-29832D02*
X56043Y-28435D01*
X56043Y-28435D02*
X58602Y-28435D01*
G54D13*
X52913Y-23897D02*
G75*
G03X52913Y-23897I-39J0D01*
G74*
G01*
G54D14*
X53503Y-23996D02*
X54685Y-23996D01*
X54685Y-25925D02*
X53503Y-25925D01*
G54D13*
X53740Y-36929D02*
G75*
G03X53740Y-36929I-39J0D01*
G74*
G01*
G54D16*
X54685Y-37322D02*
G75*
G03X54685Y-37322I-78J0D01*
G74*
G01*
G54D14*
X54330Y-37047D02*
X55590Y-37047D01*
X55590Y-37047D02*
X55590Y-40433D01*
X55590Y-40433D02*
X54330Y-40433D01*
X54330Y-40433D02*
X54330Y-37047D01*
X52755Y-33149D02*
X52755Y-32755D01*
X52755Y-32755D02*
X52362Y-32755D01*
X49448Y-33149D02*
X49448Y-32755D01*
X49448Y-32755D02*
X49842Y-32755D01*
X49842Y-36062D02*
X49448Y-36062D01*
X49448Y-36062D02*
X49448Y-35669D01*
X52755Y-35669D02*
X52755Y-36062D01*
X52755Y-36062D02*
X52362Y-36062D01*
G54D12*
X52952Y-35787D02*
G75*
G03X52952Y-35787I-39J0D01*
G74*
G01*
G54D14*
X52755Y-41259D02*
X52755Y-40866D01*
X52755Y-40866D02*
X52362Y-40866D01*
X49448Y-41259D02*
X49448Y-40866D01*
X49448Y-40866D02*
X49842Y-40866D01*
X49842Y-44173D02*
X49448Y-44173D01*
X49448Y-44173D02*
X49448Y-43779D01*
X52755Y-43779D02*
X52755Y-44173D01*
X52755Y-44173D02*
X52362Y-44173D01*
G54D12*
X52952Y-43897D02*
G75*
G03X52952Y-43897I-39J0D01*
G74*
G01*
G54D13*
X68858Y-26614D02*
G75*
G03X68858Y-26614I-39J0D01*
G74*
G01*
G54D18*
X69448Y-25590D02*
G75*
G03X69448Y-25590I-78J0D01*
G74*
G01*
G54D14*
X69015Y-25944D02*
X69015Y-23503D01*
X69015Y-23503D02*
X71456Y-23503D01*
X71456Y-23503D02*
X71456Y-25944D01*
X71456Y-25944D02*
X69015Y-25944D01*
X58661Y-31811D02*
X58917Y-31811D01*
X58917Y-34960D02*
X58917Y-31811D01*
X58917Y-34960D02*
X58661Y-34960D01*
X57401Y-34960D02*
X57145Y-34960D01*
X57145Y-34960D02*
X57145Y-31811D01*
X57145Y-31811D02*
X57401Y-31811D01*
X68661Y-28976D02*
X68661Y-28720D01*
X71811Y-28720D02*
X68661Y-28720D01*
X71811Y-28720D02*
X71811Y-28976D01*
X71811Y-30236D02*
X71811Y-30492D01*
X71811Y-30492D02*
X68661Y-30492D01*
X68661Y-30492D02*
X68661Y-30236D01*
X52637Y-30826D02*
X53267Y-31456D01*
X53267Y-31456D02*
X54606Y-31456D01*
X54606Y-31456D02*
X55236Y-30826D01*
X55236Y-30826D02*
X55236Y-28858D01*
X55236Y-28858D02*
X52637Y-28858D01*
X52637Y-28858D02*
X52637Y-30826D01*
X55118Y-30157D02*
G75*
G03X55118Y-30157I-1181J0D01*
G74*
G01*
X56417Y-44370D02*
X55787Y-45000D01*
X55787Y-45000D02*
X55787Y-46338D01*
X55787Y-46338D02*
X56417Y-46968D01*
X56417Y-46968D02*
X58385Y-46968D01*
X58385Y-46968D02*
X58385Y-44370D01*
X58385Y-44370D02*
X56417Y-44370D01*
X58267Y-45669D02*
G75*
G03X58267Y-45669I-1181J0D01*
G74*
G01*
X70039Y-16551D02*
X70039Y-20866D01*
X63425Y-20866D02*
X70039Y-20866D01*
X63425Y-20866D02*
X63425Y-16551D01*
X63425Y-16551D02*
X70039Y-16551D01*
X63425Y-19685D02*
X61692Y-19685D01*
X61692Y-18700D02*
X63425Y-18700D01*
X61692Y-17716D02*
X63425Y-17716D01*
X43948Y-29405D02*
X47000Y-29405D01*
X43948Y-24232D02*
X47000Y-24232D01*
X47000Y-24232D02*
X47000Y-29405D01*
X43948Y-44405D02*
X47000Y-44405D01*
X47000Y-40413D02*
X43948Y-40413D01*
X47000Y-40413D02*
X47000Y-44405D01*
X43948Y-36405D02*
X47000Y-36405D01*
X47000Y-32413D02*
X43948Y-32413D01*
X47000Y-32413D02*
X47000Y-36405D01*
X43948Y-22405D02*
X47000Y-22405D01*
X47000Y-18413D02*
X43948Y-18413D01*
X47000Y-18413D02*
X47000Y-22405D01*
X64814Y-30543D02*
X64814Y-30976D01*
X63122Y-30543D02*
X63122Y-30976D01*
X60395Y-30543D02*
X60395Y-27984D01*
X60395Y-27984D02*
X67541Y-27984D01*
X67541Y-27984D02*
X67541Y-30543D01*
X60395Y-30543D02*
X67541Y-30543D01*
X59962Y-27551D02*
X67974Y-27551D01*
X67974Y-27551D02*
X67974Y-30976D01*
X67974Y-30976D02*
X59962Y-30976D01*
X59962Y-30976D02*
X59962Y-27551D01*
X58234Y-44263D02*
X58225Y-44272D01*
X58197Y-44281D01*
X58178Y-44281D01*
X58150Y-44272D01*
X58131Y-44253D01*
X58122Y-44235D01*
X58113Y-44197D01*
X58113Y-44169D01*
X58122Y-44131D01*
X58131Y-44113D01*
X58150Y-44094D01*
X58178Y-44085D01*
X58197Y-44085D01*
X58225Y-44094D01*
X58234Y-44103D01*
X58422Y-44281D02*
X58309Y-44281D01*
X58366Y-44281D02*
X58366Y-44085D01*
X58347Y-44113D01*
X58328Y-44131D01*
X58309Y-44141D01*
X70360Y-43298D02*
X70351Y-43308D01*
X70323Y-43317D01*
X70304Y-43317D01*
X70276Y-43308D01*
X70257Y-43289D01*
X70248Y-43270D01*
X70239Y-43233D01*
X70239Y-43204D01*
X70248Y-43167D01*
X70257Y-43148D01*
X70276Y-43129D01*
X70304Y-43120D01*
X70323Y-43120D01*
X70351Y-43129D01*
X70360Y-43139D01*
X70435Y-43139D02*
X70445Y-43129D01*
X70464Y-43120D01*
X70510Y-43120D01*
X70529Y-43129D01*
X70538Y-43139D01*
X70548Y-43158D01*
X70548Y-43176D01*
X70538Y-43204D01*
X70426Y-43317D01*
X70548Y-43317D01*
X67526Y-43298D02*
X67516Y-43308D01*
X67488Y-43317D01*
X67470Y-43317D01*
X67441Y-43308D01*
X67423Y-43289D01*
X67413Y-43270D01*
X67404Y-43233D01*
X67404Y-43204D01*
X67413Y-43167D01*
X67423Y-43148D01*
X67441Y-43129D01*
X67470Y-43120D01*
X67488Y-43120D01*
X67516Y-43129D01*
X67526Y-43139D01*
X67591Y-43120D02*
X67713Y-43120D01*
X67648Y-43195D01*
X67676Y-43195D01*
X67694Y-43204D01*
X67704Y-43214D01*
X67713Y-43233D01*
X67713Y-43279D01*
X67704Y-43298D01*
X67694Y-43308D01*
X67676Y-43317D01*
X67619Y-43317D01*
X67601Y-43308D01*
X67591Y-43298D01*
X61069Y-33731D02*
X61060Y-33741D01*
X61032Y-33750D01*
X61013Y-33750D01*
X60985Y-33741D01*
X60966Y-33722D01*
X60957Y-33703D01*
X60947Y-33666D01*
X60947Y-33637D01*
X60957Y-33600D01*
X60966Y-33581D01*
X60985Y-33562D01*
X61013Y-33553D01*
X61032Y-33553D01*
X61060Y-33562D01*
X61069Y-33572D01*
X61238Y-33619D02*
X61238Y-33750D01*
X61191Y-33544D02*
X61144Y-33684D01*
X61266Y-33684D01*
X66738Y-38613D02*
X66729Y-38622D01*
X66701Y-38632D01*
X66682Y-38632D01*
X66654Y-38622D01*
X66635Y-38604D01*
X66626Y-38585D01*
X66616Y-38547D01*
X66616Y-38519D01*
X66626Y-38482D01*
X66635Y-38463D01*
X66654Y-38444D01*
X66682Y-38435D01*
X66701Y-38435D01*
X66729Y-38444D01*
X66738Y-38454D01*
X66916Y-38435D02*
X66823Y-38435D01*
X66813Y-38529D01*
X66823Y-38519D01*
X66841Y-38510D01*
X66888Y-38510D01*
X66907Y-38519D01*
X66916Y-38529D01*
X66926Y-38547D01*
X66926Y-38594D01*
X66916Y-38613D01*
X66907Y-38622D01*
X66888Y-38632D01*
X66841Y-38632D01*
X66823Y-38622D01*
X66813Y-38613D01*
X55857Y-32473D02*
X55867Y-32483D01*
X55876Y-32511D01*
X55876Y-32529D01*
X55867Y-32558D01*
X55848Y-32576D01*
X55829Y-32586D01*
X55792Y-32595D01*
X55763Y-32595D01*
X55726Y-32586D01*
X55707Y-32576D01*
X55688Y-32558D01*
X55679Y-32529D01*
X55679Y-32511D01*
X55688Y-32483D01*
X55698Y-32473D01*
X55679Y-32305D02*
X55679Y-32342D01*
X55688Y-32361D01*
X55698Y-32370D01*
X55726Y-32389D01*
X55763Y-32398D01*
X55838Y-32398D01*
X55857Y-32389D01*
X55867Y-32380D01*
X55876Y-32361D01*
X55876Y-32323D01*
X55867Y-32305D01*
X55857Y-32295D01*
X55838Y-32286D01*
X55792Y-32286D01*
X55773Y-32295D01*
X55763Y-32305D01*
X55754Y-32323D01*
X55754Y-32361D01*
X55763Y-32380D01*
X55773Y-32389D01*
X55792Y-32398D01*
X62250Y-33377D02*
X62241Y-33386D01*
X62213Y-33396D01*
X62194Y-33396D01*
X62166Y-33386D01*
X62147Y-33368D01*
X62138Y-33349D01*
X62128Y-33311D01*
X62128Y-33283D01*
X62138Y-33246D01*
X62147Y-33227D01*
X62166Y-33208D01*
X62194Y-33199D01*
X62213Y-33199D01*
X62241Y-33208D01*
X62250Y-33218D01*
X62316Y-33199D02*
X62447Y-33199D01*
X62363Y-33396D01*
X61069Y-35385D02*
X61060Y-35394D01*
X61032Y-35404D01*
X61013Y-35404D01*
X60985Y-35394D01*
X60966Y-35375D01*
X60957Y-35357D01*
X60947Y-35319D01*
X60947Y-35291D01*
X60957Y-35254D01*
X60966Y-35235D01*
X60985Y-35216D01*
X61013Y-35207D01*
X61032Y-35207D01*
X61060Y-35216D01*
X61069Y-35225D01*
X61182Y-35291D02*
X61163Y-35282D01*
X61153Y-35272D01*
X61144Y-35254D01*
X61144Y-35244D01*
X61153Y-35225D01*
X61163Y-35216D01*
X61182Y-35207D01*
X61219Y-35207D01*
X61238Y-35216D01*
X61247Y-35225D01*
X61257Y-35244D01*
X61257Y-35254D01*
X61247Y-35272D01*
X61238Y-35282D01*
X61219Y-35291D01*
X61182Y-35291D01*
X61163Y-35300D01*
X61153Y-35310D01*
X61144Y-35329D01*
X61144Y-35366D01*
X61153Y-35385D01*
X61163Y-35394D01*
X61182Y-35404D01*
X61219Y-35404D01*
X61238Y-35394D01*
X61247Y-35385D01*
X61257Y-35366D01*
X61257Y-35329D01*
X61247Y-35310D01*
X61238Y-35300D01*
X61219Y-35291D01*
X63982Y-44676D02*
X63973Y-44685D01*
X63945Y-44695D01*
X63926Y-44695D01*
X63898Y-44685D01*
X63879Y-44667D01*
X63870Y-44648D01*
X63861Y-44610D01*
X63861Y-44582D01*
X63870Y-44545D01*
X63879Y-44526D01*
X63898Y-44507D01*
X63926Y-44498D01*
X63945Y-44498D01*
X63973Y-44507D01*
X63982Y-44517D01*
X64076Y-44695D02*
X64114Y-44695D01*
X64132Y-44685D01*
X64142Y-44676D01*
X64161Y-44648D01*
X64170Y-44610D01*
X64170Y-44535D01*
X64161Y-44517D01*
X64151Y-44507D01*
X64132Y-44498D01*
X64095Y-44498D01*
X64076Y-44507D01*
X64067Y-44517D01*
X64057Y-44535D01*
X64057Y-44582D01*
X64067Y-44601D01*
X64076Y-44610D01*
X64095Y-44620D01*
X64132Y-44620D01*
X64151Y-44610D01*
X64161Y-44601D01*
X64170Y-44582D01*
X69440Y-34378D02*
X69449Y-34387D01*
X69459Y-34416D01*
X69459Y-34434D01*
X69449Y-34462D01*
X69431Y-34481D01*
X69412Y-34491D01*
X69374Y-34500D01*
X69346Y-34500D01*
X69309Y-34491D01*
X69290Y-34481D01*
X69271Y-34462D01*
X69262Y-34434D01*
X69262Y-34416D01*
X69271Y-34387D01*
X69281Y-34378D01*
X69459Y-34191D02*
X69459Y-34303D01*
X69459Y-34247D02*
X69262Y-34247D01*
X69290Y-34266D01*
X69309Y-34284D01*
X69318Y-34303D01*
X69262Y-34069D02*
X69262Y-34050D01*
X69271Y-34031D01*
X69281Y-34022D01*
X69299Y-34012D01*
X69337Y-34003D01*
X69384Y-34003D01*
X69421Y-34012D01*
X69440Y-34022D01*
X69449Y-34031D01*
X69459Y-34050D01*
X69459Y-34069D01*
X69449Y-34087D01*
X69440Y-34097D01*
X69421Y-34106D01*
X69384Y-34116D01*
X69337Y-34116D01*
X69299Y-34106D01*
X69281Y-34097D01*
X69271Y-34087D01*
X69262Y-34069D01*
X57038Y-34457D02*
X57048Y-34466D01*
X57057Y-34494D01*
X57057Y-34513D01*
X57048Y-34541D01*
X57029Y-34560D01*
X57010Y-34569D01*
X56973Y-34579D01*
X56945Y-34579D01*
X56907Y-34569D01*
X56888Y-34560D01*
X56870Y-34541D01*
X56860Y-34513D01*
X56860Y-34494D01*
X56870Y-34466D01*
X56879Y-34457D01*
X57057Y-34269D02*
X57057Y-34382D01*
X57057Y-34326D02*
X56860Y-34326D01*
X56888Y-34344D01*
X56907Y-34363D01*
X56916Y-34382D01*
X57057Y-34082D02*
X57057Y-34194D01*
X57057Y-34138D02*
X56860Y-34138D01*
X56888Y-34157D01*
X56907Y-34176D01*
X56916Y-34194D01*
G54D10*
X50455Y-21872D02*
X50436Y-21891D01*
X50380Y-21910D01*
X50343Y-21910D01*
X50286Y-21891D01*
X50249Y-21854D01*
X50230Y-21816D01*
X50211Y-21741D01*
X50211Y-21685D01*
X50230Y-21610D01*
X50249Y-21572D01*
X50286Y-21535D01*
X50343Y-21516D01*
X50380Y-21516D01*
X50436Y-21535D01*
X50455Y-21554D01*
X50830Y-21910D02*
X50605Y-21910D01*
X50718Y-21910D02*
X50718Y-21516D01*
X50680Y-21572D01*
X50643Y-21610D01*
X50605Y-21629D01*
X50980Y-21554D02*
X50999Y-21535D01*
X51036Y-21516D01*
X51130Y-21516D01*
X51167Y-21535D01*
X51186Y-21554D01*
X51205Y-21591D01*
X51205Y-21629D01*
X51186Y-21685D01*
X50961Y-21910D01*
X51205Y-21910D01*
G54D14*
X49322Y-17117D02*
X49312Y-17126D01*
X49284Y-17136D01*
X49266Y-17136D01*
X49237Y-17126D01*
X49219Y-17108D01*
X49209Y-17089D01*
X49200Y-17051D01*
X49200Y-17023D01*
X49209Y-16986D01*
X49219Y-16967D01*
X49237Y-16948D01*
X49266Y-16939D01*
X49284Y-16939D01*
X49312Y-16948D01*
X49322Y-16958D01*
X49509Y-17136D02*
X49397Y-17136D01*
X49453Y-17136D02*
X49453Y-16939D01*
X49434Y-16967D01*
X49416Y-16986D01*
X49397Y-16995D01*
X49575Y-16939D02*
X49697Y-16939D01*
X49631Y-17014D01*
X49659Y-17014D01*
X49678Y-17023D01*
X49687Y-17033D01*
X49697Y-17051D01*
X49697Y-17098D01*
X49687Y-17117D01*
X49678Y-17126D01*
X49659Y-17136D01*
X49603Y-17136D01*
X49584Y-17126D01*
X49575Y-17117D01*
X57314Y-18866D02*
X57323Y-18876D01*
X57333Y-18904D01*
X57333Y-18922D01*
X57323Y-18951D01*
X57305Y-18969D01*
X57286Y-18979D01*
X57248Y-18988D01*
X57220Y-18988D01*
X57183Y-18979D01*
X57164Y-18969D01*
X57145Y-18951D01*
X57136Y-18922D01*
X57136Y-18904D01*
X57145Y-18876D01*
X57155Y-18866D01*
X57333Y-18679D02*
X57333Y-18791D01*
X57333Y-18735D02*
X57136Y-18735D01*
X57164Y-18754D01*
X57183Y-18772D01*
X57192Y-18791D01*
X57201Y-18510D02*
X57333Y-18510D01*
X57126Y-18557D02*
X57267Y-18604D01*
X57267Y-18482D01*
G54D10*
X67227Y-27227D02*
X67208Y-27245D01*
X67152Y-27264D01*
X67114Y-27264D01*
X67058Y-27245D01*
X67020Y-27208D01*
X67002Y-27170D01*
X66983Y-27095D01*
X66983Y-27039D01*
X67002Y-26964D01*
X67020Y-26927D01*
X67058Y-26889D01*
X67114Y-26871D01*
X67152Y-26871D01*
X67208Y-26889D01*
X67227Y-26908D01*
X67602Y-27264D02*
X67377Y-27264D01*
X67489Y-27264D02*
X67489Y-26871D01*
X67452Y-26927D01*
X67414Y-26964D01*
X67377Y-26983D01*
X67958Y-26871D02*
X67770Y-26871D01*
X67752Y-27058D01*
X67770Y-27039D01*
X67808Y-27020D01*
X67902Y-27020D01*
X67939Y-27039D01*
X67958Y-27058D01*
X67977Y-27095D01*
X67977Y-27189D01*
X67958Y-27227D01*
X67939Y-27245D01*
X67902Y-27264D01*
X67808Y-27264D01*
X67770Y-27245D01*
X67752Y-27227D01*
G54D14*
X59243Y-27393D02*
X59234Y-27402D01*
X59206Y-27411D01*
X59187Y-27411D01*
X59159Y-27402D01*
X59140Y-27383D01*
X59131Y-27365D01*
X59121Y-27327D01*
X59121Y-27299D01*
X59131Y-27261D01*
X59140Y-27243D01*
X59159Y-27224D01*
X59187Y-27215D01*
X59206Y-27215D01*
X59234Y-27224D01*
X59243Y-27233D01*
X59431Y-27411D02*
X59318Y-27411D01*
X59374Y-27411D02*
X59374Y-27215D01*
X59356Y-27243D01*
X59337Y-27261D01*
X59318Y-27271D01*
X59599Y-27215D02*
X59562Y-27215D01*
X59543Y-27224D01*
X59534Y-27233D01*
X59515Y-27261D01*
X59505Y-27299D01*
X59505Y-27374D01*
X59515Y-27393D01*
X59524Y-27402D01*
X59543Y-27411D01*
X59580Y-27411D01*
X59599Y-27402D01*
X59609Y-27393D01*
X59618Y-27374D01*
X59618Y-27327D01*
X59609Y-27308D01*
X59599Y-27299D01*
X59580Y-27290D01*
X59543Y-27290D01*
X59524Y-27299D01*
X59515Y-27308D01*
X59505Y-27327D01*
G54D10*
X50534Y-27542D02*
X50515Y-27560D01*
X50459Y-27579D01*
X50421Y-27579D01*
X50365Y-27560D01*
X50328Y-27523D01*
X50309Y-27485D01*
X50290Y-27410D01*
X50290Y-27354D01*
X50309Y-27279D01*
X50328Y-27242D01*
X50365Y-27204D01*
X50421Y-27185D01*
X50459Y-27185D01*
X50515Y-27204D01*
X50534Y-27223D01*
X50909Y-27579D02*
X50684Y-27579D01*
X50796Y-27579D02*
X50796Y-27185D01*
X50759Y-27242D01*
X50721Y-27279D01*
X50684Y-27298D01*
X51040Y-27185D02*
X51302Y-27185D01*
X51134Y-27579D01*
G54D14*
X57708Y-23827D02*
X57717Y-23836D01*
X57726Y-23864D01*
X57726Y-23883D01*
X57717Y-23911D01*
X57698Y-23930D01*
X57679Y-23939D01*
X57642Y-23949D01*
X57614Y-23949D01*
X57576Y-23939D01*
X57558Y-23930D01*
X57539Y-23911D01*
X57529Y-23883D01*
X57529Y-23864D01*
X57539Y-23836D01*
X57548Y-23827D01*
X57726Y-23639D02*
X57726Y-23752D01*
X57726Y-23696D02*
X57529Y-23696D01*
X57558Y-23714D01*
X57576Y-23733D01*
X57586Y-23752D01*
X57614Y-23527D02*
X57604Y-23546D01*
X57595Y-23555D01*
X57576Y-23564D01*
X57567Y-23564D01*
X57548Y-23555D01*
X57539Y-23546D01*
X57529Y-23527D01*
X57529Y-23489D01*
X57539Y-23471D01*
X57548Y-23461D01*
X57567Y-23452D01*
X57576Y-23452D01*
X57595Y-23461D01*
X57604Y-23471D01*
X57614Y-23489D01*
X57614Y-23527D01*
X57623Y-23546D01*
X57633Y-23555D01*
X57651Y-23564D01*
X57689Y-23564D01*
X57708Y-23555D01*
X57717Y-23546D01*
X57726Y-23527D01*
X57726Y-23489D01*
X57717Y-23471D01*
X57708Y-23461D01*
X57689Y-23452D01*
X57651Y-23452D01*
X57633Y-23461D01*
X57623Y-23471D01*
X57614Y-23489D01*
X51526Y-26054D02*
X51517Y-26063D01*
X51489Y-26073D01*
X51470Y-26073D01*
X51442Y-26063D01*
X51423Y-26045D01*
X51414Y-26026D01*
X51405Y-25988D01*
X51405Y-25960D01*
X51414Y-25923D01*
X51423Y-25904D01*
X51442Y-25885D01*
X51470Y-25876D01*
X51489Y-25876D01*
X51517Y-25885D01*
X51526Y-25895D01*
X51714Y-26073D02*
X51601Y-26073D01*
X51658Y-26073D02*
X51658Y-25876D01*
X51639Y-25904D01*
X51620Y-25923D01*
X51601Y-25932D01*
X51808Y-26073D02*
X51845Y-26073D01*
X51864Y-26063D01*
X51873Y-26054D01*
X51892Y-26026D01*
X51901Y-25988D01*
X51901Y-25913D01*
X51892Y-25895D01*
X51883Y-25885D01*
X51864Y-25876D01*
X51826Y-25876D01*
X51808Y-25885D01*
X51798Y-25895D01*
X51789Y-25913D01*
X51789Y-25960D01*
X51798Y-25979D01*
X51808Y-25988D01*
X51826Y-25998D01*
X51864Y-25998D01*
X51883Y-25988D01*
X51892Y-25979D01*
X51901Y-25960D01*
X57708Y-24772D02*
X57717Y-24781D01*
X57726Y-24809D01*
X57726Y-24828D01*
X57717Y-24856D01*
X57698Y-24875D01*
X57679Y-24884D01*
X57642Y-24894D01*
X57614Y-24894D01*
X57576Y-24884D01*
X57558Y-24875D01*
X57539Y-24856D01*
X57529Y-24828D01*
X57529Y-24809D01*
X57539Y-24781D01*
X57548Y-24772D01*
X57548Y-24697D02*
X57539Y-24687D01*
X57529Y-24669D01*
X57529Y-24622D01*
X57539Y-24603D01*
X57548Y-24594D01*
X57567Y-24584D01*
X57586Y-24584D01*
X57614Y-24594D01*
X57726Y-24706D01*
X57726Y-24584D01*
X57529Y-24462D02*
X57529Y-24444D01*
X57539Y-24425D01*
X57548Y-24416D01*
X57567Y-24406D01*
X57604Y-24397D01*
X57651Y-24397D01*
X57689Y-24406D01*
X57708Y-24416D01*
X57717Y-24425D01*
X57726Y-24444D01*
X57726Y-24462D01*
X57717Y-24481D01*
X57708Y-24491D01*
X57689Y-24500D01*
X57651Y-24509D01*
X57604Y-24509D01*
X57567Y-24500D01*
X57548Y-24491D01*
X57539Y-24481D01*
X57529Y-24462D01*
G54D10*
X63998Y-27227D02*
X63980Y-27245D01*
X63923Y-27264D01*
X63886Y-27264D01*
X63830Y-27245D01*
X63792Y-27208D01*
X63773Y-27170D01*
X63755Y-27095D01*
X63755Y-27039D01*
X63773Y-26964D01*
X63792Y-26927D01*
X63830Y-26889D01*
X63886Y-26871D01*
X63923Y-26871D01*
X63980Y-26889D01*
X63998Y-26908D01*
X64148Y-26908D02*
X64167Y-26889D01*
X64205Y-26871D01*
X64298Y-26871D01*
X64336Y-26889D01*
X64355Y-26908D01*
X64373Y-26946D01*
X64373Y-26983D01*
X64355Y-27039D01*
X64130Y-27264D01*
X64373Y-27264D01*
X64748Y-27264D02*
X64523Y-27264D01*
X64636Y-27264D02*
X64636Y-26871D01*
X64598Y-26927D01*
X64561Y-26964D01*
X64523Y-26983D01*
G54D14*
X53534Y-36504D02*
X53544Y-36513D01*
X53553Y-36541D01*
X53553Y-36560D01*
X53544Y-36588D01*
X53525Y-36607D01*
X53506Y-36616D01*
X53469Y-36626D01*
X53441Y-36626D01*
X53403Y-36616D01*
X53384Y-36607D01*
X53366Y-36588D01*
X53356Y-36560D01*
X53356Y-36541D01*
X53366Y-36513D01*
X53375Y-36504D01*
X53375Y-36429D02*
X53366Y-36420D01*
X53356Y-36401D01*
X53356Y-36354D01*
X53366Y-36335D01*
X53375Y-36326D01*
X53394Y-36317D01*
X53413Y-36317D01*
X53441Y-36326D01*
X53553Y-36438D01*
X53553Y-36317D01*
X53375Y-36242D02*
X53366Y-36232D01*
X53356Y-36213D01*
X53356Y-36167D01*
X53366Y-36148D01*
X53375Y-36138D01*
X53394Y-36129D01*
X53413Y-36129D01*
X53441Y-36138D01*
X53553Y-36251D01*
X53553Y-36129D01*
X51763Y-36920D02*
X51753Y-36930D01*
X51725Y-36939D01*
X51706Y-36939D01*
X51678Y-36930D01*
X51660Y-36911D01*
X51650Y-36892D01*
X51641Y-36855D01*
X51641Y-36826D01*
X51650Y-36789D01*
X51660Y-36770D01*
X51678Y-36751D01*
X51706Y-36742D01*
X51725Y-36742D01*
X51753Y-36751D01*
X51763Y-36761D01*
X51838Y-36761D02*
X51847Y-36751D01*
X51866Y-36742D01*
X51913Y-36742D01*
X51931Y-36751D01*
X51941Y-36761D01*
X51950Y-36780D01*
X51950Y-36798D01*
X51941Y-36826D01*
X51828Y-36939D01*
X51950Y-36939D01*
X52016Y-36742D02*
X52138Y-36742D01*
X52072Y-36817D01*
X52100Y-36817D01*
X52119Y-36826D01*
X52128Y-36836D01*
X52138Y-36855D01*
X52138Y-36901D01*
X52128Y-36920D01*
X52119Y-36930D01*
X52100Y-36939D01*
X52044Y-36939D01*
X52025Y-36930D01*
X52016Y-36920D01*
X52078Y-46684D02*
X52068Y-46693D01*
X52040Y-46703D01*
X52021Y-46703D01*
X51993Y-46693D01*
X51975Y-46675D01*
X51965Y-46656D01*
X51956Y-46618D01*
X51956Y-46590D01*
X51965Y-46553D01*
X51975Y-46534D01*
X51993Y-46515D01*
X52021Y-46506D01*
X52040Y-46506D01*
X52068Y-46515D01*
X52078Y-46525D01*
X52153Y-46525D02*
X52162Y-46515D01*
X52181Y-46506D01*
X52228Y-46506D01*
X52246Y-46515D01*
X52256Y-46525D01*
X52265Y-46543D01*
X52265Y-46562D01*
X52256Y-46590D01*
X52143Y-46703D01*
X52265Y-46703D01*
X52434Y-46571D02*
X52434Y-46703D01*
X52387Y-46497D02*
X52340Y-46637D01*
X52462Y-46637D01*
X55267Y-35559D02*
X55276Y-35568D01*
X55285Y-35597D01*
X55285Y-35615D01*
X55276Y-35643D01*
X55257Y-35662D01*
X55239Y-35672D01*
X55201Y-35681D01*
X55173Y-35681D01*
X55135Y-35672D01*
X55117Y-35662D01*
X55098Y-35643D01*
X55089Y-35615D01*
X55089Y-35597D01*
X55098Y-35568D01*
X55107Y-35559D01*
X55107Y-35484D02*
X55098Y-35475D01*
X55089Y-35456D01*
X55089Y-35409D01*
X55098Y-35390D01*
X55107Y-35381D01*
X55126Y-35372D01*
X55145Y-35372D01*
X55173Y-35381D01*
X55285Y-35494D01*
X55285Y-35372D01*
X55089Y-35306D02*
X55089Y-35175D01*
X55285Y-35259D01*
X50818Y-40149D02*
X50808Y-40158D01*
X50780Y-40167D01*
X50762Y-40167D01*
X50733Y-40158D01*
X50715Y-40139D01*
X50705Y-40120D01*
X50696Y-40083D01*
X50696Y-40055D01*
X50705Y-40017D01*
X50715Y-39999D01*
X50733Y-39980D01*
X50762Y-39970D01*
X50780Y-39970D01*
X50808Y-39980D01*
X50818Y-39989D01*
X50893Y-39989D02*
X50902Y-39980D01*
X50921Y-39970D01*
X50968Y-39970D01*
X50987Y-39980D01*
X50996Y-39989D01*
X51005Y-40008D01*
X51005Y-40027D01*
X50996Y-40055D01*
X50883Y-40167D01*
X51005Y-40167D01*
X51118Y-40055D02*
X51099Y-40045D01*
X51090Y-40036D01*
X51080Y-40017D01*
X51080Y-40008D01*
X51090Y-39989D01*
X51099Y-39980D01*
X51118Y-39970D01*
X51155Y-39970D01*
X51174Y-39980D01*
X51183Y-39989D01*
X51193Y-40008D01*
X51193Y-40017D01*
X51183Y-40036D01*
X51174Y-40045D01*
X51155Y-40055D01*
X51118Y-40055D01*
X51099Y-40064D01*
X51090Y-40074D01*
X51080Y-40092D01*
X51080Y-40130D01*
X51090Y-40149D01*
X51099Y-40158D01*
X51118Y-40167D01*
X51155Y-40167D01*
X51174Y-40158D01*
X51183Y-40149D01*
X51193Y-40130D01*
X51193Y-40092D01*
X51183Y-40074D01*
X51174Y-40064D01*
X51155Y-40055D01*
X55267Y-32724D02*
X55276Y-32734D01*
X55285Y-32762D01*
X55285Y-32781D01*
X55276Y-32809D01*
X55257Y-32828D01*
X55239Y-32837D01*
X55201Y-32846D01*
X55173Y-32846D01*
X55135Y-32837D01*
X55117Y-32828D01*
X55098Y-32809D01*
X55089Y-32781D01*
X55089Y-32762D01*
X55098Y-32734D01*
X55107Y-32724D01*
X55107Y-32649D02*
X55098Y-32640D01*
X55089Y-32621D01*
X55089Y-32574D01*
X55098Y-32556D01*
X55107Y-32546D01*
X55126Y-32537D01*
X55145Y-32537D01*
X55173Y-32546D01*
X55285Y-32659D01*
X55285Y-32537D01*
X55285Y-32443D02*
X55285Y-32406D01*
X55276Y-32387D01*
X55267Y-32378D01*
X55239Y-32359D01*
X55201Y-32350D01*
X55126Y-32350D01*
X55107Y-32359D01*
X55098Y-32368D01*
X55089Y-32387D01*
X55089Y-32425D01*
X55098Y-32443D01*
X55107Y-32453D01*
X55126Y-32462D01*
X55173Y-32462D01*
X55192Y-32453D01*
X55201Y-32443D01*
X55210Y-32425D01*
X55210Y-32387D01*
X55201Y-32368D01*
X55192Y-32359D01*
X55173Y-32350D01*
X53849Y-41228D02*
X53859Y-41238D01*
X53868Y-41266D01*
X53868Y-41285D01*
X53859Y-41313D01*
X53840Y-41332D01*
X53821Y-41341D01*
X53784Y-41350D01*
X53756Y-41350D01*
X53718Y-41341D01*
X53699Y-41332D01*
X53681Y-41313D01*
X53671Y-41285D01*
X53671Y-41266D01*
X53681Y-41238D01*
X53690Y-41228D01*
X53671Y-41163D02*
X53671Y-41041D01*
X53746Y-41107D01*
X53746Y-41078D01*
X53756Y-41060D01*
X53765Y-41050D01*
X53784Y-41041D01*
X53831Y-41041D01*
X53849Y-41050D01*
X53859Y-41060D01*
X53868Y-41078D01*
X53868Y-41135D01*
X53859Y-41153D01*
X53849Y-41163D01*
X53671Y-40919D02*
X53671Y-40900D01*
X53681Y-40882D01*
X53690Y-40872D01*
X53709Y-40863D01*
X53746Y-40853D01*
X53793Y-40853D01*
X53831Y-40863D01*
X53849Y-40872D01*
X53859Y-40882D01*
X53868Y-40900D01*
X53868Y-40919D01*
X53859Y-40938D01*
X53849Y-40947D01*
X53831Y-40957D01*
X53793Y-40966D01*
X53746Y-40966D01*
X53709Y-40957D01*
X53690Y-40947D01*
X53681Y-40938D01*
X53671Y-40919D01*
X52235Y-31307D02*
X52245Y-31317D01*
X52254Y-31345D01*
X52254Y-31363D01*
X52245Y-31392D01*
X52226Y-31410D01*
X52207Y-31420D01*
X52170Y-31429D01*
X52141Y-31429D01*
X52104Y-31420D01*
X52085Y-31410D01*
X52066Y-31392D01*
X52057Y-31363D01*
X52057Y-31345D01*
X52066Y-31317D01*
X52076Y-31307D01*
X52057Y-31242D02*
X52057Y-31120D01*
X52132Y-31185D01*
X52132Y-31157D01*
X52141Y-31138D01*
X52151Y-31129D01*
X52170Y-31120D01*
X52216Y-31120D01*
X52235Y-31129D01*
X52245Y-31138D01*
X52254Y-31157D01*
X52254Y-31213D01*
X52245Y-31232D01*
X52235Y-31242D01*
X52254Y-30932D02*
X52254Y-31045D01*
X52254Y-30988D02*
X52057Y-30988D01*
X52085Y-31007D01*
X52104Y-31026D01*
X52113Y-31045D01*
X54282Y-44597D02*
X54273Y-44607D01*
X54245Y-44616D01*
X54226Y-44616D01*
X54198Y-44607D01*
X54179Y-44588D01*
X54170Y-44569D01*
X54161Y-44532D01*
X54161Y-44504D01*
X54170Y-44466D01*
X54179Y-44447D01*
X54198Y-44429D01*
X54226Y-44419D01*
X54245Y-44419D01*
X54273Y-44429D01*
X54282Y-44438D01*
X54348Y-44419D02*
X54470Y-44419D01*
X54404Y-44494D01*
X54432Y-44494D01*
X54451Y-44504D01*
X54461Y-44513D01*
X54470Y-44532D01*
X54470Y-44579D01*
X54461Y-44597D01*
X54451Y-44607D01*
X54432Y-44616D01*
X54376Y-44616D01*
X54357Y-44607D01*
X54348Y-44597D01*
X54545Y-44438D02*
X54554Y-44429D01*
X54573Y-44419D01*
X54620Y-44419D01*
X54639Y-44429D01*
X54648Y-44438D01*
X54657Y-44457D01*
X54657Y-44476D01*
X54648Y-44504D01*
X54535Y-44616D01*
X54657Y-44616D01*
X50818Y-36920D02*
X50808Y-36930D01*
X50780Y-36939D01*
X50762Y-36939D01*
X50733Y-36930D01*
X50715Y-36911D01*
X50705Y-36892D01*
X50696Y-36855D01*
X50696Y-36826D01*
X50705Y-36789D01*
X50715Y-36770D01*
X50733Y-36751D01*
X50762Y-36742D01*
X50780Y-36742D01*
X50808Y-36751D01*
X50818Y-36761D01*
X50883Y-36742D02*
X51005Y-36742D01*
X50940Y-36817D01*
X50968Y-36817D01*
X50987Y-36826D01*
X50996Y-36836D01*
X51005Y-36855D01*
X51005Y-36901D01*
X50996Y-36920D01*
X50987Y-36930D01*
X50968Y-36939D01*
X50912Y-36939D01*
X50893Y-36930D01*
X50883Y-36920D01*
X51071Y-36742D02*
X51193Y-36742D01*
X51127Y-36817D01*
X51155Y-36817D01*
X51174Y-36826D01*
X51183Y-36836D01*
X51193Y-36855D01*
X51193Y-36901D01*
X51183Y-36920D01*
X51174Y-36930D01*
X51155Y-36939D01*
X51099Y-36939D01*
X51080Y-36930D01*
X51071Y-36920D01*
X50975Y-46763D02*
X50966Y-46772D01*
X50938Y-46781D01*
X50919Y-46781D01*
X50891Y-46772D01*
X50872Y-46753D01*
X50863Y-46735D01*
X50853Y-46697D01*
X50853Y-46669D01*
X50863Y-46631D01*
X50872Y-46613D01*
X50891Y-46594D01*
X50919Y-46585D01*
X50938Y-46585D01*
X50966Y-46594D01*
X50975Y-46603D01*
X51041Y-46585D02*
X51163Y-46585D01*
X51097Y-46660D01*
X51125Y-46660D01*
X51144Y-46669D01*
X51153Y-46678D01*
X51163Y-46697D01*
X51163Y-46744D01*
X51153Y-46763D01*
X51144Y-46772D01*
X51125Y-46781D01*
X51069Y-46781D01*
X51050Y-46772D01*
X51041Y-46763D01*
X51332Y-46650D02*
X51332Y-46781D01*
X51285Y-46575D02*
X51238Y-46716D01*
X51360Y-46716D01*
X76054Y-26661D02*
X76063Y-26671D01*
X76073Y-26699D01*
X76073Y-26718D01*
X76063Y-26746D01*
X76045Y-26765D01*
X76026Y-26774D01*
X75988Y-26783D01*
X75960Y-26783D01*
X75923Y-26774D01*
X75904Y-26765D01*
X75885Y-26746D01*
X75876Y-26718D01*
X75876Y-26699D01*
X75885Y-26671D01*
X75895Y-26661D01*
X75876Y-26596D02*
X75876Y-26474D01*
X75951Y-26540D01*
X75951Y-26511D01*
X75960Y-26493D01*
X75970Y-26483D01*
X75988Y-26474D01*
X76035Y-26474D01*
X76054Y-26483D01*
X76063Y-26493D01*
X76073Y-26511D01*
X76073Y-26568D01*
X76063Y-26586D01*
X76054Y-26596D01*
X75876Y-26296D02*
X75876Y-26390D01*
X75970Y-26399D01*
X75960Y-26390D01*
X75951Y-26371D01*
X75951Y-26324D01*
X75960Y-26305D01*
X75970Y-26296D01*
X75988Y-26287D01*
X76035Y-26287D01*
X76054Y-26296D01*
X76063Y-26305D01*
X76073Y-26324D01*
X76073Y-26371D01*
X76063Y-26390D01*
X76054Y-26399D01*
X74479Y-22882D02*
X74489Y-22891D01*
X74498Y-22919D01*
X74498Y-22938D01*
X74489Y-22966D01*
X74470Y-22985D01*
X74451Y-22994D01*
X74414Y-23004D01*
X74386Y-23004D01*
X74348Y-22994D01*
X74329Y-22985D01*
X74311Y-22966D01*
X74301Y-22938D01*
X74301Y-22919D01*
X74311Y-22891D01*
X74320Y-22882D01*
X74301Y-22816D02*
X74301Y-22694D01*
X74376Y-22760D01*
X74376Y-22732D01*
X74386Y-22713D01*
X74395Y-22704D01*
X74414Y-22694D01*
X74461Y-22694D01*
X74479Y-22704D01*
X74489Y-22713D01*
X74498Y-22732D01*
X74498Y-22788D01*
X74489Y-22807D01*
X74479Y-22816D01*
X74301Y-22526D02*
X74301Y-22563D01*
X74311Y-22582D01*
X74320Y-22591D01*
X74348Y-22610D01*
X74386Y-22619D01*
X74461Y-22619D01*
X74479Y-22610D01*
X74489Y-22601D01*
X74498Y-22582D01*
X74498Y-22544D01*
X74489Y-22526D01*
X74479Y-22516D01*
X74461Y-22507D01*
X74414Y-22507D01*
X74395Y-22516D01*
X74386Y-22526D01*
X74376Y-22544D01*
X74376Y-22582D01*
X74386Y-22601D01*
X74395Y-22610D01*
X74414Y-22619D01*
X74479Y-20992D02*
X74489Y-21002D01*
X74498Y-21030D01*
X74498Y-21048D01*
X74489Y-21077D01*
X74470Y-21095D01*
X74451Y-21105D01*
X74414Y-21114D01*
X74386Y-21114D01*
X74348Y-21105D01*
X74329Y-21095D01*
X74311Y-21077D01*
X74301Y-21048D01*
X74301Y-21030D01*
X74311Y-21002D01*
X74320Y-20992D01*
X74301Y-20927D02*
X74301Y-20805D01*
X74376Y-20870D01*
X74376Y-20842D01*
X74386Y-20823D01*
X74395Y-20814D01*
X74414Y-20805D01*
X74461Y-20805D01*
X74479Y-20814D01*
X74489Y-20823D01*
X74498Y-20842D01*
X74498Y-20898D01*
X74489Y-20917D01*
X74479Y-20927D01*
X74301Y-20739D02*
X74301Y-20608D01*
X74498Y-20692D01*
X71369Y-21937D02*
X71378Y-21946D01*
X71388Y-21975D01*
X71388Y-21993D01*
X71378Y-22021D01*
X71360Y-22040D01*
X71341Y-22050D01*
X71303Y-22059D01*
X71275Y-22059D01*
X71238Y-22050D01*
X71219Y-22040D01*
X71200Y-22021D01*
X71191Y-21993D01*
X71191Y-21975D01*
X71200Y-21946D01*
X71210Y-21937D01*
X71191Y-21871D02*
X71191Y-21750D01*
X71266Y-21815D01*
X71266Y-21787D01*
X71275Y-21768D01*
X71285Y-21759D01*
X71303Y-21750D01*
X71350Y-21750D01*
X71369Y-21759D01*
X71378Y-21768D01*
X71388Y-21787D01*
X71388Y-21843D01*
X71378Y-21862D01*
X71369Y-21871D01*
X71275Y-21637D02*
X71266Y-21656D01*
X71257Y-21665D01*
X71238Y-21675D01*
X71228Y-21675D01*
X71210Y-21665D01*
X71200Y-21656D01*
X71191Y-21637D01*
X71191Y-21600D01*
X71200Y-21581D01*
X71210Y-21571D01*
X71228Y-21562D01*
X71238Y-21562D01*
X71257Y-21571D01*
X71266Y-21581D01*
X71275Y-21600D01*
X71275Y-21637D01*
X71285Y-21656D01*
X71294Y-21665D01*
X71313Y-21675D01*
X71350Y-21675D01*
X71369Y-21665D01*
X71378Y-21656D01*
X71388Y-21637D01*
X71388Y-21600D01*
X71378Y-21581D01*
X71369Y-21571D01*
X71350Y-21562D01*
X71313Y-21562D01*
X71294Y-21571D01*
X71285Y-21581D01*
X71275Y-21600D01*
X69322Y-28652D02*
X69312Y-28662D01*
X69284Y-28671D01*
X69266Y-28671D01*
X69237Y-28662D01*
X69219Y-28643D01*
X69209Y-28624D01*
X69200Y-28587D01*
X69200Y-28559D01*
X69209Y-28521D01*
X69219Y-28502D01*
X69237Y-28484D01*
X69266Y-28474D01*
X69284Y-28474D01*
X69312Y-28484D01*
X69322Y-28493D01*
X69387Y-28474D02*
X69509Y-28474D01*
X69444Y-28549D01*
X69472Y-28549D01*
X69491Y-28559D01*
X69500Y-28568D01*
X69509Y-28587D01*
X69509Y-28634D01*
X69500Y-28652D01*
X69491Y-28662D01*
X69472Y-28671D01*
X69416Y-28671D01*
X69397Y-28662D01*
X69387Y-28652D01*
X69603Y-28671D02*
X69640Y-28671D01*
X69659Y-28662D01*
X69669Y-28652D01*
X69687Y-28624D01*
X69697Y-28587D01*
X69697Y-28512D01*
X69687Y-28493D01*
X69678Y-28484D01*
X69659Y-28474D01*
X69622Y-28474D01*
X69603Y-28484D01*
X69594Y-28493D01*
X69584Y-28512D01*
X69584Y-28559D01*
X69594Y-28577D01*
X69603Y-28587D01*
X69622Y-28596D01*
X69659Y-28596D01*
X69678Y-28587D01*
X69687Y-28577D01*
X69697Y-28559D01*
X67117Y-22471D02*
X67108Y-22481D01*
X67080Y-22490D01*
X67061Y-22490D01*
X67033Y-22481D01*
X67014Y-22462D01*
X67005Y-22443D01*
X66995Y-22406D01*
X66995Y-22378D01*
X67005Y-22340D01*
X67014Y-22321D01*
X67033Y-22303D01*
X67061Y-22293D01*
X67080Y-22293D01*
X67108Y-22303D01*
X67117Y-22312D01*
X67286Y-22359D02*
X67286Y-22490D01*
X67239Y-22284D02*
X67192Y-22425D01*
X67314Y-22425D01*
X67426Y-22293D02*
X67445Y-22293D01*
X67464Y-22303D01*
X67473Y-22312D01*
X67483Y-22331D01*
X67492Y-22368D01*
X67492Y-22415D01*
X67483Y-22453D01*
X67473Y-22471D01*
X67464Y-22481D01*
X67445Y-22490D01*
X67426Y-22490D01*
X67408Y-22481D01*
X67398Y-22471D01*
X67389Y-22453D01*
X67380Y-22415D01*
X67380Y-22368D01*
X67389Y-22331D01*
X67398Y-22312D01*
X67408Y-22303D01*
X67426Y-22293D01*
X68534Y-28652D02*
X68525Y-28662D01*
X68497Y-28671D01*
X68478Y-28671D01*
X68450Y-28662D01*
X68431Y-28643D01*
X68422Y-28624D01*
X68413Y-28587D01*
X68413Y-28559D01*
X68422Y-28521D01*
X68431Y-28502D01*
X68450Y-28484D01*
X68478Y-28474D01*
X68497Y-28474D01*
X68525Y-28484D01*
X68534Y-28493D01*
X68703Y-28540D02*
X68703Y-28671D01*
X68656Y-28465D02*
X68609Y-28606D01*
X68731Y-28606D01*
X68909Y-28671D02*
X68797Y-28671D01*
X68853Y-28671D02*
X68853Y-28474D01*
X68834Y-28502D01*
X68816Y-28521D01*
X68797Y-28531D01*
X74479Y-24850D02*
X74489Y-24860D01*
X74498Y-24888D01*
X74498Y-24907D01*
X74489Y-24935D01*
X74470Y-24954D01*
X74451Y-24963D01*
X74414Y-24972D01*
X74386Y-24972D01*
X74348Y-24963D01*
X74329Y-24954D01*
X74311Y-24935D01*
X74301Y-24907D01*
X74301Y-24888D01*
X74311Y-24860D01*
X74320Y-24850D01*
X74367Y-24682D02*
X74498Y-24682D01*
X74292Y-24729D02*
X74432Y-24775D01*
X74432Y-24654D01*
X74320Y-24588D02*
X74311Y-24579D01*
X74301Y-24560D01*
X74301Y-24513D01*
X74311Y-24494D01*
X74320Y-24485D01*
X74339Y-24476D01*
X74357Y-24476D01*
X74386Y-24485D01*
X74498Y-24597D01*
X74498Y-24476D01*
X69282Y-21937D02*
X69292Y-21946D01*
X69301Y-21975D01*
X69301Y-21993D01*
X69292Y-22021D01*
X69273Y-22040D01*
X69254Y-22050D01*
X69217Y-22059D01*
X69189Y-22059D01*
X69151Y-22050D01*
X69132Y-22040D01*
X69114Y-22021D01*
X69104Y-21993D01*
X69104Y-21975D01*
X69114Y-21946D01*
X69123Y-21937D01*
X69170Y-21768D02*
X69301Y-21768D01*
X69095Y-21815D02*
X69236Y-21862D01*
X69236Y-21740D01*
X69104Y-21684D02*
X69104Y-21562D01*
X69179Y-21628D01*
X69179Y-21600D01*
X69189Y-21581D01*
X69198Y-21571D01*
X69217Y-21562D01*
X69264Y-21562D01*
X69282Y-21571D01*
X69292Y-21581D01*
X69301Y-21600D01*
X69301Y-21656D01*
X69292Y-21675D01*
X69282Y-21684D01*
X72471Y-28889D02*
X72462Y-28898D01*
X72434Y-28907D01*
X72415Y-28907D01*
X72387Y-28898D01*
X72368Y-28879D01*
X72359Y-28861D01*
X72350Y-28823D01*
X72350Y-28795D01*
X72359Y-28757D01*
X72368Y-28739D01*
X72387Y-28720D01*
X72415Y-28711D01*
X72434Y-28711D01*
X72462Y-28720D01*
X72471Y-28729D01*
X72640Y-28776D02*
X72640Y-28907D01*
X72593Y-28701D02*
X72546Y-28842D01*
X72668Y-28842D01*
X72828Y-28776D02*
X72828Y-28907D01*
X72781Y-28701D02*
X72734Y-28842D01*
X72856Y-28842D01*
X70503Y-27843D02*
X70512Y-27852D01*
X70522Y-27880D01*
X70522Y-27899D01*
X70512Y-27927D01*
X70494Y-27946D01*
X70475Y-27955D01*
X70437Y-27964D01*
X70409Y-27964D01*
X70372Y-27955D01*
X70353Y-27946D01*
X70334Y-27927D01*
X70325Y-27899D01*
X70325Y-27880D01*
X70334Y-27852D01*
X70344Y-27843D01*
X70390Y-27674D02*
X70522Y-27674D01*
X70315Y-27721D02*
X70456Y-27768D01*
X70456Y-27646D01*
X70325Y-27477D02*
X70325Y-27571D01*
X70419Y-27580D01*
X70409Y-27571D01*
X70400Y-27552D01*
X70400Y-27505D01*
X70409Y-27486D01*
X70419Y-27477D01*
X70437Y-27468D01*
X70484Y-27468D01*
X70503Y-27477D01*
X70512Y-27486D01*
X70522Y-27505D01*
X70522Y-27552D01*
X70512Y-27571D01*
X70503Y-27580D01*
G54D10*
X60256Y-18637D02*
X59863Y-18637D01*
X59863Y-18543D01*
X59881Y-18487D01*
X59919Y-18449D01*
X59956Y-18430D01*
X60031Y-18412D01*
X60088Y-18412D01*
X60163Y-18430D01*
X60200Y-18449D01*
X60238Y-18487D01*
X60256Y-18543D01*
X60256Y-18637D01*
X60256Y-18037D02*
X60256Y-18262D01*
X60256Y-18149D02*
X59863Y-18149D01*
X59919Y-18187D01*
X59956Y-18224D01*
X59975Y-18262D01*
X71989Y-17613D02*
X71595Y-17613D01*
X71595Y-17519D01*
X71614Y-17463D01*
X71651Y-17425D01*
X71689Y-17407D01*
X71764Y-17388D01*
X71820Y-17388D01*
X71895Y-17407D01*
X71932Y-17425D01*
X71970Y-17463D01*
X71989Y-17519D01*
X71989Y-17613D01*
X71632Y-17238D02*
X71614Y-17219D01*
X71595Y-17182D01*
X71595Y-17088D01*
X71614Y-17050D01*
X71632Y-17032D01*
X71670Y-17013D01*
X71707Y-17013D01*
X71764Y-17032D01*
X71989Y-17257D01*
X71989Y-17013D01*
X75063Y-28524D02*
X75063Y-28130D01*
X75157Y-28130D01*
X75213Y-28149D01*
X75251Y-28187D01*
X75269Y-28224D01*
X75288Y-28299D01*
X75288Y-28355D01*
X75269Y-28430D01*
X75251Y-28468D01*
X75213Y-28505D01*
X75157Y-28524D01*
X75063Y-28524D01*
X75419Y-28130D02*
X75663Y-28130D01*
X75532Y-28280D01*
X75588Y-28280D01*
X75626Y-28299D01*
X75644Y-28318D01*
X75663Y-28355D01*
X75663Y-28449D01*
X75644Y-28487D01*
X75626Y-28505D01*
X75588Y-28524D01*
X75476Y-28524D01*
X75438Y-28505D01*
X75419Y-28487D01*
G54D14*
X74395Y-25754D02*
X74395Y-25820D01*
X74498Y-25820D02*
X74301Y-25820D01*
X74301Y-25726D01*
X74395Y-25585D02*
X74404Y-25557D01*
X74414Y-25548D01*
X74432Y-25538D01*
X74461Y-25538D01*
X74479Y-25548D01*
X74489Y-25557D01*
X74498Y-25576D01*
X74498Y-25651D01*
X74301Y-25651D01*
X74301Y-25585D01*
X74311Y-25567D01*
X74320Y-25557D01*
X74339Y-25548D01*
X74357Y-25548D01*
X74376Y-25557D01*
X74386Y-25567D01*
X74395Y-25585D01*
X74395Y-25651D01*
X74498Y-25351D02*
X74498Y-25464D01*
X74498Y-25407D02*
X74301Y-25407D01*
X74329Y-25426D01*
X74348Y-25445D01*
X74357Y-25464D01*
G54D10*
X67506Y-45138D02*
X67506Y-45419D01*
X67487Y-45476D01*
X67450Y-45513D01*
X67394Y-45532D01*
X67356Y-45532D01*
X67900Y-45532D02*
X67675Y-45532D01*
X67787Y-45532D02*
X67787Y-45138D01*
X67750Y-45194D01*
X67712Y-45232D01*
X67675Y-45251D01*
X75768Y-21627D02*
X76049Y-21627D01*
X76106Y-21646D01*
X76143Y-21683D01*
X76162Y-21739D01*
X76162Y-21777D01*
X75806Y-21458D02*
X75787Y-21439D01*
X75768Y-21402D01*
X75768Y-21308D01*
X75787Y-21271D01*
X75806Y-21252D01*
X75843Y-21233D01*
X75881Y-21233D01*
X75937Y-21252D01*
X76162Y-21477D01*
X76162Y-21233D01*
X60800Y-27422D02*
X60613Y-27422D01*
X60613Y-27028D01*
X61137Y-27422D02*
X60913Y-27422D01*
X61025Y-27422D02*
X61025Y-27028D01*
X60988Y-27084D01*
X60950Y-27122D01*
X60913Y-27140D01*
X57878Y-43603D02*
X57878Y-43209D01*
X58028Y-43209D01*
X58066Y-43228D01*
X58084Y-43247D01*
X58103Y-43284D01*
X58103Y-43340D01*
X58084Y-43378D01*
X58066Y-43397D01*
X58028Y-43415D01*
X57878Y-43415D01*
X58478Y-43603D02*
X58253Y-43603D01*
X58366Y-43603D02*
X58366Y-43209D01*
X58328Y-43265D01*
X58291Y-43303D01*
X58253Y-43322D01*
X65709Y-45083D02*
X65709Y-44689D01*
X65859Y-44689D01*
X65896Y-44708D01*
X65915Y-44727D01*
X65934Y-44764D01*
X65934Y-44821D01*
X65915Y-44858D01*
X65896Y-44877D01*
X65859Y-44896D01*
X65709Y-44896D01*
X66084Y-44727D02*
X66103Y-44708D01*
X66140Y-44689D01*
X66234Y-44689D01*
X66271Y-44708D01*
X66290Y-44727D01*
X66309Y-44764D01*
X66309Y-44802D01*
X66290Y-44858D01*
X66065Y-45083D01*
X66309Y-45083D01*
X64709Y-45272D02*
X64709Y-44878D01*
X64859Y-44878D01*
X64896Y-44897D01*
X64915Y-44916D01*
X64934Y-44953D01*
X64934Y-45010D01*
X64915Y-45047D01*
X64896Y-45066D01*
X64859Y-45085D01*
X64709Y-45085D01*
X65065Y-44878D02*
X65309Y-44878D01*
X65178Y-45028D01*
X65234Y-45028D01*
X65271Y-45047D01*
X65290Y-45066D01*
X65309Y-45103D01*
X65309Y-45197D01*
X65290Y-45235D01*
X65271Y-45253D01*
X65234Y-45272D01*
X65121Y-45272D01*
X65084Y-45253D01*
X65065Y-45235D01*
X65926Y-23125D02*
X65532Y-23125D01*
X65532Y-22975D01*
X65551Y-22937D01*
X65569Y-22919D01*
X65607Y-22900D01*
X65663Y-22900D01*
X65701Y-22919D01*
X65719Y-22937D01*
X65738Y-22975D01*
X65738Y-23125D01*
X65532Y-22562D02*
X65532Y-22637D01*
X65551Y-22675D01*
X65569Y-22694D01*
X65626Y-22731D01*
X65701Y-22750D01*
X65851Y-22750D01*
X65888Y-22731D01*
X65907Y-22712D01*
X65926Y-22675D01*
X65926Y-22600D01*
X65907Y-22562D01*
X65888Y-22544D01*
X65851Y-22525D01*
X65757Y-22525D01*
X65719Y-22544D01*
X65701Y-22562D01*
X65682Y-22600D01*
X65682Y-22675D01*
X65701Y-22712D01*
X65719Y-22731D01*
X65757Y-22750D01*
X58839Y-23125D02*
X58445Y-23125D01*
X58445Y-22975D01*
X58464Y-22937D01*
X58483Y-22919D01*
X58520Y-22900D01*
X58577Y-22900D01*
X58614Y-22919D01*
X58633Y-22937D01*
X58652Y-22975D01*
X58652Y-23125D01*
X58445Y-22769D02*
X58445Y-22506D01*
X58839Y-22675D01*
X48918Y-23282D02*
X48524Y-23282D01*
X48524Y-23132D01*
X48543Y-23095D01*
X48562Y-23076D01*
X48599Y-23057D01*
X48655Y-23057D01*
X48693Y-23076D01*
X48712Y-23095D01*
X48730Y-23132D01*
X48730Y-23282D01*
X48693Y-22832D02*
X48674Y-22870D01*
X48655Y-22889D01*
X48618Y-22907D01*
X48599Y-22907D01*
X48562Y-22889D01*
X48543Y-22870D01*
X48524Y-22832D01*
X48524Y-22757D01*
X48543Y-22720D01*
X48562Y-22701D01*
X48599Y-22682D01*
X48618Y-22682D01*
X48655Y-22701D01*
X48674Y-22720D01*
X48693Y-22757D01*
X48693Y-22832D01*
X48712Y-22870D01*
X48730Y-22889D01*
X48768Y-22907D01*
X48843Y-22907D01*
X48880Y-22889D01*
X48899Y-22870D01*
X48918Y-22832D01*
X48918Y-22757D01*
X48899Y-22720D01*
X48880Y-22701D01*
X48843Y-22682D01*
X48768Y-22682D01*
X48730Y-22701D01*
X48712Y-22720D01*
X48693Y-22757D01*
X76004Y-29611D02*
X75611Y-29611D01*
X75611Y-29461D01*
X75629Y-29424D01*
X75648Y-29405D01*
X75686Y-29386D01*
X75742Y-29386D01*
X75779Y-29405D01*
X75798Y-29424D01*
X75817Y-29461D01*
X75817Y-29611D01*
X76004Y-29011D02*
X76004Y-29236D01*
X76004Y-29124D02*
X75611Y-29124D01*
X75667Y-29161D01*
X75704Y-29199D01*
X75723Y-29236D01*
X75611Y-28880D02*
X75611Y-28637D01*
X75761Y-28768D01*
X75761Y-28712D01*
X75779Y-28674D01*
X75798Y-28655D01*
X75836Y-28637D01*
X75929Y-28637D01*
X75967Y-28655D01*
X75986Y-28674D01*
X76004Y-28712D01*
X76004Y-28824D01*
X75986Y-28862D01*
X75967Y-28880D01*
X74010Y-43012D02*
X74010Y-42619D01*
X74160Y-42619D01*
X74197Y-42637D01*
X74216Y-42656D01*
X74235Y-42694D01*
X74235Y-42750D01*
X74216Y-42787D01*
X74197Y-42806D01*
X74160Y-42825D01*
X74010Y-42825D01*
X74610Y-43012D02*
X74385Y-43012D01*
X74497Y-43012D02*
X74497Y-42619D01*
X74460Y-42675D01*
X74422Y-42712D01*
X74385Y-42731D01*
X74947Y-42750D02*
X74947Y-43012D01*
X74853Y-42600D02*
X74760Y-42881D01*
X75003Y-42881D01*
X72324Y-46987D02*
X72287Y-46968D01*
X72249Y-46931D01*
X72193Y-46874D01*
X72155Y-46856D01*
X72118Y-46856D01*
X72137Y-46949D02*
X72099Y-46931D01*
X72062Y-46893D01*
X72043Y-46818D01*
X72043Y-46687D01*
X72062Y-46612D01*
X72099Y-46574D01*
X72137Y-46556D01*
X72212Y-46556D01*
X72249Y-46574D01*
X72287Y-46612D01*
X72305Y-46687D01*
X72305Y-46818D01*
X72287Y-46893D01*
X72249Y-46931D01*
X72212Y-46949D01*
X72137Y-46949D01*
X72680Y-46949D02*
X72455Y-46949D01*
X72568Y-46949D02*
X72568Y-46556D01*
X72530Y-46612D01*
X72493Y-46649D01*
X72455Y-46668D01*
X56812Y-38719D02*
X56775Y-38700D01*
X56737Y-38663D01*
X56681Y-38607D01*
X56644Y-38588D01*
X56606Y-38588D01*
X56625Y-38682D02*
X56587Y-38663D01*
X56550Y-38625D01*
X56531Y-38550D01*
X56531Y-38419D01*
X56550Y-38344D01*
X56587Y-38307D01*
X56625Y-38288D01*
X56700Y-38288D01*
X56737Y-38307D01*
X56775Y-38344D01*
X56794Y-38419D01*
X56794Y-38550D01*
X56775Y-38625D01*
X56737Y-38663D01*
X56700Y-38682D01*
X56625Y-38682D01*
X56925Y-38288D02*
X57169Y-38288D01*
X57037Y-38438D01*
X57094Y-38438D01*
X57131Y-38457D01*
X57150Y-38475D01*
X57169Y-38513D01*
X57169Y-38607D01*
X57150Y-38644D01*
X57131Y-38663D01*
X57094Y-38682D01*
X56981Y-38682D01*
X56944Y-38663D01*
X56925Y-38644D01*
X57679Y-36751D02*
X57641Y-36732D01*
X57604Y-36694D01*
X57547Y-36638D01*
X57510Y-36619D01*
X57472Y-36619D01*
X57491Y-36713D02*
X57454Y-36694D01*
X57416Y-36657D01*
X57397Y-36582D01*
X57397Y-36451D01*
X57416Y-36376D01*
X57454Y-36338D01*
X57491Y-36319D01*
X57566Y-36319D01*
X57604Y-36338D01*
X57641Y-36376D01*
X57660Y-36451D01*
X57660Y-36582D01*
X57641Y-36657D01*
X57604Y-36694D01*
X57566Y-36713D01*
X57491Y-36713D01*
X57997Y-36451D02*
X57997Y-36713D01*
X57904Y-36301D02*
X57810Y-36582D01*
X58053Y-36582D01*
G54D14*
X52569Y-39245D02*
X52475Y-39311D01*
X52569Y-39357D02*
X52372Y-39357D01*
X52372Y-39282D01*
X52381Y-39264D01*
X52391Y-39254D01*
X52410Y-39245D01*
X52438Y-39245D01*
X52456Y-39254D01*
X52466Y-39264D01*
X52475Y-39282D01*
X52475Y-39357D01*
X52569Y-39057D02*
X52569Y-39170D01*
X52569Y-39114D02*
X52372Y-39114D01*
X52400Y-39132D01*
X52419Y-39151D01*
X52428Y-39170D01*
X56758Y-44281D02*
X56692Y-44188D01*
X56646Y-44281D02*
X56646Y-44085D01*
X56721Y-44085D01*
X56739Y-44094D01*
X56749Y-44103D01*
X56758Y-44122D01*
X56758Y-44150D01*
X56749Y-44169D01*
X56739Y-44178D01*
X56721Y-44188D01*
X56646Y-44188D01*
X56833Y-44103D02*
X56842Y-44094D01*
X56861Y-44085D01*
X56908Y-44085D01*
X56927Y-44094D01*
X56936Y-44103D01*
X56946Y-44122D01*
X56946Y-44141D01*
X56936Y-44169D01*
X56824Y-44281D01*
X56946Y-44281D01*
X56758Y-42215D02*
X56692Y-42121D01*
X56646Y-42215D02*
X56646Y-42018D01*
X56721Y-42018D01*
X56739Y-42027D01*
X56749Y-42036D01*
X56758Y-42055D01*
X56758Y-42083D01*
X56749Y-42102D01*
X56739Y-42111D01*
X56721Y-42121D01*
X56646Y-42121D01*
X56824Y-42018D02*
X56946Y-42018D01*
X56880Y-42093D01*
X56908Y-42093D01*
X56927Y-42102D01*
X56936Y-42111D01*
X56946Y-42130D01*
X56946Y-42177D01*
X56936Y-42196D01*
X56927Y-42205D01*
X56908Y-42215D01*
X56852Y-42215D01*
X56833Y-42205D01*
X56824Y-42196D01*
X69416Y-43317D02*
X69350Y-43223D01*
X69303Y-43317D02*
X69303Y-43120D01*
X69378Y-43120D01*
X69397Y-43129D01*
X69406Y-43139D01*
X69416Y-43158D01*
X69416Y-43186D01*
X69406Y-43204D01*
X69397Y-43214D01*
X69378Y-43223D01*
X69303Y-43223D01*
X69584Y-43186D02*
X69584Y-43317D01*
X69537Y-43111D02*
X69491Y-43251D01*
X69612Y-43251D01*
X68471Y-43317D02*
X68405Y-43223D01*
X68358Y-43317D02*
X68358Y-43120D01*
X68433Y-43120D01*
X68452Y-43129D01*
X68461Y-43139D01*
X68471Y-43158D01*
X68471Y-43186D01*
X68461Y-43204D01*
X68452Y-43214D01*
X68433Y-43223D01*
X68358Y-43223D01*
X68649Y-43120D02*
X68555Y-43120D01*
X68546Y-43214D01*
X68555Y-43204D01*
X68574Y-43195D01*
X68621Y-43195D01*
X68639Y-43204D01*
X68649Y-43214D01*
X68658Y-43233D01*
X68658Y-43279D01*
X68649Y-43298D01*
X68639Y-43308D01*
X68621Y-43317D01*
X68574Y-43317D01*
X68555Y-43308D01*
X68546Y-43298D01*
X72250Y-43317D02*
X72185Y-43223D01*
X72138Y-43317D02*
X72138Y-43120D01*
X72213Y-43120D01*
X72231Y-43129D01*
X72241Y-43139D01*
X72250Y-43158D01*
X72250Y-43186D01*
X72241Y-43204D01*
X72231Y-43214D01*
X72213Y-43223D01*
X72138Y-43223D01*
X72419Y-43120D02*
X72381Y-43120D01*
X72363Y-43129D01*
X72353Y-43139D01*
X72335Y-43167D01*
X72325Y-43204D01*
X72325Y-43279D01*
X72335Y-43298D01*
X72344Y-43308D01*
X72363Y-43317D01*
X72400Y-43317D01*
X72419Y-43308D01*
X72428Y-43298D01*
X72438Y-43279D01*
X72438Y-43233D01*
X72428Y-43214D01*
X72419Y-43204D01*
X72400Y-43195D01*
X72363Y-43195D01*
X72344Y-43204D01*
X72335Y-43214D01*
X72325Y-43233D01*
X71305Y-43317D02*
X71240Y-43223D01*
X71193Y-43317D02*
X71193Y-43120D01*
X71268Y-43120D01*
X71287Y-43129D01*
X71296Y-43139D01*
X71305Y-43158D01*
X71305Y-43186D01*
X71296Y-43204D01*
X71287Y-43214D01*
X71268Y-43223D01*
X71193Y-43223D01*
X71371Y-43120D02*
X71502Y-43120D01*
X71418Y-43317D01*
X70876Y-37198D02*
X70782Y-37263D01*
X70876Y-37310D02*
X70679Y-37310D01*
X70679Y-37235D01*
X70688Y-37216D01*
X70698Y-37207D01*
X70717Y-37198D01*
X70745Y-37198D01*
X70763Y-37207D01*
X70773Y-37216D01*
X70782Y-37235D01*
X70782Y-37310D01*
X70763Y-37085D02*
X70754Y-37104D01*
X70745Y-37113D01*
X70726Y-37123D01*
X70717Y-37123D01*
X70698Y-37113D01*
X70688Y-37104D01*
X70679Y-37085D01*
X70679Y-37048D01*
X70688Y-37029D01*
X70698Y-37020D01*
X70717Y-37010D01*
X70726Y-37010D01*
X70745Y-37020D01*
X70754Y-37029D01*
X70763Y-37048D01*
X70763Y-37085D01*
X70773Y-37104D01*
X70782Y-37113D01*
X70801Y-37123D01*
X70838Y-37123D01*
X70857Y-37113D01*
X70867Y-37104D01*
X70876Y-37085D01*
X70876Y-37048D01*
X70867Y-37029D01*
X70857Y-37020D01*
X70838Y-37010D01*
X70801Y-37010D01*
X70782Y-37020D01*
X70773Y-37029D01*
X70763Y-37048D01*
X61663Y-43418D02*
X61570Y-43484D01*
X61663Y-43531D02*
X61467Y-43531D01*
X61467Y-43456D01*
X61476Y-43437D01*
X61485Y-43428D01*
X61504Y-43418D01*
X61532Y-43418D01*
X61551Y-43428D01*
X61560Y-43437D01*
X61570Y-43456D01*
X61570Y-43531D01*
X61663Y-43324D02*
X61663Y-43287D01*
X61654Y-43268D01*
X61645Y-43259D01*
X61616Y-43240D01*
X61579Y-43231D01*
X61504Y-43231D01*
X61485Y-43240D01*
X61476Y-43249D01*
X61467Y-43268D01*
X61467Y-43306D01*
X61476Y-43324D01*
X61485Y-43334D01*
X61504Y-43343D01*
X61551Y-43343D01*
X61570Y-43334D01*
X61579Y-43324D01*
X61588Y-43306D01*
X61588Y-43268D01*
X61579Y-43249D01*
X61570Y-43240D01*
X61551Y-43231D01*
X61663Y-42567D02*
X61570Y-42633D01*
X61663Y-42679D02*
X61467Y-42679D01*
X61467Y-42604D01*
X61476Y-42586D01*
X61485Y-42576D01*
X61504Y-42567D01*
X61532Y-42567D01*
X61551Y-42576D01*
X61560Y-42586D01*
X61570Y-42604D01*
X61570Y-42679D01*
X61663Y-42380D02*
X61663Y-42492D01*
X61663Y-42436D02*
X61467Y-42436D01*
X61495Y-42455D01*
X61513Y-42473D01*
X61523Y-42492D01*
X61467Y-42258D02*
X61467Y-42239D01*
X61476Y-42220D01*
X61485Y-42211D01*
X61504Y-42201D01*
X61541Y-42192D01*
X61588Y-42192D01*
X61626Y-42201D01*
X61645Y-42211D01*
X61654Y-42220D01*
X61663Y-42239D01*
X61663Y-42258D01*
X61654Y-42276D01*
X61645Y-42286D01*
X61626Y-42295D01*
X61588Y-42305D01*
X61541Y-42305D01*
X61504Y-42295D01*
X61485Y-42286D01*
X61476Y-42276D01*
X61467Y-42258D01*
X61663Y-41622D02*
X61570Y-41688D01*
X61663Y-41735D02*
X61467Y-41735D01*
X61467Y-41660D01*
X61476Y-41641D01*
X61485Y-41631D01*
X61504Y-41622D01*
X61532Y-41622D01*
X61551Y-41631D01*
X61560Y-41641D01*
X61570Y-41660D01*
X61570Y-41735D01*
X61663Y-41435D02*
X61663Y-41547D01*
X61663Y-41491D02*
X61467Y-41491D01*
X61495Y-41510D01*
X61513Y-41528D01*
X61523Y-41547D01*
X61663Y-41247D02*
X61663Y-41360D01*
X61663Y-41303D02*
X61467Y-41303D01*
X61495Y-41322D01*
X61513Y-41341D01*
X61523Y-41360D01*
X70876Y-38236D02*
X70782Y-38302D01*
X70876Y-38349D02*
X70679Y-38349D01*
X70679Y-38274D01*
X70688Y-38255D01*
X70698Y-38246D01*
X70717Y-38236D01*
X70745Y-38236D01*
X70763Y-38246D01*
X70773Y-38255D01*
X70782Y-38274D01*
X70782Y-38349D01*
X70876Y-38049D02*
X70876Y-38161D01*
X70876Y-38105D02*
X70679Y-38105D01*
X70707Y-38124D01*
X70726Y-38143D01*
X70735Y-38161D01*
X70698Y-37974D02*
X70688Y-37964D01*
X70679Y-37946D01*
X70679Y-37899D01*
X70688Y-37880D01*
X70698Y-37871D01*
X70717Y-37861D01*
X70735Y-37861D01*
X70763Y-37871D01*
X70876Y-37983D01*
X70876Y-37861D01*
X70876Y-36347D02*
X70782Y-36412D01*
X70876Y-36459D02*
X70679Y-36459D01*
X70679Y-36384D01*
X70688Y-36365D01*
X70698Y-36356D01*
X70717Y-36347D01*
X70745Y-36347D01*
X70763Y-36356D01*
X70773Y-36365D01*
X70782Y-36384D01*
X70782Y-36459D01*
X70876Y-36159D02*
X70876Y-36272D01*
X70876Y-36215D02*
X70679Y-36215D01*
X70707Y-36234D01*
X70726Y-36253D01*
X70735Y-36272D01*
X70679Y-36093D02*
X70679Y-35972D01*
X70754Y-36037D01*
X70754Y-36009D01*
X70763Y-35990D01*
X70773Y-35981D01*
X70792Y-35972D01*
X70838Y-35972D01*
X70857Y-35981D01*
X70867Y-35990D01*
X70876Y-36009D01*
X70876Y-36065D01*
X70867Y-36084D01*
X70857Y-36093D01*
X51526Y-18829D02*
X51461Y-18735D01*
X51414Y-18829D02*
X51414Y-18632D01*
X51489Y-18632D01*
X51508Y-18641D01*
X51517Y-18651D01*
X51526Y-18669D01*
X51526Y-18697D01*
X51517Y-18716D01*
X51508Y-18726D01*
X51489Y-18735D01*
X51414Y-18735D01*
X51714Y-18829D02*
X51601Y-18829D01*
X51658Y-18829D02*
X51658Y-18632D01*
X51639Y-18660D01*
X51620Y-18679D01*
X51601Y-18688D01*
X51883Y-18697D02*
X51883Y-18829D01*
X51836Y-18622D02*
X51789Y-18763D01*
X51911Y-18763D01*
X57333Y-17921D02*
X57239Y-17987D01*
X57333Y-18034D02*
X57136Y-18034D01*
X57136Y-17959D01*
X57145Y-17940D01*
X57155Y-17931D01*
X57173Y-17921D01*
X57201Y-17921D01*
X57220Y-17931D01*
X57230Y-17940D01*
X57239Y-17959D01*
X57239Y-18034D01*
X57333Y-17734D02*
X57333Y-17846D01*
X57333Y-17790D02*
X57136Y-17790D01*
X57164Y-17809D01*
X57183Y-17828D01*
X57192Y-17846D01*
X57136Y-17556D02*
X57136Y-17649D01*
X57230Y-17659D01*
X57220Y-17649D01*
X57211Y-17631D01*
X57211Y-17584D01*
X57220Y-17565D01*
X57230Y-17556D01*
X57248Y-17546D01*
X57295Y-17546D01*
X57314Y-17556D01*
X57323Y-17565D01*
X57333Y-17584D01*
X57333Y-17631D01*
X57323Y-17649D01*
X57314Y-17659D01*
X57333Y-21701D02*
X57239Y-21766D01*
X57333Y-21813D02*
X57136Y-21813D01*
X57136Y-21738D01*
X57145Y-21720D01*
X57155Y-21710D01*
X57173Y-21701D01*
X57201Y-21701D01*
X57220Y-21710D01*
X57230Y-21720D01*
X57239Y-21738D01*
X57239Y-21813D01*
X57333Y-21513D02*
X57333Y-21626D01*
X57333Y-21570D02*
X57136Y-21570D01*
X57164Y-21588D01*
X57183Y-21607D01*
X57192Y-21626D01*
X57136Y-21345D02*
X57136Y-21382D01*
X57145Y-21401D01*
X57155Y-21410D01*
X57183Y-21429D01*
X57220Y-21438D01*
X57295Y-21438D01*
X57314Y-21429D01*
X57323Y-21420D01*
X57333Y-21401D01*
X57333Y-21363D01*
X57323Y-21345D01*
X57314Y-21335D01*
X57295Y-21326D01*
X57248Y-21326D01*
X57230Y-21335D01*
X57220Y-21345D01*
X57211Y-21363D01*
X57211Y-21401D01*
X57220Y-21420D01*
X57230Y-21429D01*
X57248Y-21438D01*
X57175Y-22724D02*
X57081Y-22790D01*
X57175Y-22837D02*
X56978Y-22837D01*
X56978Y-22762D01*
X56988Y-22743D01*
X56997Y-22734D01*
X57016Y-22724D01*
X57044Y-22724D01*
X57063Y-22734D01*
X57072Y-22743D01*
X57081Y-22762D01*
X57081Y-22837D01*
X57175Y-22537D02*
X57175Y-22649D01*
X57175Y-22593D02*
X56978Y-22593D01*
X57006Y-22612D01*
X57025Y-22631D01*
X57035Y-22649D01*
X56978Y-22471D02*
X56978Y-22340D01*
X57175Y-22425D01*
X57333Y-20756D02*
X57239Y-20822D01*
X57333Y-20868D02*
X57136Y-20868D01*
X57136Y-20793D01*
X57145Y-20775D01*
X57155Y-20765D01*
X57173Y-20756D01*
X57201Y-20756D01*
X57220Y-20765D01*
X57230Y-20775D01*
X57239Y-20793D01*
X57239Y-20868D01*
X57333Y-20568D02*
X57333Y-20681D01*
X57333Y-20625D02*
X57136Y-20625D01*
X57164Y-20643D01*
X57183Y-20662D01*
X57192Y-20681D01*
X57220Y-20456D02*
X57211Y-20475D01*
X57201Y-20484D01*
X57183Y-20494D01*
X57173Y-20494D01*
X57155Y-20484D01*
X57145Y-20475D01*
X57136Y-20456D01*
X57136Y-20419D01*
X57145Y-20400D01*
X57155Y-20390D01*
X57173Y-20381D01*
X57183Y-20381D01*
X57201Y-20390D01*
X57211Y-20400D01*
X57220Y-20419D01*
X57220Y-20456D01*
X57230Y-20475D01*
X57239Y-20484D01*
X57258Y-20494D01*
X57295Y-20494D01*
X57314Y-20484D01*
X57323Y-20475D01*
X57333Y-20456D01*
X57333Y-20419D01*
X57323Y-20400D01*
X57314Y-20390D01*
X57295Y-20381D01*
X57258Y-20381D01*
X57239Y-20390D01*
X57230Y-20400D01*
X57220Y-20419D01*
X57333Y-19811D02*
X57239Y-19877D01*
X57333Y-19924D02*
X57136Y-19924D01*
X57136Y-19849D01*
X57145Y-19830D01*
X57155Y-19820D01*
X57173Y-19811D01*
X57201Y-19811D01*
X57220Y-19820D01*
X57230Y-19830D01*
X57239Y-19849D01*
X57239Y-19924D01*
X57333Y-19624D02*
X57333Y-19736D01*
X57333Y-19680D02*
X57136Y-19680D01*
X57164Y-19699D01*
X57183Y-19717D01*
X57192Y-19736D01*
X57333Y-19530D02*
X57333Y-19492D01*
X57323Y-19474D01*
X57314Y-19464D01*
X57286Y-19446D01*
X57248Y-19436D01*
X57173Y-19436D01*
X57155Y-19446D01*
X57145Y-19455D01*
X57136Y-19474D01*
X57136Y-19511D01*
X57145Y-19530D01*
X57155Y-19539D01*
X57173Y-19549D01*
X57220Y-19549D01*
X57239Y-19539D01*
X57248Y-19530D01*
X57258Y-19511D01*
X57258Y-19474D01*
X57248Y-19455D01*
X57239Y-19446D01*
X57220Y-19436D01*
X54597Y-22136D02*
X54532Y-22042D01*
X54485Y-22136D02*
X54485Y-21939D01*
X54560Y-21939D01*
X54579Y-21948D01*
X54588Y-21958D01*
X54597Y-21976D01*
X54597Y-22005D01*
X54588Y-22023D01*
X54579Y-22033D01*
X54560Y-22042D01*
X54485Y-22042D01*
X54672Y-21958D02*
X54682Y-21948D01*
X54700Y-21939D01*
X54747Y-21939D01*
X54766Y-21948D01*
X54775Y-21958D01*
X54785Y-21976D01*
X54785Y-21995D01*
X54775Y-22023D01*
X54663Y-22136D01*
X54785Y-22136D01*
X54907Y-21939D02*
X54925Y-21939D01*
X54944Y-21948D01*
X54954Y-21958D01*
X54963Y-21976D01*
X54972Y-22014D01*
X54972Y-22061D01*
X54963Y-22098D01*
X54954Y-22117D01*
X54944Y-22126D01*
X54925Y-22136D01*
X54907Y-22136D01*
X54888Y-22126D01*
X54879Y-22117D01*
X54869Y-22098D01*
X54860Y-22061D01*
X54860Y-22014D01*
X54869Y-21976D01*
X54879Y-21958D01*
X54888Y-21948D01*
X54907Y-21939D01*
X71703Y-19339D02*
X71609Y-19404D01*
X71703Y-19451D02*
X71506Y-19451D01*
X71506Y-19376D01*
X71515Y-19357D01*
X71525Y-19348D01*
X71543Y-19339D01*
X71571Y-19339D01*
X71590Y-19348D01*
X71600Y-19357D01*
X71609Y-19376D01*
X71609Y-19451D01*
X71525Y-19264D02*
X71515Y-19254D01*
X71506Y-19236D01*
X71506Y-19189D01*
X71515Y-19170D01*
X71525Y-19161D01*
X71543Y-19151D01*
X71562Y-19151D01*
X71590Y-19161D01*
X71703Y-19273D01*
X71703Y-19151D01*
X71703Y-18964D02*
X71703Y-19076D01*
X71703Y-19020D02*
X71506Y-19020D01*
X71534Y-19039D01*
X71553Y-19057D01*
X71562Y-19076D01*
X53101Y-22096D02*
X53036Y-22003D01*
X52989Y-22096D02*
X52989Y-21900D01*
X53064Y-21900D01*
X53083Y-21909D01*
X53092Y-21918D01*
X53101Y-21937D01*
X53101Y-21965D01*
X53092Y-21984D01*
X53083Y-21993D01*
X53064Y-22003D01*
X52989Y-22003D01*
X53176Y-21918D02*
X53186Y-21909D01*
X53204Y-21900D01*
X53251Y-21900D01*
X53270Y-21909D01*
X53279Y-21918D01*
X53289Y-21937D01*
X53289Y-21956D01*
X53279Y-21984D01*
X53167Y-22096D01*
X53289Y-22096D01*
X53364Y-21918D02*
X53373Y-21909D01*
X53392Y-21900D01*
X53439Y-21900D01*
X53458Y-21909D01*
X53467Y-21918D01*
X53476Y-21937D01*
X53476Y-21956D01*
X53467Y-21984D01*
X53354Y-22096D01*
X53476Y-22096D01*
X57726Y-25717D02*
X57633Y-25782D01*
X57726Y-25829D02*
X57529Y-25829D01*
X57529Y-25754D01*
X57539Y-25735D01*
X57548Y-25726D01*
X57567Y-25717D01*
X57595Y-25717D01*
X57614Y-25726D01*
X57623Y-25735D01*
X57633Y-25754D01*
X57633Y-25829D01*
X57548Y-25642D02*
X57539Y-25632D01*
X57529Y-25613D01*
X57529Y-25567D01*
X57539Y-25548D01*
X57548Y-25538D01*
X57567Y-25529D01*
X57586Y-25529D01*
X57614Y-25538D01*
X57726Y-25651D01*
X57726Y-25529D01*
X57529Y-25464D02*
X57529Y-25342D01*
X57604Y-25407D01*
X57604Y-25379D01*
X57614Y-25360D01*
X57623Y-25351D01*
X57642Y-25342D01*
X57689Y-25342D01*
X57708Y-25351D01*
X57717Y-25360D01*
X57726Y-25379D01*
X57726Y-25435D01*
X57717Y-25454D01*
X57708Y-25464D01*
X57726Y-26661D02*
X57633Y-26727D01*
X57726Y-26774D02*
X57529Y-26774D01*
X57529Y-26699D01*
X57539Y-26680D01*
X57548Y-26671D01*
X57567Y-26661D01*
X57595Y-26661D01*
X57614Y-26671D01*
X57623Y-26680D01*
X57633Y-26699D01*
X57633Y-26774D01*
X57548Y-26586D02*
X57539Y-26577D01*
X57529Y-26558D01*
X57529Y-26511D01*
X57539Y-26493D01*
X57548Y-26483D01*
X57567Y-26474D01*
X57586Y-26474D01*
X57614Y-26483D01*
X57726Y-26596D01*
X57726Y-26474D01*
X57595Y-26305D02*
X57726Y-26305D01*
X57520Y-26352D02*
X57661Y-26399D01*
X57661Y-26277D01*
X54755Y-27293D02*
X54689Y-27200D01*
X54642Y-27293D02*
X54642Y-27096D01*
X54717Y-27096D01*
X54736Y-27106D01*
X54745Y-27115D01*
X54755Y-27134D01*
X54755Y-27162D01*
X54745Y-27181D01*
X54736Y-27190D01*
X54717Y-27200D01*
X54642Y-27200D01*
X54830Y-27115D02*
X54839Y-27106D01*
X54858Y-27096D01*
X54905Y-27096D01*
X54924Y-27106D01*
X54933Y-27115D01*
X54942Y-27134D01*
X54942Y-27153D01*
X54933Y-27181D01*
X54820Y-27293D01*
X54942Y-27293D01*
X55120Y-27096D02*
X55027Y-27096D01*
X55017Y-27190D01*
X55027Y-27181D01*
X55045Y-27171D01*
X55092Y-27171D01*
X55111Y-27181D01*
X55120Y-27190D01*
X55130Y-27209D01*
X55130Y-27256D01*
X55120Y-27275D01*
X55111Y-27284D01*
X55092Y-27293D01*
X55045Y-27293D01*
X55027Y-27284D01*
X55017Y-27275D01*
X58534Y-40955D02*
X58469Y-40861D01*
X58422Y-40955D02*
X58422Y-40758D01*
X58497Y-40758D01*
X58516Y-40767D01*
X58525Y-40777D01*
X58534Y-40795D01*
X58534Y-40823D01*
X58525Y-40842D01*
X58516Y-40852D01*
X58497Y-40861D01*
X58422Y-40861D01*
X58609Y-40777D02*
X58619Y-40767D01*
X58637Y-40758D01*
X58684Y-40758D01*
X58703Y-40767D01*
X58712Y-40777D01*
X58722Y-40795D01*
X58722Y-40814D01*
X58712Y-40842D01*
X58600Y-40955D01*
X58722Y-40955D01*
X58891Y-40758D02*
X58853Y-40758D01*
X58834Y-40767D01*
X58825Y-40777D01*
X58806Y-40805D01*
X58797Y-40842D01*
X58797Y-40917D01*
X58806Y-40936D01*
X58816Y-40945D01*
X58834Y-40955D01*
X58872Y-40955D01*
X58891Y-40945D01*
X58900Y-40936D01*
X58909Y-40917D01*
X58909Y-40870D01*
X58900Y-40852D01*
X58891Y-40842D01*
X58872Y-40833D01*
X58834Y-40833D01*
X58816Y-40842D01*
X58806Y-40852D01*
X58797Y-40870D01*
X59243Y-36781D02*
X59177Y-36688D01*
X59131Y-36781D02*
X59131Y-36585D01*
X59206Y-36585D01*
X59224Y-36594D01*
X59234Y-36603D01*
X59243Y-36622D01*
X59243Y-36650D01*
X59234Y-36669D01*
X59224Y-36678D01*
X59206Y-36688D01*
X59131Y-36688D01*
X59318Y-36603D02*
X59327Y-36594D01*
X59346Y-36585D01*
X59393Y-36585D01*
X59412Y-36594D01*
X59421Y-36603D01*
X59431Y-36622D01*
X59431Y-36641D01*
X59421Y-36669D01*
X59309Y-36781D01*
X59431Y-36781D01*
X59496Y-36585D02*
X59627Y-36585D01*
X59543Y-36781D01*
X58396Y-39181D02*
X58302Y-39247D01*
X58396Y-39294D02*
X58199Y-39294D01*
X58199Y-39219D01*
X58208Y-39200D01*
X58218Y-39191D01*
X58236Y-39181D01*
X58264Y-39181D01*
X58283Y-39191D01*
X58293Y-39200D01*
X58302Y-39219D01*
X58302Y-39294D01*
X58218Y-39106D02*
X58208Y-39097D01*
X58199Y-39078D01*
X58199Y-39031D01*
X58208Y-39012D01*
X58218Y-39003D01*
X58236Y-38994D01*
X58255Y-38994D01*
X58283Y-39003D01*
X58396Y-39116D01*
X58396Y-38994D01*
X58283Y-38881D02*
X58274Y-38900D01*
X58264Y-38909D01*
X58246Y-38919D01*
X58236Y-38919D01*
X58218Y-38909D01*
X58208Y-38900D01*
X58199Y-38881D01*
X58199Y-38844D01*
X58208Y-38825D01*
X58218Y-38816D01*
X58236Y-38806D01*
X58246Y-38806D01*
X58264Y-38816D01*
X58274Y-38825D01*
X58283Y-38844D01*
X58283Y-38881D01*
X58293Y-38900D01*
X58302Y-38909D01*
X58321Y-38919D01*
X58358Y-38919D01*
X58377Y-38909D01*
X58386Y-38900D01*
X58396Y-38881D01*
X58396Y-38844D01*
X58386Y-38825D01*
X58377Y-38816D01*
X58358Y-38806D01*
X58321Y-38806D01*
X58302Y-38816D01*
X58293Y-38825D01*
X58283Y-38844D01*
X56015Y-35915D02*
X55949Y-35822D01*
X55902Y-35915D02*
X55902Y-35718D01*
X55977Y-35718D01*
X55996Y-35728D01*
X56005Y-35737D01*
X56015Y-35756D01*
X56015Y-35784D01*
X56005Y-35803D01*
X55996Y-35812D01*
X55977Y-35822D01*
X55902Y-35822D01*
X56090Y-35737D02*
X56099Y-35728D01*
X56118Y-35718D01*
X56165Y-35718D01*
X56183Y-35728D01*
X56193Y-35737D01*
X56202Y-35756D01*
X56202Y-35775D01*
X56193Y-35803D01*
X56080Y-35915D01*
X56202Y-35915D01*
X56296Y-35915D02*
X56333Y-35915D01*
X56352Y-35906D01*
X56362Y-35897D01*
X56380Y-35868D01*
X56390Y-35831D01*
X56390Y-35756D01*
X56380Y-35737D01*
X56371Y-35728D01*
X56352Y-35718D01*
X56315Y-35718D01*
X56296Y-35728D01*
X56287Y-35737D01*
X56277Y-35756D01*
X56277Y-35803D01*
X56287Y-35822D01*
X56296Y-35831D01*
X56315Y-35840D01*
X56352Y-35840D01*
X56371Y-35831D01*
X56380Y-35822D01*
X56390Y-35803D01*
X52944Y-37648D02*
X52878Y-37554D01*
X52831Y-37648D02*
X52831Y-37451D01*
X52906Y-37451D01*
X52925Y-37460D01*
X52934Y-37470D01*
X52944Y-37488D01*
X52944Y-37516D01*
X52934Y-37535D01*
X52925Y-37544D01*
X52906Y-37554D01*
X52831Y-37554D01*
X53009Y-37451D02*
X53131Y-37451D01*
X53066Y-37526D01*
X53094Y-37526D01*
X53113Y-37535D01*
X53122Y-37544D01*
X53131Y-37563D01*
X53131Y-37610D01*
X53122Y-37629D01*
X53113Y-37638D01*
X53094Y-37648D01*
X53038Y-37648D01*
X53019Y-37638D01*
X53009Y-37629D01*
X53253Y-37451D02*
X53272Y-37451D01*
X53291Y-37460D01*
X53300Y-37470D01*
X53309Y-37488D01*
X53319Y-37526D01*
X53319Y-37573D01*
X53309Y-37610D01*
X53300Y-37629D01*
X53291Y-37638D01*
X53272Y-37648D01*
X53253Y-37648D01*
X53234Y-37638D01*
X53225Y-37629D01*
X53216Y-37610D01*
X53206Y-37573D01*
X53206Y-37526D01*
X53216Y-37488D01*
X53225Y-37470D01*
X53234Y-37460D01*
X53253Y-37451D01*
X57038Y-40955D02*
X56973Y-40861D01*
X56926Y-40955D02*
X56926Y-40758D01*
X57001Y-40758D01*
X57020Y-40767D01*
X57029Y-40777D01*
X57038Y-40795D01*
X57038Y-40823D01*
X57029Y-40842D01*
X57020Y-40852D01*
X57001Y-40861D01*
X56926Y-40861D01*
X57104Y-40758D02*
X57226Y-40758D01*
X57160Y-40833D01*
X57188Y-40833D01*
X57207Y-40842D01*
X57216Y-40852D01*
X57226Y-40870D01*
X57226Y-40917D01*
X57216Y-40936D01*
X57207Y-40945D01*
X57188Y-40955D01*
X57132Y-40955D01*
X57113Y-40945D01*
X57104Y-40936D01*
X57413Y-40955D02*
X57301Y-40955D01*
X57357Y-40955D02*
X57357Y-40758D01*
X57338Y-40786D01*
X57320Y-40805D01*
X57301Y-40814D01*
X49498Y-31307D02*
X49404Y-31373D01*
X49498Y-31420D02*
X49301Y-31420D01*
X49301Y-31345D01*
X49311Y-31326D01*
X49320Y-31317D01*
X49339Y-31307D01*
X49367Y-31307D01*
X49386Y-31317D01*
X49395Y-31326D01*
X49404Y-31345D01*
X49404Y-31420D01*
X49301Y-31242D02*
X49301Y-31120D01*
X49376Y-31185D01*
X49376Y-31157D01*
X49386Y-31138D01*
X49395Y-31129D01*
X49414Y-31120D01*
X49461Y-31120D01*
X49479Y-31129D01*
X49489Y-31138D01*
X49498Y-31157D01*
X49498Y-31213D01*
X49489Y-31232D01*
X49479Y-31242D01*
X49320Y-31045D02*
X49311Y-31035D01*
X49301Y-31017D01*
X49301Y-30970D01*
X49311Y-30951D01*
X49320Y-30942D01*
X49339Y-30932D01*
X49357Y-30932D01*
X49386Y-30942D01*
X49498Y-31054D01*
X49498Y-30932D01*
X49873Y-36939D02*
X49807Y-36845D01*
X49760Y-36939D02*
X49760Y-36742D01*
X49835Y-36742D01*
X49854Y-36751D01*
X49864Y-36761D01*
X49873Y-36780D01*
X49873Y-36808D01*
X49864Y-36826D01*
X49854Y-36836D01*
X49835Y-36845D01*
X49760Y-36845D01*
X49939Y-36742D02*
X50060Y-36742D01*
X49995Y-36817D01*
X50023Y-36817D01*
X50042Y-36826D01*
X50051Y-36836D01*
X50060Y-36855D01*
X50060Y-36901D01*
X50051Y-36920D01*
X50042Y-36930D01*
X50023Y-36939D01*
X49967Y-36939D01*
X49948Y-36930D01*
X49939Y-36920D01*
X50126Y-36742D02*
X50248Y-36742D01*
X50182Y-36817D01*
X50210Y-36817D01*
X50229Y-36826D01*
X50239Y-36836D01*
X50248Y-36855D01*
X50248Y-36901D01*
X50239Y-36920D01*
X50229Y-36930D01*
X50210Y-36939D01*
X50154Y-36939D01*
X50135Y-36930D01*
X50126Y-36920D01*
X49498Y-39339D02*
X49404Y-39404D01*
X49498Y-39451D02*
X49301Y-39451D01*
X49301Y-39376D01*
X49311Y-39357D01*
X49320Y-39348D01*
X49339Y-39339D01*
X49367Y-39339D01*
X49386Y-39348D01*
X49395Y-39357D01*
X49404Y-39376D01*
X49404Y-39451D01*
X49301Y-39273D02*
X49301Y-39151D01*
X49376Y-39217D01*
X49376Y-39189D01*
X49386Y-39170D01*
X49395Y-39161D01*
X49414Y-39151D01*
X49461Y-39151D01*
X49479Y-39161D01*
X49489Y-39170D01*
X49498Y-39189D01*
X49498Y-39245D01*
X49489Y-39264D01*
X49479Y-39273D01*
X49367Y-38982D02*
X49498Y-38982D01*
X49292Y-39029D02*
X49432Y-39076D01*
X49432Y-38954D01*
X50030Y-46781D02*
X49965Y-46688D01*
X49918Y-46781D02*
X49918Y-46585D01*
X49993Y-46585D01*
X50012Y-46594D01*
X50021Y-46603D01*
X50030Y-46622D01*
X50030Y-46650D01*
X50021Y-46669D01*
X50012Y-46678D01*
X49993Y-46688D01*
X49918Y-46688D01*
X50096Y-46585D02*
X50218Y-46585D01*
X50152Y-46660D01*
X50180Y-46660D01*
X50199Y-46669D01*
X50209Y-46678D01*
X50218Y-46697D01*
X50218Y-46744D01*
X50209Y-46763D01*
X50199Y-46772D01*
X50180Y-46781D01*
X50124Y-46781D01*
X50105Y-46772D01*
X50096Y-46763D01*
X50396Y-46585D02*
X50302Y-46585D01*
X50293Y-46678D01*
X50302Y-46669D01*
X50321Y-46660D01*
X50368Y-46660D01*
X50387Y-46669D01*
X50396Y-46678D01*
X50405Y-46697D01*
X50405Y-46744D01*
X50396Y-46763D01*
X50387Y-46772D01*
X50368Y-46781D01*
X50321Y-46781D01*
X50302Y-46772D01*
X50293Y-46763D01*
X55285Y-34614D02*
X55192Y-34680D01*
X55285Y-34727D02*
X55089Y-34727D01*
X55089Y-34652D01*
X55098Y-34633D01*
X55107Y-34624D01*
X55126Y-34614D01*
X55154Y-34614D01*
X55173Y-34624D01*
X55182Y-34633D01*
X55192Y-34652D01*
X55192Y-34727D01*
X55089Y-34549D02*
X55089Y-34427D01*
X55164Y-34492D01*
X55164Y-34464D01*
X55173Y-34446D01*
X55182Y-34436D01*
X55201Y-34427D01*
X55248Y-34427D01*
X55267Y-34436D01*
X55276Y-34446D01*
X55285Y-34464D01*
X55285Y-34520D01*
X55276Y-34539D01*
X55267Y-34549D01*
X55089Y-34258D02*
X55089Y-34296D01*
X55098Y-34314D01*
X55107Y-34324D01*
X55135Y-34342D01*
X55173Y-34352D01*
X55248Y-34352D01*
X55267Y-34342D01*
X55276Y-34333D01*
X55285Y-34314D01*
X55285Y-34277D01*
X55276Y-34258D01*
X55267Y-34249D01*
X55248Y-34239D01*
X55201Y-34239D01*
X55182Y-34249D01*
X55173Y-34258D01*
X55164Y-34277D01*
X55164Y-34314D01*
X55173Y-34333D01*
X55182Y-34342D01*
X55201Y-34352D01*
X55522Y-42173D02*
X55428Y-42239D01*
X55522Y-42286D02*
X55325Y-42286D01*
X55325Y-42211D01*
X55334Y-42192D01*
X55344Y-42183D01*
X55362Y-42173D01*
X55390Y-42173D01*
X55409Y-42183D01*
X55419Y-42192D01*
X55428Y-42211D01*
X55428Y-42286D01*
X55325Y-42108D02*
X55325Y-41986D01*
X55400Y-42051D01*
X55400Y-42023D01*
X55409Y-42005D01*
X55419Y-41995D01*
X55437Y-41986D01*
X55484Y-41986D01*
X55503Y-41995D01*
X55512Y-42005D01*
X55522Y-42023D01*
X55522Y-42080D01*
X55512Y-42098D01*
X55503Y-42108D01*
X55325Y-41920D02*
X55325Y-41789D01*
X55522Y-41873D01*
X55285Y-33669D02*
X55192Y-33735D01*
X55285Y-33782D02*
X55089Y-33782D01*
X55089Y-33707D01*
X55098Y-33688D01*
X55107Y-33679D01*
X55126Y-33669D01*
X55154Y-33669D01*
X55173Y-33679D01*
X55182Y-33688D01*
X55192Y-33707D01*
X55192Y-33782D01*
X55089Y-33604D02*
X55089Y-33482D01*
X55164Y-33547D01*
X55164Y-33519D01*
X55173Y-33501D01*
X55182Y-33491D01*
X55201Y-33482D01*
X55248Y-33482D01*
X55267Y-33491D01*
X55276Y-33501D01*
X55285Y-33519D01*
X55285Y-33576D01*
X55276Y-33594D01*
X55267Y-33604D01*
X55173Y-33369D02*
X55164Y-33388D01*
X55154Y-33398D01*
X55135Y-33407D01*
X55126Y-33407D01*
X55107Y-33398D01*
X55098Y-33388D01*
X55089Y-33369D01*
X55089Y-33332D01*
X55098Y-33313D01*
X55107Y-33304D01*
X55126Y-33294D01*
X55135Y-33294D01*
X55154Y-33304D01*
X55164Y-33313D01*
X55173Y-33332D01*
X55173Y-33369D01*
X55182Y-33388D01*
X55192Y-33398D01*
X55210Y-33407D01*
X55248Y-33407D01*
X55267Y-33398D01*
X55276Y-33388D01*
X55285Y-33369D01*
X55285Y-33332D01*
X55276Y-33313D01*
X55267Y-33304D01*
X55248Y-33294D01*
X55210Y-33294D01*
X55192Y-33304D01*
X55182Y-33313D01*
X55173Y-33332D01*
X55522Y-43118D02*
X55428Y-43184D01*
X55522Y-43231D02*
X55325Y-43231D01*
X55325Y-43156D01*
X55334Y-43137D01*
X55344Y-43128D01*
X55362Y-43118D01*
X55390Y-43118D01*
X55409Y-43128D01*
X55419Y-43137D01*
X55428Y-43156D01*
X55428Y-43231D01*
X55325Y-43053D02*
X55325Y-42931D01*
X55400Y-42996D01*
X55400Y-42968D01*
X55409Y-42949D01*
X55419Y-42940D01*
X55437Y-42931D01*
X55484Y-42931D01*
X55503Y-42940D01*
X55512Y-42949D01*
X55522Y-42968D01*
X55522Y-43024D01*
X55512Y-43043D01*
X55503Y-43053D01*
X55522Y-42837D02*
X55522Y-42799D01*
X55512Y-42781D01*
X55503Y-42771D01*
X55475Y-42753D01*
X55437Y-42743D01*
X55362Y-42743D01*
X55344Y-42753D01*
X55334Y-42762D01*
X55325Y-42781D01*
X55325Y-42818D01*
X55334Y-42837D01*
X55344Y-42846D01*
X55362Y-42856D01*
X55409Y-42856D01*
X55428Y-42846D01*
X55437Y-42837D01*
X55447Y-42818D01*
X55447Y-42781D01*
X55437Y-42762D01*
X55428Y-42753D01*
X55409Y-42743D01*
X74498Y-23827D02*
X74404Y-23892D01*
X74498Y-23939D02*
X74301Y-23939D01*
X74301Y-23864D01*
X74311Y-23846D01*
X74320Y-23836D01*
X74339Y-23827D01*
X74367Y-23827D01*
X74386Y-23836D01*
X74395Y-23846D01*
X74404Y-23864D01*
X74404Y-23939D01*
X74367Y-23658D02*
X74498Y-23658D01*
X74292Y-23705D02*
X74432Y-23752D01*
X74432Y-23630D01*
X74301Y-23517D02*
X74301Y-23499D01*
X74311Y-23480D01*
X74320Y-23471D01*
X74339Y-23461D01*
X74376Y-23452D01*
X74423Y-23452D01*
X74461Y-23461D01*
X74479Y-23471D01*
X74489Y-23480D01*
X74498Y-23499D01*
X74498Y-23517D01*
X74489Y-23536D01*
X74479Y-23546D01*
X74461Y-23555D01*
X74423Y-23564D01*
X74376Y-23564D01*
X74339Y-23555D01*
X74320Y-23546D01*
X74311Y-23536D01*
X74301Y-23517D01*
X74498Y-21937D02*
X74404Y-22003D01*
X74498Y-22050D02*
X74301Y-22050D01*
X74301Y-21975D01*
X74311Y-21956D01*
X74320Y-21946D01*
X74339Y-21937D01*
X74367Y-21937D01*
X74386Y-21946D01*
X74395Y-21956D01*
X74404Y-21975D01*
X74404Y-22050D01*
X74367Y-21768D02*
X74498Y-21768D01*
X74292Y-21815D02*
X74432Y-21862D01*
X74432Y-21740D01*
X74498Y-21562D02*
X74498Y-21675D01*
X74498Y-21618D02*
X74301Y-21618D01*
X74329Y-21637D01*
X74348Y-21656D01*
X74357Y-21675D01*
X72766Y-26661D02*
X72672Y-26727D01*
X72766Y-26774D02*
X72569Y-26774D01*
X72569Y-26699D01*
X72578Y-26680D01*
X72588Y-26671D01*
X72606Y-26661D01*
X72634Y-26661D01*
X72653Y-26671D01*
X72663Y-26680D01*
X72672Y-26699D01*
X72672Y-26774D01*
X72634Y-26493D02*
X72766Y-26493D01*
X72559Y-26540D02*
X72700Y-26586D01*
X72700Y-26465D01*
X72588Y-26399D02*
X72578Y-26390D01*
X72569Y-26371D01*
X72569Y-26324D01*
X72578Y-26305D01*
X72588Y-26296D01*
X72606Y-26287D01*
X72625Y-26287D01*
X72653Y-26296D01*
X72766Y-26408D01*
X72766Y-26287D01*
X73416Y-28159D02*
X73351Y-28066D01*
X73304Y-28159D02*
X73304Y-27963D01*
X73379Y-27963D01*
X73398Y-27972D01*
X73407Y-27981D01*
X73416Y-28000D01*
X73416Y-28028D01*
X73407Y-28047D01*
X73398Y-28056D01*
X73379Y-28066D01*
X73304Y-28066D01*
X73585Y-28028D02*
X73585Y-28159D01*
X73538Y-27953D02*
X73491Y-28094D01*
X73613Y-28094D01*
X73669Y-27963D02*
X73791Y-27963D01*
X73726Y-28038D01*
X73754Y-28038D01*
X73772Y-28047D01*
X73782Y-28056D01*
X73791Y-28075D01*
X73791Y-28122D01*
X73782Y-28141D01*
X73772Y-28150D01*
X73754Y-28159D01*
X73697Y-28159D01*
X73679Y-28150D01*
X73669Y-28141D01*
X62057Y-32016D02*
X61963Y-32081D01*
X62057Y-32128D02*
X61860Y-32128D01*
X61860Y-32053D01*
X61870Y-32035D01*
X61879Y-32025D01*
X61898Y-32016D01*
X61926Y-32016D01*
X61945Y-32025D01*
X61954Y-32035D01*
X61963Y-32053D01*
X61963Y-32128D01*
X61926Y-31847D02*
X62057Y-31847D01*
X61851Y-31894D02*
X61991Y-31941D01*
X61991Y-31819D01*
X61926Y-31660D02*
X62057Y-31660D01*
X61851Y-31706D02*
X61991Y-31753D01*
X61991Y-31631D01*
G54D10*
X59621Y-44805D02*
X59677Y-44823D01*
X59771Y-44823D01*
X59808Y-44805D01*
X59827Y-44786D01*
X59846Y-44748D01*
X59846Y-44711D01*
X59827Y-44673D01*
X59808Y-44655D01*
X59771Y-44636D01*
X59696Y-44617D01*
X59658Y-44598D01*
X59640Y-44580D01*
X59621Y-44542D01*
X59621Y-44505D01*
X59640Y-44467D01*
X59658Y-44448D01*
X59696Y-44430D01*
X59790Y-44430D01*
X59846Y-44448D01*
X60221Y-44823D02*
X59996Y-44823D01*
X60108Y-44823D02*
X60108Y-44430D01*
X60071Y-44486D01*
X60033Y-44523D01*
X59996Y-44542D01*
X64503Y-37500D02*
X64503Y-37819D01*
X64521Y-37857D01*
X64540Y-37875D01*
X64578Y-37894D01*
X64653Y-37894D01*
X64690Y-37875D01*
X64709Y-37857D01*
X64728Y-37819D01*
X64728Y-37500D01*
X65121Y-37894D02*
X64896Y-37894D01*
X65009Y-37894D02*
X65009Y-37500D01*
X64971Y-37557D01*
X64934Y-37594D01*
X64896Y-37613D01*
X54266Y-17107D02*
X54266Y-17425D01*
X54285Y-17463D01*
X54304Y-17482D01*
X54341Y-17500D01*
X54416Y-17500D01*
X54454Y-17482D01*
X54473Y-17463D01*
X54491Y-17425D01*
X54491Y-17107D01*
X54660Y-17144D02*
X54679Y-17125D01*
X54716Y-17107D01*
X54810Y-17107D01*
X54848Y-17125D01*
X54866Y-17144D01*
X54885Y-17182D01*
X54885Y-17219D01*
X54866Y-17275D01*
X54641Y-17500D01*
X54885Y-17500D01*
X58760Y-29985D02*
X59079Y-29985D01*
X59116Y-29966D01*
X59135Y-29947D01*
X59154Y-29910D01*
X59154Y-29835D01*
X59135Y-29797D01*
X59116Y-29778D01*
X59079Y-29760D01*
X58760Y-29760D01*
X58760Y-29610D02*
X58760Y-29366D01*
X58910Y-29497D01*
X58910Y-29441D01*
X58929Y-29403D01*
X58948Y-29385D01*
X58985Y-29366D01*
X59079Y-29366D01*
X59116Y-29385D01*
X59135Y-29403D01*
X59154Y-29441D01*
X59154Y-29553D01*
X59135Y-29591D01*
X59116Y-29610D01*
X53085Y-26083D02*
X53085Y-26402D01*
X53104Y-26439D01*
X53123Y-26458D01*
X53160Y-26477D01*
X53235Y-26477D01*
X53273Y-26458D01*
X53292Y-26439D01*
X53310Y-26402D01*
X53310Y-26083D01*
X53667Y-26214D02*
X53667Y-26477D01*
X53573Y-26064D02*
X53479Y-26346D01*
X53723Y-26346D01*
X55763Y-40571D02*
X55763Y-40890D01*
X55781Y-40928D01*
X55800Y-40946D01*
X55838Y-40965D01*
X55913Y-40965D01*
X55950Y-40946D01*
X55969Y-40928D01*
X55988Y-40890D01*
X55988Y-40571D01*
X56362Y-40571D02*
X56175Y-40571D01*
X56156Y-40759D01*
X56175Y-40740D01*
X56212Y-40721D01*
X56306Y-40721D01*
X56344Y-40740D01*
X56362Y-40759D01*
X56381Y-40796D01*
X56381Y-40890D01*
X56362Y-40928D01*
X56344Y-40946D01*
X56306Y-40965D01*
X56212Y-40965D01*
X56175Y-40946D01*
X56156Y-40928D01*
X48676Y-32697D02*
X48676Y-33016D01*
X48695Y-33053D01*
X48713Y-33072D01*
X48751Y-33091D01*
X48826Y-33091D01*
X48863Y-33072D01*
X48882Y-33053D01*
X48901Y-33016D01*
X48901Y-32697D01*
X49257Y-32697D02*
X49182Y-32697D01*
X49145Y-32716D01*
X49126Y-32735D01*
X49088Y-32791D01*
X49070Y-32866D01*
X49070Y-33016D01*
X49088Y-33053D01*
X49107Y-33072D01*
X49145Y-33091D01*
X49220Y-33091D01*
X49257Y-33072D01*
X49276Y-33053D01*
X49295Y-33016D01*
X49295Y-32922D01*
X49276Y-32885D01*
X49257Y-32866D01*
X49220Y-32847D01*
X49145Y-32847D01*
X49107Y-32866D01*
X49088Y-32885D01*
X49070Y-32922D01*
X48676Y-40808D02*
X48676Y-41126D01*
X48695Y-41164D01*
X48713Y-41182D01*
X48751Y-41201D01*
X48826Y-41201D01*
X48863Y-41182D01*
X48882Y-41164D01*
X48901Y-41126D01*
X48901Y-40808D01*
X49051Y-40808D02*
X49313Y-40808D01*
X49145Y-41201D01*
X68203Y-22146D02*
X68203Y-22465D01*
X68222Y-22502D01*
X68241Y-22521D01*
X68278Y-22540D01*
X68353Y-22540D01*
X68391Y-22521D01*
X68410Y-22502D01*
X68428Y-22465D01*
X68428Y-22146D01*
X68672Y-22315D02*
X68635Y-22296D01*
X68616Y-22277D01*
X68597Y-22240D01*
X68597Y-22221D01*
X68616Y-22184D01*
X68635Y-22165D01*
X68672Y-22146D01*
X68747Y-22146D01*
X68785Y-22165D01*
X68803Y-22184D01*
X68822Y-22221D01*
X68822Y-22240D01*
X68803Y-22277D01*
X68785Y-22296D01*
X68747Y-22315D01*
X68672Y-22315D01*
X68635Y-22334D01*
X68616Y-22352D01*
X68597Y-22390D01*
X68597Y-22465D01*
X68616Y-22502D01*
X68635Y-22521D01*
X68672Y-22540D01*
X68747Y-22540D01*
X68785Y-22521D01*
X68803Y-22502D01*
X68822Y-22465D01*
X68822Y-22390D01*
X68803Y-22352D01*
X68785Y-22334D01*
X68747Y-22315D01*
X59193Y-33704D02*
X59587Y-33442D01*
X59193Y-33442D02*
X59587Y-33704D01*
X59587Y-33085D02*
X59587Y-33310D01*
X59587Y-33198D02*
X59193Y-33198D01*
X59250Y-33235D01*
X59287Y-33273D01*
X59306Y-33310D01*
X68736Y-30650D02*
X68998Y-31044D01*
X68998Y-30650D02*
X68736Y-31044D01*
X69130Y-30688D02*
X69148Y-30669D01*
X69186Y-30650D01*
X69280Y-30650D01*
X69317Y-30669D01*
X69336Y-30688D01*
X69355Y-30725D01*
X69355Y-30763D01*
X69336Y-30819D01*
X69111Y-31044D01*
X69355Y-31044D01*
X52581Y-28565D02*
X52562Y-28584D01*
X52506Y-28603D01*
X52469Y-28603D01*
X52412Y-28584D01*
X52375Y-28547D01*
X52356Y-28509D01*
X52337Y-28434D01*
X52337Y-28378D01*
X52356Y-28303D01*
X52375Y-28265D01*
X52412Y-28228D01*
X52469Y-28209D01*
X52506Y-28209D01*
X52562Y-28228D01*
X52581Y-28247D01*
X52731Y-28247D02*
X52750Y-28228D01*
X52787Y-28209D01*
X52881Y-28209D01*
X52919Y-28228D01*
X52937Y-28247D01*
X52956Y-28284D01*
X52956Y-28322D01*
X52937Y-28378D01*
X52712Y-28603D01*
X52956Y-28603D01*
X53312Y-28209D02*
X53125Y-28209D01*
X53106Y-28397D01*
X53125Y-28378D01*
X53162Y-28359D01*
X53256Y-28359D01*
X53293Y-28378D01*
X53312Y-28397D01*
X53331Y-28434D01*
X53331Y-28528D01*
X53312Y-28565D01*
X53293Y-28584D01*
X53256Y-28603D01*
X53162Y-28603D01*
X53125Y-28584D01*
X53106Y-28565D01*
X55179Y-46991D02*
X55161Y-47009D01*
X55104Y-47028D01*
X55067Y-47028D01*
X55011Y-47009D01*
X54973Y-46972D01*
X54955Y-46934D01*
X54936Y-46859D01*
X54936Y-46803D01*
X54955Y-46728D01*
X54973Y-46691D01*
X55011Y-46653D01*
X55067Y-46634D01*
X55104Y-46634D01*
X55161Y-46653D01*
X55179Y-46672D01*
X55329Y-46672D02*
X55348Y-46653D01*
X55386Y-46634D01*
X55479Y-46634D01*
X55517Y-46653D01*
X55536Y-46672D01*
X55554Y-46709D01*
X55554Y-46747D01*
X55536Y-46803D01*
X55311Y-47028D01*
X55554Y-47028D01*
X55892Y-46634D02*
X55817Y-46634D01*
X55779Y-46653D01*
X55761Y-46672D01*
X55723Y-46728D01*
X55704Y-46803D01*
X55704Y-46953D01*
X55723Y-46991D01*
X55742Y-47009D01*
X55779Y-47028D01*
X55854Y-47028D01*
X55892Y-47009D01*
X55911Y-46991D01*
X55929Y-46953D01*
X55929Y-46859D01*
X55911Y-46822D01*
X55892Y-46803D01*
X55854Y-46784D01*
X55779Y-46784D01*
X55742Y-46803D01*
X55723Y-46822D01*
X55704Y-46859D01*
X65395Y-21672D02*
X65358Y-21653D01*
X65320Y-21616D01*
X65264Y-21559D01*
X65226Y-21541D01*
X65189Y-21541D01*
X65208Y-21634D02*
X65170Y-21616D01*
X65133Y-21578D01*
X65114Y-21503D01*
X65114Y-21372D01*
X65133Y-21297D01*
X65170Y-21259D01*
X65208Y-21241D01*
X65283Y-21241D01*
X65320Y-21259D01*
X65358Y-21297D01*
X65376Y-21372D01*
X65376Y-21503D01*
X65358Y-21578D01*
X65320Y-21616D01*
X65283Y-21634D01*
X65208Y-21634D01*
X65526Y-21278D02*
X65545Y-21259D01*
X65583Y-21241D01*
X65676Y-21241D01*
X65714Y-21259D01*
X65733Y-21278D01*
X65751Y-21316D01*
X65751Y-21353D01*
X65733Y-21409D01*
X65508Y-21634D01*
X65751Y-21634D01*
X48162Y-27109D02*
X47768Y-27109D01*
X47768Y-26959D01*
X47787Y-26922D01*
X47806Y-26903D01*
X47843Y-26884D01*
X47899Y-26884D01*
X47937Y-26903D01*
X47956Y-26922D01*
X47974Y-26959D01*
X47974Y-27109D01*
X48162Y-26697D02*
X48162Y-26622D01*
X48143Y-26584D01*
X48124Y-26565D01*
X48068Y-26528D01*
X47993Y-26509D01*
X47843Y-26509D01*
X47806Y-26528D01*
X47787Y-26547D01*
X47768Y-26584D01*
X47768Y-26659D01*
X47787Y-26697D01*
X47806Y-26715D01*
X47843Y-26734D01*
X47937Y-26734D01*
X47974Y-26715D01*
X47993Y-26697D01*
X48012Y-26659D01*
X48012Y-26584D01*
X47993Y-26547D01*
X47974Y-26528D01*
X47937Y-26509D01*
X48162Y-42887D02*
X47768Y-42887D01*
X47768Y-42737D01*
X47787Y-42700D01*
X47806Y-42681D01*
X47843Y-42662D01*
X47899Y-42662D01*
X47937Y-42681D01*
X47956Y-42700D01*
X47974Y-42737D01*
X47974Y-42887D01*
X48162Y-42287D02*
X48162Y-42512D01*
X48162Y-42400D02*
X47768Y-42400D01*
X47824Y-42437D01*
X47862Y-42475D01*
X47881Y-42512D01*
X47806Y-42137D02*
X47787Y-42118D01*
X47768Y-42081D01*
X47768Y-41987D01*
X47787Y-41950D01*
X47806Y-41931D01*
X47843Y-41912D01*
X47881Y-41912D01*
X47937Y-41931D01*
X48162Y-42156D01*
X48162Y-41912D01*
X48162Y-34887D02*
X47768Y-34887D01*
X47768Y-34737D01*
X47787Y-34700D01*
X47806Y-34681D01*
X47843Y-34662D01*
X47899Y-34662D01*
X47937Y-34681D01*
X47956Y-34700D01*
X47974Y-34737D01*
X47974Y-34887D01*
X48162Y-34287D02*
X48162Y-34512D01*
X48162Y-34400D02*
X47768Y-34400D01*
X47824Y-34437D01*
X47862Y-34475D01*
X47881Y-34512D01*
X48162Y-33912D02*
X48162Y-34137D01*
X48162Y-34025D02*
X47768Y-34025D01*
X47824Y-34062D01*
X47862Y-34100D01*
X47881Y-34137D01*
X48162Y-20700D02*
X47768Y-20700D01*
X47768Y-20550D01*
X47787Y-20512D01*
X47806Y-20493D01*
X47843Y-20475D01*
X47899Y-20475D01*
X47937Y-20493D01*
X47956Y-20512D01*
X47974Y-20550D01*
X47974Y-20700D01*
X47768Y-20118D02*
X47768Y-20306D01*
X47956Y-20325D01*
X47937Y-20306D01*
X47918Y-20268D01*
X47918Y-20175D01*
X47937Y-20137D01*
X47956Y-20118D01*
X47993Y-20100D01*
X48087Y-20100D01*
X48124Y-20118D01*
X48143Y-20137D01*
X48162Y-20175D01*
X48162Y-20268D01*
X48143Y-20306D01*
X48124Y-20325D01*
X67284Y-27288D02*
X67284Y-26894D01*
X67434Y-26894D01*
X67471Y-26913D01*
X67490Y-26932D01*
X67509Y-26969D01*
X67509Y-27025D01*
X67490Y-27063D01*
X67471Y-27082D01*
X67434Y-27100D01*
X67284Y-27100D01*
X67846Y-27025D02*
X67846Y-27288D01*
X67752Y-26875D02*
X67659Y-27157D01*
X67902Y-27157D01*
M02*
