G04 (created by PCBNEW (2013-mar-13)-testing) date Tue 03 Sep 2013 04:27:04 PM EDT*
%MOIN*%
G04 Gerber Fmt 3.4, Leading zero omitted, Abs format*
%FSLAX34Y34*%
G01*
G70*
G90*
G04 APERTURE LIST*
%ADD10C,0.005906*%
%ADD11C,0.003937*%
%ADD12R,0.039370X0.057087*%
%ADD13R,0.057087X0.039370*%
%ADD14R,0.064961X0.127953*%
%ADD15R,0.061024X0.090551*%
%ADD16R,0.068898X0.041339*%
%ADD17R,0.041339X0.068898*%
%ADD18R,0.047244X0.057087*%
%ADD19R,0.015748X0.053150*%
%ADD20R,0.062992X0.055118*%
%ADD21R,0.070866X0.074803*%
%ADD22R,0.074803X0.074803*%
%ADD23R,0.053150X0.015748*%
%ADD24R,0.055118X0.062992*%
%ADD25R,0.074803X0.070866*%
%ADD26R,0.295276X0.086614*%
%ADD27C,0.222441*%
%ADD28R,0.064961X0.064961*%
%ADD29C,0.064961*%
%ADD30R,0.023622X0.051181*%
%ADD31R,0.051181X0.023622*%
%ADD32R,0.070866X0.043307*%
%ADD33R,0.057087X0.011811*%
%ADD34R,0.011811X0.057087*%
%ADD35R,0.080709X0.023622*%
%ADD36R,0.035433X0.070866*%
%ADD37R,0.125984X0.070866*%
%ADD38R,0.061024X0.023622*%
%ADD39R,0.106299X0.131890*%
%ADD40R,0.042520X0.042520*%
%ADD41R,0.042520X0.021654*%
%ADD42R,0.021654X0.042520*%
%ADD43R,0.196850X0.196850*%
%ADD44R,0.021654X0.059055*%
%ADD45R,0.059055X0.021654*%
%ADD46R,0.082677X0.096457*%
%ADD47R,0.096457X0.082677*%
%ADD48R,0.127953X0.064961*%
%ADD49R,0.631890X0.405512*%
%ADD50C,0.120079*%
G04 APERTURE END LIST*
G54D10*
G54D11*
X43385Y-47637D02*
X43385Y-14330D01*
X76692Y-47637D02*
X43385Y-47637D01*
X76692Y-14330D02*
X76692Y-47637D01*
X43385Y-14330D02*
X76692Y-14330D01*
G54D12*
X57893Y-43602D03*
X58641Y-43602D03*
G54D13*
X70393Y-43720D03*
X70393Y-44468D03*
X67559Y-43720D03*
X67559Y-44468D03*
G54D12*
X61476Y-34251D03*
X60728Y-34251D03*
X66397Y-37952D03*
X67145Y-37952D03*
G54D13*
X56377Y-32066D03*
X56377Y-32814D03*
G54D12*
X63169Y-32755D03*
X62421Y-32755D03*
X61476Y-35905D03*
X60728Y-35905D03*
X63641Y-44015D03*
X64389Y-44015D03*
X68129Y-34251D03*
X68877Y-34251D03*
G54D13*
X56377Y-34704D03*
X56377Y-33956D03*
G54D14*
X49527Y-19055D03*
X49527Y-21102D03*
G54D12*
X49822Y-17637D03*
X49074Y-17637D03*
X57657Y-18740D03*
X58405Y-18740D03*
G54D14*
X66456Y-24409D03*
X66456Y-26456D03*
G54D13*
X59370Y-27814D03*
X59370Y-28562D03*
G54D14*
X49527Y-26771D03*
X49527Y-24724D03*
G54D12*
X56476Y-23700D03*
X57224Y-23700D03*
G54D13*
X51653Y-24744D03*
X51653Y-25492D03*
G54D12*
X56476Y-24645D03*
X57224Y-24645D03*
G54D14*
X63149Y-24409D03*
X63149Y-26456D03*
G54D12*
X54704Y-36377D03*
X53956Y-36377D03*
G54D13*
X51889Y-38090D03*
X51889Y-37342D03*
X52047Y-46200D03*
X52047Y-45452D03*
G54D12*
X53956Y-35433D03*
X54704Y-35433D03*
G54D13*
X50944Y-39586D03*
X50944Y-38838D03*
G54D12*
X53956Y-32598D03*
X54704Y-32598D03*
X54192Y-41102D03*
X54940Y-41102D03*
G54D13*
X51574Y-31555D03*
X51574Y-30807D03*
G54D12*
X54035Y-43937D03*
X54783Y-43937D03*
G54D13*
X50944Y-37342D03*
X50944Y-38090D03*
X51102Y-45452D03*
X51102Y-46200D03*
G54D12*
X74744Y-26535D03*
X75492Y-26535D03*
X73917Y-22755D03*
X73169Y-22755D03*
X73917Y-20866D03*
X73169Y-20866D03*
G54D13*
X70708Y-22185D03*
X70708Y-21437D03*
X69527Y-27342D03*
X69527Y-28090D03*
G54D12*
X67618Y-22992D03*
X66870Y-22992D03*
G54D13*
X68582Y-28090D03*
X68582Y-27342D03*
G54D12*
X73169Y-24645D03*
X73917Y-24645D03*
G54D13*
X69763Y-22185D03*
X69763Y-21437D03*
X72755Y-29980D03*
X72755Y-29232D03*
X71023Y-27342D03*
X71023Y-28090D03*
G54D15*
X59606Y-21003D03*
X59606Y-19311D03*
G54D16*
X71023Y-17913D03*
X71023Y-16732D03*
G54D17*
X74763Y-27559D03*
X75944Y-27559D03*
G54D18*
X73877Y-25590D03*
X73208Y-25590D03*
G54D19*
X68858Y-46033D03*
X69114Y-46033D03*
X69370Y-46033D03*
X69625Y-46033D03*
X69881Y-46033D03*
G54D20*
X68110Y-46161D03*
X70629Y-46161D03*
G54D21*
X67795Y-47086D03*
X70944Y-47086D03*
G54D22*
X68897Y-47086D03*
X69842Y-47086D03*
G54D23*
X75088Y-24527D03*
X75088Y-24271D03*
X75088Y-24015D03*
X75088Y-23759D03*
X75088Y-23503D03*
G54D24*
X75216Y-25275D03*
X75216Y-22755D03*
G54D25*
X76141Y-25590D03*
X76141Y-22440D03*
G54D22*
X76141Y-24488D03*
X76141Y-23543D03*
G54D26*
X59606Y-24094D03*
X59606Y-26456D03*
G54D27*
X75000Y-46000D03*
X45000Y-16000D03*
X75000Y-16000D03*
X45000Y-46000D03*
G54D28*
X58169Y-42519D03*
X66000Y-44000D03*
X66000Y-46000D03*
G54D29*
X65000Y-46000D03*
X64000Y-46000D03*
G54D28*
X61811Y-22755D03*
G54D29*
X62811Y-22755D03*
X63811Y-22755D03*
X64811Y-22755D03*
G54D28*
X59527Y-22755D03*
G54D29*
X60527Y-22755D03*
G54D28*
X49527Y-22992D03*
G54D29*
X50527Y-22992D03*
G54D28*
X74960Y-29133D03*
G54D29*
X73960Y-29133D03*
G54D28*
X75000Y-42000D03*
G54D29*
X74000Y-42000D03*
X75000Y-41000D03*
X74000Y-41000D03*
X75000Y-40000D03*
X74000Y-40000D03*
X75000Y-39000D03*
X74000Y-39000D03*
X75000Y-38000D03*
X74000Y-38000D03*
X75000Y-37000D03*
X74000Y-37000D03*
X75000Y-36000D03*
X74000Y-36000D03*
X75000Y-35000D03*
X74000Y-35000D03*
X75000Y-34000D03*
X74000Y-34000D03*
X75000Y-33000D03*
X74000Y-33000D03*
X75000Y-32000D03*
X74000Y-32000D03*
X75000Y-31000D03*
X74000Y-31000D03*
G54D30*
X72736Y-45255D03*
X71988Y-45255D03*
X72362Y-46082D03*
G54D31*
X57893Y-39429D03*
X57893Y-38681D03*
X57066Y-39055D03*
X57893Y-37854D03*
X57893Y-37106D03*
X57066Y-37480D03*
G54D13*
X51889Y-39586D03*
X51889Y-38838D03*
G54D12*
X56417Y-43602D03*
X57165Y-43602D03*
X57165Y-42716D03*
X56417Y-42716D03*
G54D13*
X69448Y-43720D03*
X69448Y-44468D03*
X68503Y-43720D03*
X68503Y-44468D03*
X72283Y-44468D03*
X72283Y-43720D03*
X71338Y-44468D03*
X71338Y-43720D03*
G54D12*
X72027Y-38110D03*
X71279Y-38110D03*
X61082Y-43385D03*
X60334Y-43385D03*
X61082Y-42440D03*
X60334Y-42440D03*
X61082Y-41496D03*
X60334Y-41496D03*
X71279Y-37165D03*
X72027Y-37165D03*
X71279Y-36220D03*
X72027Y-36220D03*
G54D13*
X51653Y-20059D03*
X51653Y-19311D03*
G54D12*
X58405Y-17795D03*
X57657Y-17795D03*
X57657Y-21574D03*
X58405Y-21574D03*
X55846Y-22598D03*
X56594Y-22598D03*
X57657Y-20629D03*
X58405Y-20629D03*
X57657Y-19685D03*
X58405Y-19685D03*
X54350Y-22598D03*
X55098Y-22598D03*
G54D13*
X71023Y-19586D03*
X71023Y-18838D03*
G54D12*
X53602Y-22598D03*
X52854Y-22598D03*
X56476Y-25590D03*
X57224Y-25590D03*
X56476Y-26535D03*
X57224Y-26535D03*
X54507Y-26614D03*
X55255Y-26614D03*
X59271Y-40314D03*
X58523Y-40314D03*
G54D13*
X58897Y-37854D03*
X58897Y-37106D03*
X58897Y-38681D03*
X58897Y-39429D03*
G54D12*
X55452Y-36377D03*
X56200Y-36377D03*
G54D13*
X52834Y-38799D03*
X52834Y-38051D03*
G54D12*
X57027Y-40314D03*
X57775Y-40314D03*
G54D13*
X50000Y-30807D03*
X50000Y-31555D03*
X50000Y-37342D03*
X50000Y-38090D03*
X50000Y-38838D03*
X50000Y-39586D03*
X50157Y-45452D03*
X50157Y-46200D03*
G54D12*
X54704Y-34488D03*
X53956Y-34488D03*
X54940Y-42992D03*
X54192Y-42992D03*
X53956Y-33543D03*
X54704Y-33543D03*
X54192Y-42047D03*
X54940Y-42047D03*
X73169Y-23700D03*
X73917Y-23700D03*
X73169Y-21811D03*
X73917Y-21811D03*
X73917Y-26535D03*
X73169Y-26535D03*
X73169Y-27480D03*
X73917Y-27480D03*
X63169Y-31850D03*
X62421Y-31850D03*
G54D32*
X62244Y-46791D03*
X59803Y-46791D03*
X62244Y-45334D03*
X59803Y-45334D03*
G54D33*
X63129Y-34271D03*
X63129Y-34468D03*
X63129Y-34665D03*
X63129Y-34862D03*
X63129Y-35059D03*
X63129Y-35255D03*
X63129Y-35452D03*
X63129Y-35649D03*
X63129Y-35846D03*
X63129Y-36043D03*
X63129Y-36240D03*
X63129Y-36437D03*
G54D34*
X63720Y-37027D03*
X63917Y-37027D03*
X64114Y-37027D03*
X64311Y-37027D03*
X64507Y-37027D03*
X64704Y-37027D03*
X64901Y-37027D03*
X65098Y-37027D03*
X65295Y-37027D03*
X65492Y-37027D03*
X65688Y-37027D03*
X65885Y-37027D03*
G54D33*
X66476Y-36437D03*
X66476Y-36240D03*
X66476Y-36043D03*
X66476Y-35846D03*
X66476Y-35649D03*
X66476Y-35452D03*
X66476Y-35255D03*
X66476Y-35059D03*
X66476Y-34862D03*
X66476Y-34665D03*
X66476Y-34468D03*
X66476Y-34271D03*
G54D34*
X65885Y-33681D03*
X65688Y-33681D03*
X65492Y-33681D03*
X65295Y-33681D03*
X65098Y-33681D03*
X64901Y-33681D03*
X64704Y-33681D03*
X64507Y-33681D03*
X64311Y-33681D03*
X64114Y-33681D03*
X63917Y-33681D03*
X63720Y-33681D03*
G54D35*
X52736Y-18013D03*
X52736Y-18513D03*
X52736Y-19013D03*
X52736Y-19513D03*
X52736Y-20013D03*
X52736Y-20513D03*
X52736Y-21013D03*
X52736Y-21513D03*
X56397Y-21513D03*
X56397Y-21013D03*
X56397Y-20513D03*
X56397Y-20013D03*
X56397Y-19513D03*
X56397Y-19013D03*
X56397Y-18513D03*
X56397Y-18013D03*
G54D36*
X58228Y-27952D03*
X57322Y-27952D03*
X56417Y-27952D03*
G54D37*
X57322Y-30314D03*
G54D38*
X53051Y-24210D03*
X53051Y-24710D03*
X53051Y-25210D03*
X53051Y-25710D03*
X55137Y-25710D03*
X55137Y-25210D03*
X55137Y-24710D03*
X55137Y-24210D03*
G54D39*
X54094Y-24960D03*
G54D38*
X53897Y-37240D03*
X53897Y-37740D03*
X53897Y-38240D03*
X53897Y-38740D03*
X53897Y-39240D03*
X53897Y-39740D03*
X53897Y-40240D03*
X56023Y-40240D03*
X56023Y-39740D03*
X56023Y-39240D03*
X56023Y-38740D03*
X56023Y-38240D03*
X56023Y-37740D03*
X56023Y-37240D03*
G54D40*
X52460Y-35767D03*
G54D41*
X52460Y-35354D03*
X52460Y-35039D03*
X52460Y-34724D03*
X52460Y-34409D03*
X52460Y-34094D03*
X52460Y-33779D03*
X52460Y-33464D03*
G54D40*
X52460Y-33051D03*
G54D42*
X52047Y-33051D03*
X51732Y-33051D03*
X51417Y-33051D03*
X51102Y-33051D03*
X50787Y-33051D03*
X50472Y-33051D03*
X50157Y-33051D03*
G54D40*
X49744Y-33051D03*
G54D41*
X49744Y-33464D03*
X49744Y-33779D03*
X49744Y-34094D03*
X49744Y-34409D03*
X49744Y-34724D03*
X49744Y-35039D03*
X49744Y-35354D03*
G54D40*
X49744Y-35767D03*
G54D42*
X50157Y-35767D03*
X50472Y-35767D03*
X50787Y-35767D03*
X51102Y-35767D03*
X51417Y-35767D03*
X51732Y-35767D03*
X52047Y-35767D03*
G54D43*
X51102Y-34409D03*
G54D40*
X52460Y-43877D03*
G54D41*
X52460Y-43464D03*
X52460Y-43149D03*
X52460Y-42834D03*
X52460Y-42519D03*
X52460Y-42204D03*
X52460Y-41889D03*
X52460Y-41574D03*
G54D40*
X52460Y-41161D03*
G54D42*
X52047Y-41161D03*
X51732Y-41161D03*
X51417Y-41161D03*
X51102Y-41161D03*
X50787Y-41161D03*
X50472Y-41161D03*
X50157Y-41161D03*
G54D40*
X49744Y-41161D03*
G54D41*
X49744Y-41574D03*
X49744Y-41889D03*
X49744Y-42204D03*
X49744Y-42519D03*
X49744Y-42834D03*
X49744Y-43149D03*
X49744Y-43464D03*
G54D40*
X49744Y-43877D03*
G54D42*
X50157Y-43877D03*
X50472Y-43877D03*
X50787Y-43877D03*
X51102Y-43877D03*
X51417Y-43877D03*
X51732Y-43877D03*
X52047Y-43877D03*
G54D43*
X51102Y-42519D03*
G54D44*
X69133Y-26377D03*
X69448Y-26377D03*
X69763Y-26377D03*
X70078Y-26377D03*
X70393Y-26377D03*
X70708Y-26377D03*
X71023Y-26377D03*
X71338Y-26377D03*
G54D45*
X71889Y-25826D03*
X71889Y-25511D03*
X71889Y-25196D03*
X71889Y-24881D03*
X71889Y-24566D03*
X71889Y-24251D03*
X71889Y-23937D03*
X71889Y-23622D03*
G54D44*
X71338Y-23070D03*
X71023Y-23070D03*
X70708Y-23070D03*
X70393Y-23070D03*
X70078Y-23070D03*
X69763Y-23070D03*
X69448Y-23070D03*
X69133Y-23070D03*
G54D45*
X68582Y-23622D03*
X68582Y-23937D03*
X68582Y-24251D03*
X68582Y-24566D03*
X68582Y-24881D03*
X68582Y-25196D03*
X68582Y-25511D03*
X68582Y-25826D03*
G54D46*
X58031Y-34724D03*
X58031Y-32047D03*
G54D47*
X71574Y-29606D03*
X68897Y-29606D03*
G54D14*
X53937Y-31181D03*
X53937Y-29133D03*
G54D48*
X56062Y-45669D03*
X58110Y-45669D03*
G54D28*
X61102Y-17716D03*
G54D29*
X61102Y-18716D03*
X61102Y-19716D03*
G54D49*
X66732Y-18716D03*
G54D29*
X47000Y-28000D03*
X47000Y-26818D03*
G54D50*
X45299Y-26818D03*
G54D29*
X47000Y-25637D03*
X47000Y-43000D03*
X47000Y-41818D03*
G54D50*
X45299Y-42409D03*
G54D29*
X47000Y-35000D03*
X47000Y-33818D03*
G54D50*
X45299Y-34409D03*
G54D29*
X47000Y-21000D03*
X47000Y-19818D03*
G54D50*
X45299Y-20409D03*
G54D28*
X66000Y-29000D03*
G54D29*
X66000Y-30000D03*
X65000Y-29000D03*
X65000Y-30000D03*
X64000Y-29000D03*
X64000Y-30000D03*
X63000Y-29000D03*
X63000Y-30000D03*
X62000Y-29000D03*
X62000Y-30000D03*
M02*
