M48
INCH,TZ
T1C0.025
T2C0.039
T3C0.120
T4C0.129
T5C0.161
%
G90
G05
T1
X4.8504Y-3.378
X4.8504Y-3.5039
X4.8504Y-4.189
X4.8504Y-4.315
X4.8614Y-2.5638
X4.8898Y-3.3465
X4.8898Y-3.4094
X4.8898Y-3.4724
X4.8898Y-3.5354
X4.8898Y-4.1575
X4.8898Y-4.2205
X4.8898Y-4.2835
X4.8898Y-4.3465
X4.9213Y-3.378
X4.9213Y-3.5039
X4.9213Y-4.189
X4.9213Y-4.315
X4.9291Y-3.4409
X4.9291Y-4.252
X4.937Y-3.811
X4.9449Y-3.1575
X4.9449Y-3.7323
X4.9449Y-3.9606
X4.9449Y-4.622
X4.9528Y-4.5433
X5.Y-3.0315
X5.0157Y-3.2598
X5.0157Y-3.622
X5.0157Y-4.0709
X5.0157Y-4.4331
X5.0787Y-3.0787
X5.1654Y-2.4252
X5.2126Y-3.252
X5.2126Y-3.6299
X5.2126Y-4.063
X5.2126Y-4.4409
X5.2283Y-2.6457
X5.2441Y-3.9606
X5.252Y-3.7323
X5.2677Y-4.5433
X5.2835Y-4.4252
X5.2913Y-3.3465
X5.2913Y-3.5354
X5.2913Y-3.5984
X5.2913Y-3.7559
X5.2913Y-4.1575
X5.2913Y-4.3465
X5.2992Y-2.378
X5.2992Y-2.8819
X5.3228Y-3.9764
X5.3543Y-3.4488
X5.378Y-4.2047
X5.378Y-4.2992
X5.4567Y-3.8189
X5.4567Y-3.9921
X5.4961Y-3.7795
X5.5039Y-2.9134
X5.5197Y-3.315
X5.5276Y-2.378
X5.5354Y-3.8976
X5.5354Y-4.0157
X5.5433Y-4.4252
X5.5512Y-4.1339
X5.5512Y-4.2756
X5.5669Y-3.1339
X5.5827Y-4.3465
X5.6063Y-2.3701
X5.6614Y-4.1339
X5.6929Y-3.9606
X5.7244Y-3.3071
X5.748Y-4.126
X5.811Y-4.4882
X5.811Y-4.6457
X5.8189Y-3.8346
X5.8189Y-4.1339
X5.8898Y-3.6457
X5.8976Y-1.7795
X5.9134Y-4.1024
X5.9134Y-4.3858
X5.937Y-2.5591
X5.9528Y-3.7402
X5.9528Y-3.8504
X5.9606Y-1.8425
X6.0079Y-3.4252
X6.0157Y-4.0709
X6.0551Y-3.7165
X6.0787Y-3.252
X6.0866Y-3.6693
X6.0945Y-2.8583
X6.1102Y-2.9843
X6.1102Y-3.3465
X6.1181Y-3.8504
X6.1575Y-3.8189
X6.1811Y-3.2756
X6.189Y-3.7795
X6.1969Y-4.1496
X6.1969Y-4.2441
X6.1969Y-4.3386
X6.1969Y-4.3937
X6.1969Y-4.4409
X6.2205Y-2.6535
X6.2283Y-2.5433
X6.2598Y-4.3701
X6.2913Y-3.7874
X6.2913Y-4.4016
X6.2992Y-4.5433
X6.3228Y-3.8189
X6.3307Y-4.1496
X6.3386Y-4.2441
X6.3386Y-4.2992
X6.3465Y-3.0945
X6.3543Y-3.7795
X6.3543Y-4.4803
X6.3701Y-3.1496
X6.374Y-3.2402
X6.374Y-3.2874
X6.3858Y-3.5276
X6.4173Y-3.1496
X6.4331Y-3.5354
X6.4409Y-3.622
X6.4567Y-3.4567
X6.4685Y-3.1496
X6.4724Y-2.6142
X6.5276Y-3.5433
X6.5276Y-4.2598
X6.5512Y-3.4724
X6.5669Y-2.6063
X6.5669Y-3.5748
X6.5827Y-3.0945
X6.5827Y-3.8031
X6.5984Y-4.3071
X6.685Y-4.4173
X6.7008Y-2.1811
X6.7008Y-3.3228
X6.7008Y-4.2205
X6.7087Y-3.0866
X6.7165Y-3.3937
X6.7165Y-3.4567
X6.748Y-2.2205
X6.748Y-3.1181
X6.748Y-3.3228
X6.748Y-3.4882
X6.7559Y-3.7323
X6.7874Y-3.5197
X6.7953Y-2.5984
X6.7953Y-3.1969
X6.7953Y-3.3228
X6.811Y-2.6693
X6.8189Y-4.2913
X6.8504Y-3.2126
X6.8504Y-3.3228
X6.8504Y-3.4961
X6.9055Y-3.2362
X6.9055Y-3.3228
X7.0157Y-3.8661
X7.0157Y-4.1102
X7.063Y-3.8661
X7.063Y-4.1102
X7.063Y-4.5118
X7.1102Y-3.4094
X7.1102Y-3.4567
X7.1102Y-3.5118
X7.1417Y-3.874
X7.1811Y-2.2126
X7.1811Y-2.7874
X7.2362Y-2.2677
X7.2441Y-2.0866
X7.2598Y-2.5197
X7.2598Y-2.8346
X7.2677Y-4.1339
T2
X4.7Y-1.9819
X4.7Y-2.1
X4.7Y-2.5638
X4.7Y-2.6819
X4.7Y-2.8
X4.7Y-3.3819
X4.7Y-3.5
X4.7Y-4.1819
X4.7Y-4.3
X4.9528Y-2.2992
X5.0528Y-2.2992
X5.8169Y-4.252
X5.9528Y-2.2756
X6.0528Y-2.2756
X6.1102Y-1.7717
X6.1102Y-1.8717
X6.1102Y-1.9717
X6.1811Y-2.2756
X6.2Y-2.9
X6.2Y-3.
X6.2811Y-2.2756
X6.3Y-2.9
X6.3Y-3.
X6.3811Y-2.2756
X6.4Y-2.9
X6.4Y-3.
X6.4Y-4.6
X6.4811Y-2.2756
X6.5Y-2.9
X6.5Y-3.
X6.5Y-4.6
X6.6Y-2.9
X6.6Y-3.
X6.6Y-4.4
X6.6Y-4.6
X7.3961Y-2.9134
X7.4Y-3.1
X7.4Y-3.2
X7.4Y-3.3
X7.4Y-3.4
X7.4Y-3.5
X7.4Y-3.6
X7.4Y-3.7
X7.4Y-3.8
X7.4Y-3.9
X7.4Y-4.
X7.4Y-4.1
X7.4Y-4.2
X7.4961Y-2.9134
X7.5Y-3.1
X7.5Y-3.2
X7.5Y-3.3
X7.5Y-3.4
X7.5Y-3.5
X7.5Y-3.6
X7.5Y-3.7
X7.5Y-3.8
X7.5Y-3.9
X7.5Y-4.
X7.5Y-4.1
X7.5Y-4.2
T3
X4.5299Y-2.0409
X4.5299Y-2.6819
X4.5299Y-3.4409
X4.5299Y-4.2409
T4
X4.5Y-1.6
X4.5Y-4.6
X7.5Y-1.6
X7.5Y-4.6
T5
X6.8602Y-1.8717
T0
M30
