G04 (created by PCBNEW (2013-mar-13)-testing) date Tue 03 Sep 2013 03:09:10 PM EDT*
%MOIN*%
G04 Gerber Fmt 3.4, Leading zero omitted, Abs format*
%FSLAX34Y34*%
G01*
G70*
G90*
G04 APERTURE LIST*
%ADD10C,0.005906*%
%ADD11C,0.003937*%
%ADD12C,0.222441*%
%ADD13R,0.064961X0.064961*%
%ADD14C,0.064961*%
%ADD15C,0.120079*%
G04 APERTURE END LIST*
G54D10*
G54D11*
X43385Y-47637D02*
X43385Y-14330D01*
X76692Y-47637D02*
X43385Y-47637D01*
X76692Y-14330D02*
X76692Y-47637D01*
X43385Y-14330D02*
X76692Y-14330D01*
G54D12*
X75000Y-46000D03*
X45000Y-16000D03*
X75000Y-16000D03*
X45000Y-46000D03*
G54D13*
X58169Y-42519D03*
X66000Y-44000D03*
X66000Y-46000D03*
G54D14*
X65000Y-46000D03*
X64000Y-46000D03*
G54D13*
X66000Y-29000D03*
G54D14*
X66000Y-30000D03*
X65000Y-29000D03*
X65000Y-30000D03*
X64000Y-29000D03*
X64000Y-30000D03*
X63000Y-29000D03*
X63000Y-30000D03*
X62000Y-29000D03*
X62000Y-30000D03*
G54D13*
X61811Y-22755D03*
G54D14*
X62811Y-22755D03*
X63811Y-22755D03*
X64811Y-22755D03*
G54D13*
X59527Y-22755D03*
G54D14*
X60527Y-22755D03*
G54D13*
X49527Y-22992D03*
G54D14*
X50527Y-22992D03*
G54D13*
X74960Y-29133D03*
G54D14*
X73960Y-29133D03*
G54D13*
X75000Y-42000D03*
G54D14*
X74000Y-42000D03*
X75000Y-41000D03*
X74000Y-41000D03*
X75000Y-40000D03*
X74000Y-40000D03*
X75000Y-39000D03*
X74000Y-39000D03*
X75000Y-38000D03*
X74000Y-38000D03*
X75000Y-37000D03*
X74000Y-37000D03*
X75000Y-36000D03*
X74000Y-36000D03*
X75000Y-35000D03*
X74000Y-35000D03*
X75000Y-34000D03*
X74000Y-34000D03*
X75000Y-33000D03*
X74000Y-33000D03*
X75000Y-32000D03*
X74000Y-32000D03*
X75000Y-31000D03*
X74000Y-31000D03*
G54D13*
X61102Y-17716D03*
G54D14*
X61102Y-18716D03*
X61102Y-19716D03*
X47000Y-28000D03*
X47000Y-26818D03*
G54D15*
X45299Y-26818D03*
G54D14*
X47000Y-25637D03*
X47000Y-43000D03*
X47000Y-41818D03*
G54D15*
X45299Y-42409D03*
G54D14*
X47000Y-35000D03*
X47000Y-33818D03*
G54D15*
X45299Y-34409D03*
G54D14*
X47000Y-21000D03*
X47000Y-19818D03*
G54D15*
X45299Y-20409D03*
M02*
