G04 (created by PCBNEW (2013-mar-13)-testing) date Sun 09 Jun 2013 10:00:02 PM EDT*
%MOIN*%
G04 Gerber Fmt 3.4, Leading zero omitted, Abs format*
%FSLAX34Y34*%
G01*
G70*
G90*
G04 APERTURE LIST*
%ADD10C,0.005906*%
%ADD11C,0.003937*%
%ADD12R,0.060000X0.060000*%
%ADD13C,0.060000*%
%ADD14C,0.125000*%
%ADD15C,0.160000*%
%ADD16C,0.035000*%
%ADD17C,0.010000*%
%ADD18C,0.008000*%
G04 APERTURE END LIST*
G54D10*
G54D11*
X48137Y-60531D02*
X48137Y-45570D01*
X67330Y-60531D02*
X48137Y-60531D01*
X67330Y-45570D02*
X67330Y-60531D01*
X48137Y-45570D02*
X67330Y-45570D01*
G54D12*
X51237Y-58969D03*
G54D13*
X52237Y-58969D03*
X53237Y-58969D03*
X54237Y-58969D03*
X55237Y-58969D03*
X56237Y-58969D03*
X57237Y-58969D03*
X58237Y-58969D03*
X59237Y-58969D03*
X60237Y-58969D03*
X61237Y-58969D03*
X62237Y-58969D03*
X63237Y-58969D03*
X64237Y-58969D03*
G54D14*
X66137Y-59169D03*
X49387Y-46919D03*
X49387Y-59169D03*
X66137Y-46919D03*
G54D15*
X66037Y-49270D03*
X66037Y-51770D03*
X66037Y-56770D03*
X66037Y-54270D03*
G54D16*
X60854Y-54665D03*
X60854Y-50610D03*
X63728Y-59783D03*
X61523Y-59665D03*
X58649Y-50492D03*
X55578Y-56043D03*
X56307Y-54232D03*
X57783Y-53641D03*
X56307Y-54724D03*
X57783Y-54330D03*
X57586Y-52027D03*
X55736Y-57106D03*
X55500Y-54744D03*
X53807Y-55413D03*
X53334Y-55885D03*
X61326Y-47637D03*
X55421Y-52657D03*
X61917Y-52657D03*
X58019Y-56791D03*
X57625Y-53208D03*
X51720Y-55610D03*
X61444Y-56240D03*
X62074Y-51673D03*
X61917Y-53326D03*
X51169Y-50255D03*
X54003Y-51318D03*
X60303Y-55767D03*
X63728Y-57342D03*
X57744Y-51594D03*
G54D17*
X59237Y-57344D02*
X59237Y-58969D01*
X60854Y-55728D02*
X59237Y-57344D01*
X60854Y-54665D02*
X60854Y-55728D01*
X63413Y-59547D02*
X62862Y-60098D01*
X60854Y-50610D02*
X61838Y-50610D01*
X61838Y-50610D02*
X62783Y-51555D01*
X62783Y-51555D02*
X62783Y-55531D01*
X62783Y-55531D02*
X64082Y-56830D01*
X64082Y-56830D02*
X64082Y-57500D01*
X64082Y-57500D02*
X63728Y-57854D01*
X63728Y-57854D02*
X63728Y-59232D01*
X63728Y-59232D02*
X63413Y-59547D01*
X58237Y-58969D02*
X58815Y-59547D01*
X59366Y-60098D02*
X58815Y-59547D01*
X62862Y-60098D02*
X59366Y-60098D01*
X59318Y-50255D02*
X58885Y-50255D01*
X61523Y-59665D02*
X60696Y-59665D01*
X60696Y-59665D02*
X60237Y-59206D01*
X60237Y-58969D02*
X60237Y-59206D01*
X64830Y-59389D02*
X64437Y-59783D01*
X64830Y-58562D02*
X64830Y-59389D01*
X64358Y-58090D02*
X64830Y-58562D01*
X64358Y-56751D02*
X64358Y-58090D01*
X63019Y-55413D02*
X64358Y-56751D01*
X63019Y-51437D02*
X63019Y-55413D01*
X61838Y-50255D02*
X63019Y-51437D01*
X59318Y-50255D02*
X61838Y-50255D01*
X64437Y-59783D02*
X63728Y-59783D01*
X58885Y-50255D02*
X58649Y-50492D01*
X56307Y-54232D02*
X56287Y-54232D01*
X55933Y-55688D02*
X55578Y-56043D01*
X55933Y-54586D02*
X55933Y-55688D01*
X56287Y-54232D02*
X55933Y-54586D01*
X57192Y-54232D02*
X56307Y-54232D01*
X57783Y-53641D02*
X57192Y-54232D01*
X57389Y-54724D02*
X56307Y-54724D01*
X57783Y-54330D02*
X57389Y-54724D01*
X57940Y-52263D02*
X62035Y-52263D01*
X62035Y-52263D02*
X62271Y-52500D01*
X62271Y-52500D02*
X62271Y-58935D01*
X62237Y-58969D02*
X62271Y-58935D01*
X57822Y-52263D02*
X57940Y-52263D01*
X57586Y-52027D02*
X57822Y-52263D01*
X55185Y-56555D02*
X55736Y-57106D01*
X55185Y-55059D02*
X55185Y-56555D01*
X55500Y-54744D02*
X55185Y-55059D01*
X53334Y-55885D02*
X53807Y-55413D01*
X67035Y-55773D02*
X66037Y-56770D01*
X67035Y-48818D02*
X67035Y-55773D01*
X66444Y-48228D02*
X67035Y-48818D01*
X65066Y-48228D02*
X66444Y-48228D01*
X64476Y-47637D02*
X65066Y-48228D01*
X61326Y-47637D02*
X64476Y-47637D01*
X55237Y-58969D02*
X55237Y-57001D01*
X54870Y-53208D02*
X55421Y-52657D01*
X54870Y-56633D02*
X54870Y-53208D01*
X55237Y-57001D02*
X54870Y-56633D01*
X57153Y-52657D02*
X55421Y-52657D01*
X61917Y-52657D02*
X57153Y-52657D01*
X58177Y-53562D02*
X58177Y-56633D01*
X58177Y-56633D02*
X58019Y-56791D01*
X58177Y-53444D02*
X58177Y-53562D01*
X57940Y-53208D02*
X58177Y-53444D01*
X57744Y-53208D02*
X57940Y-53208D01*
X57625Y-53208D02*
X57744Y-53208D01*
X63728Y-56830D02*
X63728Y-57342D01*
X62547Y-55649D02*
X63728Y-56830D01*
X62547Y-52381D02*
X62547Y-55649D01*
X62192Y-52027D02*
X62547Y-52381D01*
X58177Y-52027D02*
X62192Y-52027D01*
X57744Y-51594D02*
X58177Y-52027D01*
G54D10*
G36*
X64640Y-59311D02*
X64523Y-59428D01*
X64523Y-59268D01*
X64237Y-58983D01*
X63952Y-59268D01*
X63982Y-59338D01*
X64142Y-59407D01*
X64317Y-59410D01*
X64480Y-59346D01*
X64493Y-59338D01*
X64523Y-59268D01*
X64523Y-59428D01*
X64358Y-59593D01*
X63983Y-59593D01*
X63907Y-59516D01*
X63791Y-59468D01*
X63760Y-59468D01*
X63862Y-59366D01*
X63903Y-59304D01*
X63915Y-59244D01*
X63938Y-59254D01*
X64223Y-58969D01*
X63938Y-58683D01*
X63918Y-58692D01*
X63918Y-57933D01*
X64168Y-57683D01*
X64168Y-58090D01*
X64182Y-58163D01*
X64223Y-58224D01*
X64640Y-58641D01*
X64640Y-58791D01*
X64614Y-58726D01*
X64606Y-58713D01*
X64537Y-58683D01*
X64523Y-58698D01*
X64523Y-58669D01*
X64493Y-58600D01*
X64332Y-58530D01*
X64157Y-58527D01*
X63994Y-58592D01*
X63982Y-58600D01*
X63952Y-58669D01*
X64237Y-58955D01*
X64523Y-58669D01*
X64523Y-58698D01*
X64251Y-58969D01*
X64537Y-59254D01*
X64606Y-59224D01*
X64640Y-59146D01*
X64640Y-59311D01*
X64640Y-59311D01*
G37*
G54D18*
X64640Y-59311D02*
X64523Y-59428D01*
X64523Y-59268D01*
X64237Y-58983D01*
X63952Y-59268D01*
X63982Y-59338D01*
X64142Y-59407D01*
X64317Y-59410D01*
X64480Y-59346D01*
X64493Y-59338D01*
X64523Y-59268D01*
X64523Y-59428D01*
X64358Y-59593D01*
X63983Y-59593D01*
X63907Y-59516D01*
X63791Y-59468D01*
X63760Y-59468D01*
X63862Y-59366D01*
X63903Y-59304D01*
X63915Y-59244D01*
X63938Y-59254D01*
X64223Y-58969D01*
X63938Y-58683D01*
X63918Y-58692D01*
X63918Y-57933D01*
X64168Y-57683D01*
X64168Y-58090D01*
X64182Y-58163D01*
X64223Y-58224D01*
X64640Y-58641D01*
X64640Y-58791D01*
X64614Y-58726D01*
X64606Y-58713D01*
X64537Y-58683D01*
X64523Y-58698D01*
X64523Y-58669D01*
X64493Y-58600D01*
X64332Y-58530D01*
X64157Y-58527D01*
X63994Y-58592D01*
X63982Y-58600D01*
X63952Y-58669D01*
X64237Y-58955D01*
X64523Y-58669D01*
X64523Y-58698D01*
X64251Y-58969D01*
X64537Y-59254D01*
X64606Y-59224D01*
X64640Y-59146D01*
X64640Y-59311D01*
G54D10*
G36*
X67093Y-60196D02*
X66902Y-60196D01*
X66902Y-59017D01*
X66786Y-58736D01*
X66571Y-58521D01*
X66290Y-58404D01*
X65986Y-58404D01*
X65705Y-58520D01*
X65489Y-58735D01*
X65372Y-59016D01*
X65372Y-59320D01*
X65488Y-59602D01*
X65703Y-59817D01*
X65984Y-59934D01*
X66289Y-59934D01*
X66570Y-59818D01*
X66785Y-59603D01*
X66902Y-59322D01*
X66902Y-59017D01*
X66902Y-60196D01*
X63033Y-60196D01*
X63413Y-59816D01*
X63413Y-59845D01*
X63461Y-59961D01*
X63549Y-60050D01*
X63665Y-60098D01*
X63790Y-60098D01*
X63906Y-60050D01*
X63983Y-59973D01*
X64437Y-59973D01*
X64509Y-59959D01*
X64571Y-59917D01*
X64965Y-59524D01*
X64965Y-59524D01*
X64965Y-59524D01*
X65006Y-59462D01*
X65020Y-59389D01*
X65020Y-59389D01*
X65020Y-59389D01*
X65020Y-58562D01*
X65006Y-58490D01*
X64965Y-58428D01*
X64548Y-58011D01*
X64548Y-56751D01*
X64533Y-56679D01*
X64492Y-56617D01*
X63209Y-55334D01*
X63209Y-51437D01*
X63209Y-51437D01*
X63209Y-51437D01*
X63195Y-51364D01*
X63154Y-51302D01*
X61972Y-50121D01*
X61911Y-50080D01*
X61838Y-50065D01*
X59318Y-50065D01*
X58885Y-50065D01*
X58813Y-50080D01*
X58751Y-50121D01*
X58695Y-50177D01*
X58587Y-50177D01*
X58471Y-50224D01*
X58382Y-50313D01*
X58334Y-50429D01*
X58334Y-50554D01*
X58382Y-50670D01*
X58470Y-50759D01*
X58586Y-50807D01*
X58711Y-50807D01*
X58827Y-50759D01*
X58916Y-50670D01*
X58964Y-50555D01*
X58964Y-50445D01*
X59318Y-50445D01*
X60581Y-50445D01*
X60539Y-50547D01*
X60539Y-50672D01*
X60587Y-50788D01*
X60675Y-50877D01*
X60791Y-50925D01*
X60916Y-50925D01*
X61032Y-50877D01*
X61109Y-50800D01*
X61759Y-50800D01*
X62593Y-51633D01*
X62593Y-52159D01*
X62327Y-51893D01*
X62265Y-51852D01*
X62192Y-51837D01*
X58255Y-51837D01*
X58059Y-51640D01*
X58059Y-51532D01*
X58011Y-51416D01*
X57922Y-51327D01*
X57807Y-51279D01*
X57681Y-51279D01*
X57565Y-51327D01*
X57477Y-51415D01*
X57429Y-51531D01*
X57429Y-51656D01*
X57462Y-51737D01*
X57408Y-51760D01*
X57319Y-51848D01*
X57271Y-51964D01*
X57271Y-52089D01*
X57319Y-52205D01*
X57407Y-52294D01*
X57523Y-52342D01*
X57632Y-52342D01*
X57688Y-52398D01*
X57750Y-52439D01*
X57822Y-52453D01*
X57940Y-52453D01*
X61675Y-52453D01*
X61661Y-52467D01*
X57153Y-52467D01*
X55676Y-52467D01*
X55599Y-52390D01*
X55484Y-52342D01*
X55358Y-52342D01*
X55243Y-52390D01*
X55154Y-52478D01*
X55106Y-52594D01*
X55106Y-52703D01*
X54735Y-53074D01*
X54694Y-53135D01*
X54680Y-53208D01*
X54680Y-56633D01*
X54694Y-56706D01*
X54735Y-56768D01*
X55047Y-57080D01*
X55047Y-58571D01*
X54988Y-58596D01*
X54864Y-58719D01*
X54797Y-58881D01*
X54797Y-59056D01*
X54864Y-59218D01*
X54988Y-59342D01*
X55149Y-59409D01*
X55324Y-59409D01*
X55486Y-59342D01*
X55610Y-59218D01*
X55677Y-59057D01*
X55677Y-58882D01*
X55611Y-58720D01*
X55487Y-58596D01*
X55427Y-58571D01*
X55427Y-57184D01*
X55469Y-57284D01*
X55557Y-57373D01*
X55673Y-57421D01*
X55798Y-57421D01*
X55914Y-57373D01*
X56003Y-57284D01*
X56051Y-57169D01*
X56051Y-57043D01*
X56003Y-56928D01*
X55914Y-56839D01*
X55799Y-56791D01*
X55689Y-56791D01*
X55375Y-56476D01*
X55375Y-56285D01*
X55400Y-56310D01*
X55515Y-56358D01*
X55641Y-56358D01*
X55756Y-56310D01*
X55845Y-56221D01*
X55893Y-56106D01*
X55893Y-55996D01*
X56067Y-55823D01*
X56108Y-55761D01*
X56123Y-55688D01*
X56123Y-54985D01*
X56128Y-54991D01*
X56244Y-55039D01*
X56369Y-55039D01*
X56485Y-54991D01*
X56562Y-54914D01*
X57389Y-54914D01*
X57462Y-54899D01*
X57524Y-54858D01*
X57737Y-54645D01*
X57845Y-54645D01*
X57961Y-54597D01*
X57987Y-54572D01*
X57987Y-56476D01*
X57957Y-56476D01*
X57841Y-56524D01*
X57752Y-56612D01*
X57704Y-56728D01*
X57704Y-56853D01*
X57752Y-56969D01*
X57841Y-57058D01*
X57956Y-57106D01*
X58082Y-57106D01*
X58197Y-57058D01*
X58286Y-56970D01*
X58334Y-56854D01*
X58334Y-56733D01*
X58334Y-56733D01*
X58352Y-56706D01*
X58367Y-56633D01*
X58367Y-53562D01*
X58367Y-53444D01*
X58352Y-53372D01*
X58311Y-53310D01*
X58075Y-53074D01*
X58013Y-53033D01*
X57940Y-53018D01*
X57881Y-53018D01*
X57804Y-52941D01*
X57688Y-52893D01*
X57563Y-52893D01*
X57447Y-52941D01*
X57359Y-53029D01*
X57311Y-53145D01*
X57310Y-53271D01*
X57358Y-53386D01*
X57447Y-53475D01*
X57501Y-53498D01*
X57468Y-53578D01*
X57468Y-53688D01*
X57114Y-54042D01*
X56562Y-54042D01*
X56485Y-53965D01*
X56370Y-53917D01*
X56244Y-53917D01*
X56128Y-53965D01*
X56040Y-54053D01*
X55992Y-54169D01*
X55992Y-54258D01*
X55798Y-54452D01*
X55757Y-54513D01*
X55750Y-54549D01*
X55678Y-54477D01*
X55562Y-54429D01*
X55437Y-54429D01*
X55321Y-54476D01*
X55233Y-54565D01*
X55185Y-54681D01*
X55184Y-54790D01*
X55060Y-54915D01*
X55060Y-53287D01*
X55375Y-52972D01*
X55483Y-52972D01*
X55599Y-52924D01*
X55676Y-52847D01*
X57153Y-52847D01*
X61661Y-52847D01*
X61738Y-52924D01*
X61854Y-52972D01*
X61979Y-52972D01*
X62081Y-52930D01*
X62081Y-58557D01*
X61988Y-58596D01*
X61864Y-58719D01*
X61797Y-58881D01*
X61797Y-59056D01*
X61864Y-59218D01*
X61988Y-59342D01*
X62149Y-59409D01*
X62324Y-59409D01*
X62486Y-59342D01*
X62610Y-59218D01*
X62677Y-59057D01*
X62677Y-58882D01*
X62611Y-58720D01*
X62487Y-58596D01*
X62461Y-58585D01*
X62461Y-55832D01*
X63538Y-56909D01*
X63538Y-57087D01*
X63461Y-57163D01*
X63413Y-57279D01*
X63413Y-57404D01*
X63461Y-57520D01*
X63549Y-57609D01*
X63659Y-57654D01*
X63593Y-57719D01*
X63552Y-57781D01*
X63538Y-57854D01*
X63538Y-58647D01*
X63487Y-58596D01*
X63325Y-58529D01*
X63150Y-58529D01*
X62988Y-58596D01*
X62864Y-58719D01*
X62797Y-58881D01*
X62797Y-59056D01*
X62864Y-59218D01*
X62988Y-59342D01*
X63149Y-59409D01*
X63282Y-59409D01*
X63279Y-59412D01*
X62783Y-59908D01*
X61725Y-59908D01*
X61790Y-59844D01*
X61838Y-59728D01*
X61838Y-59602D01*
X61790Y-59487D01*
X61702Y-59398D01*
X61586Y-59350D01*
X61467Y-59350D01*
X61486Y-59342D01*
X61610Y-59218D01*
X61677Y-59057D01*
X61677Y-58882D01*
X61611Y-58720D01*
X61487Y-58596D01*
X61325Y-58529D01*
X61169Y-58529D01*
X61169Y-54602D01*
X61121Y-54487D01*
X61032Y-54398D01*
X60917Y-54350D01*
X60791Y-54350D01*
X60676Y-54398D01*
X60587Y-54486D01*
X60539Y-54602D01*
X60539Y-54727D01*
X60587Y-54843D01*
X60664Y-54920D01*
X60664Y-55649D01*
X59103Y-57210D01*
X59062Y-57272D01*
X59047Y-57344D01*
X59047Y-58571D01*
X58988Y-58596D01*
X58864Y-58719D01*
X58797Y-58881D01*
X58797Y-59056D01*
X58864Y-59218D01*
X58988Y-59342D01*
X59149Y-59409D01*
X59324Y-59409D01*
X59486Y-59342D01*
X59610Y-59218D01*
X59677Y-59057D01*
X59677Y-58882D01*
X59611Y-58720D01*
X59487Y-58596D01*
X59427Y-58571D01*
X59427Y-57423D01*
X60988Y-55862D01*
X61029Y-55801D01*
X61044Y-55728D01*
X61044Y-54920D01*
X61121Y-54844D01*
X61169Y-54728D01*
X61169Y-54602D01*
X61169Y-58529D01*
X61150Y-58529D01*
X60988Y-58596D01*
X60864Y-58719D01*
X60797Y-58881D01*
X60797Y-59056D01*
X60864Y-59218D01*
X60988Y-59342D01*
X61149Y-59409D01*
X61324Y-59409D01*
X61340Y-59402D01*
X61268Y-59475D01*
X60775Y-59475D01*
X60564Y-59264D01*
X60610Y-59218D01*
X60677Y-59057D01*
X60677Y-58882D01*
X60611Y-58720D01*
X60487Y-58596D01*
X60325Y-58529D01*
X60150Y-58529D01*
X59988Y-58596D01*
X59864Y-58719D01*
X59797Y-58881D01*
X59797Y-59056D01*
X59864Y-59218D01*
X59988Y-59342D01*
X60149Y-59409D01*
X60172Y-59409D01*
X60562Y-59799D01*
X60624Y-59840D01*
X60696Y-59855D01*
X61268Y-59855D01*
X61321Y-59908D01*
X59445Y-59908D01*
X58950Y-59412D01*
X58950Y-59412D01*
X58653Y-59116D01*
X58677Y-59057D01*
X58677Y-58882D01*
X58611Y-58720D01*
X58487Y-58596D01*
X58325Y-58529D01*
X58150Y-58529D01*
X57988Y-58596D01*
X57864Y-58719D01*
X57797Y-58881D01*
X57797Y-59056D01*
X57864Y-59218D01*
X57988Y-59342D01*
X58149Y-59409D01*
X58324Y-59409D01*
X58384Y-59384D01*
X58681Y-59681D01*
X58681Y-59681D01*
X59196Y-60196D01*
X57677Y-60196D01*
X57677Y-58882D01*
X57611Y-58720D01*
X57487Y-58596D01*
X57325Y-58529D01*
X57150Y-58529D01*
X56988Y-58596D01*
X56864Y-58719D01*
X56797Y-58881D01*
X56797Y-59056D01*
X56864Y-59218D01*
X56988Y-59342D01*
X57149Y-59409D01*
X57324Y-59409D01*
X57486Y-59342D01*
X57610Y-59218D01*
X57677Y-59057D01*
X57677Y-58882D01*
X57677Y-60196D01*
X56677Y-60196D01*
X56677Y-58882D01*
X56611Y-58720D01*
X56487Y-58596D01*
X56325Y-58529D01*
X56150Y-58529D01*
X55988Y-58596D01*
X55864Y-58719D01*
X55797Y-58881D01*
X55797Y-59056D01*
X55864Y-59218D01*
X55988Y-59342D01*
X56149Y-59409D01*
X56324Y-59409D01*
X56486Y-59342D01*
X56610Y-59218D01*
X56677Y-59057D01*
X56677Y-58882D01*
X56677Y-60196D01*
X54677Y-60196D01*
X54677Y-58882D01*
X54611Y-58720D01*
X54487Y-58596D01*
X54325Y-58529D01*
X54150Y-58529D01*
X54122Y-58540D01*
X54122Y-55351D01*
X54074Y-55235D01*
X53985Y-55146D01*
X53870Y-55098D01*
X53744Y-55098D01*
X53628Y-55146D01*
X53540Y-55234D01*
X53492Y-55350D01*
X53492Y-55459D01*
X53380Y-55570D01*
X53272Y-55570D01*
X53156Y-55618D01*
X53067Y-55707D01*
X53019Y-55822D01*
X53019Y-55948D01*
X53067Y-56064D01*
X53155Y-56152D01*
X53271Y-56200D01*
X53397Y-56200D01*
X53512Y-56153D01*
X53601Y-56064D01*
X53649Y-55948D01*
X53649Y-55839D01*
X53760Y-55728D01*
X53869Y-55728D01*
X53985Y-55680D01*
X54073Y-55592D01*
X54122Y-55476D01*
X54122Y-55351D01*
X54122Y-58540D01*
X53988Y-58596D01*
X53864Y-58719D01*
X53797Y-58881D01*
X53797Y-59056D01*
X53864Y-59218D01*
X53988Y-59342D01*
X54149Y-59409D01*
X54324Y-59409D01*
X54486Y-59342D01*
X54610Y-59218D01*
X54677Y-59057D01*
X54677Y-58882D01*
X54677Y-60196D01*
X53677Y-60196D01*
X53677Y-58882D01*
X53611Y-58720D01*
X53487Y-58596D01*
X53325Y-58529D01*
X53150Y-58529D01*
X52988Y-58596D01*
X52864Y-58719D01*
X52797Y-58881D01*
X52797Y-59056D01*
X52864Y-59218D01*
X52988Y-59342D01*
X53149Y-59409D01*
X53324Y-59409D01*
X53486Y-59342D01*
X53610Y-59218D01*
X53677Y-59057D01*
X53677Y-58882D01*
X53677Y-60196D01*
X52677Y-60196D01*
X52677Y-58882D01*
X52611Y-58720D01*
X52487Y-58596D01*
X52325Y-58529D01*
X52150Y-58529D01*
X51988Y-58596D01*
X51864Y-58719D01*
X51797Y-58881D01*
X51797Y-59056D01*
X51864Y-59218D01*
X51988Y-59342D01*
X52149Y-59409D01*
X52324Y-59409D01*
X52486Y-59342D01*
X52610Y-59218D01*
X52677Y-59057D01*
X52677Y-58882D01*
X52677Y-60196D01*
X51677Y-60196D01*
X51677Y-59297D01*
X51677Y-59241D01*
X51677Y-59014D01*
X51677Y-58924D01*
X51677Y-58697D01*
X51677Y-58641D01*
X51656Y-58589D01*
X51617Y-58550D01*
X51565Y-58529D01*
X51282Y-58529D01*
X51247Y-58564D01*
X51247Y-58959D01*
X51642Y-58959D01*
X51677Y-58924D01*
X51677Y-59014D01*
X51642Y-58979D01*
X51247Y-58979D01*
X51247Y-59374D01*
X51282Y-59409D01*
X51565Y-59409D01*
X51617Y-59387D01*
X51656Y-59348D01*
X51677Y-59297D01*
X51677Y-60196D01*
X51227Y-60196D01*
X51227Y-59374D01*
X51227Y-58979D01*
X51227Y-58959D01*
X51227Y-58564D01*
X51192Y-58529D01*
X50909Y-58529D01*
X50858Y-58550D01*
X50819Y-58589D01*
X50797Y-58641D01*
X50797Y-58697D01*
X50797Y-58924D01*
X50832Y-58959D01*
X51227Y-58959D01*
X51227Y-58979D01*
X50832Y-58979D01*
X50797Y-59014D01*
X50797Y-59241D01*
X50797Y-59297D01*
X50819Y-59348D01*
X50858Y-59387D01*
X50909Y-59409D01*
X51192Y-59409D01*
X51227Y-59374D01*
X51227Y-60196D01*
X50152Y-60196D01*
X50152Y-59017D01*
X50152Y-46767D01*
X50036Y-46486D01*
X49821Y-46271D01*
X49540Y-46154D01*
X49236Y-46154D01*
X48955Y-46270D01*
X48739Y-46485D01*
X48622Y-46766D01*
X48622Y-47070D01*
X48738Y-47352D01*
X48953Y-47567D01*
X49234Y-47684D01*
X49539Y-47684D01*
X49820Y-47568D01*
X50035Y-47353D01*
X50152Y-47072D01*
X50152Y-46767D01*
X50152Y-59017D01*
X50036Y-58736D01*
X49821Y-58521D01*
X49540Y-58404D01*
X49236Y-58404D01*
X48955Y-58520D01*
X48739Y-58735D01*
X48622Y-59016D01*
X48622Y-59320D01*
X48738Y-59602D01*
X48953Y-59817D01*
X49234Y-59934D01*
X49539Y-59934D01*
X49820Y-59818D01*
X50035Y-59603D01*
X50152Y-59322D01*
X50152Y-59017D01*
X50152Y-60196D01*
X48473Y-60196D01*
X48473Y-45906D01*
X67093Y-45906D01*
X67093Y-48608D01*
X66902Y-48417D01*
X66902Y-46767D01*
X66786Y-46486D01*
X66571Y-46271D01*
X66290Y-46154D01*
X65986Y-46154D01*
X65705Y-46270D01*
X65489Y-46485D01*
X65372Y-46766D01*
X65372Y-47070D01*
X65488Y-47352D01*
X65703Y-47567D01*
X65984Y-47684D01*
X66289Y-47684D01*
X66570Y-47568D01*
X66785Y-47353D01*
X66902Y-47072D01*
X66902Y-46767D01*
X66902Y-48417D01*
X66579Y-48093D01*
X66517Y-48052D01*
X66444Y-48038D01*
X65145Y-48038D01*
X64610Y-47503D01*
X64549Y-47462D01*
X64476Y-47447D01*
X61582Y-47447D01*
X61505Y-47370D01*
X61389Y-47322D01*
X61264Y-47322D01*
X61148Y-47370D01*
X61059Y-47459D01*
X61011Y-47574D01*
X61011Y-47700D01*
X61059Y-47815D01*
X61148Y-47904D01*
X61263Y-47952D01*
X61389Y-47952D01*
X61504Y-47904D01*
X61582Y-47827D01*
X64397Y-47827D01*
X64932Y-48362D01*
X64932Y-48362D01*
X64994Y-48403D01*
X65066Y-48418D01*
X65639Y-48418D01*
X65506Y-48473D01*
X65241Y-48737D01*
X65097Y-49083D01*
X65097Y-49457D01*
X65240Y-49802D01*
X65504Y-50067D01*
X65849Y-50210D01*
X66223Y-50211D01*
X66569Y-50068D01*
X66834Y-49804D01*
X66845Y-49777D01*
X66845Y-51263D01*
X66835Y-51239D01*
X66570Y-50974D01*
X66225Y-50831D01*
X65851Y-50830D01*
X65506Y-50973D01*
X65241Y-51237D01*
X65097Y-51583D01*
X65097Y-51957D01*
X65240Y-52302D01*
X65504Y-52567D01*
X65849Y-52710D01*
X66223Y-52711D01*
X66569Y-52568D01*
X66834Y-52304D01*
X66845Y-52277D01*
X66845Y-53755D01*
X66819Y-53715D01*
X66697Y-53625D01*
X66683Y-53639D01*
X66683Y-53610D01*
X66593Y-53489D01*
X66251Y-53336D01*
X65877Y-53325D01*
X65528Y-53458D01*
X65482Y-53489D01*
X65391Y-53610D01*
X66037Y-54256D01*
X66683Y-53610D01*
X66683Y-53639D01*
X66051Y-54270D01*
X66697Y-54916D01*
X66819Y-54826D01*
X66845Y-54767D01*
X66845Y-55694D01*
X66683Y-55856D01*
X66683Y-54930D01*
X66037Y-54285D01*
X66023Y-54299D01*
X66023Y-54270D01*
X65377Y-53625D01*
X65256Y-53715D01*
X65103Y-54056D01*
X65092Y-54430D01*
X65225Y-54780D01*
X65256Y-54826D01*
X65377Y-54916D01*
X66023Y-54270D01*
X66023Y-54299D01*
X65391Y-54930D01*
X65482Y-55052D01*
X65823Y-55205D01*
X66197Y-55215D01*
X66547Y-55082D01*
X66593Y-55052D01*
X66683Y-54930D01*
X66683Y-55856D01*
X66567Y-55972D01*
X66225Y-55831D01*
X65851Y-55830D01*
X65506Y-55973D01*
X65241Y-56237D01*
X65097Y-56583D01*
X65097Y-56957D01*
X65240Y-57302D01*
X65504Y-57567D01*
X65849Y-57710D01*
X66223Y-57711D01*
X66569Y-57568D01*
X66834Y-57304D01*
X66977Y-56958D01*
X66977Y-56584D01*
X66836Y-56241D01*
X67093Y-55983D01*
X67093Y-60196D01*
X67093Y-60196D01*
G37*
G54D18*
X67093Y-60196D02*
X66902Y-60196D01*
X66902Y-59017D01*
X66786Y-58736D01*
X66571Y-58521D01*
X66290Y-58404D01*
X65986Y-58404D01*
X65705Y-58520D01*
X65489Y-58735D01*
X65372Y-59016D01*
X65372Y-59320D01*
X65488Y-59602D01*
X65703Y-59817D01*
X65984Y-59934D01*
X66289Y-59934D01*
X66570Y-59818D01*
X66785Y-59603D01*
X66902Y-59322D01*
X66902Y-59017D01*
X66902Y-60196D01*
X63033Y-60196D01*
X63413Y-59816D01*
X63413Y-59845D01*
X63461Y-59961D01*
X63549Y-60050D01*
X63665Y-60098D01*
X63790Y-60098D01*
X63906Y-60050D01*
X63983Y-59973D01*
X64437Y-59973D01*
X64509Y-59959D01*
X64571Y-59917D01*
X64965Y-59524D01*
X64965Y-59524D01*
X64965Y-59524D01*
X65006Y-59462D01*
X65020Y-59389D01*
X65020Y-59389D01*
X65020Y-59389D01*
X65020Y-58562D01*
X65006Y-58490D01*
X64965Y-58428D01*
X64548Y-58011D01*
X64548Y-56751D01*
X64533Y-56679D01*
X64492Y-56617D01*
X63209Y-55334D01*
X63209Y-51437D01*
X63209Y-51437D01*
X63209Y-51437D01*
X63195Y-51364D01*
X63154Y-51302D01*
X61972Y-50121D01*
X61911Y-50080D01*
X61838Y-50065D01*
X59318Y-50065D01*
X58885Y-50065D01*
X58813Y-50080D01*
X58751Y-50121D01*
X58695Y-50177D01*
X58587Y-50177D01*
X58471Y-50224D01*
X58382Y-50313D01*
X58334Y-50429D01*
X58334Y-50554D01*
X58382Y-50670D01*
X58470Y-50759D01*
X58586Y-50807D01*
X58711Y-50807D01*
X58827Y-50759D01*
X58916Y-50670D01*
X58964Y-50555D01*
X58964Y-50445D01*
X59318Y-50445D01*
X60581Y-50445D01*
X60539Y-50547D01*
X60539Y-50672D01*
X60587Y-50788D01*
X60675Y-50877D01*
X60791Y-50925D01*
X60916Y-50925D01*
X61032Y-50877D01*
X61109Y-50800D01*
X61759Y-50800D01*
X62593Y-51633D01*
X62593Y-52159D01*
X62327Y-51893D01*
X62265Y-51852D01*
X62192Y-51837D01*
X58255Y-51837D01*
X58059Y-51640D01*
X58059Y-51532D01*
X58011Y-51416D01*
X57922Y-51327D01*
X57807Y-51279D01*
X57681Y-51279D01*
X57565Y-51327D01*
X57477Y-51415D01*
X57429Y-51531D01*
X57429Y-51656D01*
X57462Y-51737D01*
X57408Y-51760D01*
X57319Y-51848D01*
X57271Y-51964D01*
X57271Y-52089D01*
X57319Y-52205D01*
X57407Y-52294D01*
X57523Y-52342D01*
X57632Y-52342D01*
X57688Y-52398D01*
X57750Y-52439D01*
X57822Y-52453D01*
X57940Y-52453D01*
X61675Y-52453D01*
X61661Y-52467D01*
X57153Y-52467D01*
X55676Y-52467D01*
X55599Y-52390D01*
X55484Y-52342D01*
X55358Y-52342D01*
X55243Y-52390D01*
X55154Y-52478D01*
X55106Y-52594D01*
X55106Y-52703D01*
X54735Y-53074D01*
X54694Y-53135D01*
X54680Y-53208D01*
X54680Y-56633D01*
X54694Y-56706D01*
X54735Y-56768D01*
X55047Y-57080D01*
X55047Y-58571D01*
X54988Y-58596D01*
X54864Y-58719D01*
X54797Y-58881D01*
X54797Y-59056D01*
X54864Y-59218D01*
X54988Y-59342D01*
X55149Y-59409D01*
X55324Y-59409D01*
X55486Y-59342D01*
X55610Y-59218D01*
X55677Y-59057D01*
X55677Y-58882D01*
X55611Y-58720D01*
X55487Y-58596D01*
X55427Y-58571D01*
X55427Y-57184D01*
X55469Y-57284D01*
X55557Y-57373D01*
X55673Y-57421D01*
X55798Y-57421D01*
X55914Y-57373D01*
X56003Y-57284D01*
X56051Y-57169D01*
X56051Y-57043D01*
X56003Y-56928D01*
X55914Y-56839D01*
X55799Y-56791D01*
X55689Y-56791D01*
X55375Y-56476D01*
X55375Y-56285D01*
X55400Y-56310D01*
X55515Y-56358D01*
X55641Y-56358D01*
X55756Y-56310D01*
X55845Y-56221D01*
X55893Y-56106D01*
X55893Y-55996D01*
X56067Y-55823D01*
X56108Y-55761D01*
X56123Y-55688D01*
X56123Y-54985D01*
X56128Y-54991D01*
X56244Y-55039D01*
X56369Y-55039D01*
X56485Y-54991D01*
X56562Y-54914D01*
X57389Y-54914D01*
X57462Y-54899D01*
X57524Y-54858D01*
X57737Y-54645D01*
X57845Y-54645D01*
X57961Y-54597D01*
X57987Y-54572D01*
X57987Y-56476D01*
X57957Y-56476D01*
X57841Y-56524D01*
X57752Y-56612D01*
X57704Y-56728D01*
X57704Y-56853D01*
X57752Y-56969D01*
X57841Y-57058D01*
X57956Y-57106D01*
X58082Y-57106D01*
X58197Y-57058D01*
X58286Y-56970D01*
X58334Y-56854D01*
X58334Y-56733D01*
X58334Y-56733D01*
X58352Y-56706D01*
X58367Y-56633D01*
X58367Y-53562D01*
X58367Y-53444D01*
X58352Y-53372D01*
X58311Y-53310D01*
X58075Y-53074D01*
X58013Y-53033D01*
X57940Y-53018D01*
X57881Y-53018D01*
X57804Y-52941D01*
X57688Y-52893D01*
X57563Y-52893D01*
X57447Y-52941D01*
X57359Y-53029D01*
X57311Y-53145D01*
X57310Y-53271D01*
X57358Y-53386D01*
X57447Y-53475D01*
X57501Y-53498D01*
X57468Y-53578D01*
X57468Y-53688D01*
X57114Y-54042D01*
X56562Y-54042D01*
X56485Y-53965D01*
X56370Y-53917D01*
X56244Y-53917D01*
X56128Y-53965D01*
X56040Y-54053D01*
X55992Y-54169D01*
X55992Y-54258D01*
X55798Y-54452D01*
X55757Y-54513D01*
X55750Y-54549D01*
X55678Y-54477D01*
X55562Y-54429D01*
X55437Y-54429D01*
X55321Y-54476D01*
X55233Y-54565D01*
X55185Y-54681D01*
X55184Y-54790D01*
X55060Y-54915D01*
X55060Y-53287D01*
X55375Y-52972D01*
X55483Y-52972D01*
X55599Y-52924D01*
X55676Y-52847D01*
X57153Y-52847D01*
X61661Y-52847D01*
X61738Y-52924D01*
X61854Y-52972D01*
X61979Y-52972D01*
X62081Y-52930D01*
X62081Y-58557D01*
X61988Y-58596D01*
X61864Y-58719D01*
X61797Y-58881D01*
X61797Y-59056D01*
X61864Y-59218D01*
X61988Y-59342D01*
X62149Y-59409D01*
X62324Y-59409D01*
X62486Y-59342D01*
X62610Y-59218D01*
X62677Y-59057D01*
X62677Y-58882D01*
X62611Y-58720D01*
X62487Y-58596D01*
X62461Y-58585D01*
X62461Y-55832D01*
X63538Y-56909D01*
X63538Y-57087D01*
X63461Y-57163D01*
X63413Y-57279D01*
X63413Y-57404D01*
X63461Y-57520D01*
X63549Y-57609D01*
X63659Y-57654D01*
X63593Y-57719D01*
X63552Y-57781D01*
X63538Y-57854D01*
X63538Y-58647D01*
X63487Y-58596D01*
X63325Y-58529D01*
X63150Y-58529D01*
X62988Y-58596D01*
X62864Y-58719D01*
X62797Y-58881D01*
X62797Y-59056D01*
X62864Y-59218D01*
X62988Y-59342D01*
X63149Y-59409D01*
X63282Y-59409D01*
X63279Y-59412D01*
X62783Y-59908D01*
X61725Y-59908D01*
X61790Y-59844D01*
X61838Y-59728D01*
X61838Y-59602D01*
X61790Y-59487D01*
X61702Y-59398D01*
X61586Y-59350D01*
X61467Y-59350D01*
X61486Y-59342D01*
X61610Y-59218D01*
X61677Y-59057D01*
X61677Y-58882D01*
X61611Y-58720D01*
X61487Y-58596D01*
X61325Y-58529D01*
X61169Y-58529D01*
X61169Y-54602D01*
X61121Y-54487D01*
X61032Y-54398D01*
X60917Y-54350D01*
X60791Y-54350D01*
X60676Y-54398D01*
X60587Y-54486D01*
X60539Y-54602D01*
X60539Y-54727D01*
X60587Y-54843D01*
X60664Y-54920D01*
X60664Y-55649D01*
X59103Y-57210D01*
X59062Y-57272D01*
X59047Y-57344D01*
X59047Y-58571D01*
X58988Y-58596D01*
X58864Y-58719D01*
X58797Y-58881D01*
X58797Y-59056D01*
X58864Y-59218D01*
X58988Y-59342D01*
X59149Y-59409D01*
X59324Y-59409D01*
X59486Y-59342D01*
X59610Y-59218D01*
X59677Y-59057D01*
X59677Y-58882D01*
X59611Y-58720D01*
X59487Y-58596D01*
X59427Y-58571D01*
X59427Y-57423D01*
X60988Y-55862D01*
X61029Y-55801D01*
X61044Y-55728D01*
X61044Y-54920D01*
X61121Y-54844D01*
X61169Y-54728D01*
X61169Y-54602D01*
X61169Y-58529D01*
X61150Y-58529D01*
X60988Y-58596D01*
X60864Y-58719D01*
X60797Y-58881D01*
X60797Y-59056D01*
X60864Y-59218D01*
X60988Y-59342D01*
X61149Y-59409D01*
X61324Y-59409D01*
X61340Y-59402D01*
X61268Y-59475D01*
X60775Y-59475D01*
X60564Y-59264D01*
X60610Y-59218D01*
X60677Y-59057D01*
X60677Y-58882D01*
X60611Y-58720D01*
X60487Y-58596D01*
X60325Y-58529D01*
X60150Y-58529D01*
X59988Y-58596D01*
X59864Y-58719D01*
X59797Y-58881D01*
X59797Y-59056D01*
X59864Y-59218D01*
X59988Y-59342D01*
X60149Y-59409D01*
X60172Y-59409D01*
X60562Y-59799D01*
X60624Y-59840D01*
X60696Y-59855D01*
X61268Y-59855D01*
X61321Y-59908D01*
X59445Y-59908D01*
X58950Y-59412D01*
X58950Y-59412D01*
X58653Y-59116D01*
X58677Y-59057D01*
X58677Y-58882D01*
X58611Y-58720D01*
X58487Y-58596D01*
X58325Y-58529D01*
X58150Y-58529D01*
X57988Y-58596D01*
X57864Y-58719D01*
X57797Y-58881D01*
X57797Y-59056D01*
X57864Y-59218D01*
X57988Y-59342D01*
X58149Y-59409D01*
X58324Y-59409D01*
X58384Y-59384D01*
X58681Y-59681D01*
X58681Y-59681D01*
X59196Y-60196D01*
X57677Y-60196D01*
X57677Y-58882D01*
X57611Y-58720D01*
X57487Y-58596D01*
X57325Y-58529D01*
X57150Y-58529D01*
X56988Y-58596D01*
X56864Y-58719D01*
X56797Y-58881D01*
X56797Y-59056D01*
X56864Y-59218D01*
X56988Y-59342D01*
X57149Y-59409D01*
X57324Y-59409D01*
X57486Y-59342D01*
X57610Y-59218D01*
X57677Y-59057D01*
X57677Y-58882D01*
X57677Y-60196D01*
X56677Y-60196D01*
X56677Y-58882D01*
X56611Y-58720D01*
X56487Y-58596D01*
X56325Y-58529D01*
X56150Y-58529D01*
X55988Y-58596D01*
X55864Y-58719D01*
X55797Y-58881D01*
X55797Y-59056D01*
X55864Y-59218D01*
X55988Y-59342D01*
X56149Y-59409D01*
X56324Y-59409D01*
X56486Y-59342D01*
X56610Y-59218D01*
X56677Y-59057D01*
X56677Y-58882D01*
X56677Y-60196D01*
X54677Y-60196D01*
X54677Y-58882D01*
X54611Y-58720D01*
X54487Y-58596D01*
X54325Y-58529D01*
X54150Y-58529D01*
X54122Y-58540D01*
X54122Y-55351D01*
X54074Y-55235D01*
X53985Y-55146D01*
X53870Y-55098D01*
X53744Y-55098D01*
X53628Y-55146D01*
X53540Y-55234D01*
X53492Y-55350D01*
X53492Y-55459D01*
X53380Y-55570D01*
X53272Y-55570D01*
X53156Y-55618D01*
X53067Y-55707D01*
X53019Y-55822D01*
X53019Y-55948D01*
X53067Y-56064D01*
X53155Y-56152D01*
X53271Y-56200D01*
X53397Y-56200D01*
X53512Y-56153D01*
X53601Y-56064D01*
X53649Y-55948D01*
X53649Y-55839D01*
X53760Y-55728D01*
X53869Y-55728D01*
X53985Y-55680D01*
X54073Y-55592D01*
X54122Y-55476D01*
X54122Y-55351D01*
X54122Y-58540D01*
X53988Y-58596D01*
X53864Y-58719D01*
X53797Y-58881D01*
X53797Y-59056D01*
X53864Y-59218D01*
X53988Y-59342D01*
X54149Y-59409D01*
X54324Y-59409D01*
X54486Y-59342D01*
X54610Y-59218D01*
X54677Y-59057D01*
X54677Y-58882D01*
X54677Y-60196D01*
X53677Y-60196D01*
X53677Y-58882D01*
X53611Y-58720D01*
X53487Y-58596D01*
X53325Y-58529D01*
X53150Y-58529D01*
X52988Y-58596D01*
X52864Y-58719D01*
X52797Y-58881D01*
X52797Y-59056D01*
X52864Y-59218D01*
X52988Y-59342D01*
X53149Y-59409D01*
X53324Y-59409D01*
X53486Y-59342D01*
X53610Y-59218D01*
X53677Y-59057D01*
X53677Y-58882D01*
X53677Y-60196D01*
X52677Y-60196D01*
X52677Y-58882D01*
X52611Y-58720D01*
X52487Y-58596D01*
X52325Y-58529D01*
X52150Y-58529D01*
X51988Y-58596D01*
X51864Y-58719D01*
X51797Y-58881D01*
X51797Y-59056D01*
X51864Y-59218D01*
X51988Y-59342D01*
X52149Y-59409D01*
X52324Y-59409D01*
X52486Y-59342D01*
X52610Y-59218D01*
X52677Y-59057D01*
X52677Y-58882D01*
X52677Y-60196D01*
X51677Y-60196D01*
X51677Y-59297D01*
X51677Y-59241D01*
X51677Y-59014D01*
X51677Y-58924D01*
X51677Y-58697D01*
X51677Y-58641D01*
X51656Y-58589D01*
X51617Y-58550D01*
X51565Y-58529D01*
X51282Y-58529D01*
X51247Y-58564D01*
X51247Y-58959D01*
X51642Y-58959D01*
X51677Y-58924D01*
X51677Y-59014D01*
X51642Y-58979D01*
X51247Y-58979D01*
X51247Y-59374D01*
X51282Y-59409D01*
X51565Y-59409D01*
X51617Y-59387D01*
X51656Y-59348D01*
X51677Y-59297D01*
X51677Y-60196D01*
X51227Y-60196D01*
X51227Y-59374D01*
X51227Y-58979D01*
X51227Y-58959D01*
X51227Y-58564D01*
X51192Y-58529D01*
X50909Y-58529D01*
X50858Y-58550D01*
X50819Y-58589D01*
X50797Y-58641D01*
X50797Y-58697D01*
X50797Y-58924D01*
X50832Y-58959D01*
X51227Y-58959D01*
X51227Y-58979D01*
X50832Y-58979D01*
X50797Y-59014D01*
X50797Y-59241D01*
X50797Y-59297D01*
X50819Y-59348D01*
X50858Y-59387D01*
X50909Y-59409D01*
X51192Y-59409D01*
X51227Y-59374D01*
X51227Y-60196D01*
X50152Y-60196D01*
X50152Y-59017D01*
X50152Y-46767D01*
X50036Y-46486D01*
X49821Y-46271D01*
X49540Y-46154D01*
X49236Y-46154D01*
X48955Y-46270D01*
X48739Y-46485D01*
X48622Y-46766D01*
X48622Y-47070D01*
X48738Y-47352D01*
X48953Y-47567D01*
X49234Y-47684D01*
X49539Y-47684D01*
X49820Y-47568D01*
X50035Y-47353D01*
X50152Y-47072D01*
X50152Y-46767D01*
X50152Y-59017D01*
X50036Y-58736D01*
X49821Y-58521D01*
X49540Y-58404D01*
X49236Y-58404D01*
X48955Y-58520D01*
X48739Y-58735D01*
X48622Y-59016D01*
X48622Y-59320D01*
X48738Y-59602D01*
X48953Y-59817D01*
X49234Y-59934D01*
X49539Y-59934D01*
X49820Y-59818D01*
X50035Y-59603D01*
X50152Y-59322D01*
X50152Y-59017D01*
X50152Y-60196D01*
X48473Y-60196D01*
X48473Y-45906D01*
X67093Y-45906D01*
X67093Y-48608D01*
X66902Y-48417D01*
X66902Y-46767D01*
X66786Y-46486D01*
X66571Y-46271D01*
X66290Y-46154D01*
X65986Y-46154D01*
X65705Y-46270D01*
X65489Y-46485D01*
X65372Y-46766D01*
X65372Y-47070D01*
X65488Y-47352D01*
X65703Y-47567D01*
X65984Y-47684D01*
X66289Y-47684D01*
X66570Y-47568D01*
X66785Y-47353D01*
X66902Y-47072D01*
X66902Y-46767D01*
X66902Y-48417D01*
X66579Y-48093D01*
X66517Y-48052D01*
X66444Y-48038D01*
X65145Y-48038D01*
X64610Y-47503D01*
X64549Y-47462D01*
X64476Y-47447D01*
X61582Y-47447D01*
X61505Y-47370D01*
X61389Y-47322D01*
X61264Y-47322D01*
X61148Y-47370D01*
X61059Y-47459D01*
X61011Y-47574D01*
X61011Y-47700D01*
X61059Y-47815D01*
X61148Y-47904D01*
X61263Y-47952D01*
X61389Y-47952D01*
X61504Y-47904D01*
X61582Y-47827D01*
X64397Y-47827D01*
X64932Y-48362D01*
X64932Y-48362D01*
X64994Y-48403D01*
X65066Y-48418D01*
X65639Y-48418D01*
X65506Y-48473D01*
X65241Y-48737D01*
X65097Y-49083D01*
X65097Y-49457D01*
X65240Y-49802D01*
X65504Y-50067D01*
X65849Y-50210D01*
X66223Y-50211D01*
X66569Y-50068D01*
X66834Y-49804D01*
X66845Y-49777D01*
X66845Y-51263D01*
X66835Y-51239D01*
X66570Y-50974D01*
X66225Y-50831D01*
X65851Y-50830D01*
X65506Y-50973D01*
X65241Y-51237D01*
X65097Y-51583D01*
X65097Y-51957D01*
X65240Y-52302D01*
X65504Y-52567D01*
X65849Y-52710D01*
X66223Y-52711D01*
X66569Y-52568D01*
X66834Y-52304D01*
X66845Y-52277D01*
X66845Y-53755D01*
X66819Y-53715D01*
X66697Y-53625D01*
X66683Y-53639D01*
X66683Y-53610D01*
X66593Y-53489D01*
X66251Y-53336D01*
X65877Y-53325D01*
X65528Y-53458D01*
X65482Y-53489D01*
X65391Y-53610D01*
X66037Y-54256D01*
X66683Y-53610D01*
X66683Y-53639D01*
X66051Y-54270D01*
X66697Y-54916D01*
X66819Y-54826D01*
X66845Y-54767D01*
X66845Y-55694D01*
X66683Y-55856D01*
X66683Y-54930D01*
X66037Y-54285D01*
X66023Y-54299D01*
X66023Y-54270D01*
X65377Y-53625D01*
X65256Y-53715D01*
X65103Y-54056D01*
X65092Y-54430D01*
X65225Y-54780D01*
X65256Y-54826D01*
X65377Y-54916D01*
X66023Y-54270D01*
X66023Y-54299D01*
X65391Y-54930D01*
X65482Y-55052D01*
X65823Y-55205D01*
X66197Y-55215D01*
X66547Y-55082D01*
X66593Y-55052D01*
X66683Y-54930D01*
X66683Y-55856D01*
X66567Y-55972D01*
X66225Y-55831D01*
X65851Y-55830D01*
X65506Y-55973D01*
X65241Y-56237D01*
X65097Y-56583D01*
X65097Y-56957D01*
X65240Y-57302D01*
X65504Y-57567D01*
X65849Y-57710D01*
X66223Y-57711D01*
X66569Y-57568D01*
X66834Y-57304D01*
X66977Y-56958D01*
X66977Y-56584D01*
X66836Y-56241D01*
X67093Y-55983D01*
X67093Y-60196D01*
M02*
