M48
;DRILL file {Pcbnew (2013-mar-13)-testing} date Sun 09 Jun 2013 10:00:04 PM EDT
;FORMAT={-:-/ absolute / inch / decimal}
FMAT,2
INCH,TZ
T1C0.025
T2C0.040
T3C0.120
T4C0.125
%
G90
G05
M72
T1
X5.1169Y-5.0256
X5.172Y-5.561
X5.3335Y-5.5886
X5.3807Y-5.5413
X5.4004Y-5.1319
X5.5421Y-5.2657
X5.55Y-5.4744
X5.5579Y-5.6043
X5.5736Y-5.7106
X5.6307Y-5.4232
X5.6307Y-5.4724
X5.7587Y-5.2028
X5.7626Y-5.3209
X5.7744Y-5.1594
X5.7783Y-5.3642
X5.7783Y-5.4331
X5.802Y-5.6791
X5.865Y-5.0492
X6.0303Y-5.5768
X6.0854Y-5.061
X6.0854Y-5.4665
X6.1327Y-4.7638
X6.1445Y-5.624
X6.1524Y-5.9665
X6.1917Y-5.2657
X6.1917Y-5.3327
X6.2075Y-5.1673
X6.3728Y-5.7343
X6.3728Y-5.9783
T2
X5.1238Y-5.8969
X5.2238Y-5.8969
X5.3238Y-5.8969
X5.4238Y-5.8969
X5.5238Y-5.8969
X5.6238Y-5.8969
X5.7238Y-5.8969
X5.8238Y-5.8969
X5.9238Y-5.8969
X6.0238Y-5.8969
X6.1238Y-5.8969
X6.2238Y-5.8969
X6.3238Y-5.8969
X6.4238Y-5.8969
T3
X6.6038Y-4.9271
X6.6038Y-5.1771
X6.6038Y-5.4271
X6.6038Y-5.6771
T4
X4.9388Y-4.6919
X4.9388Y-5.9169
X6.6138Y-4.6919
X6.6138Y-5.9169
T0
M30
