G04 (created by PCBNEW (2013-mar-13)-testing) date Sun 09 Jun 2013 10:00:02 PM EDT*
%MOIN*%
G04 Gerber Fmt 3.4, Leading zero omitted, Abs format*
%FSLAX34Y34*%
G01*
G70*
G90*
G04 APERTURE LIST*
%ADD10C,0.005906*%
%ADD11C,0.004921*%
%ADD12C,0.007874*%
%ADD13C,0.003937*%
%ADD14C,0.003900*%
%ADD15C,0.015000*%
%ADD16C,0.003100*%
%ADD17C,0.004300*%
%ADD18C,0.004700*%
G04 APERTURE END LIST*
G54D10*
G54D11*
X62050Y-58359D02*
X62050Y-58163D01*
X62144Y-58359D02*
X62144Y-58163D01*
X62256Y-58359D01*
X62256Y-58163D01*
X62322Y-58163D02*
X62387Y-58359D01*
X62453Y-58163D01*
X60900Y-58350D02*
X60928Y-58359D01*
X60975Y-58359D01*
X60994Y-58350D01*
X61003Y-58341D01*
X61012Y-58322D01*
X61012Y-58303D01*
X61003Y-58284D01*
X60994Y-58275D01*
X60975Y-58266D01*
X60937Y-58256D01*
X60919Y-58247D01*
X60909Y-58238D01*
X60900Y-58219D01*
X60900Y-58200D01*
X60909Y-58181D01*
X60919Y-58172D01*
X60937Y-58163D01*
X60984Y-58163D01*
X61012Y-58172D01*
X61190Y-58359D02*
X61097Y-58359D01*
X61097Y-58163D01*
X61256Y-58256D02*
X61322Y-58256D01*
X61350Y-58359D02*
X61256Y-58359D01*
X61256Y-58163D01*
X61350Y-58163D01*
X61415Y-58163D02*
X61462Y-58359D01*
X61500Y-58219D01*
X61537Y-58359D01*
X61584Y-58163D01*
G54D10*
X51090Y-58145D02*
X51076Y-58174D01*
X51076Y-58216D01*
X51090Y-58258D01*
X51118Y-58286D01*
X51146Y-58300D01*
X51202Y-58314D01*
X51244Y-58314D01*
X51301Y-58300D01*
X51329Y-58286D01*
X51357Y-58258D01*
X51371Y-58216D01*
X51371Y-58188D01*
X51357Y-58145D01*
X51343Y-58131D01*
X51244Y-58131D01*
X51244Y-58188D01*
X51371Y-58005D02*
X51076Y-58005D01*
X51371Y-57836D01*
X51076Y-57836D01*
X51371Y-57695D02*
X51076Y-57695D01*
X51076Y-57625D01*
X51090Y-57583D01*
X51118Y-57555D01*
X51146Y-57541D01*
X51202Y-57527D01*
X51244Y-57527D01*
X51301Y-57541D01*
X51329Y-57555D01*
X51357Y-57583D01*
X51371Y-57625D01*
X51371Y-57695D01*
X52076Y-58342D02*
X52371Y-58244D01*
X52076Y-58145D01*
X52343Y-57878D02*
X52357Y-57892D01*
X52371Y-57934D01*
X52371Y-57963D01*
X52357Y-58005D01*
X52329Y-58033D01*
X52301Y-58047D01*
X52244Y-58061D01*
X52202Y-58061D01*
X52146Y-58047D01*
X52118Y-58033D01*
X52090Y-58005D01*
X52076Y-57963D01*
X52076Y-57934D01*
X52090Y-57892D01*
X52104Y-57878D01*
X52343Y-57583D02*
X52357Y-57597D01*
X52371Y-57639D01*
X52371Y-57667D01*
X52357Y-57710D01*
X52329Y-57738D01*
X52301Y-57752D01*
X52244Y-57766D01*
X52202Y-57766D01*
X52146Y-57752D01*
X52118Y-57738D01*
X52090Y-57710D01*
X52076Y-57667D01*
X52076Y-57639D01*
X52090Y-57597D01*
X52104Y-57583D01*
X53371Y-58300D02*
X53076Y-58300D01*
X53287Y-58202D01*
X53076Y-58103D01*
X53371Y-58103D01*
X53371Y-57963D02*
X53076Y-57963D01*
X53076Y-57850D01*
X53090Y-57822D01*
X53104Y-57808D01*
X53132Y-57794D01*
X53174Y-57794D01*
X53202Y-57808D01*
X53216Y-57822D01*
X53230Y-57850D01*
X53230Y-57963D01*
X53076Y-57695D02*
X53371Y-57625D01*
X53160Y-57569D01*
X53371Y-57513D01*
X53076Y-57442D01*
X53371Y-57330D02*
X53076Y-57330D01*
X53287Y-57231D01*
X53076Y-57133D01*
X53371Y-57133D01*
X54371Y-58300D02*
X54076Y-58300D01*
X54287Y-58202D01*
X54076Y-58103D01*
X54371Y-58103D01*
X54371Y-57963D02*
X54076Y-57963D01*
X54076Y-57892D01*
X54090Y-57850D01*
X54118Y-57822D01*
X54146Y-57808D01*
X54202Y-57794D01*
X54244Y-57794D01*
X54301Y-57808D01*
X54329Y-57822D01*
X54357Y-57850D01*
X54371Y-57892D01*
X54371Y-57963D01*
X54371Y-57667D02*
X54076Y-57667D01*
X54371Y-57358D02*
X54230Y-57456D01*
X54371Y-57527D02*
X54076Y-57527D01*
X54076Y-57414D01*
X54090Y-57386D01*
X54104Y-57372D01*
X54132Y-57358D01*
X54174Y-57358D01*
X54202Y-57372D01*
X54216Y-57386D01*
X54230Y-57414D01*
X54230Y-57527D01*
X55357Y-58314D02*
X55371Y-58272D01*
X55371Y-58202D01*
X55357Y-58174D01*
X55343Y-58159D01*
X55315Y-58145D01*
X55287Y-58145D01*
X55258Y-58159D01*
X55244Y-58174D01*
X55230Y-58202D01*
X55216Y-58258D01*
X55202Y-58286D01*
X55188Y-58300D01*
X55160Y-58314D01*
X55132Y-58314D01*
X55104Y-58300D01*
X55090Y-58286D01*
X55076Y-58258D01*
X55076Y-58188D01*
X55090Y-58145D01*
X55216Y-57920D02*
X55216Y-58019D01*
X55371Y-58019D02*
X55076Y-58019D01*
X55076Y-57878D01*
X56371Y-58300D02*
X56076Y-58300D01*
X56371Y-58159D02*
X56076Y-58159D01*
X56371Y-57991D01*
X56076Y-57991D01*
X56371Y-57695D02*
X56371Y-57864D01*
X56371Y-57780D02*
X56076Y-57780D01*
X56118Y-57808D01*
X56146Y-57836D01*
X56160Y-57864D01*
X57371Y-58300D02*
X57076Y-58300D01*
X57371Y-58159D02*
X57076Y-58159D01*
X57371Y-57991D01*
X57076Y-57991D01*
X57104Y-57864D02*
X57090Y-57850D01*
X57076Y-57822D01*
X57076Y-57752D01*
X57090Y-57724D01*
X57104Y-57710D01*
X57132Y-57695D01*
X57160Y-57695D01*
X57202Y-57710D01*
X57371Y-57878D01*
X57371Y-57695D01*
X58371Y-58300D02*
X58076Y-58300D01*
X58076Y-58230D01*
X58090Y-58188D01*
X58118Y-58159D01*
X58146Y-58145D01*
X58202Y-58131D01*
X58244Y-58131D01*
X58301Y-58145D01*
X58329Y-58159D01*
X58357Y-58188D01*
X58371Y-58230D01*
X58371Y-58300D01*
X58104Y-58019D02*
X58090Y-58005D01*
X58076Y-57977D01*
X58076Y-57906D01*
X58090Y-57878D01*
X58104Y-57864D01*
X58132Y-57850D01*
X58160Y-57850D01*
X58202Y-57864D01*
X58371Y-58033D01*
X58371Y-57850D01*
X58025Y-58370D02*
X58025Y-57794D01*
X59371Y-58300D02*
X59076Y-58300D01*
X59076Y-58230D01*
X59090Y-58188D01*
X59118Y-58159D01*
X59146Y-58145D01*
X59202Y-58131D01*
X59244Y-58131D01*
X59301Y-58145D01*
X59329Y-58159D01*
X59357Y-58188D01*
X59371Y-58230D01*
X59371Y-58300D01*
X59371Y-57850D02*
X59371Y-58019D01*
X59371Y-57934D02*
X59076Y-57934D01*
X59118Y-57963D01*
X59146Y-57991D01*
X59160Y-58019D01*
X59025Y-58370D02*
X59025Y-57794D01*
X60216Y-58300D02*
X60216Y-58202D01*
X60371Y-58159D02*
X60371Y-58300D01*
X60076Y-58300D01*
X60076Y-58159D01*
X60371Y-58033D02*
X60076Y-58033D01*
X60371Y-57864D01*
X60076Y-57864D01*
X63216Y-58202D02*
X63216Y-58300D01*
X63371Y-58300D02*
X63076Y-58300D01*
X63076Y-58159D01*
X63216Y-57949D02*
X63230Y-57906D01*
X63244Y-57892D01*
X63272Y-57878D01*
X63315Y-57878D01*
X63343Y-57892D01*
X63357Y-57906D01*
X63371Y-57934D01*
X63371Y-58047D01*
X63076Y-58047D01*
X63076Y-57949D01*
X63090Y-57920D01*
X63104Y-57906D01*
X63132Y-57892D01*
X63160Y-57892D01*
X63188Y-57906D01*
X63202Y-57920D01*
X63216Y-57949D01*
X63216Y-58047D01*
X64090Y-58145D02*
X64076Y-58174D01*
X64076Y-58216D01*
X64090Y-58258D01*
X64118Y-58286D01*
X64146Y-58300D01*
X64202Y-58314D01*
X64244Y-58314D01*
X64301Y-58300D01*
X64329Y-58286D01*
X64357Y-58258D01*
X64371Y-58216D01*
X64371Y-58188D01*
X64357Y-58145D01*
X64343Y-58131D01*
X64244Y-58131D01*
X64244Y-58188D01*
X64371Y-58005D02*
X64076Y-58005D01*
X64371Y-57836D01*
X64076Y-57836D01*
X64371Y-57695D02*
X64076Y-57695D01*
X64076Y-57625D01*
X64090Y-57583D01*
X64118Y-57555D01*
X64146Y-57541D01*
X64202Y-57527D01*
X64244Y-57527D01*
X64301Y-57541D01*
X64329Y-57555D01*
X64357Y-57583D01*
X64371Y-57625D01*
X64371Y-57695D01*
G54D12*
X64403Y-57419D02*
X64403Y-57325D01*
X64427Y-57278D01*
X64474Y-57231D01*
X64567Y-57208D01*
X64731Y-57208D01*
X64825Y-57231D01*
X64872Y-57278D01*
X64895Y-57325D01*
X64895Y-57419D01*
X64872Y-57466D01*
X64825Y-57513D01*
X64731Y-57536D01*
X64567Y-57536D01*
X64474Y-57513D01*
X64427Y-57466D01*
X64403Y-57419D01*
X64403Y-56997D02*
X64802Y-56997D01*
X64848Y-56974D01*
X64872Y-56950D01*
X64895Y-56903D01*
X64895Y-56810D01*
X64872Y-56763D01*
X64848Y-56739D01*
X64802Y-56716D01*
X64403Y-56716D01*
X64403Y-56552D02*
X64403Y-56271D01*
X64895Y-56411D02*
X64403Y-56411D01*
X64450Y-56130D02*
X64427Y-56107D01*
X64403Y-56060D01*
X64403Y-55943D01*
X64427Y-55896D01*
X64450Y-55872D01*
X64497Y-55849D01*
X64544Y-55849D01*
X64614Y-55872D01*
X64895Y-56153D01*
X64895Y-55849D01*
X64427Y-54607D02*
X64403Y-54654D01*
X64403Y-54724D01*
X64427Y-54794D01*
X64474Y-54841D01*
X64520Y-54865D01*
X64614Y-54888D01*
X64684Y-54888D01*
X64778Y-54865D01*
X64825Y-54841D01*
X64872Y-54794D01*
X64895Y-54724D01*
X64895Y-54677D01*
X64872Y-54607D01*
X64848Y-54583D01*
X64684Y-54583D01*
X64684Y-54677D01*
X64895Y-54372D02*
X64403Y-54372D01*
X64895Y-54091D01*
X64403Y-54091D01*
X64895Y-53857D02*
X64403Y-53857D01*
X64403Y-53740D01*
X64427Y-53669D01*
X64474Y-53622D01*
X64520Y-53599D01*
X64614Y-53576D01*
X64684Y-53576D01*
X64778Y-53599D01*
X64825Y-53622D01*
X64872Y-53669D01*
X64895Y-53740D01*
X64895Y-53857D01*
X64403Y-52498D02*
X64403Y-52404D01*
X64427Y-52357D01*
X64474Y-52310D01*
X64567Y-52287D01*
X64731Y-52287D01*
X64825Y-52310D01*
X64872Y-52357D01*
X64895Y-52404D01*
X64895Y-52498D01*
X64872Y-52544D01*
X64825Y-52591D01*
X64731Y-52615D01*
X64567Y-52615D01*
X64474Y-52591D01*
X64427Y-52544D01*
X64403Y-52498D01*
X64403Y-52076D02*
X64802Y-52076D01*
X64848Y-52052D01*
X64872Y-52029D01*
X64895Y-51982D01*
X64895Y-51888D01*
X64872Y-51841D01*
X64848Y-51818D01*
X64802Y-51795D01*
X64403Y-51795D01*
X64403Y-51631D02*
X64403Y-51349D01*
X64895Y-51490D02*
X64403Y-51490D01*
X64895Y-50928D02*
X64895Y-51209D01*
X64895Y-51068D02*
X64403Y-51068D01*
X64474Y-51115D01*
X64520Y-51162D01*
X64544Y-51209D01*
X64403Y-49751D02*
X64895Y-49587D01*
X64403Y-49423D01*
X64895Y-49259D02*
X64403Y-49259D01*
X64895Y-49025D02*
X64403Y-49025D01*
X64895Y-48743D01*
X64403Y-48743D01*
G54D10*
X63276Y-48180D02*
X63276Y-48082D01*
X63122Y-48082D02*
X63417Y-48082D01*
X63417Y-48222D01*
X63417Y-48307D02*
X63122Y-48377D01*
X63333Y-48433D01*
X63122Y-48489D01*
X63417Y-48560D01*
X63122Y-48672D02*
X63417Y-48672D01*
X63417Y-48742D01*
X63403Y-48785D01*
X63375Y-48813D01*
X63347Y-48827D01*
X63291Y-48841D01*
X63248Y-48841D01*
X63192Y-48827D01*
X63164Y-48813D01*
X63136Y-48785D01*
X63122Y-48742D01*
X63122Y-48672D01*
X61862Y-48211D02*
X62003Y-48113D01*
X61862Y-48042D02*
X62157Y-48042D01*
X62157Y-48155D01*
X62143Y-48183D01*
X62129Y-48197D01*
X62101Y-48211D01*
X62059Y-48211D01*
X62031Y-48197D01*
X62017Y-48183D01*
X62003Y-48155D01*
X62003Y-48042D01*
X62017Y-48338D02*
X62017Y-48436D01*
X61862Y-48478D02*
X61862Y-48338D01*
X62157Y-48338D01*
X62157Y-48478D01*
X62157Y-48562D02*
X61862Y-48661D01*
X62157Y-48759D01*
X57444Y-47626D02*
X57149Y-47626D01*
X57149Y-47514D01*
X57163Y-47485D01*
X57177Y-47471D01*
X57205Y-47457D01*
X57247Y-47457D01*
X57275Y-47471D01*
X57289Y-47485D01*
X57303Y-47514D01*
X57303Y-47626D01*
X57149Y-47275D02*
X57149Y-47218D01*
X57163Y-47190D01*
X57191Y-47162D01*
X57247Y-47148D01*
X57346Y-47148D01*
X57402Y-47162D01*
X57430Y-47190D01*
X57444Y-47218D01*
X57444Y-47275D01*
X57430Y-47303D01*
X57402Y-47331D01*
X57346Y-47345D01*
X57247Y-47345D01*
X57191Y-47331D01*
X57163Y-47303D01*
X57149Y-47275D01*
X57149Y-47050D02*
X57444Y-46979D01*
X57233Y-46923D01*
X57444Y-46867D01*
X57149Y-46796D01*
X57289Y-46684D02*
X57289Y-46586D01*
X57444Y-46543D02*
X57444Y-46684D01*
X57149Y-46684D01*
X57149Y-46543D01*
X57444Y-46248D02*
X57303Y-46347D01*
X57444Y-46417D02*
X57149Y-46417D01*
X57149Y-46304D01*
X57163Y-46276D01*
X57177Y-46262D01*
X57205Y-46248D01*
X57247Y-46248D01*
X57275Y-46262D01*
X57289Y-46276D01*
X57303Y-46304D01*
X57303Y-46417D01*
G54D12*
X50593Y-48662D02*
X50593Y-48268D01*
X50724Y-48549D01*
X50856Y-48268D01*
X50856Y-48662D01*
X51268Y-48624D02*
X51249Y-48643D01*
X51193Y-48662D01*
X51156Y-48662D01*
X51099Y-48643D01*
X51062Y-48606D01*
X51043Y-48568D01*
X51024Y-48493D01*
X51024Y-48437D01*
X51043Y-48362D01*
X51062Y-48324D01*
X51099Y-48287D01*
X51156Y-48268D01*
X51193Y-48268D01*
X51249Y-48287D01*
X51268Y-48306D01*
X51399Y-48268D02*
X51643Y-48268D01*
X51512Y-48418D01*
X51568Y-48418D01*
X51606Y-48437D01*
X51624Y-48456D01*
X51643Y-48493D01*
X51643Y-48587D01*
X51624Y-48624D01*
X51606Y-48643D01*
X51568Y-48662D01*
X51456Y-48662D01*
X51418Y-48643D01*
X51399Y-48624D01*
X51774Y-48268D02*
X52018Y-48268D01*
X51887Y-48418D01*
X51943Y-48418D01*
X51981Y-48437D01*
X51999Y-48456D01*
X52018Y-48493D01*
X52018Y-48587D01*
X51999Y-48624D01*
X51981Y-48643D01*
X51943Y-48662D01*
X51831Y-48662D01*
X51793Y-48643D01*
X51774Y-48624D01*
X52206Y-48662D02*
X52281Y-48662D01*
X52318Y-48643D01*
X52337Y-48624D01*
X52374Y-48568D01*
X52393Y-48493D01*
X52393Y-48343D01*
X52374Y-48306D01*
X52356Y-48287D01*
X52318Y-48268D01*
X52243Y-48268D01*
X52206Y-48287D01*
X52187Y-48306D01*
X52168Y-48343D01*
X52168Y-48437D01*
X52187Y-48474D01*
X52206Y-48493D01*
X52243Y-48512D01*
X52318Y-48512D01*
X52356Y-48493D01*
X52374Y-48474D01*
X52393Y-48437D01*
X52543Y-48306D02*
X52562Y-48287D01*
X52599Y-48268D01*
X52693Y-48268D01*
X52730Y-48287D01*
X52749Y-48306D01*
X52768Y-48343D01*
X52768Y-48381D01*
X52749Y-48437D01*
X52524Y-48662D01*
X52768Y-48662D01*
X53105Y-48268D02*
X53030Y-48268D01*
X52993Y-48287D01*
X52974Y-48306D01*
X52937Y-48362D01*
X52918Y-48437D01*
X52918Y-48587D01*
X52937Y-48624D01*
X52955Y-48643D01*
X52993Y-48662D01*
X53068Y-48662D01*
X53105Y-48643D01*
X53124Y-48624D01*
X53143Y-48587D01*
X53143Y-48493D01*
X53124Y-48456D01*
X53105Y-48437D01*
X53068Y-48418D01*
X52993Y-48418D01*
X52955Y-48437D01*
X52937Y-48456D01*
X52918Y-48493D01*
X53612Y-48662D02*
X53612Y-48268D01*
X53743Y-48549D01*
X53874Y-48268D01*
X53874Y-48662D01*
X54118Y-48662D02*
X54080Y-48643D01*
X54062Y-48624D01*
X54043Y-48587D01*
X54043Y-48474D01*
X54062Y-48437D01*
X54080Y-48418D01*
X54118Y-48399D01*
X54174Y-48399D01*
X54212Y-48418D01*
X54230Y-48437D01*
X54249Y-48474D01*
X54249Y-48587D01*
X54230Y-48624D01*
X54212Y-48643D01*
X54174Y-48662D01*
X54118Y-48662D01*
X54362Y-48399D02*
X54511Y-48399D01*
X54418Y-48268D02*
X54418Y-48606D01*
X54437Y-48643D01*
X54474Y-48662D01*
X54511Y-48662D01*
X54699Y-48662D02*
X54661Y-48643D01*
X54643Y-48624D01*
X54624Y-48587D01*
X54624Y-48474D01*
X54643Y-48437D01*
X54661Y-48418D01*
X54699Y-48399D01*
X54755Y-48399D01*
X54793Y-48418D01*
X54811Y-48437D01*
X54830Y-48474D01*
X54830Y-48587D01*
X54811Y-48624D01*
X54793Y-48643D01*
X54755Y-48662D01*
X54699Y-48662D01*
X54999Y-48662D02*
X54999Y-48399D01*
X54999Y-48474D02*
X55018Y-48437D01*
X55036Y-48418D01*
X55074Y-48399D01*
X55111Y-48399D01*
X50818Y-49254D02*
X50799Y-49273D01*
X50743Y-49292D01*
X50706Y-49292D01*
X50649Y-49273D01*
X50612Y-49236D01*
X50593Y-49198D01*
X50574Y-49123D01*
X50574Y-49067D01*
X50593Y-48992D01*
X50612Y-48954D01*
X50649Y-48917D01*
X50706Y-48898D01*
X50743Y-48898D01*
X50799Y-48917D01*
X50818Y-48936D01*
X51043Y-49292D02*
X51006Y-49273D01*
X50987Y-49254D01*
X50968Y-49217D01*
X50968Y-49104D01*
X50987Y-49067D01*
X51006Y-49048D01*
X51043Y-49029D01*
X51099Y-49029D01*
X51137Y-49048D01*
X51156Y-49067D01*
X51174Y-49104D01*
X51174Y-49217D01*
X51156Y-49254D01*
X51137Y-49273D01*
X51099Y-49292D01*
X51043Y-49292D01*
X51343Y-49029D02*
X51343Y-49292D01*
X51343Y-49067D02*
X51362Y-49048D01*
X51399Y-49029D01*
X51456Y-49029D01*
X51493Y-49048D01*
X51512Y-49086D01*
X51512Y-49292D01*
X51643Y-49029D02*
X51793Y-49029D01*
X51699Y-48898D02*
X51699Y-49236D01*
X51718Y-49273D01*
X51756Y-49292D01*
X51793Y-49292D01*
X51924Y-49292D02*
X51924Y-49029D01*
X51924Y-49104D02*
X51943Y-49067D01*
X51962Y-49048D01*
X51999Y-49029D01*
X52037Y-49029D01*
X52224Y-49292D02*
X52187Y-49273D01*
X52168Y-49254D01*
X52149Y-49217D01*
X52149Y-49104D01*
X52168Y-49067D01*
X52187Y-49048D01*
X52224Y-49029D01*
X52281Y-49029D01*
X52318Y-49048D01*
X52337Y-49067D01*
X52356Y-49104D01*
X52356Y-49217D01*
X52337Y-49254D01*
X52318Y-49273D01*
X52281Y-49292D01*
X52224Y-49292D01*
X52580Y-49292D02*
X52543Y-49273D01*
X52524Y-49236D01*
X52524Y-48898D01*
X52787Y-49292D02*
X52749Y-49273D01*
X52730Y-49236D01*
X52730Y-48898D01*
X53087Y-49273D02*
X53049Y-49292D01*
X52974Y-49292D01*
X52937Y-49273D01*
X52918Y-49236D01*
X52918Y-49086D01*
X52937Y-49048D01*
X52974Y-49029D01*
X53049Y-49029D01*
X53087Y-49048D01*
X53105Y-49086D01*
X53105Y-49123D01*
X52918Y-49161D01*
X53274Y-49292D02*
X53274Y-49029D01*
X53274Y-49104D02*
X53293Y-49067D01*
X53312Y-49048D01*
X53349Y-49029D01*
X53387Y-49029D01*
X50593Y-49922D02*
X50593Y-49528D01*
X50762Y-49922D02*
X50762Y-49715D01*
X50743Y-49678D01*
X50706Y-49659D01*
X50649Y-49659D01*
X50612Y-49678D01*
X50593Y-49697D01*
X50893Y-49659D02*
X51043Y-49659D01*
X50949Y-49528D02*
X50949Y-49865D01*
X50968Y-49903D01*
X51006Y-49922D01*
X51043Y-49922D01*
X51118Y-49659D02*
X51268Y-49659D01*
X51174Y-49528D02*
X51174Y-49865D01*
X51193Y-49903D01*
X51231Y-49922D01*
X51268Y-49922D01*
X51399Y-49659D02*
X51399Y-50053D01*
X51399Y-49678D02*
X51437Y-49659D01*
X51512Y-49659D01*
X51549Y-49678D01*
X51568Y-49697D01*
X51587Y-49734D01*
X51587Y-49847D01*
X51568Y-49884D01*
X51549Y-49903D01*
X51512Y-49922D01*
X51437Y-49922D01*
X51399Y-49903D01*
X51737Y-49903D02*
X51774Y-49922D01*
X51849Y-49922D01*
X51887Y-49903D01*
X51906Y-49865D01*
X51906Y-49847D01*
X51887Y-49809D01*
X51849Y-49790D01*
X51793Y-49790D01*
X51756Y-49772D01*
X51737Y-49734D01*
X51737Y-49715D01*
X51756Y-49678D01*
X51793Y-49659D01*
X51849Y-49659D01*
X51887Y-49678D01*
X52074Y-49884D02*
X52093Y-49903D01*
X52074Y-49922D01*
X52056Y-49903D01*
X52074Y-49884D01*
X52074Y-49922D01*
X52074Y-49678D02*
X52093Y-49697D01*
X52074Y-49715D01*
X52056Y-49697D01*
X52074Y-49678D01*
X52074Y-49715D01*
X52543Y-49509D02*
X52206Y-50015D01*
X52955Y-49509D02*
X52618Y-50015D01*
X53255Y-49659D02*
X53255Y-49978D01*
X53237Y-50015D01*
X53218Y-50034D01*
X53180Y-50053D01*
X53124Y-50053D01*
X53087Y-50034D01*
X53255Y-49903D02*
X53218Y-49922D01*
X53143Y-49922D01*
X53105Y-49903D01*
X53087Y-49884D01*
X53068Y-49847D01*
X53068Y-49734D01*
X53087Y-49697D01*
X53105Y-49678D01*
X53143Y-49659D01*
X53218Y-49659D01*
X53255Y-49678D01*
X53443Y-49922D02*
X53443Y-49659D01*
X53443Y-49528D02*
X53424Y-49547D01*
X53443Y-49565D01*
X53462Y-49547D01*
X53443Y-49528D01*
X53443Y-49565D01*
X53574Y-49659D02*
X53724Y-49659D01*
X53630Y-49528D02*
X53630Y-49865D01*
X53649Y-49903D01*
X53687Y-49922D01*
X53724Y-49922D01*
X53855Y-49922D02*
X53855Y-49528D01*
X54024Y-49922D02*
X54024Y-49715D01*
X54005Y-49678D01*
X53968Y-49659D01*
X53912Y-49659D01*
X53874Y-49678D01*
X53855Y-49697D01*
X54380Y-49659D02*
X54380Y-49922D01*
X54212Y-49659D02*
X54212Y-49865D01*
X54230Y-49903D01*
X54268Y-49922D01*
X54324Y-49922D01*
X54362Y-49903D01*
X54380Y-49884D01*
X54568Y-49922D02*
X54568Y-49528D01*
X54568Y-49678D02*
X54605Y-49659D01*
X54680Y-49659D01*
X54718Y-49678D01*
X54736Y-49697D01*
X54755Y-49734D01*
X54755Y-49847D01*
X54736Y-49884D01*
X54718Y-49903D01*
X54680Y-49922D01*
X54605Y-49922D01*
X54568Y-49903D01*
X54924Y-49884D02*
X54943Y-49903D01*
X54924Y-49922D01*
X54905Y-49903D01*
X54924Y-49884D01*
X54924Y-49922D01*
X55280Y-49903D02*
X55243Y-49922D01*
X55168Y-49922D01*
X55130Y-49903D01*
X55111Y-49884D01*
X55093Y-49847D01*
X55093Y-49734D01*
X55111Y-49697D01*
X55130Y-49678D01*
X55168Y-49659D01*
X55243Y-49659D01*
X55280Y-49678D01*
X55505Y-49922D02*
X55468Y-49903D01*
X55449Y-49884D01*
X55430Y-49847D01*
X55430Y-49734D01*
X55449Y-49697D01*
X55468Y-49678D01*
X55505Y-49659D01*
X55561Y-49659D01*
X55599Y-49678D01*
X55618Y-49697D01*
X55636Y-49734D01*
X55636Y-49847D01*
X55618Y-49884D01*
X55599Y-49903D01*
X55561Y-49922D01*
X55505Y-49922D01*
X55805Y-49922D02*
X55805Y-49659D01*
X55805Y-49697D02*
X55824Y-49678D01*
X55861Y-49659D01*
X55918Y-49659D01*
X55955Y-49678D01*
X55974Y-49715D01*
X55974Y-49922D01*
X55974Y-49715D02*
X55993Y-49678D01*
X56030Y-49659D01*
X56086Y-49659D01*
X56124Y-49678D01*
X56143Y-49715D01*
X56143Y-49922D01*
X56611Y-49509D02*
X56274Y-50015D01*
X56742Y-49659D02*
X56742Y-49997D01*
X56724Y-50034D01*
X56686Y-50053D01*
X56667Y-50053D01*
X56742Y-49528D02*
X56724Y-49547D01*
X56742Y-49565D01*
X56761Y-49547D01*
X56742Y-49528D01*
X56742Y-49565D01*
X56986Y-49922D02*
X56949Y-49903D01*
X56930Y-49884D01*
X56911Y-49847D01*
X56911Y-49734D01*
X56930Y-49697D01*
X56949Y-49678D01*
X56986Y-49659D01*
X57042Y-49659D01*
X57080Y-49678D01*
X57099Y-49697D01*
X57117Y-49734D01*
X57117Y-49847D01*
X57099Y-49884D01*
X57080Y-49903D01*
X57042Y-49922D01*
X56986Y-49922D01*
X57436Y-49903D02*
X57399Y-49922D01*
X57324Y-49922D01*
X57286Y-49903D01*
X57267Y-49865D01*
X57267Y-49715D01*
X57286Y-49678D01*
X57324Y-49659D01*
X57399Y-49659D01*
X57436Y-49678D01*
X57455Y-49715D01*
X57455Y-49753D01*
X57267Y-49790D01*
X57567Y-49659D02*
X57717Y-49659D01*
X57624Y-49922D02*
X57624Y-49584D01*
X57642Y-49547D01*
X57680Y-49528D01*
X57717Y-49528D01*
X57999Y-49903D02*
X57961Y-49922D01*
X57886Y-49922D01*
X57849Y-49903D01*
X57830Y-49865D01*
X57830Y-49715D01*
X57849Y-49678D01*
X57886Y-49659D01*
X57961Y-49659D01*
X57999Y-49678D01*
X58017Y-49715D01*
X58017Y-49753D01*
X57830Y-49790D01*
X58186Y-49922D02*
X58186Y-49659D01*
X58186Y-49734D02*
X58205Y-49697D01*
X58224Y-49678D01*
X58261Y-49659D01*
X58299Y-49659D01*
X58430Y-49659D02*
X58430Y-49922D01*
X58430Y-49697D02*
X58449Y-49678D01*
X58486Y-49659D01*
X58542Y-49659D01*
X58580Y-49678D01*
X58598Y-49715D01*
X58598Y-49922D01*
X58936Y-49903D02*
X58898Y-49922D01*
X58823Y-49922D01*
X58786Y-49903D01*
X58767Y-49865D01*
X58767Y-49715D01*
X58786Y-49678D01*
X58823Y-49659D01*
X58898Y-49659D01*
X58936Y-49678D01*
X58955Y-49715D01*
X58955Y-49753D01*
X58767Y-49790D01*
X59123Y-49922D02*
X59123Y-49659D01*
X59123Y-49734D02*
X59142Y-49697D01*
X59161Y-49678D01*
X59198Y-49659D01*
X59236Y-49659D01*
X59648Y-49509D02*
X59311Y-50015D01*
X51126Y-46849D02*
X51144Y-46830D01*
X51182Y-46811D01*
X51276Y-46811D01*
X51313Y-46830D01*
X51332Y-46849D01*
X51351Y-46886D01*
X51351Y-46924D01*
X51332Y-46980D01*
X51107Y-47205D01*
X51351Y-47205D01*
X51594Y-46811D02*
X51632Y-46811D01*
X51669Y-46830D01*
X51688Y-46849D01*
X51707Y-46886D01*
X51726Y-46961D01*
X51726Y-47055D01*
X51707Y-47130D01*
X51688Y-47168D01*
X51669Y-47186D01*
X51632Y-47205D01*
X51594Y-47205D01*
X51557Y-47186D01*
X51538Y-47168D01*
X51519Y-47130D01*
X51501Y-47055D01*
X51501Y-46961D01*
X51519Y-46886D01*
X51538Y-46849D01*
X51557Y-46830D01*
X51594Y-46811D01*
X52101Y-47205D02*
X51876Y-47205D01*
X51988Y-47205D02*
X51988Y-46811D01*
X51951Y-46868D01*
X51913Y-46905D01*
X51876Y-46924D01*
X52232Y-46811D02*
X52476Y-46811D01*
X52344Y-46961D01*
X52401Y-46961D01*
X52438Y-46980D01*
X52457Y-46999D01*
X52476Y-47036D01*
X52476Y-47130D01*
X52457Y-47168D01*
X52438Y-47186D01*
X52401Y-47205D01*
X52288Y-47205D01*
X52251Y-47186D01*
X52232Y-47168D01*
X52644Y-47055D02*
X52944Y-47055D01*
X53207Y-46811D02*
X53244Y-46811D01*
X53282Y-46830D01*
X53300Y-46849D01*
X53319Y-46886D01*
X53338Y-46961D01*
X53338Y-47055D01*
X53319Y-47130D01*
X53300Y-47168D01*
X53282Y-47186D01*
X53244Y-47205D01*
X53207Y-47205D01*
X53169Y-47186D01*
X53150Y-47168D01*
X53132Y-47130D01*
X53113Y-47055D01*
X53113Y-46961D01*
X53132Y-46886D01*
X53150Y-46849D01*
X53169Y-46830D01*
X53207Y-46811D01*
X53675Y-46811D02*
X53600Y-46811D01*
X53563Y-46830D01*
X53544Y-46849D01*
X53507Y-46905D01*
X53488Y-46980D01*
X53488Y-47130D01*
X53507Y-47168D01*
X53525Y-47186D01*
X53563Y-47205D01*
X53638Y-47205D01*
X53675Y-47186D01*
X53694Y-47168D01*
X53713Y-47130D01*
X53713Y-47036D01*
X53694Y-46999D01*
X53675Y-46980D01*
X53638Y-46961D01*
X53563Y-46961D01*
X53525Y-46980D01*
X53507Y-46999D01*
X53488Y-47036D01*
X53882Y-47055D02*
X54182Y-47055D01*
X54444Y-46811D02*
X54482Y-46811D01*
X54519Y-46830D01*
X54538Y-46849D01*
X54556Y-46886D01*
X54575Y-46961D01*
X54575Y-47055D01*
X54556Y-47130D01*
X54538Y-47168D01*
X54519Y-47186D01*
X54482Y-47205D01*
X54444Y-47205D01*
X54407Y-47186D01*
X54388Y-47168D01*
X54369Y-47130D01*
X54350Y-47055D01*
X54350Y-46961D01*
X54369Y-46886D01*
X54388Y-46849D01*
X54407Y-46830D01*
X54444Y-46811D01*
X54931Y-46811D02*
X54744Y-46811D01*
X54725Y-46999D01*
X54744Y-46980D01*
X54781Y-46961D01*
X54875Y-46961D01*
X54913Y-46980D01*
X54931Y-46999D01*
X54950Y-47036D01*
X54950Y-47130D01*
X54931Y-47168D01*
X54913Y-47186D01*
X54875Y-47205D01*
X54781Y-47205D01*
X54744Y-47186D01*
X54725Y-47168D01*
X51088Y-46221D02*
X51219Y-46615D01*
X51351Y-46221D01*
X51688Y-46615D02*
X51463Y-46615D01*
X51576Y-46615D02*
X51576Y-46221D01*
X51538Y-46277D01*
X51501Y-46315D01*
X51463Y-46333D01*
G54D13*
X48137Y-60531D02*
X48137Y-45570D01*
X67330Y-60531D02*
X48137Y-60531D01*
X67330Y-45570D02*
X67330Y-60531D01*
X48137Y-45570D02*
X67330Y-45570D01*
G54D14*
X51440Y-51929D02*
G75*
G03X51440Y-51929I-50J0D01*
G74*
G01*
X51390Y-51479D02*
X51390Y-51879D01*
X51390Y-51879D02*
X50790Y-51879D01*
X50790Y-51879D02*
X50790Y-51479D01*
X50790Y-51079D02*
X50790Y-50679D01*
X50790Y-50679D02*
X51390Y-50679D01*
X51390Y-50679D02*
X51390Y-51079D01*
X58856Y-56205D02*
G75*
G03X58856Y-56205I-50J0D01*
G74*
G01*
X59256Y-56205D02*
X58856Y-56205D01*
X58856Y-56205D02*
X58856Y-55605D01*
X58856Y-55605D02*
X59256Y-55605D01*
X59656Y-55605D02*
X60056Y-55605D01*
X60056Y-55605D02*
X60056Y-56205D01*
X60056Y-56205D02*
X59656Y-56205D01*
X57105Y-52751D02*
G75*
G03X57105Y-52751I-50J0D01*
G74*
G01*
X56605Y-52751D02*
X57005Y-52751D01*
X57005Y-52751D02*
X57005Y-53351D01*
X57005Y-53351D02*
X56605Y-53351D01*
X56205Y-53351D02*
X55805Y-53351D01*
X55805Y-53351D02*
X55805Y-52751D01*
X55805Y-52751D02*
X56205Y-52751D01*
X57105Y-51865D02*
G75*
G03X57105Y-51865I-50J0D01*
G74*
G01*
X56605Y-51865D02*
X57005Y-51865D01*
X57005Y-51865D02*
X57005Y-52465D01*
X57005Y-52465D02*
X56605Y-52465D01*
X56205Y-52465D02*
X55805Y-52465D01*
X55805Y-52465D02*
X55805Y-51865D01*
X55805Y-51865D02*
X56205Y-51865D01*
X60987Y-47303D02*
G75*
G03X60987Y-47303I-50J0D01*
G74*
G01*
X60937Y-46853D02*
X60937Y-47253D01*
X60937Y-47253D02*
X60337Y-47253D01*
X60337Y-47253D02*
X60337Y-46853D01*
X60337Y-46453D02*
X60337Y-46053D01*
X60337Y-46053D02*
X60937Y-46053D01*
X60937Y-46053D02*
X60937Y-46453D01*
X57675Y-55319D02*
G75*
G03X57675Y-55319I-50J0D01*
G74*
G01*
X58075Y-55319D02*
X57675Y-55319D01*
X57675Y-55319D02*
X57675Y-54719D01*
X57675Y-54719D02*
X58075Y-54719D01*
X58475Y-54719D02*
X58875Y-54719D01*
X58875Y-54719D02*
X58875Y-55319D01*
X58875Y-55319D02*
X58475Y-55319D01*
X63011Y-56589D02*
G75*
G03X63011Y-56589I-50J0D01*
G74*
G01*
X62511Y-56589D02*
X62911Y-56589D01*
X62911Y-56589D02*
X62911Y-57189D01*
X62911Y-57189D02*
X62511Y-57189D01*
X62111Y-57189D02*
X61711Y-57189D01*
X61711Y-57189D02*
X61711Y-56589D01*
X61711Y-56589D02*
X62111Y-56589D01*
G54D10*
X63000Y-46830D02*
X63393Y-46830D01*
X63000Y-47145D02*
X63393Y-47145D01*
X63393Y-47145D02*
X63196Y-46830D01*
X63196Y-46830D02*
X63000Y-47145D01*
X63629Y-47185D02*
X63629Y-46712D01*
X62763Y-47185D02*
X62763Y-46712D01*
X62212Y-47066D02*
X61818Y-47066D01*
X62212Y-46751D02*
X61818Y-46751D01*
X61818Y-46751D02*
X62015Y-47066D01*
X62015Y-47066D02*
X62212Y-46751D01*
X61582Y-46712D02*
X61582Y-47185D01*
X62448Y-46712D02*
X62448Y-47185D01*
X56405Y-46830D02*
X56799Y-46830D01*
X56405Y-47145D02*
X56799Y-47145D01*
X56799Y-47145D02*
X56602Y-46830D01*
X56602Y-46830D02*
X56405Y-47145D01*
X57035Y-47185D02*
X57035Y-46712D01*
X56169Y-47185D02*
X56169Y-46712D01*
X50737Y-58469D02*
X64737Y-58469D01*
X64737Y-58469D02*
X64737Y-59469D01*
X64737Y-59469D02*
X50737Y-59469D01*
X50737Y-59469D02*
X50737Y-58469D01*
X67220Y-59169D02*
G75*
G03X67220Y-59169I-1082J0D01*
G74*
G01*
X50470Y-46919D02*
G75*
G03X50470Y-46919I-1082J0D01*
G74*
G01*
X50470Y-59169D02*
G75*
G03X50470Y-59169I-1082J0D01*
G74*
G01*
X67220Y-46919D02*
G75*
G03X67220Y-46919I-1082J0D01*
G74*
G01*
G54D15*
X66937Y-49270D02*
G75*
G03X66937Y-49270I-900J0D01*
G74*
G01*
X66937Y-51770D02*
G75*
G03X66937Y-51770I-900J0D01*
G74*
G01*
X66937Y-56770D02*
G75*
G03X66937Y-56770I-900J0D01*
G74*
G01*
X66937Y-54270D02*
G75*
G03X66937Y-54270I-900J0D01*
G74*
G01*
G54D16*
X52767Y-52726D02*
G75*
G03X52767Y-52726I-62J0D01*
G74*
G01*
X52366Y-51763D02*
X52766Y-51763D01*
X52366Y-52788D02*
X52766Y-52788D01*
X52766Y-51763D02*
X52766Y-52788D01*
X52366Y-52788D02*
X52366Y-51763D01*
G54D14*
X54294Y-52913D02*
G75*
G03X54294Y-52913I-50J0D01*
G74*
G01*
X54244Y-52463D02*
X54244Y-52863D01*
X54244Y-52863D02*
X53644Y-52863D01*
X53644Y-52863D02*
X53644Y-52463D01*
X53644Y-52063D02*
X53644Y-51663D01*
X53644Y-51663D02*
X54244Y-51663D01*
X54244Y-51663D02*
X54244Y-52063D01*
X50840Y-52204D02*
G75*
G03X50840Y-52204I-50J0D01*
G74*
G01*
X50790Y-52654D02*
X50790Y-52254D01*
X50790Y-52254D02*
X51390Y-52254D01*
X51390Y-52254D02*
X51390Y-52654D01*
X51390Y-53054D02*
X51390Y-53454D01*
X51390Y-53454D02*
X50790Y-53454D01*
X50790Y-53454D02*
X50790Y-53054D01*
X51966Y-51284D02*
G75*
G03X51966Y-51284I-50J0D01*
G74*
G01*
X52366Y-51284D02*
X51966Y-51284D01*
X51966Y-51284D02*
X51966Y-50684D01*
X51966Y-50684D02*
X52366Y-50684D01*
X52766Y-50684D02*
X53166Y-50684D01*
X53166Y-50684D02*
X53166Y-51284D01*
X53166Y-51284D02*
X52766Y-51284D01*
X54580Y-51613D02*
G75*
G03X54580Y-51613I-50J0D01*
G74*
G01*
X54530Y-52063D02*
X54530Y-51663D01*
X54530Y-51663D02*
X55130Y-51663D01*
X55130Y-51663D02*
X55130Y-52063D01*
X55130Y-52463D02*
X55130Y-52863D01*
X55130Y-52863D02*
X54530Y-52863D01*
X54530Y-52863D02*
X54530Y-52463D01*
X61479Y-57933D02*
G75*
G03X61479Y-57933I-50J0D01*
G74*
G01*
X61429Y-57483D02*
X61429Y-57883D01*
X61429Y-57883D02*
X60829Y-57883D01*
X60829Y-57883D02*
X60829Y-57483D01*
X60829Y-57083D02*
X60829Y-56683D01*
X60829Y-56683D02*
X61429Y-56683D01*
X61429Y-56683D02*
X61429Y-57083D01*
X64629Y-47598D02*
G75*
G03X64629Y-47598I-50J0D01*
G74*
G01*
X64579Y-47148D02*
X64579Y-47548D01*
X64579Y-47548D02*
X63979Y-47548D01*
X63979Y-47548D02*
X63979Y-47148D01*
X63979Y-46748D02*
X63979Y-46348D01*
X63979Y-46348D02*
X64579Y-46348D01*
X64579Y-46348D02*
X64579Y-46748D01*
X61711Y-58075D02*
G75*
G03X61711Y-58075I-50J0D01*
G74*
G01*
X62111Y-58075D02*
X61711Y-58075D01*
X61711Y-58075D02*
X61711Y-57475D01*
X61711Y-57475D02*
X62111Y-57475D01*
X62511Y-57475D02*
X62911Y-57475D01*
X62911Y-57475D02*
X62911Y-58075D01*
X62911Y-58075D02*
X62511Y-58075D01*
X56952Y-49370D02*
G75*
G03X56952Y-49370I-50J0D01*
G74*
G01*
X56902Y-48920D02*
X56902Y-49320D01*
X56902Y-49320D02*
X56302Y-49320D01*
X56302Y-49320D02*
X56302Y-48920D01*
X56302Y-48520D02*
X56302Y-48120D01*
X56302Y-48120D02*
X56902Y-48120D01*
X56902Y-48120D02*
X56902Y-48520D01*
G54D10*
X54224Y-56712D02*
G75*
G03X54224Y-56712I-141J0D01*
G74*
G01*
X52940Y-56938D02*
X52940Y-53494D01*
X52940Y-53494D02*
X54358Y-53494D01*
X54358Y-53494D02*
X54358Y-56938D01*
X54358Y-56938D02*
X52940Y-56938D01*
X59400Y-48307D02*
X59947Y-47760D01*
X57860Y-47760D02*
X58407Y-48307D01*
X58407Y-48307D02*
X59400Y-48307D01*
X59947Y-46260D02*
X59947Y-47760D01*
X57860Y-46260D02*
X57860Y-47760D01*
X57860Y-46260D02*
X59947Y-46260D01*
G54D17*
X50649Y-51784D02*
X50658Y-51794D01*
X50667Y-51822D01*
X50667Y-51841D01*
X50658Y-51869D01*
X50639Y-51887D01*
X50620Y-51897D01*
X50583Y-51906D01*
X50555Y-51906D01*
X50517Y-51897D01*
X50499Y-51887D01*
X50480Y-51869D01*
X50470Y-51841D01*
X50470Y-51822D01*
X50480Y-51794D01*
X50489Y-51784D01*
X50667Y-51597D02*
X50667Y-51709D01*
X50667Y-51653D02*
X50470Y-51653D01*
X50499Y-51672D01*
X50517Y-51690D01*
X50527Y-51709D01*
X58971Y-56467D02*
X58961Y-56477D01*
X58933Y-56486D01*
X58914Y-56486D01*
X58886Y-56477D01*
X58867Y-56458D01*
X58858Y-56439D01*
X58849Y-56402D01*
X58849Y-56374D01*
X58858Y-56336D01*
X58867Y-56317D01*
X58886Y-56299D01*
X58914Y-56289D01*
X58933Y-56289D01*
X58961Y-56299D01*
X58971Y-56308D01*
X59036Y-56289D02*
X59158Y-56289D01*
X59093Y-56364D01*
X59121Y-56364D01*
X59139Y-56374D01*
X59149Y-56383D01*
X59158Y-56402D01*
X59158Y-56449D01*
X59149Y-56467D01*
X59139Y-56477D01*
X59121Y-56486D01*
X59064Y-56486D01*
X59046Y-56477D01*
X59036Y-56467D01*
X55688Y-53084D02*
X55697Y-53093D01*
X55707Y-53121D01*
X55707Y-53140D01*
X55697Y-53168D01*
X55679Y-53187D01*
X55660Y-53196D01*
X55622Y-53205D01*
X55594Y-53205D01*
X55557Y-53196D01*
X55538Y-53187D01*
X55519Y-53168D01*
X55510Y-53140D01*
X55510Y-53121D01*
X55519Y-53093D01*
X55528Y-53084D01*
X55575Y-52915D02*
X55707Y-52915D01*
X55500Y-52962D02*
X55641Y-53008D01*
X55641Y-52887D01*
X55688Y-52257D02*
X55697Y-52266D01*
X55707Y-52294D01*
X55707Y-52313D01*
X55697Y-52341D01*
X55679Y-52360D01*
X55660Y-52369D01*
X55622Y-52379D01*
X55594Y-52379D01*
X55557Y-52369D01*
X55538Y-52360D01*
X55519Y-52341D01*
X55510Y-52313D01*
X55510Y-52294D01*
X55519Y-52266D01*
X55528Y-52257D01*
X55510Y-52079D02*
X55510Y-52172D01*
X55604Y-52182D01*
X55594Y-52172D01*
X55585Y-52154D01*
X55585Y-52107D01*
X55594Y-52088D01*
X55604Y-52079D01*
X55622Y-52069D01*
X55669Y-52069D01*
X55688Y-52079D01*
X55697Y-52088D01*
X55707Y-52107D01*
X55707Y-52154D01*
X55697Y-52172D01*
X55688Y-52182D01*
X60467Y-47530D02*
X60457Y-47540D01*
X60429Y-47549D01*
X60410Y-47549D01*
X60382Y-47540D01*
X60363Y-47521D01*
X60354Y-47502D01*
X60345Y-47465D01*
X60345Y-47437D01*
X60354Y-47399D01*
X60363Y-47380D01*
X60382Y-47362D01*
X60410Y-47352D01*
X60429Y-47352D01*
X60457Y-47362D01*
X60467Y-47371D01*
X60636Y-47352D02*
X60598Y-47352D01*
X60579Y-47362D01*
X60570Y-47371D01*
X60551Y-47399D01*
X60542Y-47437D01*
X60542Y-47512D01*
X60551Y-47530D01*
X60560Y-47540D01*
X60579Y-47549D01*
X60617Y-47549D01*
X60636Y-47540D01*
X60645Y-47530D01*
X60654Y-47512D01*
X60654Y-47465D01*
X60645Y-47446D01*
X60636Y-47437D01*
X60617Y-47427D01*
X60579Y-47427D01*
X60560Y-47437D01*
X60551Y-47446D01*
X60542Y-47465D01*
X57750Y-55641D02*
X57741Y-55650D01*
X57713Y-55659D01*
X57694Y-55659D01*
X57666Y-55650D01*
X57647Y-55631D01*
X57638Y-55613D01*
X57628Y-55575D01*
X57628Y-55547D01*
X57638Y-55509D01*
X57647Y-55491D01*
X57666Y-55472D01*
X57694Y-55462D01*
X57713Y-55462D01*
X57741Y-55472D01*
X57750Y-55481D01*
X57816Y-55462D02*
X57947Y-55462D01*
X57863Y-55659D01*
X63208Y-56942D02*
X63217Y-56951D01*
X63226Y-56979D01*
X63226Y-56998D01*
X63217Y-57026D01*
X63198Y-57045D01*
X63180Y-57054D01*
X63142Y-57064D01*
X63114Y-57064D01*
X63076Y-57054D01*
X63058Y-57045D01*
X63039Y-57026D01*
X63029Y-56998D01*
X63029Y-56979D01*
X63039Y-56951D01*
X63048Y-56942D01*
X63114Y-56829D02*
X63104Y-56848D01*
X63095Y-56857D01*
X63076Y-56867D01*
X63067Y-56867D01*
X63048Y-56857D01*
X63039Y-56848D01*
X63029Y-56829D01*
X63029Y-56792D01*
X63039Y-56773D01*
X63048Y-56764D01*
X63067Y-56754D01*
X63076Y-56754D01*
X63095Y-56764D01*
X63104Y-56773D01*
X63114Y-56792D01*
X63114Y-56829D01*
X63123Y-56848D01*
X63133Y-56857D01*
X63151Y-56867D01*
X63189Y-56867D01*
X63208Y-56857D01*
X63217Y-56848D01*
X63226Y-56829D01*
X63226Y-56792D01*
X63217Y-56773D01*
X63208Y-56764D01*
X63189Y-56754D01*
X63151Y-56754D01*
X63133Y-56764D01*
X63123Y-56773D01*
X63114Y-56792D01*
G54D10*
X63673Y-46182D02*
X63673Y-45788D01*
X63767Y-45788D01*
X63823Y-45807D01*
X63861Y-45844D01*
X63880Y-45882D01*
X63898Y-45957D01*
X63898Y-46013D01*
X63880Y-46088D01*
X63861Y-46125D01*
X63823Y-46163D01*
X63767Y-46182D01*
X63673Y-46182D01*
X64273Y-46182D02*
X64048Y-46182D01*
X64161Y-46182D02*
X64161Y-45788D01*
X64123Y-45844D01*
X64086Y-45882D01*
X64048Y-45900D01*
X61544Y-47357D02*
X61150Y-47357D01*
X61150Y-47263D01*
X61169Y-47207D01*
X61206Y-47170D01*
X61244Y-47151D01*
X61319Y-47132D01*
X61375Y-47132D01*
X61450Y-47151D01*
X61488Y-47170D01*
X61525Y-47207D01*
X61544Y-47263D01*
X61544Y-47357D01*
X61188Y-46982D02*
X61169Y-46963D01*
X61150Y-46926D01*
X61150Y-46832D01*
X61169Y-46795D01*
X61188Y-46776D01*
X61225Y-46757D01*
X61263Y-46757D01*
X61319Y-46776D01*
X61544Y-47001D01*
X61544Y-46757D01*
X56071Y-46648D02*
X55678Y-46648D01*
X55678Y-46555D01*
X55696Y-46498D01*
X55734Y-46461D01*
X55771Y-46442D01*
X55846Y-46423D01*
X55903Y-46423D01*
X55978Y-46442D01*
X56015Y-46461D01*
X56053Y-46498D01*
X56071Y-46555D01*
X56071Y-46648D01*
X55678Y-46292D02*
X55678Y-46048D01*
X55828Y-46180D01*
X55828Y-46123D01*
X55846Y-46086D01*
X55865Y-46067D01*
X55903Y-46048D01*
X55996Y-46048D01*
X56034Y-46067D01*
X56053Y-46086D01*
X56071Y-46123D01*
X56071Y-46236D01*
X56053Y-46273D01*
X56034Y-46292D01*
G54D18*
X52124Y-51916D02*
X52096Y-51901D01*
X52067Y-51873D01*
X52024Y-51830D01*
X51996Y-51816D01*
X51967Y-51816D01*
X51982Y-51887D02*
X51953Y-51873D01*
X51924Y-51844D01*
X51910Y-51787D01*
X51910Y-51687D01*
X51924Y-51630D01*
X51953Y-51601D01*
X51982Y-51587D01*
X52039Y-51587D01*
X52067Y-51601D01*
X52096Y-51630D01*
X52110Y-51687D01*
X52110Y-51787D01*
X52096Y-51844D01*
X52067Y-51873D01*
X52039Y-51887D01*
X51982Y-51887D01*
X52396Y-51887D02*
X52224Y-51887D01*
X52310Y-51887D02*
X52310Y-51587D01*
X52282Y-51630D01*
X52253Y-51659D01*
X52224Y-51673D01*
G54D17*
X53695Y-51565D02*
X53629Y-51471D01*
X53582Y-51565D02*
X53582Y-51368D01*
X53657Y-51368D01*
X53676Y-51377D01*
X53686Y-51387D01*
X53695Y-51406D01*
X53695Y-51434D01*
X53686Y-51452D01*
X53676Y-51462D01*
X53657Y-51471D01*
X53582Y-51471D01*
X53883Y-51565D02*
X53770Y-51565D01*
X53826Y-51565D02*
X53826Y-51368D01*
X53808Y-51396D01*
X53789Y-51415D01*
X53770Y-51424D01*
X50667Y-53320D02*
X50574Y-53385D01*
X50667Y-53432D02*
X50470Y-53432D01*
X50470Y-53357D01*
X50480Y-53338D01*
X50489Y-53329D01*
X50508Y-53320D01*
X50536Y-53320D01*
X50555Y-53329D01*
X50564Y-53338D01*
X50574Y-53357D01*
X50574Y-53432D01*
X50489Y-53245D02*
X50480Y-53235D01*
X50470Y-53217D01*
X50470Y-53170D01*
X50480Y-53151D01*
X50489Y-53141D01*
X50508Y-53132D01*
X50527Y-53132D01*
X50555Y-53141D01*
X50667Y-53254D01*
X50667Y-53132D01*
X52041Y-50541D02*
X51976Y-50448D01*
X51929Y-50541D02*
X51929Y-50344D01*
X52004Y-50344D01*
X52023Y-50354D01*
X52032Y-50363D01*
X52041Y-50382D01*
X52041Y-50410D01*
X52032Y-50429D01*
X52023Y-50438D01*
X52004Y-50448D01*
X51929Y-50448D01*
X52107Y-50344D02*
X52229Y-50344D01*
X52163Y-50419D01*
X52192Y-50419D01*
X52210Y-50429D01*
X52220Y-50438D01*
X52229Y-50457D01*
X52229Y-50504D01*
X52220Y-50523D01*
X52210Y-50532D01*
X52192Y-50541D01*
X52135Y-50541D01*
X52117Y-50532D01*
X52107Y-50523D01*
X54601Y-51565D02*
X54535Y-51471D01*
X54488Y-51565D02*
X54488Y-51368D01*
X54563Y-51368D01*
X54582Y-51377D01*
X54591Y-51387D01*
X54601Y-51406D01*
X54601Y-51434D01*
X54591Y-51452D01*
X54582Y-51462D01*
X54563Y-51471D01*
X54488Y-51471D01*
X54769Y-51434D02*
X54769Y-51565D01*
X54722Y-51359D02*
X54676Y-51499D01*
X54798Y-51499D01*
X60707Y-57769D02*
X60613Y-57834D01*
X60707Y-57881D02*
X60510Y-57881D01*
X60510Y-57806D01*
X60519Y-57787D01*
X60528Y-57778D01*
X60547Y-57769D01*
X60575Y-57769D01*
X60594Y-57778D01*
X60604Y-57787D01*
X60613Y-57806D01*
X60613Y-57881D01*
X60510Y-57590D02*
X60510Y-57684D01*
X60604Y-57694D01*
X60594Y-57684D01*
X60585Y-57665D01*
X60585Y-57618D01*
X60594Y-57600D01*
X60604Y-57590D01*
X60622Y-57581D01*
X60669Y-57581D01*
X60688Y-57590D01*
X60697Y-57600D01*
X60707Y-57618D01*
X60707Y-57665D01*
X60697Y-57684D01*
X60688Y-57694D01*
X64207Y-47825D02*
X64141Y-47731D01*
X64094Y-47825D02*
X64094Y-47628D01*
X64169Y-47628D01*
X64188Y-47637D01*
X64197Y-47647D01*
X64207Y-47665D01*
X64207Y-47694D01*
X64197Y-47712D01*
X64188Y-47722D01*
X64169Y-47731D01*
X64094Y-47731D01*
X64376Y-47628D02*
X64338Y-47628D01*
X64319Y-47637D01*
X64310Y-47647D01*
X64291Y-47675D01*
X64282Y-47712D01*
X64282Y-47787D01*
X64291Y-47806D01*
X64301Y-47815D01*
X64319Y-47825D01*
X64357Y-47825D01*
X64376Y-47815D01*
X64385Y-47806D01*
X64394Y-47787D01*
X64394Y-47740D01*
X64385Y-47722D01*
X64376Y-47712D01*
X64357Y-47703D01*
X64319Y-47703D01*
X64301Y-47712D01*
X64291Y-47722D01*
X64282Y-47740D01*
X62671Y-58356D02*
X62606Y-58263D01*
X62559Y-58356D02*
X62559Y-58159D01*
X62634Y-58159D01*
X62653Y-58169D01*
X62662Y-58178D01*
X62671Y-58197D01*
X62671Y-58225D01*
X62662Y-58244D01*
X62653Y-58253D01*
X62634Y-58263D01*
X62559Y-58263D01*
X62737Y-58159D02*
X62868Y-58159D01*
X62784Y-58356D01*
X57242Y-48320D02*
X57148Y-48385D01*
X57242Y-48432D02*
X57045Y-48432D01*
X57045Y-48357D01*
X57055Y-48338D01*
X57064Y-48329D01*
X57083Y-48320D01*
X57111Y-48320D01*
X57130Y-48329D01*
X57139Y-48338D01*
X57148Y-48357D01*
X57148Y-48432D01*
X57130Y-48207D02*
X57120Y-48226D01*
X57111Y-48235D01*
X57092Y-48245D01*
X57083Y-48245D01*
X57064Y-48235D01*
X57055Y-48226D01*
X57045Y-48207D01*
X57045Y-48170D01*
X57055Y-48151D01*
X57064Y-48141D01*
X57083Y-48132D01*
X57092Y-48132D01*
X57111Y-48141D01*
X57120Y-48151D01*
X57130Y-48170D01*
X57130Y-48207D01*
X57139Y-48226D01*
X57148Y-48235D01*
X57167Y-48245D01*
X57205Y-48245D01*
X57223Y-48235D01*
X57233Y-48226D01*
X57242Y-48207D01*
X57242Y-48170D01*
X57233Y-48151D01*
X57223Y-48141D01*
X57205Y-48132D01*
X57167Y-48132D01*
X57148Y-48141D01*
X57139Y-48151D01*
X57130Y-48170D01*
G54D10*
X51583Y-55201D02*
X51902Y-55201D01*
X51939Y-55182D01*
X51958Y-55164D01*
X51977Y-55126D01*
X51977Y-55051D01*
X51958Y-55014D01*
X51939Y-54995D01*
X51902Y-54976D01*
X51583Y-54976D01*
X51977Y-54582D02*
X51977Y-54807D01*
X51977Y-54695D02*
X51583Y-54695D01*
X51639Y-54732D01*
X51677Y-54770D01*
X51696Y-54807D01*
X59034Y-49140D02*
X59015Y-49159D01*
X58959Y-49178D01*
X58921Y-49178D01*
X58865Y-49159D01*
X58828Y-49121D01*
X58809Y-49084D01*
X58790Y-49009D01*
X58790Y-48953D01*
X58809Y-48878D01*
X58828Y-48840D01*
X58865Y-48803D01*
X58921Y-48784D01*
X58959Y-48784D01*
X59015Y-48803D01*
X59034Y-48821D01*
X59184Y-48821D02*
X59203Y-48803D01*
X59240Y-48784D01*
X59334Y-48784D01*
X59371Y-48803D01*
X59390Y-48821D01*
X59409Y-48859D01*
X59409Y-48896D01*
X59390Y-48953D01*
X59165Y-49178D01*
X59409Y-49178D01*
X58210Y-47788D02*
X58510Y-47788D01*
X58360Y-47938D02*
X58360Y-47638D01*
X59542Y-50197D02*
X59542Y-50516D01*
X59561Y-50553D01*
X59580Y-50572D01*
X59617Y-50591D01*
X59692Y-50591D01*
X59730Y-50572D01*
X59748Y-50553D01*
X59767Y-50516D01*
X59767Y-50197D01*
X59936Y-50235D02*
X59955Y-50216D01*
X59992Y-50197D01*
X60086Y-50197D01*
X60123Y-50216D01*
X60142Y-50235D01*
X60161Y-50272D01*
X60161Y-50310D01*
X60142Y-50366D01*
X59917Y-50591D01*
X60161Y-50591D01*
M02*
