G04 (created by PCBNEW (2013-mar-13)-testing) date Tue 09 Jul 2013 08:38:35 AM EDT*
%MOIN*%
G04 Gerber Fmt 3.4, Leading zero omitted, Abs format*
%FSLAX34Y34*%
G01*
G70*
G90*
G04 APERTURE LIST*
%ADD10C,0.005906*%
%ADD11R,0.055000X0.035000*%
%ADD12R,0.035000X0.055000*%
%ADD13R,0.059843X0.040157*%
%ADD14R,0.060000X0.060000*%
%ADD15C,0.060000*%
%ADD16C,0.125000*%
%ADD17C,0.160000*%
%ADD18R,0.039400X0.031500*%
%ADD19R,0.066929X0.025591*%
%ADD20R,0.062992X0.114173*%
%ADD21R,0.204724X0.204724*%
%ADD22R,0.057087X0.019685*%
%ADD23R,0.019685X0.057087*%
%ADD24R,0.057087X0.057087*%
%ADD25C,0.035000*%
%ADD26C,0.010000*%
%ADD27C,0.008000*%
G04 APERTURE END LIST*
G54D10*
G54D11*
X51090Y-51654D03*
X51090Y-50904D03*
X60157Y-55924D03*
X60157Y-56674D03*
G54D12*
X57855Y-53385D03*
X57105Y-53385D03*
X57855Y-52519D03*
X57105Y-52519D03*
G54D11*
X60637Y-47028D03*
X60637Y-46278D03*
X59606Y-49782D03*
X59606Y-50532D03*
G54D12*
X62686Y-56889D03*
X61936Y-56889D03*
G54D13*
X63196Y-46348D03*
X63196Y-47549D03*
X62015Y-47549D03*
X62015Y-46348D03*
X56602Y-46348D03*
X56602Y-47549D03*
G54D14*
X51237Y-58969D03*
G54D15*
X52237Y-58969D03*
X53237Y-58969D03*
X54237Y-58969D03*
X55237Y-58969D03*
X56237Y-58969D03*
X57237Y-58969D03*
X58237Y-58969D03*
X59237Y-58969D03*
X60237Y-58969D03*
X61237Y-58969D03*
X62237Y-58969D03*
X63237Y-58969D03*
X64237Y-58969D03*
G54D16*
X66137Y-59169D03*
X49387Y-46919D03*
X49387Y-59169D03*
X66137Y-46919D03*
G54D17*
X66000Y-49250D03*
X66000Y-54250D03*
X66000Y-51750D03*
X66000Y-56750D03*
G54D18*
X52133Y-52263D03*
X52999Y-51888D03*
X52999Y-52638D03*
G54D11*
X53944Y-52638D03*
X53944Y-51888D03*
X51090Y-52479D03*
X51090Y-53229D03*
G54D12*
X52191Y-50984D03*
X52941Y-50984D03*
G54D11*
X54830Y-51888D03*
X54830Y-52638D03*
X61129Y-57658D03*
X61129Y-56908D03*
X64279Y-47323D03*
X64279Y-46573D03*
G54D12*
X61936Y-57775D03*
X62686Y-57775D03*
G54D11*
X56602Y-49095D03*
X56602Y-48345D03*
G54D19*
X54751Y-56716D03*
X54751Y-56216D03*
X54751Y-55716D03*
X54751Y-55216D03*
X54751Y-54716D03*
X54751Y-54216D03*
X54751Y-53716D03*
X52547Y-53716D03*
X52547Y-54216D03*
X52547Y-54716D03*
X52547Y-55216D03*
X52547Y-55716D03*
X52547Y-56216D03*
X52547Y-56716D03*
G54D20*
X58900Y-48126D03*
X58900Y-46473D03*
G54D21*
X61023Y-52992D03*
G54D22*
X62460Y-52047D03*
X62460Y-52362D03*
X62460Y-52677D03*
X62460Y-52992D03*
X62460Y-53307D03*
X62460Y-53622D03*
X62460Y-53937D03*
X59586Y-53937D03*
X59586Y-53622D03*
X59586Y-53307D03*
X59586Y-52992D03*
X59586Y-52677D03*
X59586Y-52362D03*
X59586Y-52047D03*
G54D23*
X61968Y-54429D03*
X61653Y-54429D03*
X61338Y-54429D03*
X61023Y-54429D03*
X60708Y-54429D03*
X60393Y-54429D03*
X60078Y-54429D03*
X60078Y-51555D03*
X60393Y-51555D03*
X60708Y-51555D03*
X61023Y-51555D03*
X61338Y-51555D03*
X61653Y-51555D03*
X61968Y-51555D03*
G54D24*
X62460Y-51555D03*
X62460Y-54429D03*
X59586Y-54429D03*
G54D10*
G36*
X59301Y-51840D02*
X59301Y-51269D01*
X59872Y-51269D01*
X59872Y-51840D01*
X59301Y-51840D01*
X59301Y-51840D01*
G37*
G54D25*
X62125Y-50944D03*
X61968Y-54960D03*
X60078Y-54960D03*
X56692Y-51811D03*
X58976Y-51811D03*
X56062Y-52755D03*
X55826Y-53858D03*
X55905Y-55590D03*
X58976Y-51181D03*
X58897Y-53622D03*
X55511Y-55275D03*
X55511Y-56535D03*
X61968Y-48110D03*
X61653Y-50944D03*
X54881Y-53149D03*
X63149Y-52992D03*
X58897Y-52362D03*
X56535Y-52598D03*
X56535Y-53543D03*
X63070Y-51889D03*
X63228Y-52283D03*
X63070Y-54094D03*
X63228Y-53700D03*
X63543Y-53385D03*
X63543Y-52598D03*
X51720Y-55610D03*
X51169Y-50255D03*
X54003Y-51318D03*
X59763Y-57637D03*
X58897Y-54094D03*
G54D26*
X61968Y-51102D02*
X61968Y-51555D01*
X62125Y-50944D02*
X61968Y-51102D01*
X61968Y-54960D02*
X61968Y-54429D01*
X60078Y-54960D02*
X60078Y-54429D01*
X62686Y-57775D02*
X62686Y-56889D01*
X63237Y-58969D02*
X63237Y-58327D01*
X63237Y-58327D02*
X62686Y-57775D01*
X59586Y-52047D02*
X59212Y-52047D01*
X55433Y-54015D02*
X55232Y-54216D01*
X55433Y-52440D02*
X55433Y-54015D01*
X56062Y-51811D02*
X55433Y-52440D01*
X56692Y-51811D02*
X56062Y-51811D01*
X59212Y-52047D02*
X58976Y-51811D01*
X54237Y-58969D02*
X54244Y-58969D01*
X55870Y-54216D02*
X55232Y-54216D01*
X55232Y-54216D02*
X54751Y-54216D01*
X56692Y-55039D02*
X55870Y-54216D01*
X56692Y-59212D02*
X56692Y-55039D01*
X56456Y-59448D02*
X56692Y-59212D01*
X54724Y-59448D02*
X56456Y-59448D01*
X54244Y-58969D02*
X54724Y-59448D01*
X59586Y-51555D02*
X59350Y-51555D01*
X56062Y-52755D02*
X55826Y-52992D01*
X55826Y-52992D02*
X55826Y-53858D01*
X55905Y-55590D02*
X55905Y-56062D01*
X59350Y-51555D02*
X58976Y-51181D01*
X55237Y-58969D02*
X55237Y-58305D01*
X55559Y-55716D02*
X54751Y-55716D01*
X55905Y-56062D02*
X55559Y-55716D01*
X55905Y-57637D02*
X55905Y-56062D01*
X55237Y-58305D02*
X55905Y-57637D01*
X59586Y-53622D02*
X58897Y-53622D01*
X56237Y-58969D02*
X56237Y-55371D01*
X55582Y-54716D02*
X54751Y-54716D01*
X56237Y-55371D02*
X55582Y-54716D01*
X54751Y-54716D02*
X54015Y-54716D01*
X53728Y-52855D02*
X53944Y-52638D01*
X53728Y-54429D02*
X53728Y-52855D01*
X54015Y-54716D02*
X53728Y-54429D01*
X52999Y-52638D02*
X53944Y-52638D01*
X54751Y-56716D02*
X55330Y-56716D01*
X55452Y-55216D02*
X54751Y-55216D01*
X55511Y-55275D02*
X55452Y-55216D01*
X55330Y-56716D02*
X55511Y-56535D01*
X53237Y-58969D02*
X53237Y-56998D01*
X53519Y-56716D02*
X54751Y-56716D01*
X53237Y-56998D02*
X53519Y-56716D01*
X52191Y-50984D02*
X52191Y-51436D01*
X54200Y-55216D02*
X54751Y-55216D01*
X53492Y-54507D02*
X54200Y-55216D01*
X53492Y-53366D02*
X53492Y-54507D01*
X53216Y-53090D02*
X53492Y-53366D01*
X52822Y-53090D02*
X53216Y-53090D01*
X52547Y-52814D02*
X52822Y-53090D01*
X52547Y-51791D02*
X52547Y-52814D01*
X52191Y-51436D02*
X52547Y-51791D01*
X64279Y-47323D02*
X64725Y-47323D01*
X67086Y-53163D02*
X66000Y-54250D01*
X67086Y-48425D02*
X67086Y-53163D01*
X66771Y-48110D02*
X67086Y-48425D01*
X65511Y-48110D02*
X66771Y-48110D01*
X64725Y-47323D02*
X65511Y-48110D01*
X61653Y-51555D02*
X61653Y-50944D01*
X62015Y-48062D02*
X62015Y-47549D01*
X61968Y-48110D02*
X62015Y-48062D01*
X62015Y-47549D02*
X63196Y-47549D01*
X62460Y-52992D02*
X63149Y-52992D01*
X54830Y-53098D02*
X54830Y-52638D01*
X54881Y-53149D02*
X54830Y-53098D01*
X58897Y-52362D02*
X59586Y-52362D01*
X56535Y-53543D02*
X56535Y-52598D01*
X62460Y-52047D02*
X62913Y-52047D01*
X62913Y-52047D02*
X63070Y-51889D01*
X62460Y-52362D02*
X63149Y-52362D01*
X63149Y-52362D02*
X63228Y-52283D01*
X62460Y-53937D02*
X62913Y-53937D01*
X62913Y-53937D02*
X63070Y-54094D01*
X62460Y-53622D02*
X63149Y-53622D01*
X63149Y-53622D02*
X63228Y-53700D01*
X62460Y-53307D02*
X62913Y-53307D01*
X62992Y-53385D02*
X63543Y-53385D01*
X62913Y-53307D02*
X62992Y-53385D01*
X62460Y-52677D02*
X62913Y-52677D01*
X62992Y-52598D02*
X63543Y-52598D01*
X62913Y-52677D02*
X62992Y-52598D01*
X59586Y-52992D02*
X61023Y-52992D01*
X62460Y-53937D02*
X61968Y-53937D01*
X61968Y-53937D02*
X61023Y-52992D01*
X62460Y-53622D02*
X61653Y-53622D01*
X61653Y-53622D02*
X61023Y-52992D01*
X62460Y-53307D02*
X61338Y-53307D01*
X61338Y-53307D02*
X61023Y-52992D01*
X62460Y-52677D02*
X61338Y-52677D01*
X61338Y-52677D02*
X61023Y-52992D01*
X62460Y-52362D02*
X61653Y-52362D01*
X61653Y-52362D02*
X61023Y-52992D01*
X62460Y-52047D02*
X61968Y-52047D01*
X61968Y-52047D02*
X61023Y-52992D01*
X52547Y-55716D02*
X51826Y-55716D01*
X51826Y-55716D02*
X51720Y-55610D01*
X51090Y-50904D02*
X51090Y-50334D01*
X51090Y-50334D02*
X51169Y-50255D01*
X53944Y-51888D02*
X53944Y-51377D01*
X53944Y-51377D02*
X54003Y-51318D01*
X59586Y-53937D02*
X59055Y-53937D01*
X59784Y-57658D02*
X61129Y-57658D01*
X59763Y-57637D02*
X59784Y-57658D01*
X59055Y-53937D02*
X58897Y-54094D01*
X61936Y-57775D02*
X61247Y-57775D01*
X61247Y-57775D02*
X61129Y-57658D01*
X56602Y-47549D02*
X56602Y-48345D01*
X60078Y-51555D02*
X60078Y-51004D01*
X60078Y-51004D02*
X59606Y-50532D01*
X52133Y-52263D02*
X52133Y-52716D01*
X52133Y-52716D02*
X52744Y-53326D01*
X52744Y-53326D02*
X53098Y-53326D01*
X53098Y-53326D02*
X53255Y-53484D01*
X53255Y-53484D02*
X53255Y-55334D01*
X53255Y-55334D02*
X54137Y-56216D01*
X54137Y-56216D02*
X54751Y-56216D01*
X51090Y-53229D02*
X51542Y-53229D01*
X52133Y-52637D02*
X52133Y-52263D01*
X51542Y-53229D02*
X52133Y-52637D01*
X62015Y-46348D02*
X63196Y-46348D01*
X64279Y-46573D02*
X63422Y-46573D01*
X63422Y-46573D02*
X63196Y-46348D01*
X54830Y-51888D02*
X54830Y-51082D01*
X51463Y-51654D02*
X51090Y-51654D01*
X51641Y-51476D02*
X51463Y-51654D01*
X51641Y-50688D02*
X51641Y-51476D01*
X51877Y-50452D02*
X51641Y-50688D01*
X54200Y-50452D02*
X51877Y-50452D01*
X54830Y-51082D02*
X54200Y-50452D01*
X52547Y-56716D02*
X51842Y-56716D01*
X50875Y-52479D02*
X51090Y-52479D01*
X50539Y-52814D02*
X50875Y-52479D01*
X50539Y-55413D02*
X50539Y-52814D01*
X51842Y-56716D02*
X50539Y-55413D01*
X51090Y-52479D02*
X51090Y-51654D01*
X52237Y-58969D02*
X52237Y-57025D01*
X52237Y-57025D02*
X52547Y-56716D01*
X60393Y-54429D02*
X60393Y-54803D01*
X60472Y-55609D02*
X60157Y-55924D01*
X60472Y-54881D02*
X60472Y-55609D01*
X60393Y-54803D02*
X60472Y-54881D01*
X59586Y-52677D02*
X59133Y-52677D01*
X58091Y-52755D02*
X57855Y-52519D01*
X59055Y-52755D02*
X58091Y-52755D01*
X59133Y-52677D02*
X59055Y-52755D01*
X57855Y-52519D02*
X57855Y-53385D01*
X59586Y-53307D02*
X59133Y-53307D01*
X58012Y-53228D02*
X57855Y-53385D01*
X59055Y-53228D02*
X58012Y-53228D01*
X59133Y-53307D02*
X59055Y-53228D01*
X60637Y-47028D02*
X60637Y-48750D01*
X60637Y-48750D02*
X59606Y-49782D01*
X58900Y-48126D02*
X58900Y-49076D01*
X58900Y-49076D02*
X59606Y-49782D01*
X56602Y-49095D02*
X58919Y-49095D01*
X58919Y-49095D02*
X59606Y-49782D01*
X60393Y-51555D02*
X60393Y-50569D01*
X60393Y-50569D02*
X59606Y-49782D01*
G54D10*
G36*
X66889Y-52715D02*
X66645Y-52715D01*
X66645Y-52409D01*
X66000Y-51764D01*
X65985Y-51778D01*
X65985Y-51750D01*
X65340Y-51104D01*
X65218Y-51194D01*
X65065Y-51535D01*
X65055Y-51909D01*
X65188Y-52259D01*
X65218Y-52305D01*
X65340Y-52395D01*
X65985Y-51750D01*
X65985Y-51778D01*
X65354Y-52409D01*
X65444Y-52531D01*
X65785Y-52684D01*
X66159Y-52695D01*
X66509Y-52561D01*
X66555Y-52531D01*
X66645Y-52409D01*
X66645Y-52715D01*
X64897Y-52715D01*
X63086Y-50983D01*
X62440Y-50983D01*
X62441Y-50882D01*
X62393Y-50766D01*
X62304Y-50677D01*
X62188Y-50629D01*
X62063Y-50629D01*
X61947Y-50677D01*
X61859Y-50766D01*
X61811Y-50881D01*
X61810Y-50983D01*
X61692Y-50983D01*
X61692Y-51135D01*
X61663Y-51164D01*
X61663Y-51545D01*
X61671Y-51545D01*
X61671Y-51565D01*
X61663Y-51565D01*
X61663Y-51572D01*
X61643Y-51572D01*
X61643Y-51565D01*
X61643Y-51545D01*
X61643Y-51164D01*
X61608Y-51129D01*
X61527Y-51129D01*
X61496Y-51142D01*
X61464Y-51129D01*
X61383Y-51129D01*
X61348Y-51164D01*
X61348Y-51545D01*
X61450Y-51545D01*
X61542Y-51545D01*
X61643Y-51545D01*
X61643Y-51565D01*
X61542Y-51565D01*
X61450Y-51565D01*
X61348Y-51565D01*
X61348Y-51572D01*
X61328Y-51572D01*
X61328Y-51565D01*
X61328Y-51545D01*
X61328Y-51164D01*
X61293Y-51129D01*
X61212Y-51129D01*
X61181Y-51142D01*
X61149Y-51129D01*
X61068Y-51129D01*
X61033Y-51164D01*
X61033Y-51545D01*
X61135Y-51545D01*
X61227Y-51545D01*
X61328Y-51545D01*
X61328Y-51565D01*
X61227Y-51565D01*
X61135Y-51565D01*
X61033Y-51565D01*
X61033Y-51572D01*
X61013Y-51572D01*
X61013Y-51565D01*
X61013Y-51545D01*
X61013Y-51164D01*
X60978Y-51129D01*
X60897Y-51129D01*
X60866Y-51142D01*
X60834Y-51129D01*
X60753Y-51129D01*
X60718Y-51164D01*
X60718Y-51545D01*
X60820Y-51545D01*
X60912Y-51545D01*
X61013Y-51545D01*
X61013Y-51565D01*
X60912Y-51565D01*
X60820Y-51565D01*
X60718Y-51565D01*
X60718Y-51572D01*
X60698Y-51572D01*
X60698Y-51565D01*
X60690Y-51565D01*
X60690Y-51545D01*
X60698Y-51545D01*
X60698Y-51164D01*
X60669Y-51135D01*
X60669Y-50118D01*
X63920Y-50118D01*
X64471Y-50669D01*
X66889Y-50669D01*
X66889Y-51443D01*
X66811Y-51240D01*
X66781Y-51194D01*
X66659Y-51104D01*
X66645Y-51118D01*
X66645Y-51090D01*
X66555Y-50968D01*
X66214Y-50815D01*
X65840Y-50805D01*
X65490Y-50938D01*
X65444Y-50968D01*
X65354Y-51090D01*
X66000Y-51735D01*
X66645Y-51090D01*
X66645Y-51118D01*
X66014Y-51750D01*
X66659Y-52395D01*
X66781Y-52305D01*
X66889Y-52064D01*
X66889Y-52715D01*
X66889Y-52715D01*
G37*
G54D27*
X66889Y-52715D02*
X66645Y-52715D01*
X66645Y-52409D01*
X66000Y-51764D01*
X65985Y-51778D01*
X65985Y-51750D01*
X65340Y-51104D01*
X65218Y-51194D01*
X65065Y-51535D01*
X65055Y-51909D01*
X65188Y-52259D01*
X65218Y-52305D01*
X65340Y-52395D01*
X65985Y-51750D01*
X65985Y-51778D01*
X65354Y-52409D01*
X65444Y-52531D01*
X65785Y-52684D01*
X66159Y-52695D01*
X66509Y-52561D01*
X66555Y-52531D01*
X66645Y-52409D01*
X66645Y-52715D01*
X64897Y-52715D01*
X63086Y-50983D01*
X62440Y-50983D01*
X62441Y-50882D01*
X62393Y-50766D01*
X62304Y-50677D01*
X62188Y-50629D01*
X62063Y-50629D01*
X61947Y-50677D01*
X61859Y-50766D01*
X61811Y-50881D01*
X61810Y-50983D01*
X61692Y-50983D01*
X61692Y-51135D01*
X61663Y-51164D01*
X61663Y-51545D01*
X61671Y-51545D01*
X61671Y-51565D01*
X61663Y-51565D01*
X61663Y-51572D01*
X61643Y-51572D01*
X61643Y-51565D01*
X61643Y-51545D01*
X61643Y-51164D01*
X61608Y-51129D01*
X61527Y-51129D01*
X61496Y-51142D01*
X61464Y-51129D01*
X61383Y-51129D01*
X61348Y-51164D01*
X61348Y-51545D01*
X61450Y-51545D01*
X61542Y-51545D01*
X61643Y-51545D01*
X61643Y-51565D01*
X61542Y-51565D01*
X61450Y-51565D01*
X61348Y-51565D01*
X61348Y-51572D01*
X61328Y-51572D01*
X61328Y-51565D01*
X61328Y-51545D01*
X61328Y-51164D01*
X61293Y-51129D01*
X61212Y-51129D01*
X61181Y-51142D01*
X61149Y-51129D01*
X61068Y-51129D01*
X61033Y-51164D01*
X61033Y-51545D01*
X61135Y-51545D01*
X61227Y-51545D01*
X61328Y-51545D01*
X61328Y-51565D01*
X61227Y-51565D01*
X61135Y-51565D01*
X61033Y-51565D01*
X61033Y-51572D01*
X61013Y-51572D01*
X61013Y-51565D01*
X61013Y-51545D01*
X61013Y-51164D01*
X60978Y-51129D01*
X60897Y-51129D01*
X60866Y-51142D01*
X60834Y-51129D01*
X60753Y-51129D01*
X60718Y-51164D01*
X60718Y-51545D01*
X60820Y-51545D01*
X60912Y-51545D01*
X61013Y-51545D01*
X61013Y-51565D01*
X60912Y-51565D01*
X60820Y-51565D01*
X60718Y-51565D01*
X60718Y-51572D01*
X60698Y-51572D01*
X60698Y-51565D01*
X60690Y-51565D01*
X60690Y-51545D01*
X60698Y-51545D01*
X60698Y-51164D01*
X60669Y-51135D01*
X60669Y-50118D01*
X63920Y-50118D01*
X64471Y-50669D01*
X66889Y-50669D01*
X66889Y-51443D01*
X66811Y-51240D01*
X66781Y-51194D01*
X66659Y-51104D01*
X66645Y-51118D01*
X66645Y-51090D01*
X66555Y-50968D01*
X66214Y-50815D01*
X65840Y-50805D01*
X65490Y-50938D01*
X65444Y-50968D01*
X65354Y-51090D01*
X66000Y-51735D01*
X66645Y-51090D01*
X66645Y-51118D01*
X66014Y-51750D01*
X66659Y-52395D01*
X66781Y-52305D01*
X66889Y-52064D01*
X66889Y-52715D01*
G54D10*
G36*
X66889Y-55235D02*
X66645Y-55235D01*
X66645Y-54909D01*
X66000Y-54264D01*
X65985Y-54278D01*
X65985Y-54250D01*
X65340Y-53604D01*
X65218Y-53694D01*
X65065Y-54035D01*
X65055Y-54409D01*
X65188Y-54759D01*
X65218Y-54805D01*
X65340Y-54895D01*
X65985Y-54250D01*
X65985Y-54278D01*
X65354Y-54909D01*
X65444Y-55031D01*
X65785Y-55184D01*
X66159Y-55195D01*
X66509Y-55061D01*
X66555Y-55031D01*
X66645Y-54909D01*
X66645Y-55235D01*
X64392Y-55235D01*
X64077Y-55550D01*
X61643Y-55550D01*
X61643Y-54819D01*
X61643Y-54439D01*
X61542Y-54439D01*
X61450Y-54439D01*
X61348Y-54439D01*
X61348Y-54819D01*
X61383Y-54854D01*
X61464Y-54854D01*
X61496Y-54841D01*
X61527Y-54854D01*
X61608Y-54854D01*
X61643Y-54819D01*
X61643Y-55550D01*
X61328Y-55550D01*
X61328Y-54819D01*
X61328Y-54439D01*
X61227Y-54439D01*
X61135Y-54439D01*
X61033Y-54439D01*
X61033Y-54819D01*
X61068Y-54854D01*
X61149Y-54854D01*
X61181Y-54841D01*
X61212Y-54854D01*
X61293Y-54854D01*
X61328Y-54819D01*
X61328Y-55550D01*
X61013Y-55550D01*
X61013Y-54819D01*
X61013Y-54439D01*
X60912Y-54439D01*
X60820Y-54439D01*
X60718Y-54439D01*
X60718Y-54819D01*
X60753Y-54854D01*
X60834Y-54854D01*
X60866Y-54841D01*
X60897Y-54854D01*
X60978Y-54854D01*
X61013Y-54819D01*
X61013Y-55550D01*
X60669Y-55550D01*
X60669Y-54848D01*
X60698Y-54819D01*
X60698Y-54439D01*
X60690Y-54439D01*
X60690Y-54419D01*
X60698Y-54419D01*
X60698Y-54411D01*
X60718Y-54411D01*
X60718Y-54419D01*
X60820Y-54419D01*
X60912Y-54419D01*
X61013Y-54419D01*
X61013Y-54411D01*
X61033Y-54411D01*
X61033Y-54419D01*
X61135Y-54419D01*
X61227Y-54419D01*
X61328Y-54419D01*
X61328Y-54411D01*
X61348Y-54411D01*
X61348Y-54419D01*
X61450Y-54419D01*
X61542Y-54419D01*
X61643Y-54419D01*
X61643Y-54411D01*
X61663Y-54411D01*
X61663Y-54419D01*
X61671Y-54419D01*
X61671Y-54439D01*
X61663Y-54439D01*
X61663Y-54819D01*
X61679Y-54835D01*
X61653Y-54897D01*
X61653Y-55023D01*
X61701Y-55138D01*
X61789Y-55227D01*
X61905Y-55275D01*
X62030Y-55275D01*
X62146Y-55227D01*
X62235Y-55139D01*
X62283Y-55023D01*
X62283Y-54921D01*
X63086Y-54921D01*
X64897Y-53268D01*
X66889Y-53268D01*
X66889Y-53943D01*
X66811Y-53740D01*
X66781Y-53694D01*
X66659Y-53604D01*
X66645Y-53618D01*
X66645Y-53590D01*
X66555Y-53468D01*
X66214Y-53315D01*
X65840Y-53305D01*
X65490Y-53438D01*
X65444Y-53468D01*
X65354Y-53590D01*
X66000Y-54235D01*
X66645Y-53590D01*
X66645Y-53618D01*
X66014Y-54250D01*
X66659Y-54895D01*
X66781Y-54805D01*
X66889Y-54564D01*
X66889Y-55235D01*
X66889Y-55235D01*
G37*
G54D27*
X66889Y-55235D02*
X66645Y-55235D01*
X66645Y-54909D01*
X66000Y-54264D01*
X65985Y-54278D01*
X65985Y-54250D01*
X65340Y-53604D01*
X65218Y-53694D01*
X65065Y-54035D01*
X65055Y-54409D01*
X65188Y-54759D01*
X65218Y-54805D01*
X65340Y-54895D01*
X65985Y-54250D01*
X65985Y-54278D01*
X65354Y-54909D01*
X65444Y-55031D01*
X65785Y-55184D01*
X66159Y-55195D01*
X66509Y-55061D01*
X66555Y-55031D01*
X66645Y-54909D01*
X66645Y-55235D01*
X64392Y-55235D01*
X64077Y-55550D01*
X61643Y-55550D01*
X61643Y-54819D01*
X61643Y-54439D01*
X61542Y-54439D01*
X61450Y-54439D01*
X61348Y-54439D01*
X61348Y-54819D01*
X61383Y-54854D01*
X61464Y-54854D01*
X61496Y-54841D01*
X61527Y-54854D01*
X61608Y-54854D01*
X61643Y-54819D01*
X61643Y-55550D01*
X61328Y-55550D01*
X61328Y-54819D01*
X61328Y-54439D01*
X61227Y-54439D01*
X61135Y-54439D01*
X61033Y-54439D01*
X61033Y-54819D01*
X61068Y-54854D01*
X61149Y-54854D01*
X61181Y-54841D01*
X61212Y-54854D01*
X61293Y-54854D01*
X61328Y-54819D01*
X61328Y-55550D01*
X61013Y-55550D01*
X61013Y-54819D01*
X61013Y-54439D01*
X60912Y-54439D01*
X60820Y-54439D01*
X60718Y-54439D01*
X60718Y-54819D01*
X60753Y-54854D01*
X60834Y-54854D01*
X60866Y-54841D01*
X60897Y-54854D01*
X60978Y-54854D01*
X61013Y-54819D01*
X61013Y-55550D01*
X60669Y-55550D01*
X60669Y-54848D01*
X60698Y-54819D01*
X60698Y-54439D01*
X60690Y-54439D01*
X60690Y-54419D01*
X60698Y-54419D01*
X60698Y-54411D01*
X60718Y-54411D01*
X60718Y-54419D01*
X60820Y-54419D01*
X60912Y-54419D01*
X61013Y-54419D01*
X61013Y-54411D01*
X61033Y-54411D01*
X61033Y-54419D01*
X61135Y-54419D01*
X61227Y-54419D01*
X61328Y-54419D01*
X61328Y-54411D01*
X61348Y-54411D01*
X61348Y-54419D01*
X61450Y-54419D01*
X61542Y-54419D01*
X61643Y-54419D01*
X61643Y-54411D01*
X61663Y-54411D01*
X61663Y-54419D01*
X61671Y-54419D01*
X61671Y-54439D01*
X61663Y-54439D01*
X61663Y-54819D01*
X61679Y-54835D01*
X61653Y-54897D01*
X61653Y-55023D01*
X61701Y-55138D01*
X61789Y-55227D01*
X61905Y-55275D01*
X62030Y-55275D01*
X62146Y-55227D01*
X62235Y-55139D01*
X62283Y-55023D01*
X62283Y-54921D01*
X63086Y-54921D01*
X64897Y-53268D01*
X66889Y-53268D01*
X66889Y-53943D01*
X66811Y-53740D01*
X66781Y-53694D01*
X66659Y-53604D01*
X66645Y-53618D01*
X66645Y-53590D01*
X66555Y-53468D01*
X66214Y-53315D01*
X65840Y-53305D01*
X65490Y-53438D01*
X65444Y-53468D01*
X65354Y-53590D01*
X66000Y-54235D01*
X66645Y-53590D01*
X66645Y-53618D01*
X66014Y-54250D01*
X66659Y-54895D01*
X66781Y-54805D01*
X66889Y-54564D01*
X66889Y-55235D01*
G54D10*
G36*
X66889Y-60117D02*
X64679Y-60117D01*
X64679Y-58889D01*
X64614Y-58726D01*
X64606Y-58713D01*
X64537Y-58683D01*
X64523Y-58698D01*
X64523Y-58669D01*
X64493Y-58600D01*
X64332Y-58530D01*
X64157Y-58527D01*
X63994Y-58592D01*
X63982Y-58600D01*
X63952Y-58669D01*
X64237Y-58955D01*
X64523Y-58669D01*
X64523Y-58698D01*
X64251Y-58969D01*
X64537Y-59254D01*
X64606Y-59224D01*
X64676Y-59064D01*
X64679Y-58889D01*
X64679Y-60117D01*
X64523Y-60117D01*
X64523Y-59268D01*
X64237Y-58983D01*
X64223Y-58997D01*
X64223Y-58969D01*
X63938Y-58683D01*
X63869Y-58713D01*
X63799Y-58874D01*
X63796Y-59049D01*
X63860Y-59212D01*
X63869Y-59224D01*
X63938Y-59254D01*
X64223Y-58969D01*
X64223Y-58997D01*
X63952Y-59268D01*
X63982Y-59338D01*
X64142Y-59407D01*
X64317Y-59410D01*
X64480Y-59346D01*
X64493Y-59338D01*
X64523Y-59268D01*
X64523Y-60117D01*
X63677Y-60117D01*
X63677Y-58882D01*
X63611Y-58720D01*
X63487Y-58596D01*
X63427Y-58571D01*
X63427Y-58327D01*
X63413Y-58254D01*
X63372Y-58193D01*
X63001Y-57821D01*
X63001Y-57472D01*
X62979Y-57421D01*
X62940Y-57381D01*
X62888Y-57360D01*
X62876Y-57360D01*
X62876Y-57304D01*
X62888Y-57304D01*
X62940Y-57283D01*
X62979Y-57244D01*
X63001Y-57192D01*
X63001Y-57136D01*
X63001Y-56586D01*
X62979Y-56535D01*
X62940Y-56496D01*
X62888Y-56474D01*
X62833Y-56474D01*
X62483Y-56474D01*
X62431Y-56496D01*
X62392Y-56535D01*
X62371Y-56586D01*
X62371Y-56642D01*
X62371Y-57192D01*
X62392Y-57244D01*
X62431Y-57283D01*
X62483Y-57304D01*
X62496Y-57304D01*
X62496Y-57360D01*
X62483Y-57360D01*
X62431Y-57381D01*
X62392Y-57421D01*
X62371Y-57472D01*
X62371Y-57528D01*
X62371Y-58078D01*
X62392Y-58129D01*
X62431Y-58169D01*
X62483Y-58190D01*
X62538Y-58190D01*
X62832Y-58190D01*
X63047Y-58406D01*
X63047Y-58571D01*
X62988Y-58596D01*
X62864Y-58719D01*
X62797Y-58881D01*
X62797Y-59056D01*
X62864Y-59218D01*
X62988Y-59342D01*
X63149Y-59409D01*
X63324Y-59409D01*
X63486Y-59342D01*
X63610Y-59218D01*
X63677Y-59057D01*
X63677Y-58882D01*
X63677Y-60117D01*
X62677Y-60117D01*
X62677Y-58882D01*
X62611Y-58720D01*
X62487Y-58596D01*
X62325Y-58529D01*
X62251Y-58529D01*
X62251Y-58078D01*
X62251Y-58022D01*
X62251Y-57472D01*
X62251Y-57192D01*
X62251Y-57136D01*
X62251Y-56934D01*
X62251Y-56844D01*
X62251Y-56642D01*
X62251Y-56586D01*
X62229Y-56535D01*
X62190Y-56496D01*
X62138Y-56474D01*
X61981Y-56474D01*
X61946Y-56509D01*
X61946Y-56879D01*
X62216Y-56879D01*
X62251Y-56844D01*
X62251Y-56934D01*
X62216Y-56899D01*
X61946Y-56899D01*
X61946Y-57269D01*
X61981Y-57304D01*
X62138Y-57304D01*
X62190Y-57283D01*
X62229Y-57244D01*
X62251Y-57192D01*
X62251Y-57472D01*
X62229Y-57421D01*
X62190Y-57381D01*
X62138Y-57360D01*
X62083Y-57360D01*
X61926Y-57360D01*
X61926Y-57269D01*
X61926Y-56899D01*
X61926Y-56879D01*
X61926Y-56509D01*
X61891Y-56474D01*
X61733Y-56474D01*
X61681Y-56496D01*
X61642Y-56535D01*
X61621Y-56586D01*
X61621Y-56642D01*
X61621Y-56844D01*
X61656Y-56879D01*
X61926Y-56879D01*
X61926Y-56899D01*
X61656Y-56899D01*
X61621Y-56934D01*
X61621Y-57136D01*
X61621Y-57192D01*
X61642Y-57244D01*
X61681Y-57283D01*
X61733Y-57304D01*
X61891Y-57304D01*
X61926Y-57269D01*
X61926Y-57360D01*
X61733Y-57360D01*
X61681Y-57381D01*
X61642Y-57421D01*
X61621Y-57472D01*
X61621Y-57528D01*
X61621Y-57585D01*
X61544Y-57585D01*
X61544Y-57455D01*
X61544Y-57111D01*
X61544Y-56953D01*
X61544Y-56863D01*
X61544Y-56705D01*
X61523Y-56654D01*
X61484Y-56614D01*
X61432Y-56593D01*
X61377Y-56593D01*
X61174Y-56593D01*
X61139Y-56628D01*
X61139Y-56898D01*
X61509Y-56898D01*
X61544Y-56863D01*
X61544Y-56953D01*
X61509Y-56918D01*
X61139Y-56918D01*
X61139Y-57188D01*
X61174Y-57223D01*
X61377Y-57223D01*
X61432Y-57223D01*
X61484Y-57202D01*
X61523Y-57162D01*
X61544Y-57111D01*
X61544Y-57455D01*
X61523Y-57404D01*
X61484Y-57364D01*
X61432Y-57343D01*
X61377Y-57343D01*
X61119Y-57343D01*
X61119Y-57188D01*
X61119Y-56918D01*
X61119Y-56898D01*
X61119Y-56628D01*
X61084Y-56593D01*
X60882Y-56593D01*
X60827Y-56593D01*
X60775Y-56614D01*
X60736Y-56654D01*
X60714Y-56705D01*
X60714Y-56863D01*
X60749Y-56898D01*
X61119Y-56898D01*
X61119Y-56918D01*
X60749Y-56918D01*
X60714Y-56953D01*
X60714Y-57111D01*
X60736Y-57162D01*
X60775Y-57202D01*
X60827Y-57223D01*
X60882Y-57223D01*
X61084Y-57223D01*
X61119Y-57188D01*
X61119Y-57343D01*
X60827Y-57343D01*
X60775Y-57364D01*
X60736Y-57404D01*
X60714Y-57455D01*
X60714Y-57468D01*
X60572Y-57468D01*
X60572Y-56877D01*
X60572Y-56719D01*
X60572Y-56629D01*
X60572Y-56471D01*
X60551Y-56419D01*
X60511Y-56380D01*
X60460Y-56359D01*
X60404Y-56359D01*
X60202Y-56359D01*
X60167Y-56394D01*
X60167Y-56664D01*
X60537Y-56664D01*
X60572Y-56629D01*
X60572Y-56719D01*
X60537Y-56684D01*
X60167Y-56684D01*
X60167Y-56954D01*
X60202Y-56989D01*
X60404Y-56989D01*
X60460Y-56989D01*
X60511Y-56967D01*
X60551Y-56928D01*
X60572Y-56877D01*
X60572Y-57468D01*
X60147Y-57468D01*
X60147Y-56954D01*
X60147Y-56684D01*
X60147Y-56664D01*
X60147Y-56394D01*
X60112Y-56359D01*
X59910Y-56359D01*
X59854Y-56359D01*
X59803Y-56380D01*
X59763Y-56419D01*
X59742Y-56471D01*
X59742Y-56629D01*
X59777Y-56664D01*
X60147Y-56664D01*
X60147Y-56684D01*
X59777Y-56684D01*
X59742Y-56719D01*
X59742Y-56877D01*
X59763Y-56928D01*
X59803Y-56967D01*
X59854Y-56989D01*
X59910Y-56989D01*
X60112Y-56989D01*
X60147Y-56954D01*
X60147Y-57468D01*
X60034Y-57468D01*
X60030Y-57459D01*
X59942Y-57370D01*
X59826Y-57322D01*
X59701Y-57322D01*
X59585Y-57370D01*
X59496Y-57459D01*
X59448Y-57574D01*
X59448Y-57700D01*
X59496Y-57815D01*
X59585Y-57904D01*
X59700Y-57952D01*
X59826Y-57952D01*
X59941Y-57904D01*
X59998Y-57848D01*
X60714Y-57848D01*
X60714Y-57861D01*
X60736Y-57912D01*
X60775Y-57952D01*
X60827Y-57973D01*
X60882Y-57973D01*
X61432Y-57973D01*
X61451Y-57965D01*
X61621Y-57965D01*
X61621Y-58078D01*
X61642Y-58129D01*
X61681Y-58169D01*
X61733Y-58190D01*
X61788Y-58190D01*
X62138Y-58190D01*
X62190Y-58169D01*
X62229Y-58129D01*
X62251Y-58078D01*
X62251Y-58529D01*
X62150Y-58529D01*
X61988Y-58596D01*
X61864Y-58719D01*
X61797Y-58881D01*
X61797Y-59056D01*
X61864Y-59218D01*
X61988Y-59342D01*
X62149Y-59409D01*
X62324Y-59409D01*
X62486Y-59342D01*
X62610Y-59218D01*
X62677Y-59057D01*
X62677Y-58882D01*
X62677Y-60117D01*
X61677Y-60117D01*
X61677Y-58882D01*
X61611Y-58720D01*
X61487Y-58596D01*
X61325Y-58529D01*
X61150Y-58529D01*
X60988Y-58596D01*
X60864Y-58719D01*
X60797Y-58881D01*
X60797Y-59056D01*
X60864Y-59218D01*
X60988Y-59342D01*
X61149Y-59409D01*
X61324Y-59409D01*
X61486Y-59342D01*
X61610Y-59218D01*
X61677Y-59057D01*
X61677Y-58882D01*
X61677Y-60117D01*
X60677Y-60117D01*
X60677Y-58882D01*
X60611Y-58720D01*
X60487Y-58596D01*
X60325Y-58529D01*
X60150Y-58529D01*
X59988Y-58596D01*
X59864Y-58719D01*
X59797Y-58881D01*
X59797Y-59056D01*
X59864Y-59218D01*
X59988Y-59342D01*
X60149Y-59409D01*
X60324Y-59409D01*
X60486Y-59342D01*
X60610Y-59218D01*
X60677Y-59057D01*
X60677Y-58882D01*
X60677Y-60117D01*
X59677Y-60117D01*
X59677Y-58882D01*
X59611Y-58720D01*
X59487Y-58596D01*
X59325Y-58529D01*
X59150Y-58529D01*
X58988Y-58596D01*
X58864Y-58719D01*
X58797Y-58881D01*
X58797Y-59056D01*
X58864Y-59218D01*
X58988Y-59342D01*
X59149Y-59409D01*
X59324Y-59409D01*
X59486Y-59342D01*
X59610Y-59218D01*
X59677Y-59057D01*
X59677Y-58882D01*
X59677Y-60117D01*
X58677Y-60117D01*
X58677Y-58882D01*
X58611Y-58720D01*
X58487Y-58596D01*
X58325Y-58529D01*
X58150Y-58529D01*
X57988Y-58596D01*
X57864Y-58719D01*
X57797Y-58881D01*
X57797Y-59056D01*
X57864Y-59218D01*
X57988Y-59342D01*
X58149Y-59409D01*
X58324Y-59409D01*
X58486Y-59342D01*
X58610Y-59218D01*
X58677Y-59057D01*
X58677Y-58882D01*
X58677Y-60117D01*
X57677Y-60117D01*
X57677Y-58882D01*
X57611Y-58720D01*
X57487Y-58596D01*
X57420Y-58568D01*
X57420Y-53688D01*
X57420Y-53632D01*
X57420Y-53430D01*
X57420Y-53340D01*
X57420Y-53138D01*
X57420Y-53082D01*
X57420Y-52822D01*
X57420Y-52766D01*
X57420Y-52564D01*
X57420Y-52474D01*
X57420Y-52272D01*
X57420Y-52216D01*
X57399Y-52165D01*
X57359Y-52125D01*
X57308Y-52104D01*
X57150Y-52104D01*
X57115Y-52139D01*
X57115Y-52509D01*
X57385Y-52509D01*
X57420Y-52474D01*
X57420Y-52564D01*
X57385Y-52529D01*
X57115Y-52529D01*
X57115Y-52899D01*
X57150Y-52934D01*
X57308Y-52934D01*
X57359Y-52913D01*
X57399Y-52873D01*
X57420Y-52822D01*
X57420Y-53082D01*
X57399Y-53031D01*
X57359Y-52992D01*
X57308Y-52970D01*
X57150Y-52970D01*
X57115Y-53005D01*
X57115Y-53375D01*
X57385Y-53375D01*
X57420Y-53340D01*
X57420Y-53430D01*
X57385Y-53395D01*
X57115Y-53395D01*
X57115Y-53765D01*
X57150Y-53800D01*
X57308Y-53800D01*
X57359Y-53779D01*
X57399Y-53740D01*
X57420Y-53688D01*
X57420Y-58568D01*
X57325Y-58529D01*
X57150Y-58529D01*
X56988Y-58596D01*
X56882Y-58701D01*
X56882Y-55039D01*
X56868Y-54966D01*
X56827Y-54905D01*
X56827Y-54905D01*
X56026Y-54104D01*
X56093Y-54036D01*
X56141Y-53921D01*
X56141Y-53795D01*
X56093Y-53680D01*
X56016Y-53602D01*
X56016Y-53070D01*
X56125Y-53070D01*
X56241Y-53023D01*
X56329Y-52934D01*
X56345Y-52897D01*
X56345Y-53287D01*
X56268Y-53364D01*
X56220Y-53480D01*
X56220Y-53605D01*
X56268Y-53721D01*
X56356Y-53810D01*
X56472Y-53858D01*
X56597Y-53858D01*
X56713Y-53810D01*
X56802Y-53721D01*
X56803Y-53719D01*
X56811Y-53740D01*
X56851Y-53779D01*
X56902Y-53800D01*
X57060Y-53800D01*
X57095Y-53765D01*
X57095Y-53395D01*
X57087Y-53395D01*
X57087Y-53375D01*
X57095Y-53375D01*
X57095Y-53005D01*
X57060Y-52970D01*
X56902Y-52970D01*
X56851Y-52992D01*
X56811Y-53031D01*
X56790Y-53082D01*
X56790Y-53138D01*
X56790Y-53340D01*
X56825Y-53375D01*
X56807Y-53375D01*
X56802Y-53365D01*
X56725Y-53287D01*
X56725Y-52853D01*
X56790Y-52789D01*
X56790Y-52822D01*
X56811Y-52873D01*
X56851Y-52913D01*
X56902Y-52934D01*
X57060Y-52934D01*
X57095Y-52899D01*
X57095Y-52529D01*
X57087Y-52529D01*
X57087Y-52509D01*
X57095Y-52509D01*
X57095Y-52139D01*
X57060Y-52104D01*
X56902Y-52104D01*
X56851Y-52125D01*
X56811Y-52165D01*
X56790Y-52216D01*
X56790Y-52272D01*
X56790Y-52407D01*
X56714Y-52331D01*
X56598Y-52283D01*
X56473Y-52283D01*
X56357Y-52331D01*
X56268Y-52419D01*
X56240Y-52488D01*
X56125Y-52440D01*
X56000Y-52440D01*
X55884Y-52488D01*
X55796Y-52577D01*
X55748Y-52692D01*
X55747Y-52802D01*
X55692Y-52857D01*
X55651Y-52919D01*
X55636Y-52992D01*
X55636Y-53602D01*
X55623Y-53616D01*
X55623Y-52519D01*
X56141Y-52001D01*
X56437Y-52001D01*
X56514Y-52077D01*
X56629Y-52125D01*
X56755Y-52126D01*
X56871Y-52078D01*
X56959Y-51989D01*
X57007Y-51873D01*
X57007Y-51748D01*
X56960Y-51632D01*
X56871Y-51544D01*
X56755Y-51496D01*
X56630Y-51495D01*
X56514Y-51543D01*
X56437Y-51621D01*
X56062Y-51621D01*
X56062Y-51621D01*
X55990Y-51635D01*
X55928Y-51676D01*
X55298Y-52306D01*
X55257Y-52368D01*
X55244Y-52433D01*
X55224Y-52384D01*
X55185Y-52345D01*
X55133Y-52323D01*
X55077Y-52323D01*
X54527Y-52323D01*
X54476Y-52345D01*
X54437Y-52384D01*
X54415Y-52435D01*
X54415Y-52491D01*
X54415Y-52841D01*
X54437Y-52893D01*
X54476Y-52932D01*
X54527Y-52953D01*
X54583Y-52953D01*
X54632Y-52953D01*
X54615Y-52970D01*
X54566Y-53086D01*
X54566Y-53211D01*
X54614Y-53327D01*
X54703Y-53416D01*
X54792Y-53453D01*
X54761Y-53483D01*
X54761Y-53706D01*
X55191Y-53706D01*
X55226Y-53671D01*
X55226Y-53560D01*
X55205Y-53509D01*
X55165Y-53469D01*
X55114Y-53448D01*
X55058Y-53448D01*
X54983Y-53448D01*
X55060Y-53416D01*
X55148Y-53328D01*
X55196Y-53212D01*
X55196Y-53087D01*
X55149Y-52971D01*
X55131Y-52953D01*
X55133Y-52953D01*
X55185Y-52932D01*
X55224Y-52893D01*
X55243Y-52847D01*
X55243Y-53937D01*
X55188Y-53992D01*
X55165Y-53969D01*
X55157Y-53966D01*
X55165Y-53963D01*
X55205Y-53923D01*
X55226Y-53872D01*
X55226Y-53761D01*
X55191Y-53726D01*
X54761Y-53726D01*
X54761Y-53734D01*
X54741Y-53734D01*
X54741Y-53726D01*
X54741Y-53706D01*
X54741Y-53483D01*
X54706Y-53448D01*
X54445Y-53448D01*
X54389Y-53448D01*
X54338Y-53469D01*
X54298Y-53509D01*
X54277Y-53560D01*
X54277Y-53671D01*
X54312Y-53706D01*
X54741Y-53706D01*
X54741Y-53726D01*
X54312Y-53726D01*
X54277Y-53761D01*
X54277Y-53872D01*
X54298Y-53923D01*
X54338Y-53963D01*
X54346Y-53966D01*
X54338Y-53969D01*
X54298Y-54009D01*
X54277Y-54060D01*
X54277Y-54116D01*
X54277Y-54372D01*
X54298Y-54423D01*
X54338Y-54463D01*
X54346Y-54466D01*
X54338Y-54469D01*
X54298Y-54509D01*
X54291Y-54526D01*
X54094Y-54526D01*
X53918Y-54350D01*
X53918Y-52953D01*
X54247Y-52953D01*
X54299Y-52932D01*
X54338Y-52893D01*
X54359Y-52841D01*
X54359Y-52785D01*
X54359Y-52435D01*
X54359Y-52091D01*
X54359Y-51933D01*
X54359Y-51843D01*
X54359Y-51685D01*
X54338Y-51634D01*
X54299Y-51595D01*
X54247Y-51573D01*
X54192Y-51573D01*
X53989Y-51573D01*
X53954Y-51608D01*
X53954Y-51878D01*
X54324Y-51878D01*
X54359Y-51843D01*
X54359Y-51933D01*
X54324Y-51898D01*
X53954Y-51898D01*
X53954Y-52168D01*
X53989Y-52203D01*
X54192Y-52203D01*
X54247Y-52203D01*
X54299Y-52182D01*
X54338Y-52143D01*
X54359Y-52091D01*
X54359Y-52435D01*
X54338Y-52384D01*
X54299Y-52345D01*
X54247Y-52323D01*
X54192Y-52323D01*
X53934Y-52323D01*
X53934Y-52168D01*
X53934Y-51898D01*
X53934Y-51878D01*
X53934Y-51608D01*
X53899Y-51573D01*
X53697Y-51573D01*
X53642Y-51573D01*
X53590Y-51595D01*
X53551Y-51634D01*
X53529Y-51685D01*
X53529Y-51843D01*
X53564Y-51878D01*
X53934Y-51878D01*
X53934Y-51898D01*
X53564Y-51898D01*
X53529Y-51933D01*
X53529Y-52091D01*
X53551Y-52143D01*
X53590Y-52182D01*
X53642Y-52203D01*
X53697Y-52203D01*
X53899Y-52203D01*
X53934Y-52168D01*
X53934Y-52323D01*
X53642Y-52323D01*
X53590Y-52345D01*
X53551Y-52384D01*
X53529Y-52435D01*
X53529Y-52448D01*
X53336Y-52448D01*
X53336Y-52074D01*
X53336Y-51933D01*
X53336Y-51843D01*
X53336Y-51703D01*
X53315Y-51651D01*
X53276Y-51612D01*
X53256Y-51604D01*
X53256Y-51287D01*
X53256Y-51231D01*
X53256Y-51029D01*
X53221Y-50994D01*
X52951Y-50994D01*
X52951Y-51364D01*
X52986Y-51399D01*
X53144Y-51399D01*
X53196Y-51377D01*
X53235Y-51338D01*
X53256Y-51287D01*
X53256Y-51604D01*
X53224Y-51591D01*
X53169Y-51591D01*
X53044Y-51591D01*
X53009Y-51626D01*
X53009Y-51878D01*
X53301Y-51878D01*
X53336Y-51843D01*
X53336Y-51933D01*
X53301Y-51898D01*
X53009Y-51898D01*
X53009Y-52151D01*
X53044Y-52186D01*
X53169Y-52186D01*
X53224Y-52186D01*
X53276Y-52164D01*
X53315Y-52125D01*
X53336Y-52074D01*
X53336Y-52448D01*
X53335Y-52448D01*
X53315Y-52401D01*
X53276Y-52362D01*
X53224Y-52341D01*
X53169Y-52341D01*
X52775Y-52341D01*
X52737Y-52356D01*
X52737Y-52170D01*
X52775Y-52186D01*
X52830Y-52186D01*
X52954Y-52186D01*
X52989Y-52151D01*
X52989Y-51898D01*
X52982Y-51898D01*
X52982Y-51878D01*
X52989Y-51878D01*
X52989Y-51626D01*
X52954Y-51591D01*
X52931Y-51591D01*
X52931Y-51364D01*
X52931Y-50994D01*
X52661Y-50994D01*
X52626Y-51029D01*
X52626Y-51231D01*
X52626Y-51287D01*
X52648Y-51338D01*
X52687Y-51377D01*
X52739Y-51399D01*
X52896Y-51399D01*
X52931Y-51364D01*
X52931Y-51591D01*
X52830Y-51591D01*
X52775Y-51591D01*
X52723Y-51612D01*
X52684Y-51651D01*
X52681Y-51657D01*
X52681Y-51656D01*
X52415Y-51390D01*
X52446Y-51377D01*
X52485Y-51338D01*
X52506Y-51287D01*
X52506Y-51231D01*
X52506Y-50681D01*
X52490Y-50642D01*
X52642Y-50642D01*
X52626Y-50681D01*
X52626Y-50737D01*
X52626Y-50939D01*
X52661Y-50974D01*
X52931Y-50974D01*
X52931Y-50966D01*
X52951Y-50966D01*
X52951Y-50974D01*
X53221Y-50974D01*
X53256Y-50939D01*
X53256Y-50737D01*
X53256Y-50681D01*
X53240Y-50642D01*
X54122Y-50642D01*
X54640Y-51161D01*
X54640Y-51573D01*
X54527Y-51573D01*
X54476Y-51595D01*
X54437Y-51634D01*
X54415Y-51685D01*
X54415Y-51741D01*
X54415Y-52091D01*
X54437Y-52143D01*
X54476Y-52182D01*
X54527Y-52203D01*
X54583Y-52203D01*
X55133Y-52203D01*
X55185Y-52182D01*
X55224Y-52143D01*
X55245Y-52091D01*
X55245Y-52035D01*
X55245Y-51685D01*
X55224Y-51634D01*
X55185Y-51595D01*
X55133Y-51573D01*
X55077Y-51573D01*
X55020Y-51573D01*
X55020Y-51082D01*
X55020Y-51082D01*
X55020Y-51082D01*
X55006Y-51009D01*
X54965Y-50948D01*
X54335Y-50318D01*
X54273Y-50277D01*
X54200Y-50262D01*
X51877Y-50262D01*
X51805Y-50277D01*
X51743Y-50318D01*
X51507Y-50554D01*
X51466Y-50616D01*
X51463Y-50629D01*
X51444Y-50610D01*
X51393Y-50589D01*
X51337Y-50589D01*
X51135Y-50589D01*
X51100Y-50624D01*
X51100Y-50894D01*
X51108Y-50894D01*
X51108Y-50914D01*
X51100Y-50914D01*
X51100Y-51184D01*
X51135Y-51219D01*
X51337Y-51219D01*
X51393Y-51219D01*
X51444Y-51198D01*
X51451Y-51191D01*
X51451Y-51367D01*
X51444Y-51360D01*
X51393Y-51339D01*
X51337Y-51339D01*
X51080Y-51339D01*
X51080Y-51184D01*
X51080Y-50914D01*
X51080Y-50894D01*
X51080Y-50624D01*
X51045Y-50589D01*
X50843Y-50589D01*
X50787Y-50589D01*
X50736Y-50610D01*
X50696Y-50650D01*
X50675Y-50701D01*
X50675Y-50859D01*
X50710Y-50894D01*
X51080Y-50894D01*
X51080Y-50914D01*
X50710Y-50914D01*
X50675Y-50949D01*
X50675Y-51107D01*
X50696Y-51158D01*
X50736Y-51198D01*
X50787Y-51219D01*
X50843Y-51219D01*
X51045Y-51219D01*
X51080Y-51184D01*
X51080Y-51339D01*
X50787Y-51339D01*
X50736Y-51360D01*
X50696Y-51400D01*
X50675Y-51451D01*
X50675Y-51507D01*
X50675Y-51857D01*
X50696Y-51908D01*
X50736Y-51948D01*
X50787Y-51969D01*
X50843Y-51969D01*
X50900Y-51969D01*
X50900Y-52164D01*
X50787Y-52164D01*
X50736Y-52185D01*
X50696Y-52225D01*
X50675Y-52276D01*
X50675Y-52332D01*
X50675Y-52410D01*
X50405Y-52680D01*
X50363Y-52742D01*
X50349Y-52814D01*
X50349Y-55413D01*
X50363Y-55486D01*
X50405Y-55547D01*
X51708Y-56850D01*
X51769Y-56892D01*
X51842Y-56906D01*
X52086Y-56906D01*
X52089Y-56912D01*
X52062Y-56953D01*
X52047Y-57025D01*
X52047Y-58571D01*
X51988Y-58596D01*
X51864Y-58719D01*
X51797Y-58881D01*
X51797Y-59056D01*
X51864Y-59218D01*
X51988Y-59342D01*
X52149Y-59409D01*
X52324Y-59409D01*
X52486Y-59342D01*
X52610Y-59218D01*
X52677Y-59057D01*
X52677Y-58882D01*
X52611Y-58720D01*
X52487Y-58596D01*
X52427Y-58571D01*
X52427Y-57104D01*
X52547Y-56984D01*
X52909Y-56984D01*
X52961Y-56963D01*
X53000Y-56923D01*
X53021Y-56872D01*
X53021Y-56816D01*
X53021Y-56560D01*
X53000Y-56509D01*
X52961Y-56469D01*
X52953Y-56466D01*
X52961Y-56463D01*
X53000Y-56423D01*
X53021Y-56372D01*
X53021Y-56261D01*
X53021Y-56171D01*
X53021Y-56060D01*
X53000Y-56009D01*
X52961Y-55969D01*
X52953Y-55966D01*
X52961Y-55963D01*
X53000Y-55923D01*
X53021Y-55872D01*
X53021Y-55761D01*
X53021Y-55671D01*
X53021Y-55560D01*
X53000Y-55509D01*
X52961Y-55469D01*
X52953Y-55466D01*
X52961Y-55463D01*
X53000Y-55423D01*
X53021Y-55372D01*
X53021Y-55316D01*
X53021Y-55060D01*
X53000Y-55009D01*
X52961Y-54969D01*
X52953Y-54966D01*
X52961Y-54963D01*
X53000Y-54923D01*
X53021Y-54872D01*
X53021Y-54761D01*
X53021Y-54671D01*
X53021Y-54560D01*
X53000Y-54509D01*
X52961Y-54469D01*
X52953Y-54466D01*
X52961Y-54463D01*
X53000Y-54423D01*
X53021Y-54372D01*
X53021Y-54261D01*
X52986Y-54226D01*
X52557Y-54226D01*
X52557Y-54449D01*
X52574Y-54466D01*
X52557Y-54483D01*
X52557Y-54706D01*
X52986Y-54706D01*
X53021Y-54671D01*
X53021Y-54761D01*
X52986Y-54726D01*
X52557Y-54726D01*
X52557Y-54734D01*
X52537Y-54734D01*
X52537Y-54726D01*
X52537Y-54706D01*
X52537Y-54483D01*
X52520Y-54466D01*
X52537Y-54449D01*
X52537Y-54226D01*
X52107Y-54226D01*
X52072Y-54261D01*
X52072Y-54372D01*
X52093Y-54423D01*
X52133Y-54463D01*
X52141Y-54466D01*
X52133Y-54469D01*
X52093Y-54509D01*
X52072Y-54560D01*
X52072Y-54671D01*
X52107Y-54706D01*
X52537Y-54706D01*
X52537Y-54726D01*
X52107Y-54726D01*
X52072Y-54761D01*
X52072Y-54872D01*
X52093Y-54923D01*
X52133Y-54963D01*
X52141Y-54966D01*
X52133Y-54969D01*
X52093Y-55009D01*
X52072Y-55060D01*
X52072Y-55116D01*
X52072Y-55372D01*
X52093Y-55423D01*
X52133Y-55463D01*
X52141Y-55466D01*
X52133Y-55469D01*
X52093Y-55509D01*
X52072Y-55560D01*
X52072Y-55671D01*
X52107Y-55706D01*
X52537Y-55706D01*
X52537Y-55698D01*
X52557Y-55698D01*
X52557Y-55706D01*
X52986Y-55706D01*
X53021Y-55671D01*
X53021Y-55761D01*
X52986Y-55726D01*
X52557Y-55726D01*
X52557Y-55949D01*
X52574Y-55966D01*
X52557Y-55983D01*
X52557Y-56206D01*
X52986Y-56206D01*
X53021Y-56171D01*
X53021Y-56261D01*
X52986Y-56226D01*
X52557Y-56226D01*
X52557Y-56234D01*
X52537Y-56234D01*
X52537Y-56226D01*
X52537Y-56206D01*
X52537Y-55983D01*
X52520Y-55966D01*
X52537Y-55949D01*
X52537Y-55726D01*
X52107Y-55726D01*
X52072Y-55761D01*
X52072Y-55872D01*
X52093Y-55923D01*
X52133Y-55963D01*
X52141Y-55966D01*
X52133Y-55969D01*
X52093Y-56009D01*
X52072Y-56060D01*
X52072Y-56171D01*
X52107Y-56206D01*
X52537Y-56206D01*
X52537Y-56226D01*
X52107Y-56226D01*
X52072Y-56261D01*
X52072Y-56372D01*
X52093Y-56423D01*
X52133Y-56463D01*
X52141Y-56466D01*
X52133Y-56469D01*
X52093Y-56509D01*
X52086Y-56526D01*
X51921Y-56526D01*
X50729Y-55334D01*
X50729Y-53516D01*
X50736Y-53523D01*
X50787Y-53544D01*
X50843Y-53544D01*
X51393Y-53544D01*
X51444Y-53523D01*
X51484Y-53483D01*
X51505Y-53432D01*
X51505Y-53419D01*
X51542Y-53419D01*
X51615Y-53404D01*
X51676Y-53363D01*
X52094Y-52945D01*
X52597Y-53448D01*
X52184Y-53448D01*
X52133Y-53469D01*
X52093Y-53509D01*
X52072Y-53560D01*
X52072Y-53616D01*
X52072Y-53872D01*
X52093Y-53923D01*
X52133Y-53963D01*
X52141Y-53966D01*
X52133Y-53969D01*
X52093Y-54009D01*
X52072Y-54060D01*
X52072Y-54171D01*
X52107Y-54206D01*
X52537Y-54206D01*
X52537Y-54198D01*
X52557Y-54198D01*
X52557Y-54206D01*
X52986Y-54206D01*
X53021Y-54171D01*
X53021Y-54060D01*
X53000Y-54009D01*
X52961Y-53969D01*
X52953Y-53966D01*
X52961Y-53963D01*
X53000Y-53923D01*
X53021Y-53872D01*
X53021Y-53816D01*
X53021Y-53560D01*
X53003Y-53516D01*
X53019Y-53516D01*
X53065Y-53562D01*
X53065Y-55334D01*
X53080Y-55407D01*
X53121Y-55468D01*
X54003Y-56350D01*
X54003Y-56350D01*
X54065Y-56392D01*
X54137Y-56406D01*
X54291Y-56406D01*
X54298Y-56423D01*
X54338Y-56463D01*
X54346Y-56466D01*
X54338Y-56469D01*
X54298Y-56509D01*
X54291Y-56526D01*
X53519Y-56526D01*
X53446Y-56540D01*
X53385Y-56582D01*
X53103Y-56864D01*
X53062Y-56925D01*
X53047Y-56998D01*
X53047Y-58571D01*
X52988Y-58596D01*
X52864Y-58719D01*
X52797Y-58881D01*
X52797Y-59056D01*
X52864Y-59218D01*
X52988Y-59342D01*
X53149Y-59409D01*
X53324Y-59409D01*
X53486Y-59342D01*
X53610Y-59218D01*
X53677Y-59057D01*
X53677Y-58882D01*
X53611Y-58720D01*
X53487Y-58596D01*
X53427Y-58571D01*
X53427Y-57077D01*
X53598Y-56906D01*
X54291Y-56906D01*
X54298Y-56923D01*
X54338Y-56963D01*
X54389Y-56984D01*
X54445Y-56984D01*
X55114Y-56984D01*
X55165Y-56963D01*
X55205Y-56923D01*
X55212Y-56906D01*
X55330Y-56906D01*
X55403Y-56892D01*
X55465Y-56850D01*
X55465Y-56850D01*
X55574Y-56850D01*
X55690Y-56802D01*
X55715Y-56777D01*
X55715Y-57559D01*
X55103Y-58171D01*
X55062Y-58232D01*
X55047Y-58305D01*
X55047Y-58571D01*
X54988Y-58596D01*
X54864Y-58719D01*
X54797Y-58881D01*
X54797Y-59056D01*
X54864Y-59218D01*
X54905Y-59258D01*
X54803Y-59258D01*
X54655Y-59111D01*
X54677Y-59057D01*
X54677Y-58882D01*
X54611Y-58720D01*
X54487Y-58596D01*
X54325Y-58529D01*
X54150Y-58529D01*
X53988Y-58596D01*
X53864Y-58719D01*
X53797Y-58881D01*
X53797Y-59056D01*
X53864Y-59218D01*
X53988Y-59342D01*
X54149Y-59409D01*
X54324Y-59409D01*
X54389Y-59382D01*
X54590Y-59583D01*
X54651Y-59624D01*
X54724Y-59638D01*
X56456Y-59638D01*
X56529Y-59624D01*
X56591Y-59583D01*
X56827Y-59346D01*
X56868Y-59285D01*
X56878Y-59232D01*
X56988Y-59342D01*
X57149Y-59409D01*
X57324Y-59409D01*
X57486Y-59342D01*
X57610Y-59218D01*
X57677Y-59057D01*
X57677Y-58882D01*
X57677Y-60117D01*
X51677Y-60117D01*
X51677Y-59297D01*
X51677Y-59241D01*
X51677Y-59014D01*
X51677Y-58924D01*
X51677Y-58697D01*
X51677Y-58641D01*
X51656Y-58589D01*
X51617Y-58550D01*
X51565Y-58529D01*
X51282Y-58529D01*
X51247Y-58564D01*
X51247Y-58959D01*
X51642Y-58959D01*
X51677Y-58924D01*
X51677Y-59014D01*
X51642Y-58979D01*
X51247Y-58979D01*
X51247Y-59374D01*
X51282Y-59409D01*
X51565Y-59409D01*
X51617Y-59387D01*
X51656Y-59348D01*
X51677Y-59297D01*
X51677Y-60117D01*
X51227Y-60117D01*
X51227Y-59374D01*
X51227Y-58979D01*
X51227Y-58959D01*
X51227Y-58564D01*
X51192Y-58529D01*
X50909Y-58529D01*
X50858Y-58550D01*
X50819Y-58589D01*
X50797Y-58641D01*
X50797Y-58697D01*
X50797Y-58924D01*
X50832Y-58959D01*
X51227Y-58959D01*
X51227Y-58979D01*
X50832Y-58979D01*
X50797Y-59014D01*
X50797Y-59241D01*
X50797Y-59297D01*
X50819Y-59348D01*
X50858Y-59387D01*
X50909Y-59409D01*
X51192Y-59409D01*
X51227Y-59374D01*
X51227Y-60117D01*
X50152Y-60117D01*
X50152Y-59017D01*
X50152Y-46767D01*
X50036Y-46486D01*
X49821Y-46271D01*
X49540Y-46154D01*
X49236Y-46154D01*
X48955Y-46270D01*
X48739Y-46485D01*
X48622Y-46766D01*
X48622Y-47070D01*
X48738Y-47352D01*
X48953Y-47567D01*
X49234Y-47684D01*
X49539Y-47684D01*
X49820Y-47568D01*
X50035Y-47353D01*
X50152Y-47072D01*
X50152Y-46767D01*
X50152Y-59017D01*
X50036Y-58736D01*
X49821Y-58521D01*
X49540Y-58404D01*
X49236Y-58404D01*
X48955Y-58520D01*
X48739Y-58735D01*
X48622Y-59016D01*
X48622Y-59320D01*
X48738Y-59602D01*
X48953Y-59817D01*
X49234Y-59934D01*
X49539Y-59934D01*
X49820Y-59818D01*
X50035Y-59603D01*
X50152Y-59322D01*
X50152Y-59017D01*
X50152Y-60117D01*
X48465Y-60117D01*
X48465Y-45866D01*
X58448Y-45866D01*
X58445Y-45874D01*
X58445Y-45930D01*
X58445Y-46428D01*
X58480Y-46463D01*
X58890Y-46463D01*
X58890Y-46455D01*
X58910Y-46455D01*
X58910Y-46463D01*
X59319Y-46463D01*
X59354Y-46428D01*
X59354Y-45930D01*
X59354Y-45874D01*
X59351Y-45866D01*
X66889Y-45866D01*
X66889Y-46734D01*
X66786Y-46486D01*
X66571Y-46271D01*
X66290Y-46154D01*
X65986Y-46154D01*
X65705Y-46270D01*
X65489Y-46485D01*
X65372Y-46766D01*
X65372Y-47070D01*
X65488Y-47352D01*
X65498Y-47361D01*
X65031Y-47361D01*
X64859Y-47189D01*
X64798Y-47148D01*
X64725Y-47133D01*
X64694Y-47133D01*
X64694Y-47120D01*
X64694Y-46776D01*
X64694Y-46720D01*
X64694Y-46370D01*
X64673Y-46319D01*
X64633Y-46280D01*
X64582Y-46258D01*
X64526Y-46258D01*
X63976Y-46258D01*
X63925Y-46280D01*
X63885Y-46319D01*
X63864Y-46370D01*
X63864Y-46383D01*
X63636Y-46383D01*
X63636Y-46119D01*
X63614Y-46068D01*
X63575Y-46028D01*
X63523Y-46007D01*
X63468Y-46007D01*
X62869Y-46007D01*
X62818Y-46028D01*
X62778Y-46068D01*
X62757Y-46119D01*
X62757Y-46158D01*
X62454Y-46158D01*
X62454Y-46119D01*
X62433Y-46068D01*
X62394Y-46028D01*
X62342Y-46007D01*
X62287Y-46007D01*
X61688Y-46007D01*
X61637Y-46028D01*
X61597Y-46068D01*
X61576Y-46119D01*
X61576Y-46175D01*
X61576Y-46577D01*
X61597Y-46628D01*
X61637Y-46667D01*
X61688Y-46689D01*
X61744Y-46689D01*
X62342Y-46689D01*
X62394Y-46667D01*
X62433Y-46628D01*
X62454Y-46577D01*
X62454Y-46538D01*
X62757Y-46538D01*
X62757Y-46577D01*
X62778Y-46628D01*
X62818Y-46667D01*
X62869Y-46689D01*
X62925Y-46689D01*
X63268Y-46689D01*
X63287Y-46708D01*
X63349Y-46749D01*
X63422Y-46763D01*
X63864Y-46763D01*
X63864Y-46776D01*
X63885Y-46828D01*
X63925Y-46867D01*
X63976Y-46888D01*
X64032Y-46888D01*
X64582Y-46888D01*
X64633Y-46867D01*
X64673Y-46828D01*
X64694Y-46776D01*
X64694Y-47120D01*
X64673Y-47069D01*
X64633Y-47030D01*
X64582Y-47008D01*
X64526Y-47008D01*
X63976Y-47008D01*
X63925Y-47030D01*
X63885Y-47069D01*
X63864Y-47120D01*
X63864Y-47176D01*
X63864Y-47352D01*
X63636Y-47349D01*
X63636Y-47320D01*
X63614Y-47269D01*
X63575Y-47229D01*
X63523Y-47208D01*
X63468Y-47208D01*
X62869Y-47208D01*
X62818Y-47229D01*
X62778Y-47269D01*
X62757Y-47320D01*
X62757Y-47339D01*
X62454Y-47336D01*
X62454Y-47320D01*
X62433Y-47269D01*
X62394Y-47229D01*
X62342Y-47208D01*
X62287Y-47208D01*
X61688Y-47208D01*
X61637Y-47229D01*
X61597Y-47269D01*
X61576Y-47320D01*
X61576Y-47326D01*
X60994Y-47320D01*
X61031Y-47282D01*
X61052Y-47231D01*
X61052Y-47175D01*
X61052Y-46825D01*
X61052Y-46481D01*
X61052Y-46323D01*
X61052Y-46233D01*
X61052Y-46075D01*
X61031Y-46024D01*
X60992Y-45984D01*
X60940Y-45963D01*
X60884Y-45963D01*
X60682Y-45963D01*
X60647Y-45998D01*
X60647Y-46268D01*
X61017Y-46268D01*
X61052Y-46233D01*
X61052Y-46323D01*
X61017Y-46288D01*
X60647Y-46288D01*
X60647Y-46558D01*
X60682Y-46593D01*
X60884Y-46593D01*
X60940Y-46593D01*
X60992Y-46572D01*
X61031Y-46532D01*
X61052Y-46481D01*
X61052Y-46825D01*
X61031Y-46774D01*
X60992Y-46734D01*
X60940Y-46713D01*
X60884Y-46713D01*
X60627Y-46713D01*
X60627Y-46558D01*
X60627Y-46288D01*
X60627Y-46268D01*
X60627Y-45998D01*
X60592Y-45963D01*
X60390Y-45963D01*
X60334Y-45963D01*
X60283Y-45984D01*
X60244Y-46024D01*
X60222Y-46075D01*
X60222Y-46233D01*
X60257Y-46268D01*
X60627Y-46268D01*
X60627Y-46288D01*
X60257Y-46288D01*
X60222Y-46323D01*
X60222Y-46481D01*
X60244Y-46532D01*
X60283Y-46572D01*
X60334Y-46593D01*
X60390Y-46593D01*
X60592Y-46593D01*
X60627Y-46558D01*
X60627Y-46713D01*
X60334Y-46713D01*
X60283Y-46734D01*
X60244Y-46774D01*
X60222Y-46825D01*
X60222Y-46881D01*
X60222Y-47231D01*
X60244Y-47282D01*
X60273Y-47312D01*
X59354Y-47301D01*
X59354Y-47071D01*
X59354Y-47016D01*
X59354Y-46518D01*
X59319Y-46483D01*
X58910Y-46483D01*
X58910Y-47149D01*
X58945Y-47184D01*
X59242Y-47184D01*
X59294Y-47162D01*
X59333Y-47123D01*
X59354Y-47071D01*
X59354Y-47301D01*
X58890Y-47296D01*
X58890Y-47149D01*
X58890Y-46483D01*
X58480Y-46483D01*
X58445Y-46518D01*
X58445Y-47016D01*
X58445Y-47071D01*
X58466Y-47123D01*
X58505Y-47162D01*
X58557Y-47184D01*
X58855Y-47184D01*
X58890Y-47149D01*
X58890Y-47296D01*
X57597Y-47282D01*
X57597Y-48905D01*
X57041Y-48905D01*
X57041Y-47777D01*
X57041Y-47722D01*
X57041Y-47320D01*
X57041Y-46577D01*
X57041Y-46393D01*
X57041Y-46303D01*
X57041Y-46119D01*
X57020Y-46068D01*
X56980Y-46028D01*
X56929Y-46007D01*
X56873Y-46007D01*
X56647Y-46007D01*
X56612Y-46042D01*
X56612Y-46338D01*
X57006Y-46338D01*
X57041Y-46303D01*
X57041Y-46393D01*
X57006Y-46358D01*
X56612Y-46358D01*
X56612Y-46654D01*
X56647Y-46689D01*
X56873Y-46689D01*
X56929Y-46689D01*
X56980Y-46667D01*
X57020Y-46628D01*
X57041Y-46577D01*
X57041Y-47320D01*
X57020Y-47269D01*
X56980Y-47229D01*
X56929Y-47208D01*
X56873Y-47208D01*
X56592Y-47208D01*
X56592Y-46654D01*
X56592Y-46358D01*
X56592Y-46338D01*
X56592Y-46042D01*
X56557Y-46007D01*
X56330Y-46007D01*
X56275Y-46007D01*
X56223Y-46028D01*
X56184Y-46068D01*
X56163Y-46119D01*
X56163Y-46303D01*
X56198Y-46338D01*
X56592Y-46338D01*
X56592Y-46358D01*
X56198Y-46358D01*
X56163Y-46393D01*
X56163Y-46577D01*
X56184Y-46628D01*
X56223Y-46667D01*
X56275Y-46689D01*
X56330Y-46689D01*
X56557Y-46689D01*
X56592Y-46654D01*
X56592Y-47208D01*
X56275Y-47208D01*
X56223Y-47229D01*
X56184Y-47269D01*
X56163Y-47320D01*
X56163Y-47376D01*
X56163Y-47777D01*
X56184Y-47829D01*
X56223Y-47868D01*
X56275Y-47890D01*
X56330Y-47890D01*
X56412Y-47890D01*
X56412Y-48030D01*
X56299Y-48030D01*
X56248Y-48051D01*
X56208Y-48091D01*
X56187Y-48142D01*
X56187Y-48198D01*
X56187Y-48548D01*
X56208Y-48599D01*
X56248Y-48639D01*
X56299Y-48660D01*
X56355Y-48660D01*
X56905Y-48660D01*
X56956Y-48639D01*
X56996Y-48599D01*
X57017Y-48548D01*
X57017Y-48492D01*
X57017Y-48142D01*
X56996Y-48091D01*
X56956Y-48051D01*
X56905Y-48030D01*
X56849Y-48030D01*
X56792Y-48030D01*
X56792Y-47890D01*
X56929Y-47890D01*
X56980Y-47868D01*
X57020Y-47829D01*
X57041Y-47777D01*
X57041Y-48905D01*
X57017Y-48905D01*
X57017Y-48892D01*
X56996Y-48841D01*
X56956Y-48801D01*
X56905Y-48780D01*
X56849Y-48780D01*
X56299Y-48780D01*
X56248Y-48801D01*
X56208Y-48841D01*
X56187Y-48892D01*
X56187Y-48948D01*
X56187Y-49298D01*
X56208Y-49349D01*
X56248Y-49389D01*
X56299Y-49410D01*
X56355Y-49410D01*
X56905Y-49410D01*
X56956Y-49389D01*
X56996Y-49349D01*
X57017Y-49298D01*
X57017Y-49285D01*
X57597Y-49285D01*
X57597Y-52129D01*
X57561Y-52165D01*
X57540Y-52216D01*
X57540Y-52272D01*
X57540Y-52822D01*
X57561Y-52873D01*
X57597Y-52910D01*
X57597Y-52995D01*
X57561Y-53031D01*
X57540Y-53082D01*
X57540Y-53138D01*
X57540Y-53688D01*
X57561Y-53740D01*
X57597Y-53776D01*
X57597Y-55788D01*
X59742Y-55788D01*
X59742Y-56127D01*
X59763Y-56178D01*
X59803Y-56217D01*
X59854Y-56239D01*
X59910Y-56239D01*
X60460Y-56239D01*
X60511Y-56217D01*
X60551Y-56178D01*
X60572Y-56127D01*
X60572Y-56071D01*
X60572Y-55788D01*
X66889Y-55788D01*
X66889Y-56443D01*
X66811Y-56240D01*
X66781Y-56194D01*
X66659Y-56104D01*
X66645Y-56118D01*
X66645Y-56090D01*
X66555Y-55968D01*
X66214Y-55815D01*
X65840Y-55805D01*
X65490Y-55938D01*
X65444Y-55968D01*
X65354Y-56090D01*
X66000Y-56735D01*
X66645Y-56090D01*
X66645Y-56118D01*
X66014Y-56750D01*
X66659Y-57395D01*
X66781Y-57305D01*
X66889Y-57064D01*
X66889Y-58984D01*
X66786Y-58736D01*
X66645Y-58595D01*
X66645Y-57409D01*
X66000Y-56764D01*
X65985Y-56778D01*
X65985Y-56750D01*
X65340Y-56104D01*
X65218Y-56194D01*
X65065Y-56535D01*
X65055Y-56909D01*
X65188Y-57259D01*
X65218Y-57305D01*
X65340Y-57395D01*
X65985Y-56750D01*
X65985Y-56778D01*
X65354Y-57409D01*
X65444Y-57531D01*
X65785Y-57684D01*
X66159Y-57695D01*
X66509Y-57561D01*
X66555Y-57531D01*
X66645Y-57409D01*
X66645Y-58595D01*
X66571Y-58521D01*
X66290Y-58404D01*
X65986Y-58404D01*
X65705Y-58520D01*
X65489Y-58735D01*
X65372Y-59016D01*
X65372Y-59320D01*
X65488Y-59602D01*
X65703Y-59817D01*
X65984Y-59934D01*
X66289Y-59934D01*
X66570Y-59818D01*
X66785Y-59603D01*
X66889Y-59354D01*
X66889Y-60117D01*
X66889Y-60117D01*
G37*
G54D27*
X66889Y-60117D02*
X64679Y-60117D01*
X64679Y-58889D01*
X64614Y-58726D01*
X64606Y-58713D01*
X64537Y-58683D01*
X64523Y-58698D01*
X64523Y-58669D01*
X64493Y-58600D01*
X64332Y-58530D01*
X64157Y-58527D01*
X63994Y-58592D01*
X63982Y-58600D01*
X63952Y-58669D01*
X64237Y-58955D01*
X64523Y-58669D01*
X64523Y-58698D01*
X64251Y-58969D01*
X64537Y-59254D01*
X64606Y-59224D01*
X64676Y-59064D01*
X64679Y-58889D01*
X64679Y-60117D01*
X64523Y-60117D01*
X64523Y-59268D01*
X64237Y-58983D01*
X64223Y-58997D01*
X64223Y-58969D01*
X63938Y-58683D01*
X63869Y-58713D01*
X63799Y-58874D01*
X63796Y-59049D01*
X63860Y-59212D01*
X63869Y-59224D01*
X63938Y-59254D01*
X64223Y-58969D01*
X64223Y-58997D01*
X63952Y-59268D01*
X63982Y-59338D01*
X64142Y-59407D01*
X64317Y-59410D01*
X64480Y-59346D01*
X64493Y-59338D01*
X64523Y-59268D01*
X64523Y-60117D01*
X63677Y-60117D01*
X63677Y-58882D01*
X63611Y-58720D01*
X63487Y-58596D01*
X63427Y-58571D01*
X63427Y-58327D01*
X63413Y-58254D01*
X63372Y-58193D01*
X63001Y-57821D01*
X63001Y-57472D01*
X62979Y-57421D01*
X62940Y-57381D01*
X62888Y-57360D01*
X62876Y-57360D01*
X62876Y-57304D01*
X62888Y-57304D01*
X62940Y-57283D01*
X62979Y-57244D01*
X63001Y-57192D01*
X63001Y-57136D01*
X63001Y-56586D01*
X62979Y-56535D01*
X62940Y-56496D01*
X62888Y-56474D01*
X62833Y-56474D01*
X62483Y-56474D01*
X62431Y-56496D01*
X62392Y-56535D01*
X62371Y-56586D01*
X62371Y-56642D01*
X62371Y-57192D01*
X62392Y-57244D01*
X62431Y-57283D01*
X62483Y-57304D01*
X62496Y-57304D01*
X62496Y-57360D01*
X62483Y-57360D01*
X62431Y-57381D01*
X62392Y-57421D01*
X62371Y-57472D01*
X62371Y-57528D01*
X62371Y-58078D01*
X62392Y-58129D01*
X62431Y-58169D01*
X62483Y-58190D01*
X62538Y-58190D01*
X62832Y-58190D01*
X63047Y-58406D01*
X63047Y-58571D01*
X62988Y-58596D01*
X62864Y-58719D01*
X62797Y-58881D01*
X62797Y-59056D01*
X62864Y-59218D01*
X62988Y-59342D01*
X63149Y-59409D01*
X63324Y-59409D01*
X63486Y-59342D01*
X63610Y-59218D01*
X63677Y-59057D01*
X63677Y-58882D01*
X63677Y-60117D01*
X62677Y-60117D01*
X62677Y-58882D01*
X62611Y-58720D01*
X62487Y-58596D01*
X62325Y-58529D01*
X62251Y-58529D01*
X62251Y-58078D01*
X62251Y-58022D01*
X62251Y-57472D01*
X62251Y-57192D01*
X62251Y-57136D01*
X62251Y-56934D01*
X62251Y-56844D01*
X62251Y-56642D01*
X62251Y-56586D01*
X62229Y-56535D01*
X62190Y-56496D01*
X62138Y-56474D01*
X61981Y-56474D01*
X61946Y-56509D01*
X61946Y-56879D01*
X62216Y-56879D01*
X62251Y-56844D01*
X62251Y-56934D01*
X62216Y-56899D01*
X61946Y-56899D01*
X61946Y-57269D01*
X61981Y-57304D01*
X62138Y-57304D01*
X62190Y-57283D01*
X62229Y-57244D01*
X62251Y-57192D01*
X62251Y-57472D01*
X62229Y-57421D01*
X62190Y-57381D01*
X62138Y-57360D01*
X62083Y-57360D01*
X61926Y-57360D01*
X61926Y-57269D01*
X61926Y-56899D01*
X61926Y-56879D01*
X61926Y-56509D01*
X61891Y-56474D01*
X61733Y-56474D01*
X61681Y-56496D01*
X61642Y-56535D01*
X61621Y-56586D01*
X61621Y-56642D01*
X61621Y-56844D01*
X61656Y-56879D01*
X61926Y-56879D01*
X61926Y-56899D01*
X61656Y-56899D01*
X61621Y-56934D01*
X61621Y-57136D01*
X61621Y-57192D01*
X61642Y-57244D01*
X61681Y-57283D01*
X61733Y-57304D01*
X61891Y-57304D01*
X61926Y-57269D01*
X61926Y-57360D01*
X61733Y-57360D01*
X61681Y-57381D01*
X61642Y-57421D01*
X61621Y-57472D01*
X61621Y-57528D01*
X61621Y-57585D01*
X61544Y-57585D01*
X61544Y-57455D01*
X61544Y-57111D01*
X61544Y-56953D01*
X61544Y-56863D01*
X61544Y-56705D01*
X61523Y-56654D01*
X61484Y-56614D01*
X61432Y-56593D01*
X61377Y-56593D01*
X61174Y-56593D01*
X61139Y-56628D01*
X61139Y-56898D01*
X61509Y-56898D01*
X61544Y-56863D01*
X61544Y-56953D01*
X61509Y-56918D01*
X61139Y-56918D01*
X61139Y-57188D01*
X61174Y-57223D01*
X61377Y-57223D01*
X61432Y-57223D01*
X61484Y-57202D01*
X61523Y-57162D01*
X61544Y-57111D01*
X61544Y-57455D01*
X61523Y-57404D01*
X61484Y-57364D01*
X61432Y-57343D01*
X61377Y-57343D01*
X61119Y-57343D01*
X61119Y-57188D01*
X61119Y-56918D01*
X61119Y-56898D01*
X61119Y-56628D01*
X61084Y-56593D01*
X60882Y-56593D01*
X60827Y-56593D01*
X60775Y-56614D01*
X60736Y-56654D01*
X60714Y-56705D01*
X60714Y-56863D01*
X60749Y-56898D01*
X61119Y-56898D01*
X61119Y-56918D01*
X60749Y-56918D01*
X60714Y-56953D01*
X60714Y-57111D01*
X60736Y-57162D01*
X60775Y-57202D01*
X60827Y-57223D01*
X60882Y-57223D01*
X61084Y-57223D01*
X61119Y-57188D01*
X61119Y-57343D01*
X60827Y-57343D01*
X60775Y-57364D01*
X60736Y-57404D01*
X60714Y-57455D01*
X60714Y-57468D01*
X60572Y-57468D01*
X60572Y-56877D01*
X60572Y-56719D01*
X60572Y-56629D01*
X60572Y-56471D01*
X60551Y-56419D01*
X60511Y-56380D01*
X60460Y-56359D01*
X60404Y-56359D01*
X60202Y-56359D01*
X60167Y-56394D01*
X60167Y-56664D01*
X60537Y-56664D01*
X60572Y-56629D01*
X60572Y-56719D01*
X60537Y-56684D01*
X60167Y-56684D01*
X60167Y-56954D01*
X60202Y-56989D01*
X60404Y-56989D01*
X60460Y-56989D01*
X60511Y-56967D01*
X60551Y-56928D01*
X60572Y-56877D01*
X60572Y-57468D01*
X60147Y-57468D01*
X60147Y-56954D01*
X60147Y-56684D01*
X60147Y-56664D01*
X60147Y-56394D01*
X60112Y-56359D01*
X59910Y-56359D01*
X59854Y-56359D01*
X59803Y-56380D01*
X59763Y-56419D01*
X59742Y-56471D01*
X59742Y-56629D01*
X59777Y-56664D01*
X60147Y-56664D01*
X60147Y-56684D01*
X59777Y-56684D01*
X59742Y-56719D01*
X59742Y-56877D01*
X59763Y-56928D01*
X59803Y-56967D01*
X59854Y-56989D01*
X59910Y-56989D01*
X60112Y-56989D01*
X60147Y-56954D01*
X60147Y-57468D01*
X60034Y-57468D01*
X60030Y-57459D01*
X59942Y-57370D01*
X59826Y-57322D01*
X59701Y-57322D01*
X59585Y-57370D01*
X59496Y-57459D01*
X59448Y-57574D01*
X59448Y-57700D01*
X59496Y-57815D01*
X59585Y-57904D01*
X59700Y-57952D01*
X59826Y-57952D01*
X59941Y-57904D01*
X59998Y-57848D01*
X60714Y-57848D01*
X60714Y-57861D01*
X60736Y-57912D01*
X60775Y-57952D01*
X60827Y-57973D01*
X60882Y-57973D01*
X61432Y-57973D01*
X61451Y-57965D01*
X61621Y-57965D01*
X61621Y-58078D01*
X61642Y-58129D01*
X61681Y-58169D01*
X61733Y-58190D01*
X61788Y-58190D01*
X62138Y-58190D01*
X62190Y-58169D01*
X62229Y-58129D01*
X62251Y-58078D01*
X62251Y-58529D01*
X62150Y-58529D01*
X61988Y-58596D01*
X61864Y-58719D01*
X61797Y-58881D01*
X61797Y-59056D01*
X61864Y-59218D01*
X61988Y-59342D01*
X62149Y-59409D01*
X62324Y-59409D01*
X62486Y-59342D01*
X62610Y-59218D01*
X62677Y-59057D01*
X62677Y-58882D01*
X62677Y-60117D01*
X61677Y-60117D01*
X61677Y-58882D01*
X61611Y-58720D01*
X61487Y-58596D01*
X61325Y-58529D01*
X61150Y-58529D01*
X60988Y-58596D01*
X60864Y-58719D01*
X60797Y-58881D01*
X60797Y-59056D01*
X60864Y-59218D01*
X60988Y-59342D01*
X61149Y-59409D01*
X61324Y-59409D01*
X61486Y-59342D01*
X61610Y-59218D01*
X61677Y-59057D01*
X61677Y-58882D01*
X61677Y-60117D01*
X60677Y-60117D01*
X60677Y-58882D01*
X60611Y-58720D01*
X60487Y-58596D01*
X60325Y-58529D01*
X60150Y-58529D01*
X59988Y-58596D01*
X59864Y-58719D01*
X59797Y-58881D01*
X59797Y-59056D01*
X59864Y-59218D01*
X59988Y-59342D01*
X60149Y-59409D01*
X60324Y-59409D01*
X60486Y-59342D01*
X60610Y-59218D01*
X60677Y-59057D01*
X60677Y-58882D01*
X60677Y-60117D01*
X59677Y-60117D01*
X59677Y-58882D01*
X59611Y-58720D01*
X59487Y-58596D01*
X59325Y-58529D01*
X59150Y-58529D01*
X58988Y-58596D01*
X58864Y-58719D01*
X58797Y-58881D01*
X58797Y-59056D01*
X58864Y-59218D01*
X58988Y-59342D01*
X59149Y-59409D01*
X59324Y-59409D01*
X59486Y-59342D01*
X59610Y-59218D01*
X59677Y-59057D01*
X59677Y-58882D01*
X59677Y-60117D01*
X58677Y-60117D01*
X58677Y-58882D01*
X58611Y-58720D01*
X58487Y-58596D01*
X58325Y-58529D01*
X58150Y-58529D01*
X57988Y-58596D01*
X57864Y-58719D01*
X57797Y-58881D01*
X57797Y-59056D01*
X57864Y-59218D01*
X57988Y-59342D01*
X58149Y-59409D01*
X58324Y-59409D01*
X58486Y-59342D01*
X58610Y-59218D01*
X58677Y-59057D01*
X58677Y-58882D01*
X58677Y-60117D01*
X57677Y-60117D01*
X57677Y-58882D01*
X57611Y-58720D01*
X57487Y-58596D01*
X57420Y-58568D01*
X57420Y-53688D01*
X57420Y-53632D01*
X57420Y-53430D01*
X57420Y-53340D01*
X57420Y-53138D01*
X57420Y-53082D01*
X57420Y-52822D01*
X57420Y-52766D01*
X57420Y-52564D01*
X57420Y-52474D01*
X57420Y-52272D01*
X57420Y-52216D01*
X57399Y-52165D01*
X57359Y-52125D01*
X57308Y-52104D01*
X57150Y-52104D01*
X57115Y-52139D01*
X57115Y-52509D01*
X57385Y-52509D01*
X57420Y-52474D01*
X57420Y-52564D01*
X57385Y-52529D01*
X57115Y-52529D01*
X57115Y-52899D01*
X57150Y-52934D01*
X57308Y-52934D01*
X57359Y-52913D01*
X57399Y-52873D01*
X57420Y-52822D01*
X57420Y-53082D01*
X57399Y-53031D01*
X57359Y-52992D01*
X57308Y-52970D01*
X57150Y-52970D01*
X57115Y-53005D01*
X57115Y-53375D01*
X57385Y-53375D01*
X57420Y-53340D01*
X57420Y-53430D01*
X57385Y-53395D01*
X57115Y-53395D01*
X57115Y-53765D01*
X57150Y-53800D01*
X57308Y-53800D01*
X57359Y-53779D01*
X57399Y-53740D01*
X57420Y-53688D01*
X57420Y-58568D01*
X57325Y-58529D01*
X57150Y-58529D01*
X56988Y-58596D01*
X56882Y-58701D01*
X56882Y-55039D01*
X56868Y-54966D01*
X56827Y-54905D01*
X56827Y-54905D01*
X56026Y-54104D01*
X56093Y-54036D01*
X56141Y-53921D01*
X56141Y-53795D01*
X56093Y-53680D01*
X56016Y-53602D01*
X56016Y-53070D01*
X56125Y-53070D01*
X56241Y-53023D01*
X56329Y-52934D01*
X56345Y-52897D01*
X56345Y-53287D01*
X56268Y-53364D01*
X56220Y-53480D01*
X56220Y-53605D01*
X56268Y-53721D01*
X56356Y-53810D01*
X56472Y-53858D01*
X56597Y-53858D01*
X56713Y-53810D01*
X56802Y-53721D01*
X56803Y-53719D01*
X56811Y-53740D01*
X56851Y-53779D01*
X56902Y-53800D01*
X57060Y-53800D01*
X57095Y-53765D01*
X57095Y-53395D01*
X57087Y-53395D01*
X57087Y-53375D01*
X57095Y-53375D01*
X57095Y-53005D01*
X57060Y-52970D01*
X56902Y-52970D01*
X56851Y-52992D01*
X56811Y-53031D01*
X56790Y-53082D01*
X56790Y-53138D01*
X56790Y-53340D01*
X56825Y-53375D01*
X56807Y-53375D01*
X56802Y-53365D01*
X56725Y-53287D01*
X56725Y-52853D01*
X56790Y-52789D01*
X56790Y-52822D01*
X56811Y-52873D01*
X56851Y-52913D01*
X56902Y-52934D01*
X57060Y-52934D01*
X57095Y-52899D01*
X57095Y-52529D01*
X57087Y-52529D01*
X57087Y-52509D01*
X57095Y-52509D01*
X57095Y-52139D01*
X57060Y-52104D01*
X56902Y-52104D01*
X56851Y-52125D01*
X56811Y-52165D01*
X56790Y-52216D01*
X56790Y-52272D01*
X56790Y-52407D01*
X56714Y-52331D01*
X56598Y-52283D01*
X56473Y-52283D01*
X56357Y-52331D01*
X56268Y-52419D01*
X56240Y-52488D01*
X56125Y-52440D01*
X56000Y-52440D01*
X55884Y-52488D01*
X55796Y-52577D01*
X55748Y-52692D01*
X55747Y-52802D01*
X55692Y-52857D01*
X55651Y-52919D01*
X55636Y-52992D01*
X55636Y-53602D01*
X55623Y-53616D01*
X55623Y-52519D01*
X56141Y-52001D01*
X56437Y-52001D01*
X56514Y-52077D01*
X56629Y-52125D01*
X56755Y-52126D01*
X56871Y-52078D01*
X56959Y-51989D01*
X57007Y-51873D01*
X57007Y-51748D01*
X56960Y-51632D01*
X56871Y-51544D01*
X56755Y-51496D01*
X56630Y-51495D01*
X56514Y-51543D01*
X56437Y-51621D01*
X56062Y-51621D01*
X56062Y-51621D01*
X55990Y-51635D01*
X55928Y-51676D01*
X55298Y-52306D01*
X55257Y-52368D01*
X55244Y-52433D01*
X55224Y-52384D01*
X55185Y-52345D01*
X55133Y-52323D01*
X55077Y-52323D01*
X54527Y-52323D01*
X54476Y-52345D01*
X54437Y-52384D01*
X54415Y-52435D01*
X54415Y-52491D01*
X54415Y-52841D01*
X54437Y-52893D01*
X54476Y-52932D01*
X54527Y-52953D01*
X54583Y-52953D01*
X54632Y-52953D01*
X54615Y-52970D01*
X54566Y-53086D01*
X54566Y-53211D01*
X54614Y-53327D01*
X54703Y-53416D01*
X54792Y-53453D01*
X54761Y-53483D01*
X54761Y-53706D01*
X55191Y-53706D01*
X55226Y-53671D01*
X55226Y-53560D01*
X55205Y-53509D01*
X55165Y-53469D01*
X55114Y-53448D01*
X55058Y-53448D01*
X54983Y-53448D01*
X55060Y-53416D01*
X55148Y-53328D01*
X55196Y-53212D01*
X55196Y-53087D01*
X55149Y-52971D01*
X55131Y-52953D01*
X55133Y-52953D01*
X55185Y-52932D01*
X55224Y-52893D01*
X55243Y-52847D01*
X55243Y-53937D01*
X55188Y-53992D01*
X55165Y-53969D01*
X55157Y-53966D01*
X55165Y-53963D01*
X55205Y-53923D01*
X55226Y-53872D01*
X55226Y-53761D01*
X55191Y-53726D01*
X54761Y-53726D01*
X54761Y-53734D01*
X54741Y-53734D01*
X54741Y-53726D01*
X54741Y-53706D01*
X54741Y-53483D01*
X54706Y-53448D01*
X54445Y-53448D01*
X54389Y-53448D01*
X54338Y-53469D01*
X54298Y-53509D01*
X54277Y-53560D01*
X54277Y-53671D01*
X54312Y-53706D01*
X54741Y-53706D01*
X54741Y-53726D01*
X54312Y-53726D01*
X54277Y-53761D01*
X54277Y-53872D01*
X54298Y-53923D01*
X54338Y-53963D01*
X54346Y-53966D01*
X54338Y-53969D01*
X54298Y-54009D01*
X54277Y-54060D01*
X54277Y-54116D01*
X54277Y-54372D01*
X54298Y-54423D01*
X54338Y-54463D01*
X54346Y-54466D01*
X54338Y-54469D01*
X54298Y-54509D01*
X54291Y-54526D01*
X54094Y-54526D01*
X53918Y-54350D01*
X53918Y-52953D01*
X54247Y-52953D01*
X54299Y-52932D01*
X54338Y-52893D01*
X54359Y-52841D01*
X54359Y-52785D01*
X54359Y-52435D01*
X54359Y-52091D01*
X54359Y-51933D01*
X54359Y-51843D01*
X54359Y-51685D01*
X54338Y-51634D01*
X54299Y-51595D01*
X54247Y-51573D01*
X54192Y-51573D01*
X53989Y-51573D01*
X53954Y-51608D01*
X53954Y-51878D01*
X54324Y-51878D01*
X54359Y-51843D01*
X54359Y-51933D01*
X54324Y-51898D01*
X53954Y-51898D01*
X53954Y-52168D01*
X53989Y-52203D01*
X54192Y-52203D01*
X54247Y-52203D01*
X54299Y-52182D01*
X54338Y-52143D01*
X54359Y-52091D01*
X54359Y-52435D01*
X54338Y-52384D01*
X54299Y-52345D01*
X54247Y-52323D01*
X54192Y-52323D01*
X53934Y-52323D01*
X53934Y-52168D01*
X53934Y-51898D01*
X53934Y-51878D01*
X53934Y-51608D01*
X53899Y-51573D01*
X53697Y-51573D01*
X53642Y-51573D01*
X53590Y-51595D01*
X53551Y-51634D01*
X53529Y-51685D01*
X53529Y-51843D01*
X53564Y-51878D01*
X53934Y-51878D01*
X53934Y-51898D01*
X53564Y-51898D01*
X53529Y-51933D01*
X53529Y-52091D01*
X53551Y-52143D01*
X53590Y-52182D01*
X53642Y-52203D01*
X53697Y-52203D01*
X53899Y-52203D01*
X53934Y-52168D01*
X53934Y-52323D01*
X53642Y-52323D01*
X53590Y-52345D01*
X53551Y-52384D01*
X53529Y-52435D01*
X53529Y-52448D01*
X53336Y-52448D01*
X53336Y-52074D01*
X53336Y-51933D01*
X53336Y-51843D01*
X53336Y-51703D01*
X53315Y-51651D01*
X53276Y-51612D01*
X53256Y-51604D01*
X53256Y-51287D01*
X53256Y-51231D01*
X53256Y-51029D01*
X53221Y-50994D01*
X52951Y-50994D01*
X52951Y-51364D01*
X52986Y-51399D01*
X53144Y-51399D01*
X53196Y-51377D01*
X53235Y-51338D01*
X53256Y-51287D01*
X53256Y-51604D01*
X53224Y-51591D01*
X53169Y-51591D01*
X53044Y-51591D01*
X53009Y-51626D01*
X53009Y-51878D01*
X53301Y-51878D01*
X53336Y-51843D01*
X53336Y-51933D01*
X53301Y-51898D01*
X53009Y-51898D01*
X53009Y-52151D01*
X53044Y-52186D01*
X53169Y-52186D01*
X53224Y-52186D01*
X53276Y-52164D01*
X53315Y-52125D01*
X53336Y-52074D01*
X53336Y-52448D01*
X53335Y-52448D01*
X53315Y-52401D01*
X53276Y-52362D01*
X53224Y-52341D01*
X53169Y-52341D01*
X52775Y-52341D01*
X52737Y-52356D01*
X52737Y-52170D01*
X52775Y-52186D01*
X52830Y-52186D01*
X52954Y-52186D01*
X52989Y-52151D01*
X52989Y-51898D01*
X52982Y-51898D01*
X52982Y-51878D01*
X52989Y-51878D01*
X52989Y-51626D01*
X52954Y-51591D01*
X52931Y-51591D01*
X52931Y-51364D01*
X52931Y-50994D01*
X52661Y-50994D01*
X52626Y-51029D01*
X52626Y-51231D01*
X52626Y-51287D01*
X52648Y-51338D01*
X52687Y-51377D01*
X52739Y-51399D01*
X52896Y-51399D01*
X52931Y-51364D01*
X52931Y-51591D01*
X52830Y-51591D01*
X52775Y-51591D01*
X52723Y-51612D01*
X52684Y-51651D01*
X52681Y-51657D01*
X52681Y-51656D01*
X52415Y-51390D01*
X52446Y-51377D01*
X52485Y-51338D01*
X52506Y-51287D01*
X52506Y-51231D01*
X52506Y-50681D01*
X52490Y-50642D01*
X52642Y-50642D01*
X52626Y-50681D01*
X52626Y-50737D01*
X52626Y-50939D01*
X52661Y-50974D01*
X52931Y-50974D01*
X52931Y-50966D01*
X52951Y-50966D01*
X52951Y-50974D01*
X53221Y-50974D01*
X53256Y-50939D01*
X53256Y-50737D01*
X53256Y-50681D01*
X53240Y-50642D01*
X54122Y-50642D01*
X54640Y-51161D01*
X54640Y-51573D01*
X54527Y-51573D01*
X54476Y-51595D01*
X54437Y-51634D01*
X54415Y-51685D01*
X54415Y-51741D01*
X54415Y-52091D01*
X54437Y-52143D01*
X54476Y-52182D01*
X54527Y-52203D01*
X54583Y-52203D01*
X55133Y-52203D01*
X55185Y-52182D01*
X55224Y-52143D01*
X55245Y-52091D01*
X55245Y-52035D01*
X55245Y-51685D01*
X55224Y-51634D01*
X55185Y-51595D01*
X55133Y-51573D01*
X55077Y-51573D01*
X55020Y-51573D01*
X55020Y-51082D01*
X55020Y-51082D01*
X55020Y-51082D01*
X55006Y-51009D01*
X54965Y-50948D01*
X54335Y-50318D01*
X54273Y-50277D01*
X54200Y-50262D01*
X51877Y-50262D01*
X51805Y-50277D01*
X51743Y-50318D01*
X51507Y-50554D01*
X51466Y-50616D01*
X51463Y-50629D01*
X51444Y-50610D01*
X51393Y-50589D01*
X51337Y-50589D01*
X51135Y-50589D01*
X51100Y-50624D01*
X51100Y-50894D01*
X51108Y-50894D01*
X51108Y-50914D01*
X51100Y-50914D01*
X51100Y-51184D01*
X51135Y-51219D01*
X51337Y-51219D01*
X51393Y-51219D01*
X51444Y-51198D01*
X51451Y-51191D01*
X51451Y-51367D01*
X51444Y-51360D01*
X51393Y-51339D01*
X51337Y-51339D01*
X51080Y-51339D01*
X51080Y-51184D01*
X51080Y-50914D01*
X51080Y-50894D01*
X51080Y-50624D01*
X51045Y-50589D01*
X50843Y-50589D01*
X50787Y-50589D01*
X50736Y-50610D01*
X50696Y-50650D01*
X50675Y-50701D01*
X50675Y-50859D01*
X50710Y-50894D01*
X51080Y-50894D01*
X51080Y-50914D01*
X50710Y-50914D01*
X50675Y-50949D01*
X50675Y-51107D01*
X50696Y-51158D01*
X50736Y-51198D01*
X50787Y-51219D01*
X50843Y-51219D01*
X51045Y-51219D01*
X51080Y-51184D01*
X51080Y-51339D01*
X50787Y-51339D01*
X50736Y-51360D01*
X50696Y-51400D01*
X50675Y-51451D01*
X50675Y-51507D01*
X50675Y-51857D01*
X50696Y-51908D01*
X50736Y-51948D01*
X50787Y-51969D01*
X50843Y-51969D01*
X50900Y-51969D01*
X50900Y-52164D01*
X50787Y-52164D01*
X50736Y-52185D01*
X50696Y-52225D01*
X50675Y-52276D01*
X50675Y-52332D01*
X50675Y-52410D01*
X50405Y-52680D01*
X50363Y-52742D01*
X50349Y-52814D01*
X50349Y-55413D01*
X50363Y-55486D01*
X50405Y-55547D01*
X51708Y-56850D01*
X51769Y-56892D01*
X51842Y-56906D01*
X52086Y-56906D01*
X52089Y-56912D01*
X52062Y-56953D01*
X52047Y-57025D01*
X52047Y-58571D01*
X51988Y-58596D01*
X51864Y-58719D01*
X51797Y-58881D01*
X51797Y-59056D01*
X51864Y-59218D01*
X51988Y-59342D01*
X52149Y-59409D01*
X52324Y-59409D01*
X52486Y-59342D01*
X52610Y-59218D01*
X52677Y-59057D01*
X52677Y-58882D01*
X52611Y-58720D01*
X52487Y-58596D01*
X52427Y-58571D01*
X52427Y-57104D01*
X52547Y-56984D01*
X52909Y-56984D01*
X52961Y-56963D01*
X53000Y-56923D01*
X53021Y-56872D01*
X53021Y-56816D01*
X53021Y-56560D01*
X53000Y-56509D01*
X52961Y-56469D01*
X52953Y-56466D01*
X52961Y-56463D01*
X53000Y-56423D01*
X53021Y-56372D01*
X53021Y-56261D01*
X53021Y-56171D01*
X53021Y-56060D01*
X53000Y-56009D01*
X52961Y-55969D01*
X52953Y-55966D01*
X52961Y-55963D01*
X53000Y-55923D01*
X53021Y-55872D01*
X53021Y-55761D01*
X53021Y-55671D01*
X53021Y-55560D01*
X53000Y-55509D01*
X52961Y-55469D01*
X52953Y-55466D01*
X52961Y-55463D01*
X53000Y-55423D01*
X53021Y-55372D01*
X53021Y-55316D01*
X53021Y-55060D01*
X53000Y-55009D01*
X52961Y-54969D01*
X52953Y-54966D01*
X52961Y-54963D01*
X53000Y-54923D01*
X53021Y-54872D01*
X53021Y-54761D01*
X53021Y-54671D01*
X53021Y-54560D01*
X53000Y-54509D01*
X52961Y-54469D01*
X52953Y-54466D01*
X52961Y-54463D01*
X53000Y-54423D01*
X53021Y-54372D01*
X53021Y-54261D01*
X52986Y-54226D01*
X52557Y-54226D01*
X52557Y-54449D01*
X52574Y-54466D01*
X52557Y-54483D01*
X52557Y-54706D01*
X52986Y-54706D01*
X53021Y-54671D01*
X53021Y-54761D01*
X52986Y-54726D01*
X52557Y-54726D01*
X52557Y-54734D01*
X52537Y-54734D01*
X52537Y-54726D01*
X52537Y-54706D01*
X52537Y-54483D01*
X52520Y-54466D01*
X52537Y-54449D01*
X52537Y-54226D01*
X52107Y-54226D01*
X52072Y-54261D01*
X52072Y-54372D01*
X52093Y-54423D01*
X52133Y-54463D01*
X52141Y-54466D01*
X52133Y-54469D01*
X52093Y-54509D01*
X52072Y-54560D01*
X52072Y-54671D01*
X52107Y-54706D01*
X52537Y-54706D01*
X52537Y-54726D01*
X52107Y-54726D01*
X52072Y-54761D01*
X52072Y-54872D01*
X52093Y-54923D01*
X52133Y-54963D01*
X52141Y-54966D01*
X52133Y-54969D01*
X52093Y-55009D01*
X52072Y-55060D01*
X52072Y-55116D01*
X52072Y-55372D01*
X52093Y-55423D01*
X52133Y-55463D01*
X52141Y-55466D01*
X52133Y-55469D01*
X52093Y-55509D01*
X52072Y-55560D01*
X52072Y-55671D01*
X52107Y-55706D01*
X52537Y-55706D01*
X52537Y-55698D01*
X52557Y-55698D01*
X52557Y-55706D01*
X52986Y-55706D01*
X53021Y-55671D01*
X53021Y-55761D01*
X52986Y-55726D01*
X52557Y-55726D01*
X52557Y-55949D01*
X52574Y-55966D01*
X52557Y-55983D01*
X52557Y-56206D01*
X52986Y-56206D01*
X53021Y-56171D01*
X53021Y-56261D01*
X52986Y-56226D01*
X52557Y-56226D01*
X52557Y-56234D01*
X52537Y-56234D01*
X52537Y-56226D01*
X52537Y-56206D01*
X52537Y-55983D01*
X52520Y-55966D01*
X52537Y-55949D01*
X52537Y-55726D01*
X52107Y-55726D01*
X52072Y-55761D01*
X52072Y-55872D01*
X52093Y-55923D01*
X52133Y-55963D01*
X52141Y-55966D01*
X52133Y-55969D01*
X52093Y-56009D01*
X52072Y-56060D01*
X52072Y-56171D01*
X52107Y-56206D01*
X52537Y-56206D01*
X52537Y-56226D01*
X52107Y-56226D01*
X52072Y-56261D01*
X52072Y-56372D01*
X52093Y-56423D01*
X52133Y-56463D01*
X52141Y-56466D01*
X52133Y-56469D01*
X52093Y-56509D01*
X52086Y-56526D01*
X51921Y-56526D01*
X50729Y-55334D01*
X50729Y-53516D01*
X50736Y-53523D01*
X50787Y-53544D01*
X50843Y-53544D01*
X51393Y-53544D01*
X51444Y-53523D01*
X51484Y-53483D01*
X51505Y-53432D01*
X51505Y-53419D01*
X51542Y-53419D01*
X51615Y-53404D01*
X51676Y-53363D01*
X52094Y-52945D01*
X52597Y-53448D01*
X52184Y-53448D01*
X52133Y-53469D01*
X52093Y-53509D01*
X52072Y-53560D01*
X52072Y-53616D01*
X52072Y-53872D01*
X52093Y-53923D01*
X52133Y-53963D01*
X52141Y-53966D01*
X52133Y-53969D01*
X52093Y-54009D01*
X52072Y-54060D01*
X52072Y-54171D01*
X52107Y-54206D01*
X52537Y-54206D01*
X52537Y-54198D01*
X52557Y-54198D01*
X52557Y-54206D01*
X52986Y-54206D01*
X53021Y-54171D01*
X53021Y-54060D01*
X53000Y-54009D01*
X52961Y-53969D01*
X52953Y-53966D01*
X52961Y-53963D01*
X53000Y-53923D01*
X53021Y-53872D01*
X53021Y-53816D01*
X53021Y-53560D01*
X53003Y-53516D01*
X53019Y-53516D01*
X53065Y-53562D01*
X53065Y-55334D01*
X53080Y-55407D01*
X53121Y-55468D01*
X54003Y-56350D01*
X54003Y-56350D01*
X54065Y-56392D01*
X54137Y-56406D01*
X54291Y-56406D01*
X54298Y-56423D01*
X54338Y-56463D01*
X54346Y-56466D01*
X54338Y-56469D01*
X54298Y-56509D01*
X54291Y-56526D01*
X53519Y-56526D01*
X53446Y-56540D01*
X53385Y-56582D01*
X53103Y-56864D01*
X53062Y-56925D01*
X53047Y-56998D01*
X53047Y-58571D01*
X52988Y-58596D01*
X52864Y-58719D01*
X52797Y-58881D01*
X52797Y-59056D01*
X52864Y-59218D01*
X52988Y-59342D01*
X53149Y-59409D01*
X53324Y-59409D01*
X53486Y-59342D01*
X53610Y-59218D01*
X53677Y-59057D01*
X53677Y-58882D01*
X53611Y-58720D01*
X53487Y-58596D01*
X53427Y-58571D01*
X53427Y-57077D01*
X53598Y-56906D01*
X54291Y-56906D01*
X54298Y-56923D01*
X54338Y-56963D01*
X54389Y-56984D01*
X54445Y-56984D01*
X55114Y-56984D01*
X55165Y-56963D01*
X55205Y-56923D01*
X55212Y-56906D01*
X55330Y-56906D01*
X55403Y-56892D01*
X55465Y-56850D01*
X55465Y-56850D01*
X55574Y-56850D01*
X55690Y-56802D01*
X55715Y-56777D01*
X55715Y-57559D01*
X55103Y-58171D01*
X55062Y-58232D01*
X55047Y-58305D01*
X55047Y-58571D01*
X54988Y-58596D01*
X54864Y-58719D01*
X54797Y-58881D01*
X54797Y-59056D01*
X54864Y-59218D01*
X54905Y-59258D01*
X54803Y-59258D01*
X54655Y-59111D01*
X54677Y-59057D01*
X54677Y-58882D01*
X54611Y-58720D01*
X54487Y-58596D01*
X54325Y-58529D01*
X54150Y-58529D01*
X53988Y-58596D01*
X53864Y-58719D01*
X53797Y-58881D01*
X53797Y-59056D01*
X53864Y-59218D01*
X53988Y-59342D01*
X54149Y-59409D01*
X54324Y-59409D01*
X54389Y-59382D01*
X54590Y-59583D01*
X54651Y-59624D01*
X54724Y-59638D01*
X56456Y-59638D01*
X56529Y-59624D01*
X56591Y-59583D01*
X56827Y-59346D01*
X56868Y-59285D01*
X56878Y-59232D01*
X56988Y-59342D01*
X57149Y-59409D01*
X57324Y-59409D01*
X57486Y-59342D01*
X57610Y-59218D01*
X57677Y-59057D01*
X57677Y-58882D01*
X57677Y-60117D01*
X51677Y-60117D01*
X51677Y-59297D01*
X51677Y-59241D01*
X51677Y-59014D01*
X51677Y-58924D01*
X51677Y-58697D01*
X51677Y-58641D01*
X51656Y-58589D01*
X51617Y-58550D01*
X51565Y-58529D01*
X51282Y-58529D01*
X51247Y-58564D01*
X51247Y-58959D01*
X51642Y-58959D01*
X51677Y-58924D01*
X51677Y-59014D01*
X51642Y-58979D01*
X51247Y-58979D01*
X51247Y-59374D01*
X51282Y-59409D01*
X51565Y-59409D01*
X51617Y-59387D01*
X51656Y-59348D01*
X51677Y-59297D01*
X51677Y-60117D01*
X51227Y-60117D01*
X51227Y-59374D01*
X51227Y-58979D01*
X51227Y-58959D01*
X51227Y-58564D01*
X51192Y-58529D01*
X50909Y-58529D01*
X50858Y-58550D01*
X50819Y-58589D01*
X50797Y-58641D01*
X50797Y-58697D01*
X50797Y-58924D01*
X50832Y-58959D01*
X51227Y-58959D01*
X51227Y-58979D01*
X50832Y-58979D01*
X50797Y-59014D01*
X50797Y-59241D01*
X50797Y-59297D01*
X50819Y-59348D01*
X50858Y-59387D01*
X50909Y-59409D01*
X51192Y-59409D01*
X51227Y-59374D01*
X51227Y-60117D01*
X50152Y-60117D01*
X50152Y-59017D01*
X50152Y-46767D01*
X50036Y-46486D01*
X49821Y-46271D01*
X49540Y-46154D01*
X49236Y-46154D01*
X48955Y-46270D01*
X48739Y-46485D01*
X48622Y-46766D01*
X48622Y-47070D01*
X48738Y-47352D01*
X48953Y-47567D01*
X49234Y-47684D01*
X49539Y-47684D01*
X49820Y-47568D01*
X50035Y-47353D01*
X50152Y-47072D01*
X50152Y-46767D01*
X50152Y-59017D01*
X50036Y-58736D01*
X49821Y-58521D01*
X49540Y-58404D01*
X49236Y-58404D01*
X48955Y-58520D01*
X48739Y-58735D01*
X48622Y-59016D01*
X48622Y-59320D01*
X48738Y-59602D01*
X48953Y-59817D01*
X49234Y-59934D01*
X49539Y-59934D01*
X49820Y-59818D01*
X50035Y-59603D01*
X50152Y-59322D01*
X50152Y-59017D01*
X50152Y-60117D01*
X48465Y-60117D01*
X48465Y-45866D01*
X58448Y-45866D01*
X58445Y-45874D01*
X58445Y-45930D01*
X58445Y-46428D01*
X58480Y-46463D01*
X58890Y-46463D01*
X58890Y-46455D01*
X58910Y-46455D01*
X58910Y-46463D01*
X59319Y-46463D01*
X59354Y-46428D01*
X59354Y-45930D01*
X59354Y-45874D01*
X59351Y-45866D01*
X66889Y-45866D01*
X66889Y-46734D01*
X66786Y-46486D01*
X66571Y-46271D01*
X66290Y-46154D01*
X65986Y-46154D01*
X65705Y-46270D01*
X65489Y-46485D01*
X65372Y-46766D01*
X65372Y-47070D01*
X65488Y-47352D01*
X65498Y-47361D01*
X65031Y-47361D01*
X64859Y-47189D01*
X64798Y-47148D01*
X64725Y-47133D01*
X64694Y-47133D01*
X64694Y-47120D01*
X64694Y-46776D01*
X64694Y-46720D01*
X64694Y-46370D01*
X64673Y-46319D01*
X64633Y-46280D01*
X64582Y-46258D01*
X64526Y-46258D01*
X63976Y-46258D01*
X63925Y-46280D01*
X63885Y-46319D01*
X63864Y-46370D01*
X63864Y-46383D01*
X63636Y-46383D01*
X63636Y-46119D01*
X63614Y-46068D01*
X63575Y-46028D01*
X63523Y-46007D01*
X63468Y-46007D01*
X62869Y-46007D01*
X62818Y-46028D01*
X62778Y-46068D01*
X62757Y-46119D01*
X62757Y-46158D01*
X62454Y-46158D01*
X62454Y-46119D01*
X62433Y-46068D01*
X62394Y-46028D01*
X62342Y-46007D01*
X62287Y-46007D01*
X61688Y-46007D01*
X61637Y-46028D01*
X61597Y-46068D01*
X61576Y-46119D01*
X61576Y-46175D01*
X61576Y-46577D01*
X61597Y-46628D01*
X61637Y-46667D01*
X61688Y-46689D01*
X61744Y-46689D01*
X62342Y-46689D01*
X62394Y-46667D01*
X62433Y-46628D01*
X62454Y-46577D01*
X62454Y-46538D01*
X62757Y-46538D01*
X62757Y-46577D01*
X62778Y-46628D01*
X62818Y-46667D01*
X62869Y-46689D01*
X62925Y-46689D01*
X63268Y-46689D01*
X63287Y-46708D01*
X63349Y-46749D01*
X63422Y-46763D01*
X63864Y-46763D01*
X63864Y-46776D01*
X63885Y-46828D01*
X63925Y-46867D01*
X63976Y-46888D01*
X64032Y-46888D01*
X64582Y-46888D01*
X64633Y-46867D01*
X64673Y-46828D01*
X64694Y-46776D01*
X64694Y-47120D01*
X64673Y-47069D01*
X64633Y-47030D01*
X64582Y-47008D01*
X64526Y-47008D01*
X63976Y-47008D01*
X63925Y-47030D01*
X63885Y-47069D01*
X63864Y-47120D01*
X63864Y-47176D01*
X63864Y-47352D01*
X63636Y-47349D01*
X63636Y-47320D01*
X63614Y-47269D01*
X63575Y-47229D01*
X63523Y-47208D01*
X63468Y-47208D01*
X62869Y-47208D01*
X62818Y-47229D01*
X62778Y-47269D01*
X62757Y-47320D01*
X62757Y-47339D01*
X62454Y-47336D01*
X62454Y-47320D01*
X62433Y-47269D01*
X62394Y-47229D01*
X62342Y-47208D01*
X62287Y-47208D01*
X61688Y-47208D01*
X61637Y-47229D01*
X61597Y-47269D01*
X61576Y-47320D01*
X61576Y-47326D01*
X60994Y-47320D01*
X61031Y-47282D01*
X61052Y-47231D01*
X61052Y-47175D01*
X61052Y-46825D01*
X61052Y-46481D01*
X61052Y-46323D01*
X61052Y-46233D01*
X61052Y-46075D01*
X61031Y-46024D01*
X60992Y-45984D01*
X60940Y-45963D01*
X60884Y-45963D01*
X60682Y-45963D01*
X60647Y-45998D01*
X60647Y-46268D01*
X61017Y-46268D01*
X61052Y-46233D01*
X61052Y-46323D01*
X61017Y-46288D01*
X60647Y-46288D01*
X60647Y-46558D01*
X60682Y-46593D01*
X60884Y-46593D01*
X60940Y-46593D01*
X60992Y-46572D01*
X61031Y-46532D01*
X61052Y-46481D01*
X61052Y-46825D01*
X61031Y-46774D01*
X60992Y-46734D01*
X60940Y-46713D01*
X60884Y-46713D01*
X60627Y-46713D01*
X60627Y-46558D01*
X60627Y-46288D01*
X60627Y-46268D01*
X60627Y-45998D01*
X60592Y-45963D01*
X60390Y-45963D01*
X60334Y-45963D01*
X60283Y-45984D01*
X60244Y-46024D01*
X60222Y-46075D01*
X60222Y-46233D01*
X60257Y-46268D01*
X60627Y-46268D01*
X60627Y-46288D01*
X60257Y-46288D01*
X60222Y-46323D01*
X60222Y-46481D01*
X60244Y-46532D01*
X60283Y-46572D01*
X60334Y-46593D01*
X60390Y-46593D01*
X60592Y-46593D01*
X60627Y-46558D01*
X60627Y-46713D01*
X60334Y-46713D01*
X60283Y-46734D01*
X60244Y-46774D01*
X60222Y-46825D01*
X60222Y-46881D01*
X60222Y-47231D01*
X60244Y-47282D01*
X60273Y-47312D01*
X59354Y-47301D01*
X59354Y-47071D01*
X59354Y-47016D01*
X59354Y-46518D01*
X59319Y-46483D01*
X58910Y-46483D01*
X58910Y-47149D01*
X58945Y-47184D01*
X59242Y-47184D01*
X59294Y-47162D01*
X59333Y-47123D01*
X59354Y-47071D01*
X59354Y-47301D01*
X58890Y-47296D01*
X58890Y-47149D01*
X58890Y-46483D01*
X58480Y-46483D01*
X58445Y-46518D01*
X58445Y-47016D01*
X58445Y-47071D01*
X58466Y-47123D01*
X58505Y-47162D01*
X58557Y-47184D01*
X58855Y-47184D01*
X58890Y-47149D01*
X58890Y-47296D01*
X57597Y-47282D01*
X57597Y-48905D01*
X57041Y-48905D01*
X57041Y-47777D01*
X57041Y-47722D01*
X57041Y-47320D01*
X57041Y-46577D01*
X57041Y-46393D01*
X57041Y-46303D01*
X57041Y-46119D01*
X57020Y-46068D01*
X56980Y-46028D01*
X56929Y-46007D01*
X56873Y-46007D01*
X56647Y-46007D01*
X56612Y-46042D01*
X56612Y-46338D01*
X57006Y-46338D01*
X57041Y-46303D01*
X57041Y-46393D01*
X57006Y-46358D01*
X56612Y-46358D01*
X56612Y-46654D01*
X56647Y-46689D01*
X56873Y-46689D01*
X56929Y-46689D01*
X56980Y-46667D01*
X57020Y-46628D01*
X57041Y-46577D01*
X57041Y-47320D01*
X57020Y-47269D01*
X56980Y-47229D01*
X56929Y-47208D01*
X56873Y-47208D01*
X56592Y-47208D01*
X56592Y-46654D01*
X56592Y-46358D01*
X56592Y-46338D01*
X56592Y-46042D01*
X56557Y-46007D01*
X56330Y-46007D01*
X56275Y-46007D01*
X56223Y-46028D01*
X56184Y-46068D01*
X56163Y-46119D01*
X56163Y-46303D01*
X56198Y-46338D01*
X56592Y-46338D01*
X56592Y-46358D01*
X56198Y-46358D01*
X56163Y-46393D01*
X56163Y-46577D01*
X56184Y-46628D01*
X56223Y-46667D01*
X56275Y-46689D01*
X56330Y-46689D01*
X56557Y-46689D01*
X56592Y-46654D01*
X56592Y-47208D01*
X56275Y-47208D01*
X56223Y-47229D01*
X56184Y-47269D01*
X56163Y-47320D01*
X56163Y-47376D01*
X56163Y-47777D01*
X56184Y-47829D01*
X56223Y-47868D01*
X56275Y-47890D01*
X56330Y-47890D01*
X56412Y-47890D01*
X56412Y-48030D01*
X56299Y-48030D01*
X56248Y-48051D01*
X56208Y-48091D01*
X56187Y-48142D01*
X56187Y-48198D01*
X56187Y-48548D01*
X56208Y-48599D01*
X56248Y-48639D01*
X56299Y-48660D01*
X56355Y-48660D01*
X56905Y-48660D01*
X56956Y-48639D01*
X56996Y-48599D01*
X57017Y-48548D01*
X57017Y-48492D01*
X57017Y-48142D01*
X56996Y-48091D01*
X56956Y-48051D01*
X56905Y-48030D01*
X56849Y-48030D01*
X56792Y-48030D01*
X56792Y-47890D01*
X56929Y-47890D01*
X56980Y-47868D01*
X57020Y-47829D01*
X57041Y-47777D01*
X57041Y-48905D01*
X57017Y-48905D01*
X57017Y-48892D01*
X56996Y-48841D01*
X56956Y-48801D01*
X56905Y-48780D01*
X56849Y-48780D01*
X56299Y-48780D01*
X56248Y-48801D01*
X56208Y-48841D01*
X56187Y-48892D01*
X56187Y-48948D01*
X56187Y-49298D01*
X56208Y-49349D01*
X56248Y-49389D01*
X56299Y-49410D01*
X56355Y-49410D01*
X56905Y-49410D01*
X56956Y-49389D01*
X56996Y-49349D01*
X57017Y-49298D01*
X57017Y-49285D01*
X57597Y-49285D01*
X57597Y-52129D01*
X57561Y-52165D01*
X57540Y-52216D01*
X57540Y-52272D01*
X57540Y-52822D01*
X57561Y-52873D01*
X57597Y-52910D01*
X57597Y-52995D01*
X57561Y-53031D01*
X57540Y-53082D01*
X57540Y-53138D01*
X57540Y-53688D01*
X57561Y-53740D01*
X57597Y-53776D01*
X57597Y-55788D01*
X59742Y-55788D01*
X59742Y-56127D01*
X59763Y-56178D01*
X59803Y-56217D01*
X59854Y-56239D01*
X59910Y-56239D01*
X60460Y-56239D01*
X60511Y-56217D01*
X60551Y-56178D01*
X60572Y-56127D01*
X60572Y-56071D01*
X60572Y-55788D01*
X66889Y-55788D01*
X66889Y-56443D01*
X66811Y-56240D01*
X66781Y-56194D01*
X66659Y-56104D01*
X66645Y-56118D01*
X66645Y-56090D01*
X66555Y-55968D01*
X66214Y-55815D01*
X65840Y-55805D01*
X65490Y-55938D01*
X65444Y-55968D01*
X65354Y-56090D01*
X66000Y-56735D01*
X66645Y-56090D01*
X66645Y-56118D01*
X66014Y-56750D01*
X66659Y-57395D01*
X66781Y-57305D01*
X66889Y-57064D01*
X66889Y-58984D01*
X66786Y-58736D01*
X66645Y-58595D01*
X66645Y-57409D01*
X66000Y-56764D01*
X65985Y-56778D01*
X65985Y-56750D01*
X65340Y-56104D01*
X65218Y-56194D01*
X65065Y-56535D01*
X65055Y-56909D01*
X65188Y-57259D01*
X65218Y-57305D01*
X65340Y-57395D01*
X65985Y-56750D01*
X65985Y-56778D01*
X65354Y-57409D01*
X65444Y-57531D01*
X65785Y-57684D01*
X66159Y-57695D01*
X66509Y-57561D01*
X66555Y-57531D01*
X66645Y-57409D01*
X66645Y-58595D01*
X66571Y-58521D01*
X66290Y-58404D01*
X65986Y-58404D01*
X65705Y-58520D01*
X65489Y-58735D01*
X65372Y-59016D01*
X65372Y-59320D01*
X65488Y-59602D01*
X65703Y-59817D01*
X65984Y-59934D01*
X66289Y-59934D01*
X66570Y-59818D01*
X66785Y-59603D01*
X66889Y-59354D01*
X66889Y-60117D01*
G54D10*
G36*
X66889Y-50274D02*
X66645Y-50274D01*
X66645Y-49909D01*
X66000Y-49264D01*
X65985Y-49278D01*
X65985Y-49250D01*
X65340Y-48604D01*
X65218Y-48694D01*
X65065Y-49035D01*
X65055Y-49409D01*
X65188Y-49759D01*
X65218Y-49805D01*
X65340Y-49895D01*
X65985Y-49250D01*
X65985Y-49278D01*
X65354Y-49909D01*
X65444Y-50031D01*
X65785Y-50184D01*
X66159Y-50195D01*
X66509Y-50061D01*
X66555Y-50031D01*
X66645Y-49909D01*
X66645Y-50274D01*
X64583Y-50274D01*
X64189Y-49881D01*
X60432Y-49881D01*
X60432Y-51135D01*
X60403Y-51164D01*
X60403Y-51534D01*
X60383Y-51534D01*
X60383Y-51164D01*
X60348Y-51129D01*
X60268Y-51129D01*
X60268Y-51004D01*
X60254Y-50932D01*
X60213Y-50870D01*
X60021Y-50678D01*
X60021Y-50329D01*
X60021Y-49985D01*
X60021Y-49827D01*
X60021Y-49737D01*
X60021Y-49579D01*
X59999Y-49528D01*
X59960Y-49488D01*
X59909Y-49467D01*
X59853Y-49467D01*
X59651Y-49467D01*
X59616Y-49502D01*
X59616Y-49772D01*
X59986Y-49772D01*
X60021Y-49737D01*
X60021Y-49827D01*
X59986Y-49792D01*
X59616Y-49792D01*
X59616Y-50062D01*
X59651Y-50097D01*
X59853Y-50097D01*
X59909Y-50097D01*
X59960Y-50076D01*
X59999Y-50036D01*
X60021Y-49985D01*
X60021Y-50329D01*
X59999Y-50278D01*
X59960Y-50238D01*
X59909Y-50217D01*
X59853Y-50217D01*
X59596Y-50217D01*
X59596Y-50062D01*
X59596Y-49792D01*
X59596Y-49772D01*
X59596Y-49502D01*
X59561Y-49467D01*
X59359Y-49467D01*
X59354Y-49467D01*
X59354Y-48725D01*
X59354Y-48669D01*
X59354Y-48171D01*
X59319Y-48136D01*
X58910Y-48136D01*
X58910Y-48802D01*
X58945Y-48837D01*
X59242Y-48837D01*
X59294Y-48816D01*
X59333Y-48776D01*
X59354Y-48725D01*
X59354Y-49467D01*
X59303Y-49467D01*
X59251Y-49488D01*
X59212Y-49528D01*
X59191Y-49579D01*
X59191Y-49737D01*
X59226Y-49772D01*
X59596Y-49772D01*
X59596Y-49792D01*
X59226Y-49792D01*
X59191Y-49827D01*
X59191Y-49985D01*
X59212Y-50036D01*
X59251Y-50076D01*
X59303Y-50097D01*
X59359Y-50097D01*
X59561Y-50097D01*
X59596Y-50062D01*
X59596Y-50217D01*
X59303Y-50217D01*
X59251Y-50238D01*
X59212Y-50278D01*
X59191Y-50329D01*
X59191Y-50385D01*
X59191Y-50735D01*
X59212Y-50786D01*
X59251Y-50826D01*
X59303Y-50847D01*
X59359Y-50847D01*
X59652Y-50847D01*
X59888Y-51083D01*
X59888Y-51129D01*
X59844Y-51129D01*
X59291Y-51129D01*
X59291Y-51118D01*
X59243Y-51002D01*
X59155Y-50914D01*
X59039Y-50866D01*
X58913Y-50866D01*
X58890Y-50875D01*
X58890Y-48802D01*
X58890Y-48136D01*
X58480Y-48136D01*
X58445Y-48171D01*
X58445Y-48669D01*
X58445Y-48725D01*
X58466Y-48776D01*
X58505Y-48816D01*
X58557Y-48837D01*
X58855Y-48837D01*
X58890Y-48802D01*
X58890Y-50875D01*
X58798Y-50913D01*
X58709Y-51002D01*
X58661Y-51118D01*
X58661Y-51243D01*
X58709Y-51359D01*
X58797Y-51447D01*
X58913Y-51496D01*
X58913Y-51496D01*
X58798Y-51543D01*
X58709Y-51632D01*
X58661Y-51748D01*
X58661Y-51873D01*
X58709Y-51989D01*
X58786Y-52067D01*
X58719Y-52095D01*
X58630Y-52183D01*
X58582Y-52299D01*
X58582Y-52424D01*
X58630Y-52540D01*
X58718Y-52629D01*
X58834Y-52677D01*
X58960Y-52677D01*
X59075Y-52629D01*
X59153Y-52552D01*
X59161Y-52552D01*
X59161Y-52606D01*
X59161Y-52632D01*
X59196Y-52667D01*
X59566Y-52667D01*
X59566Y-52687D01*
X59196Y-52687D01*
X59161Y-52722D01*
X59161Y-52747D01*
X59161Y-52803D01*
X59174Y-52834D01*
X59161Y-52865D01*
X59161Y-52921D01*
X59161Y-53118D01*
X59174Y-53149D01*
X59161Y-53180D01*
X59161Y-53236D01*
X59161Y-53262D01*
X59196Y-53297D01*
X59566Y-53297D01*
X59566Y-53317D01*
X59196Y-53317D01*
X59161Y-53352D01*
X59161Y-53377D01*
X59161Y-53432D01*
X59153Y-53432D01*
X59076Y-53355D01*
X58960Y-53307D01*
X58835Y-53306D01*
X58719Y-53354D01*
X58630Y-53443D01*
X58582Y-53559D01*
X58582Y-53684D01*
X58630Y-53800D01*
X58688Y-53858D01*
X58630Y-53915D01*
X58582Y-54031D01*
X58582Y-54156D01*
X58630Y-54272D01*
X58718Y-54361D01*
X58834Y-54409D01*
X58960Y-54409D01*
X59075Y-54361D01*
X59161Y-54276D01*
X59161Y-54742D01*
X59182Y-54793D01*
X59221Y-54833D01*
X59273Y-54854D01*
X59329Y-54854D01*
X59781Y-54854D01*
X59763Y-54897D01*
X59763Y-55023D01*
X59811Y-55138D01*
X59900Y-55227D01*
X60015Y-55275D01*
X60141Y-55275D01*
X60256Y-55227D01*
X60345Y-55139D01*
X60393Y-55023D01*
X60393Y-54898D01*
X60367Y-54835D01*
X60383Y-54819D01*
X60383Y-54439D01*
X60375Y-54439D01*
X60375Y-54419D01*
X60383Y-54419D01*
X60383Y-54411D01*
X60403Y-54411D01*
X60403Y-54419D01*
X60411Y-54419D01*
X60411Y-54439D01*
X60403Y-54439D01*
X60403Y-54819D01*
X60432Y-54848D01*
X60432Y-55550D01*
X57992Y-55550D01*
X57992Y-53800D01*
X58058Y-53800D01*
X58109Y-53779D01*
X58149Y-53740D01*
X58170Y-53688D01*
X58170Y-53632D01*
X58170Y-53430D01*
X58135Y-53395D01*
X57992Y-53395D01*
X57992Y-53375D01*
X58135Y-53375D01*
X58170Y-53340D01*
X58170Y-53138D01*
X58170Y-53082D01*
X58149Y-53031D01*
X58109Y-52992D01*
X58058Y-52970D01*
X57992Y-52970D01*
X57992Y-52934D01*
X58058Y-52934D01*
X58109Y-52913D01*
X58149Y-52873D01*
X58170Y-52822D01*
X58170Y-52766D01*
X58170Y-52564D01*
X58135Y-52529D01*
X57992Y-52529D01*
X57992Y-52509D01*
X58135Y-52509D01*
X58170Y-52474D01*
X58170Y-52272D01*
X58170Y-52216D01*
X58149Y-52165D01*
X58109Y-52125D01*
X58058Y-52104D01*
X57992Y-52104D01*
X57992Y-47677D01*
X58445Y-47677D01*
X58445Y-48081D01*
X58480Y-48116D01*
X58890Y-48116D01*
X58890Y-48108D01*
X58910Y-48108D01*
X58910Y-48116D01*
X59319Y-48116D01*
X59354Y-48081D01*
X59354Y-47677D01*
X61576Y-47677D01*
X61576Y-47777D01*
X61597Y-47829D01*
X61637Y-47868D01*
X61688Y-47890D01*
X61743Y-47890D01*
X61701Y-47931D01*
X61653Y-48047D01*
X61653Y-48172D01*
X61701Y-48288D01*
X61789Y-48377D01*
X61905Y-48425D01*
X62030Y-48425D01*
X62146Y-48377D01*
X62235Y-48288D01*
X62283Y-48173D01*
X62283Y-48047D01*
X62235Y-47932D01*
X62205Y-47902D01*
X62205Y-47890D01*
X62342Y-47890D01*
X62394Y-47868D01*
X62433Y-47829D01*
X62454Y-47777D01*
X62454Y-47739D01*
X62757Y-47739D01*
X62757Y-47777D01*
X62778Y-47829D01*
X62818Y-47868D01*
X62869Y-47890D01*
X62925Y-47890D01*
X63523Y-47890D01*
X63575Y-47868D01*
X63614Y-47829D01*
X63636Y-47777D01*
X63636Y-47722D01*
X63636Y-47677D01*
X64810Y-47677D01*
X65377Y-48244D01*
X65377Y-48244D01*
X65377Y-48244D01*
X65439Y-48285D01*
X65511Y-48300D01*
X65511Y-48300D01*
X65511Y-48300D01*
X66692Y-48300D01*
X66889Y-48496D01*
X66889Y-48943D01*
X66811Y-48740D01*
X66781Y-48694D01*
X66659Y-48604D01*
X66645Y-48618D01*
X66645Y-48590D01*
X66555Y-48468D01*
X66214Y-48315D01*
X65840Y-48305D01*
X65490Y-48438D01*
X65444Y-48468D01*
X65354Y-48590D01*
X66000Y-49235D01*
X66645Y-48590D01*
X66645Y-48618D01*
X66014Y-49250D01*
X66659Y-49895D01*
X66781Y-49805D01*
X66889Y-49564D01*
X66889Y-50274D01*
X66889Y-50274D01*
G37*
G54D27*
X66889Y-50274D02*
X66645Y-50274D01*
X66645Y-49909D01*
X66000Y-49264D01*
X65985Y-49278D01*
X65985Y-49250D01*
X65340Y-48604D01*
X65218Y-48694D01*
X65065Y-49035D01*
X65055Y-49409D01*
X65188Y-49759D01*
X65218Y-49805D01*
X65340Y-49895D01*
X65985Y-49250D01*
X65985Y-49278D01*
X65354Y-49909D01*
X65444Y-50031D01*
X65785Y-50184D01*
X66159Y-50195D01*
X66509Y-50061D01*
X66555Y-50031D01*
X66645Y-49909D01*
X66645Y-50274D01*
X64583Y-50274D01*
X64189Y-49881D01*
X60432Y-49881D01*
X60432Y-51135D01*
X60403Y-51164D01*
X60403Y-51534D01*
X60383Y-51534D01*
X60383Y-51164D01*
X60348Y-51129D01*
X60268Y-51129D01*
X60268Y-51004D01*
X60254Y-50932D01*
X60213Y-50870D01*
X60021Y-50678D01*
X60021Y-50329D01*
X60021Y-49985D01*
X60021Y-49827D01*
X60021Y-49737D01*
X60021Y-49579D01*
X59999Y-49528D01*
X59960Y-49488D01*
X59909Y-49467D01*
X59853Y-49467D01*
X59651Y-49467D01*
X59616Y-49502D01*
X59616Y-49772D01*
X59986Y-49772D01*
X60021Y-49737D01*
X60021Y-49827D01*
X59986Y-49792D01*
X59616Y-49792D01*
X59616Y-50062D01*
X59651Y-50097D01*
X59853Y-50097D01*
X59909Y-50097D01*
X59960Y-50076D01*
X59999Y-50036D01*
X60021Y-49985D01*
X60021Y-50329D01*
X59999Y-50278D01*
X59960Y-50238D01*
X59909Y-50217D01*
X59853Y-50217D01*
X59596Y-50217D01*
X59596Y-50062D01*
X59596Y-49792D01*
X59596Y-49772D01*
X59596Y-49502D01*
X59561Y-49467D01*
X59359Y-49467D01*
X59354Y-49467D01*
X59354Y-48725D01*
X59354Y-48669D01*
X59354Y-48171D01*
X59319Y-48136D01*
X58910Y-48136D01*
X58910Y-48802D01*
X58945Y-48837D01*
X59242Y-48837D01*
X59294Y-48816D01*
X59333Y-48776D01*
X59354Y-48725D01*
X59354Y-49467D01*
X59303Y-49467D01*
X59251Y-49488D01*
X59212Y-49528D01*
X59191Y-49579D01*
X59191Y-49737D01*
X59226Y-49772D01*
X59596Y-49772D01*
X59596Y-49792D01*
X59226Y-49792D01*
X59191Y-49827D01*
X59191Y-49985D01*
X59212Y-50036D01*
X59251Y-50076D01*
X59303Y-50097D01*
X59359Y-50097D01*
X59561Y-50097D01*
X59596Y-50062D01*
X59596Y-50217D01*
X59303Y-50217D01*
X59251Y-50238D01*
X59212Y-50278D01*
X59191Y-50329D01*
X59191Y-50385D01*
X59191Y-50735D01*
X59212Y-50786D01*
X59251Y-50826D01*
X59303Y-50847D01*
X59359Y-50847D01*
X59652Y-50847D01*
X59888Y-51083D01*
X59888Y-51129D01*
X59844Y-51129D01*
X59291Y-51129D01*
X59291Y-51118D01*
X59243Y-51002D01*
X59155Y-50914D01*
X59039Y-50866D01*
X58913Y-50866D01*
X58890Y-50875D01*
X58890Y-48802D01*
X58890Y-48136D01*
X58480Y-48136D01*
X58445Y-48171D01*
X58445Y-48669D01*
X58445Y-48725D01*
X58466Y-48776D01*
X58505Y-48816D01*
X58557Y-48837D01*
X58855Y-48837D01*
X58890Y-48802D01*
X58890Y-50875D01*
X58798Y-50913D01*
X58709Y-51002D01*
X58661Y-51118D01*
X58661Y-51243D01*
X58709Y-51359D01*
X58797Y-51447D01*
X58913Y-51496D01*
X58913Y-51496D01*
X58798Y-51543D01*
X58709Y-51632D01*
X58661Y-51748D01*
X58661Y-51873D01*
X58709Y-51989D01*
X58786Y-52067D01*
X58719Y-52095D01*
X58630Y-52183D01*
X58582Y-52299D01*
X58582Y-52424D01*
X58630Y-52540D01*
X58718Y-52629D01*
X58834Y-52677D01*
X58960Y-52677D01*
X59075Y-52629D01*
X59153Y-52552D01*
X59161Y-52552D01*
X59161Y-52606D01*
X59161Y-52632D01*
X59196Y-52667D01*
X59566Y-52667D01*
X59566Y-52687D01*
X59196Y-52687D01*
X59161Y-52722D01*
X59161Y-52747D01*
X59161Y-52803D01*
X59174Y-52834D01*
X59161Y-52865D01*
X59161Y-52921D01*
X59161Y-53118D01*
X59174Y-53149D01*
X59161Y-53180D01*
X59161Y-53236D01*
X59161Y-53262D01*
X59196Y-53297D01*
X59566Y-53297D01*
X59566Y-53317D01*
X59196Y-53317D01*
X59161Y-53352D01*
X59161Y-53377D01*
X59161Y-53432D01*
X59153Y-53432D01*
X59076Y-53355D01*
X58960Y-53307D01*
X58835Y-53306D01*
X58719Y-53354D01*
X58630Y-53443D01*
X58582Y-53559D01*
X58582Y-53684D01*
X58630Y-53800D01*
X58688Y-53858D01*
X58630Y-53915D01*
X58582Y-54031D01*
X58582Y-54156D01*
X58630Y-54272D01*
X58718Y-54361D01*
X58834Y-54409D01*
X58960Y-54409D01*
X59075Y-54361D01*
X59161Y-54276D01*
X59161Y-54742D01*
X59182Y-54793D01*
X59221Y-54833D01*
X59273Y-54854D01*
X59329Y-54854D01*
X59781Y-54854D01*
X59763Y-54897D01*
X59763Y-55023D01*
X59811Y-55138D01*
X59900Y-55227D01*
X60015Y-55275D01*
X60141Y-55275D01*
X60256Y-55227D01*
X60345Y-55139D01*
X60393Y-55023D01*
X60393Y-54898D01*
X60367Y-54835D01*
X60383Y-54819D01*
X60383Y-54439D01*
X60375Y-54439D01*
X60375Y-54419D01*
X60383Y-54419D01*
X60383Y-54411D01*
X60403Y-54411D01*
X60403Y-54419D01*
X60411Y-54419D01*
X60411Y-54439D01*
X60403Y-54439D01*
X60403Y-54819D01*
X60432Y-54848D01*
X60432Y-55550D01*
X57992Y-55550D01*
X57992Y-53800D01*
X58058Y-53800D01*
X58109Y-53779D01*
X58149Y-53740D01*
X58170Y-53688D01*
X58170Y-53632D01*
X58170Y-53430D01*
X58135Y-53395D01*
X57992Y-53395D01*
X57992Y-53375D01*
X58135Y-53375D01*
X58170Y-53340D01*
X58170Y-53138D01*
X58170Y-53082D01*
X58149Y-53031D01*
X58109Y-52992D01*
X58058Y-52970D01*
X57992Y-52970D01*
X57992Y-52934D01*
X58058Y-52934D01*
X58109Y-52913D01*
X58149Y-52873D01*
X58170Y-52822D01*
X58170Y-52766D01*
X58170Y-52564D01*
X58135Y-52529D01*
X57992Y-52529D01*
X57992Y-52509D01*
X58135Y-52509D01*
X58170Y-52474D01*
X58170Y-52272D01*
X58170Y-52216D01*
X58149Y-52165D01*
X58109Y-52125D01*
X58058Y-52104D01*
X57992Y-52104D01*
X57992Y-47677D01*
X58445Y-47677D01*
X58445Y-48081D01*
X58480Y-48116D01*
X58890Y-48116D01*
X58890Y-48108D01*
X58910Y-48108D01*
X58910Y-48116D01*
X59319Y-48116D01*
X59354Y-48081D01*
X59354Y-47677D01*
X61576Y-47677D01*
X61576Y-47777D01*
X61597Y-47829D01*
X61637Y-47868D01*
X61688Y-47890D01*
X61743Y-47890D01*
X61701Y-47931D01*
X61653Y-48047D01*
X61653Y-48172D01*
X61701Y-48288D01*
X61789Y-48377D01*
X61905Y-48425D01*
X62030Y-48425D01*
X62146Y-48377D01*
X62235Y-48288D01*
X62283Y-48173D01*
X62283Y-48047D01*
X62235Y-47932D01*
X62205Y-47902D01*
X62205Y-47890D01*
X62342Y-47890D01*
X62394Y-47868D01*
X62433Y-47829D01*
X62454Y-47777D01*
X62454Y-47739D01*
X62757Y-47739D01*
X62757Y-47777D01*
X62778Y-47829D01*
X62818Y-47868D01*
X62869Y-47890D01*
X62925Y-47890D01*
X63523Y-47890D01*
X63575Y-47868D01*
X63614Y-47829D01*
X63636Y-47777D01*
X63636Y-47722D01*
X63636Y-47677D01*
X64810Y-47677D01*
X65377Y-48244D01*
X65377Y-48244D01*
X65377Y-48244D01*
X65439Y-48285D01*
X65511Y-48300D01*
X65511Y-48300D01*
X65511Y-48300D01*
X66692Y-48300D01*
X66889Y-48496D01*
X66889Y-48943D01*
X66811Y-48740D01*
X66781Y-48694D01*
X66659Y-48604D01*
X66645Y-48618D01*
X66645Y-48590D01*
X66555Y-48468D01*
X66214Y-48315D01*
X65840Y-48305D01*
X65490Y-48438D01*
X65444Y-48468D01*
X65354Y-48590D01*
X66000Y-49235D01*
X66645Y-48590D01*
X66645Y-48618D01*
X66014Y-49250D01*
X66659Y-49895D01*
X66781Y-49805D01*
X66889Y-49564D01*
X66889Y-50274D01*
G54D10*
G36*
X64369Y-53446D02*
X62976Y-54684D01*
X62886Y-54684D01*
X62886Y-54115D01*
X62875Y-54089D01*
X62886Y-54063D01*
X62886Y-54007D01*
X62886Y-53982D01*
X62886Y-53892D01*
X62886Y-53866D01*
X62886Y-53810D01*
X62873Y-53779D01*
X62886Y-53748D01*
X62886Y-53692D01*
X62886Y-53667D01*
X62886Y-53577D01*
X62886Y-53551D01*
X62886Y-53495D01*
X62873Y-53464D01*
X62886Y-53433D01*
X62886Y-53377D01*
X62886Y-53352D01*
X62851Y-53317D01*
X62470Y-53317D01*
X62470Y-53418D01*
X62470Y-53510D01*
X62470Y-53612D01*
X62851Y-53612D01*
X62886Y-53577D01*
X62886Y-53667D01*
X62851Y-53632D01*
X62470Y-53632D01*
X62470Y-53733D01*
X62470Y-53825D01*
X62470Y-53927D01*
X62851Y-53927D01*
X62886Y-53892D01*
X62886Y-53982D01*
X62851Y-53947D01*
X62470Y-53947D01*
X62470Y-53954D01*
X62450Y-53954D01*
X62450Y-53947D01*
X62442Y-53947D01*
X62442Y-53927D01*
X62450Y-53927D01*
X62450Y-53825D01*
X62450Y-53733D01*
X62450Y-53632D01*
X62442Y-53632D01*
X62442Y-53612D01*
X62450Y-53612D01*
X62450Y-53510D01*
X62450Y-53418D01*
X62450Y-53317D01*
X62442Y-53317D01*
X62442Y-53297D01*
X62450Y-53297D01*
X62450Y-53289D01*
X62470Y-53289D01*
X62470Y-53297D01*
X62851Y-53297D01*
X62886Y-53262D01*
X62886Y-53236D01*
X62886Y-53182D01*
X62894Y-53182D01*
X62970Y-53259D01*
X63086Y-53307D01*
X63211Y-53307D01*
X63327Y-53259D01*
X63416Y-53170D01*
X63464Y-53055D01*
X63464Y-52929D01*
X63416Y-52813D01*
X63328Y-52725D01*
X63212Y-52677D01*
X63087Y-52677D01*
X62971Y-52724D01*
X62894Y-52802D01*
X62886Y-52802D01*
X62886Y-52747D01*
X62886Y-52722D01*
X62886Y-52632D01*
X62886Y-52606D01*
X62886Y-52550D01*
X62873Y-52519D01*
X62886Y-52488D01*
X62886Y-52432D01*
X62886Y-52407D01*
X62886Y-52317D01*
X62886Y-52291D01*
X62886Y-52235D01*
X62873Y-52204D01*
X62886Y-52173D01*
X62886Y-52117D01*
X62886Y-52092D01*
X62851Y-52057D01*
X62470Y-52057D01*
X62470Y-52158D01*
X62470Y-52250D01*
X62470Y-52352D01*
X62851Y-52352D01*
X62886Y-52317D01*
X62886Y-52407D01*
X62851Y-52372D01*
X62470Y-52372D01*
X62470Y-52473D01*
X62470Y-52565D01*
X62470Y-52667D01*
X62851Y-52667D01*
X62886Y-52632D01*
X62886Y-52722D01*
X62851Y-52687D01*
X62470Y-52687D01*
X62470Y-52695D01*
X62450Y-52695D01*
X62450Y-52687D01*
X62442Y-52687D01*
X62442Y-52667D01*
X62450Y-52667D01*
X62450Y-52565D01*
X62450Y-52473D01*
X62450Y-52372D01*
X62442Y-52372D01*
X62442Y-52352D01*
X62450Y-52352D01*
X62450Y-52250D01*
X62450Y-52158D01*
X62450Y-52057D01*
X62442Y-52057D01*
X62442Y-52037D01*
X62450Y-52037D01*
X62450Y-52029D01*
X62470Y-52029D01*
X62470Y-52037D01*
X62851Y-52037D01*
X62886Y-52002D01*
X62886Y-51976D01*
X62886Y-51920D01*
X62875Y-51894D01*
X62886Y-51868D01*
X62886Y-51812D01*
X62886Y-51241D01*
X62877Y-51221D01*
X62897Y-51221D01*
X64369Y-52615D01*
X64369Y-53446D01*
X64369Y-53446D01*
G37*
G54D27*
X64369Y-53446D02*
X62976Y-54684D01*
X62886Y-54684D01*
X62886Y-54115D01*
X62875Y-54089D01*
X62886Y-54063D01*
X62886Y-54007D01*
X62886Y-53982D01*
X62886Y-53892D01*
X62886Y-53866D01*
X62886Y-53810D01*
X62873Y-53779D01*
X62886Y-53748D01*
X62886Y-53692D01*
X62886Y-53667D01*
X62886Y-53577D01*
X62886Y-53551D01*
X62886Y-53495D01*
X62873Y-53464D01*
X62886Y-53433D01*
X62886Y-53377D01*
X62886Y-53352D01*
X62851Y-53317D01*
X62470Y-53317D01*
X62470Y-53418D01*
X62470Y-53510D01*
X62470Y-53612D01*
X62851Y-53612D01*
X62886Y-53577D01*
X62886Y-53667D01*
X62851Y-53632D01*
X62470Y-53632D01*
X62470Y-53733D01*
X62470Y-53825D01*
X62470Y-53927D01*
X62851Y-53927D01*
X62886Y-53892D01*
X62886Y-53982D01*
X62851Y-53947D01*
X62470Y-53947D01*
X62470Y-53954D01*
X62450Y-53954D01*
X62450Y-53947D01*
X62442Y-53947D01*
X62442Y-53927D01*
X62450Y-53927D01*
X62450Y-53825D01*
X62450Y-53733D01*
X62450Y-53632D01*
X62442Y-53632D01*
X62442Y-53612D01*
X62450Y-53612D01*
X62450Y-53510D01*
X62450Y-53418D01*
X62450Y-53317D01*
X62442Y-53317D01*
X62442Y-53297D01*
X62450Y-53297D01*
X62450Y-53289D01*
X62470Y-53289D01*
X62470Y-53297D01*
X62851Y-53297D01*
X62886Y-53262D01*
X62886Y-53236D01*
X62886Y-53182D01*
X62894Y-53182D01*
X62970Y-53259D01*
X63086Y-53307D01*
X63211Y-53307D01*
X63327Y-53259D01*
X63416Y-53170D01*
X63464Y-53055D01*
X63464Y-52929D01*
X63416Y-52813D01*
X63328Y-52725D01*
X63212Y-52677D01*
X63087Y-52677D01*
X62971Y-52724D01*
X62894Y-52802D01*
X62886Y-52802D01*
X62886Y-52747D01*
X62886Y-52722D01*
X62886Y-52632D01*
X62886Y-52606D01*
X62886Y-52550D01*
X62873Y-52519D01*
X62886Y-52488D01*
X62886Y-52432D01*
X62886Y-52407D01*
X62886Y-52317D01*
X62886Y-52291D01*
X62886Y-52235D01*
X62873Y-52204D01*
X62886Y-52173D01*
X62886Y-52117D01*
X62886Y-52092D01*
X62851Y-52057D01*
X62470Y-52057D01*
X62470Y-52158D01*
X62470Y-52250D01*
X62470Y-52352D01*
X62851Y-52352D01*
X62886Y-52317D01*
X62886Y-52407D01*
X62851Y-52372D01*
X62470Y-52372D01*
X62470Y-52473D01*
X62470Y-52565D01*
X62470Y-52667D01*
X62851Y-52667D01*
X62886Y-52632D01*
X62886Y-52722D01*
X62851Y-52687D01*
X62470Y-52687D01*
X62470Y-52695D01*
X62450Y-52695D01*
X62450Y-52687D01*
X62442Y-52687D01*
X62442Y-52667D01*
X62450Y-52667D01*
X62450Y-52565D01*
X62450Y-52473D01*
X62450Y-52372D01*
X62442Y-52372D01*
X62442Y-52352D01*
X62450Y-52352D01*
X62450Y-52250D01*
X62450Y-52158D01*
X62450Y-52057D01*
X62442Y-52057D01*
X62442Y-52037D01*
X62450Y-52037D01*
X62450Y-52029D01*
X62470Y-52029D01*
X62470Y-52037D01*
X62851Y-52037D01*
X62886Y-52002D01*
X62886Y-51976D01*
X62886Y-51920D01*
X62875Y-51894D01*
X62886Y-51868D01*
X62886Y-51812D01*
X62886Y-51241D01*
X62877Y-51221D01*
X62897Y-51221D01*
X64369Y-52615D01*
X64369Y-53446D01*
M02*
