M48
INCH,TZ
T1C0.025
T2C0.040
T3C0.120
T4C0.125
%
G90
G05
T1
X51169Y-50256
X51720Y-55610
X54004Y-51319
X54882Y-53150
X55512Y-55276
X55512Y-56535
X55827Y-53858
X55906Y-55591
X56063Y-52756
X56535Y-52598
X56535Y-53543
X56693Y-51811
X58898Y-52362
X58898Y-53622
X58898Y-54094
X58976Y-51181
X58976Y-51811
X59764Y-57638
X60079Y-54961
X61654Y-50945
X61969Y-48110
X61969Y-54961
X62126Y-50945
X63071Y-51890
X63071Y-54094
X63150Y-52992
X63228Y-52283
X63228Y-53701
X63543Y-52598
X63543Y-53386
T2
X51238Y-58969
X52238Y-58969
X53238Y-58969
X54238Y-58969
X55238Y-58969
X56238Y-58969
X57238Y-58969
X58238Y-58969
X59238Y-58969
X60238Y-58969
X61238Y-58969
X62238Y-58969
X63238Y-58969
X64238Y-58969
T3
X66000Y-49250
X66000Y-51750
X66000Y-54250
X66000Y-56750
T4
X49388Y-46919
X49388Y-59169
X66138Y-46919
X66138Y-59169
T0
M30
