G04 (created by PCBNEW (2013-mar-13)-testing) date Tue 09 Jul 2013 08:38:35 AM EDT*
%MOIN*%
G04 Gerber Fmt 3.4, Leading zero omitted, Abs format*
%FSLAX34Y34*%
G01*
G70*
G90*
G04 APERTURE LIST*
%ADD10C,0.005906*%
%ADD11C,0.007874*%
G04 APERTURE END LIST*
G54D10*
G54D11*
X58006Y-48678D02*
X58006Y-48284D01*
X57875Y-48565D01*
X57743Y-48284D01*
X57743Y-48678D01*
X57331Y-48640D02*
X57350Y-48659D01*
X57406Y-48678D01*
X57443Y-48678D01*
X57500Y-48659D01*
X57537Y-48621D01*
X57556Y-48584D01*
X57575Y-48509D01*
X57575Y-48453D01*
X57556Y-48378D01*
X57537Y-48340D01*
X57500Y-48303D01*
X57443Y-48284D01*
X57406Y-48284D01*
X57350Y-48303D01*
X57331Y-48321D01*
X57200Y-48284D02*
X56956Y-48284D01*
X57087Y-48434D01*
X57031Y-48434D01*
X56993Y-48453D01*
X56975Y-48471D01*
X56956Y-48509D01*
X56956Y-48603D01*
X56975Y-48640D01*
X56993Y-48659D01*
X57031Y-48678D01*
X57143Y-48678D01*
X57181Y-48659D01*
X57200Y-48640D01*
X56825Y-48284D02*
X56581Y-48284D01*
X56712Y-48434D01*
X56656Y-48434D01*
X56618Y-48453D01*
X56600Y-48471D01*
X56581Y-48509D01*
X56581Y-48603D01*
X56600Y-48640D01*
X56618Y-48659D01*
X56656Y-48678D01*
X56768Y-48678D01*
X56806Y-48659D01*
X56825Y-48640D01*
X56393Y-48678D02*
X56318Y-48678D01*
X56281Y-48659D01*
X56262Y-48640D01*
X56225Y-48584D01*
X56206Y-48509D01*
X56206Y-48359D01*
X56225Y-48321D01*
X56243Y-48303D01*
X56281Y-48284D01*
X56356Y-48284D01*
X56393Y-48303D01*
X56412Y-48321D01*
X56431Y-48359D01*
X56431Y-48453D01*
X56412Y-48490D01*
X56393Y-48509D01*
X56356Y-48528D01*
X56281Y-48528D01*
X56243Y-48509D01*
X56225Y-48490D01*
X56206Y-48453D01*
X56056Y-48321D02*
X56037Y-48303D01*
X56000Y-48284D01*
X55906Y-48284D01*
X55869Y-48303D01*
X55850Y-48321D01*
X55831Y-48359D01*
X55831Y-48396D01*
X55850Y-48453D01*
X56075Y-48678D01*
X55831Y-48678D01*
X55494Y-48284D02*
X55569Y-48284D01*
X55606Y-48303D01*
X55625Y-48321D01*
X55662Y-48378D01*
X55681Y-48453D01*
X55681Y-48603D01*
X55662Y-48640D01*
X55644Y-48659D01*
X55606Y-48678D01*
X55531Y-48678D01*
X55494Y-48659D01*
X55475Y-48640D01*
X55456Y-48603D01*
X55456Y-48509D01*
X55475Y-48471D01*
X55494Y-48453D01*
X55531Y-48434D01*
X55606Y-48434D01*
X55644Y-48453D01*
X55662Y-48471D01*
X55681Y-48509D01*
X54987Y-48678D02*
X54987Y-48284D01*
X54856Y-48565D01*
X54725Y-48284D01*
X54725Y-48678D01*
X54481Y-48678D02*
X54519Y-48659D01*
X54537Y-48640D01*
X54556Y-48603D01*
X54556Y-48490D01*
X54537Y-48453D01*
X54519Y-48434D01*
X54481Y-48415D01*
X54425Y-48415D01*
X54387Y-48434D01*
X54369Y-48453D01*
X54350Y-48490D01*
X54350Y-48603D01*
X54369Y-48640D01*
X54387Y-48659D01*
X54425Y-48678D01*
X54481Y-48678D01*
X54237Y-48415D02*
X54088Y-48415D01*
X54181Y-48284D02*
X54181Y-48621D01*
X54162Y-48659D01*
X54125Y-48678D01*
X54088Y-48678D01*
X53900Y-48678D02*
X53938Y-48659D01*
X53956Y-48640D01*
X53975Y-48603D01*
X53975Y-48490D01*
X53956Y-48453D01*
X53938Y-48434D01*
X53900Y-48415D01*
X53844Y-48415D01*
X53806Y-48434D01*
X53788Y-48453D01*
X53769Y-48490D01*
X53769Y-48603D01*
X53788Y-48640D01*
X53806Y-48659D01*
X53844Y-48678D01*
X53900Y-48678D01*
X53600Y-48678D02*
X53600Y-48415D01*
X53600Y-48490D02*
X53581Y-48453D01*
X53563Y-48434D01*
X53525Y-48415D01*
X53488Y-48415D01*
X57781Y-49270D02*
X57800Y-49289D01*
X57856Y-49308D01*
X57893Y-49308D01*
X57950Y-49289D01*
X57987Y-49251D01*
X58006Y-49214D01*
X58025Y-49139D01*
X58025Y-49083D01*
X58006Y-49008D01*
X57987Y-48970D01*
X57950Y-48933D01*
X57893Y-48914D01*
X57856Y-48914D01*
X57800Y-48933D01*
X57781Y-48951D01*
X57556Y-49308D02*
X57593Y-49289D01*
X57612Y-49270D01*
X57631Y-49233D01*
X57631Y-49120D01*
X57612Y-49083D01*
X57593Y-49064D01*
X57556Y-49045D01*
X57500Y-49045D01*
X57462Y-49064D01*
X57443Y-49083D01*
X57425Y-49120D01*
X57425Y-49233D01*
X57443Y-49270D01*
X57462Y-49289D01*
X57500Y-49308D01*
X57556Y-49308D01*
X57256Y-49045D02*
X57256Y-49308D01*
X57256Y-49083D02*
X57237Y-49064D01*
X57200Y-49045D01*
X57143Y-49045D01*
X57106Y-49064D01*
X57087Y-49101D01*
X57087Y-49308D01*
X56956Y-49045D02*
X56806Y-49045D01*
X56900Y-48914D02*
X56900Y-49251D01*
X56881Y-49289D01*
X56843Y-49308D01*
X56806Y-49308D01*
X56675Y-49308D02*
X56675Y-49045D01*
X56675Y-49120D02*
X56656Y-49083D01*
X56637Y-49064D01*
X56600Y-49045D01*
X56562Y-49045D01*
X56375Y-49308D02*
X56412Y-49289D01*
X56431Y-49270D01*
X56450Y-49233D01*
X56450Y-49120D01*
X56431Y-49083D01*
X56412Y-49064D01*
X56375Y-49045D01*
X56318Y-49045D01*
X56281Y-49064D01*
X56262Y-49083D01*
X56243Y-49120D01*
X56243Y-49233D01*
X56262Y-49270D01*
X56281Y-49289D01*
X56318Y-49308D01*
X56375Y-49308D01*
X56019Y-49308D02*
X56056Y-49289D01*
X56075Y-49251D01*
X56075Y-48914D01*
X55812Y-49308D02*
X55850Y-49289D01*
X55869Y-49251D01*
X55869Y-48914D01*
X55512Y-49289D02*
X55550Y-49308D01*
X55625Y-49308D01*
X55662Y-49289D01*
X55681Y-49251D01*
X55681Y-49101D01*
X55662Y-49064D01*
X55625Y-49045D01*
X55550Y-49045D01*
X55512Y-49064D01*
X55494Y-49101D01*
X55494Y-49139D01*
X55681Y-49176D01*
X55325Y-49308D02*
X55325Y-49045D01*
X55325Y-49120D02*
X55306Y-49083D01*
X55287Y-49064D01*
X55250Y-49045D01*
X55212Y-49045D01*
X58006Y-49937D02*
X58006Y-49544D01*
X57837Y-49937D02*
X57837Y-49731D01*
X57856Y-49694D01*
X57893Y-49675D01*
X57950Y-49675D01*
X57987Y-49694D01*
X58006Y-49712D01*
X57706Y-49675D02*
X57556Y-49675D01*
X57650Y-49544D02*
X57650Y-49881D01*
X57631Y-49919D01*
X57593Y-49937D01*
X57556Y-49937D01*
X57481Y-49675D02*
X57331Y-49675D01*
X57425Y-49544D02*
X57425Y-49881D01*
X57406Y-49919D01*
X57368Y-49937D01*
X57331Y-49937D01*
X57200Y-49675D02*
X57200Y-50069D01*
X57200Y-49694D02*
X57162Y-49675D01*
X57087Y-49675D01*
X57050Y-49694D01*
X57031Y-49712D01*
X57012Y-49750D01*
X57012Y-49862D01*
X57031Y-49900D01*
X57050Y-49919D01*
X57087Y-49937D01*
X57162Y-49937D01*
X57200Y-49919D01*
X56862Y-49919D02*
X56825Y-49937D01*
X56750Y-49937D01*
X56712Y-49919D01*
X56693Y-49881D01*
X56693Y-49862D01*
X56712Y-49825D01*
X56750Y-49806D01*
X56806Y-49806D01*
X56843Y-49787D01*
X56862Y-49750D01*
X56862Y-49731D01*
X56843Y-49694D01*
X56806Y-49675D01*
X56750Y-49675D01*
X56712Y-49694D01*
X56525Y-49900D02*
X56506Y-49919D01*
X56525Y-49937D01*
X56543Y-49919D01*
X56525Y-49900D01*
X56525Y-49937D01*
X56525Y-49694D02*
X56506Y-49712D01*
X56525Y-49731D01*
X56543Y-49712D01*
X56525Y-49694D01*
X56525Y-49731D01*
X56056Y-49525D02*
X56393Y-50031D01*
X55644Y-49525D02*
X55981Y-50031D01*
X55344Y-49675D02*
X55344Y-49994D01*
X55362Y-50031D01*
X55381Y-50050D01*
X55419Y-50069D01*
X55475Y-50069D01*
X55512Y-50050D01*
X55344Y-49919D02*
X55381Y-49937D01*
X55456Y-49937D01*
X55494Y-49919D01*
X55512Y-49900D01*
X55531Y-49862D01*
X55531Y-49750D01*
X55512Y-49712D01*
X55494Y-49694D01*
X55456Y-49675D01*
X55381Y-49675D01*
X55344Y-49694D01*
X55156Y-49937D02*
X55156Y-49675D01*
X55156Y-49544D02*
X55175Y-49562D01*
X55156Y-49581D01*
X55137Y-49562D01*
X55156Y-49544D01*
X55156Y-49581D01*
X55025Y-49675D02*
X54875Y-49675D01*
X54969Y-49544D02*
X54969Y-49881D01*
X54950Y-49919D01*
X54912Y-49937D01*
X54875Y-49937D01*
X54744Y-49937D02*
X54744Y-49544D01*
X54575Y-49937D02*
X54575Y-49731D01*
X54594Y-49694D01*
X54631Y-49675D01*
X54687Y-49675D01*
X54725Y-49694D01*
X54744Y-49712D01*
X54219Y-49675D02*
X54219Y-49937D01*
X54387Y-49675D02*
X54387Y-49881D01*
X54369Y-49919D01*
X54331Y-49937D01*
X54275Y-49937D01*
X54237Y-49919D01*
X54219Y-49900D01*
X54031Y-49937D02*
X54031Y-49544D01*
X54031Y-49694D02*
X53994Y-49675D01*
X53919Y-49675D01*
X53881Y-49694D01*
X53863Y-49712D01*
X53844Y-49750D01*
X53844Y-49862D01*
X53863Y-49900D01*
X53881Y-49919D01*
X53919Y-49937D01*
X53994Y-49937D01*
X54031Y-49919D01*
X53675Y-49900D02*
X53656Y-49919D01*
X53675Y-49937D01*
X53694Y-49919D01*
X53675Y-49900D01*
X53675Y-49937D01*
X53319Y-49919D02*
X53356Y-49937D01*
X53431Y-49937D01*
X53469Y-49919D01*
X53488Y-49900D01*
X53506Y-49862D01*
X53506Y-49750D01*
X53488Y-49712D01*
X53469Y-49694D01*
X53431Y-49675D01*
X53356Y-49675D01*
X53319Y-49694D01*
X53094Y-49937D02*
X53131Y-49919D01*
X53150Y-49900D01*
X53169Y-49862D01*
X53169Y-49750D01*
X53150Y-49712D01*
X53131Y-49694D01*
X53094Y-49675D01*
X53038Y-49675D01*
X53000Y-49694D01*
X52981Y-49712D01*
X52963Y-49750D01*
X52963Y-49862D01*
X52981Y-49900D01*
X53000Y-49919D01*
X53038Y-49937D01*
X53094Y-49937D01*
X52794Y-49937D02*
X52794Y-49675D01*
X52794Y-49712D02*
X52775Y-49694D01*
X52738Y-49675D01*
X52681Y-49675D01*
X52644Y-49694D01*
X52625Y-49731D01*
X52625Y-49937D01*
X52625Y-49731D02*
X52606Y-49694D01*
X52569Y-49675D01*
X52513Y-49675D01*
X52475Y-49694D01*
X52456Y-49731D01*
X52456Y-49937D01*
X51988Y-49525D02*
X52325Y-50031D01*
X51857Y-49675D02*
X51857Y-50012D01*
X51875Y-50050D01*
X51913Y-50069D01*
X51932Y-50069D01*
X51857Y-49544D02*
X51875Y-49562D01*
X51857Y-49581D01*
X51838Y-49562D01*
X51857Y-49544D01*
X51857Y-49581D01*
X51613Y-49937D02*
X51650Y-49919D01*
X51669Y-49900D01*
X51688Y-49862D01*
X51688Y-49750D01*
X51669Y-49712D01*
X51650Y-49694D01*
X51613Y-49675D01*
X51557Y-49675D01*
X51519Y-49694D01*
X51500Y-49712D01*
X51482Y-49750D01*
X51482Y-49862D01*
X51500Y-49900D01*
X51519Y-49919D01*
X51557Y-49937D01*
X51613Y-49937D01*
X51163Y-49919D02*
X51200Y-49937D01*
X51275Y-49937D01*
X51313Y-49919D01*
X51332Y-49881D01*
X51332Y-49731D01*
X51313Y-49694D01*
X51275Y-49675D01*
X51200Y-49675D01*
X51163Y-49694D01*
X51144Y-49731D01*
X51144Y-49769D01*
X51332Y-49806D01*
X51032Y-49675D02*
X50882Y-49675D01*
X50975Y-49937D02*
X50975Y-49600D01*
X50957Y-49562D01*
X50919Y-49544D01*
X50882Y-49544D01*
X50600Y-49919D02*
X50638Y-49937D01*
X50713Y-49937D01*
X50750Y-49919D01*
X50769Y-49881D01*
X50769Y-49731D01*
X50750Y-49694D01*
X50713Y-49675D01*
X50638Y-49675D01*
X50600Y-49694D01*
X50582Y-49731D01*
X50582Y-49769D01*
X50769Y-49806D01*
X50413Y-49937D02*
X50413Y-49675D01*
X50413Y-49750D02*
X50394Y-49712D01*
X50375Y-49694D01*
X50338Y-49675D01*
X50300Y-49675D01*
X50169Y-49675D02*
X50169Y-49937D01*
X50169Y-49712D02*
X50150Y-49694D01*
X50113Y-49675D01*
X50057Y-49675D01*
X50019Y-49694D01*
X50001Y-49731D01*
X50001Y-49937D01*
X49663Y-49919D02*
X49701Y-49937D01*
X49776Y-49937D01*
X49813Y-49919D01*
X49832Y-49881D01*
X49832Y-49731D01*
X49813Y-49694D01*
X49776Y-49675D01*
X49701Y-49675D01*
X49663Y-49694D01*
X49644Y-49731D01*
X49644Y-49769D01*
X49832Y-49806D01*
X49476Y-49937D02*
X49476Y-49675D01*
X49476Y-49750D02*
X49457Y-49712D01*
X49438Y-49694D01*
X49401Y-49675D01*
X49363Y-49675D01*
X48951Y-49525D02*
X49288Y-50031D01*
M02*
