G04 (created by PCBNEW (2013-mar-13)-testing) date Tue 09 Jul 2013 08:38:35 AM EDT*
%MOIN*%
G04 Gerber Fmt 3.4, Leading zero omitted, Abs format*
%FSLAX34Y34*%
G01*
G70*
G90*
G04 APERTURE LIST*
%ADD10C,0.005906*%
%ADD11R,0.055000X0.035000*%
%ADD12R,0.035000X0.055000*%
%ADD13R,0.059843X0.040157*%
%ADD14R,0.060000X0.060000*%
%ADD15C,0.060000*%
%ADD16C,0.160000*%
%ADD17R,0.039400X0.031500*%
%ADD18R,0.066929X0.025591*%
%ADD19R,0.062992X0.114173*%
%ADD20R,0.204724X0.204724*%
%ADD21R,0.057087X0.019685*%
%ADD22R,0.019685X0.057087*%
%ADD23R,0.057087X0.057087*%
G04 APERTURE END LIST*
G54D10*
G54D11*
X51090Y-51654D03*
X51090Y-50904D03*
X60157Y-55924D03*
X60157Y-56674D03*
G54D12*
X57855Y-53385D03*
X57105Y-53385D03*
X57855Y-52519D03*
X57105Y-52519D03*
G54D11*
X60637Y-47028D03*
X60637Y-46278D03*
X59606Y-49782D03*
X59606Y-50532D03*
G54D12*
X62686Y-56889D03*
X61936Y-56889D03*
G54D13*
X63196Y-46348D03*
X63196Y-47549D03*
X62015Y-47549D03*
X62015Y-46348D03*
X56602Y-46348D03*
X56602Y-47549D03*
G54D14*
X51237Y-58969D03*
G54D15*
X52237Y-58969D03*
X53237Y-58969D03*
X54237Y-58969D03*
X55237Y-58969D03*
X56237Y-58969D03*
X57237Y-58969D03*
X58237Y-58969D03*
X59237Y-58969D03*
X60237Y-58969D03*
X61237Y-58969D03*
X62237Y-58969D03*
X63237Y-58969D03*
X64237Y-58969D03*
G54D16*
X66000Y-49250D03*
X66000Y-54250D03*
X66000Y-51750D03*
X66000Y-56750D03*
G54D17*
X52133Y-52263D03*
X52999Y-51888D03*
X52999Y-52638D03*
G54D11*
X53944Y-52638D03*
X53944Y-51888D03*
X51090Y-52479D03*
X51090Y-53229D03*
G54D12*
X52191Y-50984D03*
X52941Y-50984D03*
G54D11*
X54830Y-51888D03*
X54830Y-52638D03*
X61129Y-57658D03*
X61129Y-56908D03*
X64279Y-47323D03*
X64279Y-46573D03*
G54D12*
X61936Y-57775D03*
X62686Y-57775D03*
G54D11*
X56602Y-49095D03*
X56602Y-48345D03*
G54D18*
X54751Y-56716D03*
X54751Y-56216D03*
X54751Y-55716D03*
X54751Y-55216D03*
X54751Y-54716D03*
X54751Y-54216D03*
X54751Y-53716D03*
X52547Y-53716D03*
X52547Y-54216D03*
X52547Y-54716D03*
X52547Y-55216D03*
X52547Y-55716D03*
X52547Y-56216D03*
X52547Y-56716D03*
G54D19*
X58900Y-48126D03*
X58900Y-46473D03*
G54D20*
X61023Y-52992D03*
G54D21*
X62460Y-52047D03*
X62460Y-52362D03*
X62460Y-52677D03*
X62460Y-52992D03*
X62460Y-53307D03*
X62460Y-53622D03*
X62460Y-53937D03*
X59586Y-53937D03*
X59586Y-53622D03*
X59586Y-53307D03*
X59586Y-52992D03*
X59586Y-52677D03*
X59586Y-52362D03*
X59586Y-52047D03*
G54D22*
X61968Y-54429D03*
X61653Y-54429D03*
X61338Y-54429D03*
X61023Y-54429D03*
X60708Y-54429D03*
X60393Y-54429D03*
X60078Y-54429D03*
X60078Y-51555D03*
X60393Y-51555D03*
X60708Y-51555D03*
X61023Y-51555D03*
X61338Y-51555D03*
X61653Y-51555D03*
X61968Y-51555D03*
G54D23*
X62460Y-51555D03*
X62460Y-54429D03*
X59586Y-54429D03*
G54D10*
G36*
X59301Y-51840D02*
X59301Y-51269D01*
X59872Y-51269D01*
X59872Y-51840D01*
X59301Y-51840D01*
X59301Y-51840D01*
G37*
M02*
