G04 (created by PCBNEW (2013-mar-13)-testing) date Tue 09 Jul 2013 08:38:35 AM EDT*
%MOIN*%
G04 Gerber Fmt 3.4, Leading zero omitted, Abs format*
%FSLAX34Y34*%
G01*
G70*
G90*
G04 APERTURE LIST*
%ADD10C,0.005906*%
%ADD11R,0.060000X0.060000*%
%ADD12C,0.060000*%
%ADD13C,0.125000*%
%ADD14C,0.160000*%
%ADD15C,0.035000*%
%ADD16C,0.010000*%
%ADD17C,0.008000*%
G04 APERTURE END LIST*
G54D10*
G54D11*
X51237Y-58969D03*
G54D12*
X52237Y-58969D03*
X53237Y-58969D03*
X54237Y-58969D03*
X55237Y-58969D03*
X56237Y-58969D03*
X57237Y-58969D03*
X58237Y-58969D03*
X59237Y-58969D03*
X60237Y-58969D03*
X61237Y-58969D03*
X62237Y-58969D03*
X63237Y-58969D03*
X64237Y-58969D03*
G54D13*
X66137Y-59169D03*
X49387Y-46919D03*
X49387Y-59169D03*
X66137Y-46919D03*
G54D14*
X66000Y-49250D03*
X66000Y-54250D03*
X66000Y-51750D03*
X66000Y-56750D03*
G54D15*
X62125Y-50944D03*
X61968Y-54960D03*
X60078Y-54960D03*
X56692Y-51811D03*
X58976Y-51811D03*
X56062Y-52755D03*
X55826Y-53858D03*
X55905Y-55590D03*
X58976Y-51181D03*
X58897Y-53622D03*
X55511Y-55275D03*
X55511Y-56535D03*
X61968Y-48110D03*
X61653Y-50944D03*
X54881Y-53149D03*
X63149Y-52992D03*
X58897Y-52362D03*
X56535Y-52598D03*
X56535Y-53543D03*
X63070Y-51889D03*
X63228Y-52283D03*
X63070Y-54094D03*
X63228Y-53700D03*
X63543Y-53385D03*
X63543Y-52598D03*
X51720Y-55610D03*
X51169Y-50255D03*
X54003Y-51318D03*
X59763Y-57637D03*
X58897Y-54094D03*
G54D16*
X62237Y-58969D02*
X62237Y-58785D01*
X62598Y-50472D02*
X62125Y-50944D01*
X66692Y-50472D02*
X62598Y-50472D01*
X67086Y-50866D02*
X66692Y-50472D01*
X67086Y-57401D02*
X67086Y-50866D01*
X66614Y-57874D02*
X67086Y-57401D01*
X63149Y-57874D02*
X66614Y-57874D01*
X62237Y-58785D02*
X63149Y-57874D01*
X61237Y-58969D02*
X61237Y-55691D01*
X61237Y-55691D02*
X61968Y-54960D01*
X60237Y-58969D02*
X60237Y-55119D01*
X60237Y-55119D02*
X60078Y-54960D01*
X58976Y-51811D02*
X56692Y-51811D01*
X56456Y-51574D02*
X56062Y-51968D01*
X56062Y-51968D02*
X56062Y-52755D01*
X55826Y-53858D02*
X55905Y-53937D01*
X55905Y-53937D02*
X55905Y-55590D01*
X56850Y-51181D02*
X56456Y-51574D01*
X56929Y-51181D02*
X56850Y-51181D01*
X57086Y-51181D02*
X56929Y-51181D01*
X58976Y-51181D02*
X57086Y-51181D01*
X58897Y-54881D02*
X58503Y-54488D01*
X59237Y-55222D02*
X58897Y-54881D01*
X59237Y-55222D02*
X59237Y-58969D01*
X58503Y-54015D02*
X58897Y-53622D01*
X58503Y-54488D02*
X58503Y-54015D01*
X55511Y-56535D02*
X55511Y-55275D01*
X61653Y-48425D02*
X61968Y-48110D01*
X61653Y-50944D02*
X61653Y-48425D01*
X57237Y-58969D02*
X57237Y-54796D01*
X57237Y-54796D02*
X55590Y-53149D01*
X56614Y-53149D02*
X55590Y-53149D01*
X55590Y-53149D02*
X54881Y-53149D01*
X56771Y-52992D02*
X56614Y-53149D01*
X63149Y-52992D02*
X56771Y-52992D01*
X58237Y-58969D02*
X58237Y-55245D01*
X56771Y-52362D02*
X58897Y-52362D01*
X56535Y-52598D02*
X56771Y-52362D01*
X58237Y-55245D02*
X56535Y-53543D01*
X59527Y-57401D02*
X59763Y-57637D01*
X59527Y-55039D02*
X59527Y-57401D01*
X58897Y-54409D02*
X59527Y-55039D01*
X58897Y-54094D02*
X58897Y-54409D01*
G54D10*
G36*
X66889Y-60117D02*
X64679Y-60117D01*
X64679Y-58889D01*
X64614Y-58726D01*
X64606Y-58713D01*
X64537Y-58683D01*
X64523Y-58698D01*
X64523Y-58669D01*
X64493Y-58600D01*
X64332Y-58530D01*
X64157Y-58527D01*
X63994Y-58592D01*
X63982Y-58600D01*
X63952Y-58669D01*
X64237Y-58955D01*
X64523Y-58669D01*
X64523Y-58698D01*
X64251Y-58969D01*
X64537Y-59254D01*
X64606Y-59224D01*
X64676Y-59064D01*
X64679Y-58889D01*
X64679Y-60117D01*
X64523Y-60117D01*
X64523Y-59268D01*
X64237Y-58983D01*
X64223Y-58997D01*
X64223Y-58969D01*
X63938Y-58683D01*
X63869Y-58713D01*
X63799Y-58874D01*
X63796Y-59049D01*
X63860Y-59212D01*
X63869Y-59224D01*
X63938Y-59254D01*
X64223Y-58969D01*
X64223Y-58997D01*
X63952Y-59268D01*
X63982Y-59338D01*
X64142Y-59407D01*
X64317Y-59410D01*
X64480Y-59346D01*
X64493Y-59338D01*
X64523Y-59268D01*
X64523Y-60117D01*
X63677Y-60117D01*
X63677Y-58882D01*
X63611Y-58720D01*
X63487Y-58596D01*
X63325Y-58529D01*
X63150Y-58529D01*
X62988Y-58596D01*
X62864Y-58719D01*
X62797Y-58881D01*
X62797Y-59056D01*
X62864Y-59218D01*
X62988Y-59342D01*
X63149Y-59409D01*
X63324Y-59409D01*
X63486Y-59342D01*
X63610Y-59218D01*
X63677Y-59057D01*
X63677Y-58882D01*
X63677Y-60117D01*
X60677Y-60117D01*
X60677Y-58882D01*
X60611Y-58720D01*
X60487Y-58596D01*
X60427Y-58571D01*
X60427Y-55119D01*
X60413Y-55046D01*
X60393Y-55017D01*
X60393Y-54898D01*
X60345Y-54782D01*
X60257Y-54693D01*
X60141Y-54645D01*
X60016Y-54645D01*
X59900Y-54693D01*
X59811Y-54781D01*
X59763Y-54897D01*
X59763Y-55023D01*
X59811Y-55138D01*
X59900Y-55227D01*
X60015Y-55275D01*
X60047Y-55275D01*
X60047Y-57500D01*
X60030Y-57459D01*
X59942Y-57370D01*
X59826Y-57322D01*
X59717Y-57322D01*
X59717Y-55039D01*
X59717Y-55039D01*
X59717Y-55039D01*
X59703Y-54966D01*
X59661Y-54905D01*
X59097Y-54340D01*
X59164Y-54273D01*
X59212Y-54157D01*
X59212Y-54032D01*
X59164Y-53916D01*
X59106Y-53858D01*
X59164Y-53800D01*
X59212Y-53684D01*
X59212Y-53559D01*
X59164Y-53443D01*
X59076Y-53355D01*
X58960Y-53307D01*
X58835Y-53306D01*
X58719Y-53354D01*
X58630Y-53443D01*
X58582Y-53559D01*
X58582Y-53668D01*
X58369Y-53881D01*
X58328Y-53943D01*
X58313Y-54015D01*
X58313Y-54488D01*
X58328Y-54560D01*
X58369Y-54622D01*
X58763Y-55016D01*
X58763Y-55016D01*
X58763Y-55016D01*
X59047Y-55300D01*
X59047Y-58571D01*
X58988Y-58596D01*
X58864Y-58719D01*
X58797Y-58881D01*
X58797Y-59056D01*
X58864Y-59218D01*
X58988Y-59342D01*
X59149Y-59409D01*
X59324Y-59409D01*
X59486Y-59342D01*
X59610Y-59218D01*
X59677Y-59057D01*
X59677Y-58882D01*
X59611Y-58720D01*
X59487Y-58596D01*
X59427Y-58571D01*
X59427Y-57570D01*
X59448Y-57591D01*
X59448Y-57700D01*
X59496Y-57815D01*
X59585Y-57904D01*
X59700Y-57952D01*
X59826Y-57952D01*
X59941Y-57904D01*
X60030Y-57816D01*
X60047Y-57775D01*
X60047Y-58571D01*
X59988Y-58596D01*
X59864Y-58719D01*
X59797Y-58881D01*
X59797Y-59056D01*
X59864Y-59218D01*
X59988Y-59342D01*
X60149Y-59409D01*
X60324Y-59409D01*
X60486Y-59342D01*
X60610Y-59218D01*
X60677Y-59057D01*
X60677Y-58882D01*
X60677Y-60117D01*
X56677Y-60117D01*
X56677Y-58882D01*
X56611Y-58720D01*
X56487Y-58596D01*
X56325Y-58529D01*
X56150Y-58529D01*
X55988Y-58596D01*
X55864Y-58719D01*
X55797Y-58881D01*
X55797Y-59056D01*
X55864Y-59218D01*
X55988Y-59342D01*
X56149Y-59409D01*
X56324Y-59409D01*
X56486Y-59342D01*
X56610Y-59218D01*
X56677Y-59057D01*
X56677Y-58882D01*
X56677Y-60117D01*
X55677Y-60117D01*
X55677Y-58882D01*
X55611Y-58720D01*
X55487Y-58596D01*
X55325Y-58529D01*
X55150Y-58529D01*
X54988Y-58596D01*
X54864Y-58719D01*
X54797Y-58881D01*
X54797Y-59056D01*
X54864Y-59218D01*
X54988Y-59342D01*
X55149Y-59409D01*
X55324Y-59409D01*
X55486Y-59342D01*
X55610Y-59218D01*
X55677Y-59057D01*
X55677Y-58882D01*
X55677Y-60117D01*
X54677Y-60117D01*
X54677Y-58882D01*
X54611Y-58720D01*
X54487Y-58596D01*
X54325Y-58529D01*
X54150Y-58529D01*
X53988Y-58596D01*
X53864Y-58719D01*
X53797Y-58881D01*
X53797Y-59056D01*
X53864Y-59218D01*
X53988Y-59342D01*
X54149Y-59409D01*
X54324Y-59409D01*
X54486Y-59342D01*
X54610Y-59218D01*
X54677Y-59057D01*
X54677Y-58882D01*
X54677Y-60117D01*
X53677Y-60117D01*
X53677Y-58882D01*
X53611Y-58720D01*
X53487Y-58596D01*
X53325Y-58529D01*
X53150Y-58529D01*
X52988Y-58596D01*
X52864Y-58719D01*
X52797Y-58881D01*
X52797Y-59056D01*
X52864Y-59218D01*
X52988Y-59342D01*
X53149Y-59409D01*
X53324Y-59409D01*
X53486Y-59342D01*
X53610Y-59218D01*
X53677Y-59057D01*
X53677Y-58882D01*
X53677Y-60117D01*
X52677Y-60117D01*
X52677Y-58882D01*
X52611Y-58720D01*
X52487Y-58596D01*
X52325Y-58529D01*
X52150Y-58529D01*
X51988Y-58596D01*
X51864Y-58719D01*
X51797Y-58881D01*
X51797Y-59056D01*
X51864Y-59218D01*
X51988Y-59342D01*
X52149Y-59409D01*
X52324Y-59409D01*
X52486Y-59342D01*
X52610Y-59218D01*
X52677Y-59057D01*
X52677Y-58882D01*
X52677Y-60117D01*
X51677Y-60117D01*
X51677Y-59297D01*
X51677Y-59241D01*
X51677Y-59014D01*
X51677Y-58924D01*
X51677Y-58697D01*
X51677Y-58641D01*
X51656Y-58589D01*
X51617Y-58550D01*
X51565Y-58529D01*
X51282Y-58529D01*
X51247Y-58564D01*
X51247Y-58959D01*
X51642Y-58959D01*
X51677Y-58924D01*
X51677Y-59014D01*
X51642Y-58979D01*
X51247Y-58979D01*
X51247Y-59374D01*
X51282Y-59409D01*
X51565Y-59409D01*
X51617Y-59387D01*
X51656Y-59348D01*
X51677Y-59297D01*
X51677Y-60117D01*
X51227Y-60117D01*
X51227Y-59374D01*
X51227Y-58979D01*
X51227Y-58959D01*
X51227Y-58564D01*
X51192Y-58529D01*
X50909Y-58529D01*
X50858Y-58550D01*
X50819Y-58589D01*
X50797Y-58641D01*
X50797Y-58697D01*
X50797Y-58924D01*
X50832Y-58959D01*
X51227Y-58959D01*
X51227Y-58979D01*
X50832Y-58979D01*
X50797Y-59014D01*
X50797Y-59241D01*
X50797Y-59297D01*
X50819Y-59348D01*
X50858Y-59387D01*
X50909Y-59409D01*
X51192Y-59409D01*
X51227Y-59374D01*
X51227Y-60117D01*
X50152Y-60117D01*
X50152Y-59017D01*
X50152Y-46767D01*
X50036Y-46486D01*
X49821Y-46271D01*
X49540Y-46154D01*
X49236Y-46154D01*
X48955Y-46270D01*
X48739Y-46485D01*
X48622Y-46766D01*
X48622Y-47070D01*
X48738Y-47352D01*
X48953Y-47567D01*
X49234Y-47684D01*
X49539Y-47684D01*
X49820Y-47568D01*
X50035Y-47353D01*
X50152Y-47072D01*
X50152Y-46767D01*
X50152Y-59017D01*
X50036Y-58736D01*
X49821Y-58521D01*
X49540Y-58404D01*
X49236Y-58404D01*
X48955Y-58520D01*
X48739Y-58735D01*
X48622Y-59016D01*
X48622Y-59320D01*
X48738Y-59602D01*
X48953Y-59817D01*
X49234Y-59934D01*
X49539Y-59934D01*
X49820Y-59818D01*
X50035Y-59603D01*
X50152Y-59322D01*
X50152Y-59017D01*
X50152Y-60117D01*
X48465Y-60117D01*
X48465Y-45866D01*
X66889Y-45866D01*
X66889Y-46734D01*
X66786Y-46486D01*
X66571Y-46271D01*
X66290Y-46154D01*
X65986Y-46154D01*
X65705Y-46270D01*
X65489Y-46485D01*
X65372Y-46766D01*
X65372Y-47070D01*
X65488Y-47352D01*
X65703Y-47567D01*
X65984Y-47684D01*
X66289Y-47684D01*
X66570Y-47568D01*
X66785Y-47353D01*
X66889Y-47104D01*
X66889Y-48940D01*
X66797Y-48718D01*
X66533Y-48453D01*
X66187Y-48310D01*
X65813Y-48309D01*
X65468Y-48452D01*
X65203Y-48716D01*
X65060Y-49062D01*
X65059Y-49436D01*
X65202Y-49781D01*
X65466Y-50046D01*
X65812Y-50189D01*
X66186Y-50190D01*
X66531Y-50047D01*
X66796Y-49783D01*
X66889Y-49559D01*
X66889Y-50399D01*
X66827Y-50338D01*
X66765Y-50296D01*
X66692Y-50282D01*
X62598Y-50282D01*
X62525Y-50296D01*
X62464Y-50338D01*
X62172Y-50629D01*
X62063Y-50629D01*
X61947Y-50677D01*
X61889Y-50735D01*
X61843Y-50689D01*
X61843Y-48503D01*
X61922Y-48425D01*
X62030Y-48425D01*
X62146Y-48377D01*
X62235Y-48288D01*
X62283Y-48173D01*
X62283Y-48047D01*
X62235Y-47932D01*
X62147Y-47843D01*
X62031Y-47795D01*
X61906Y-47795D01*
X61790Y-47843D01*
X61701Y-47931D01*
X61653Y-48047D01*
X61653Y-48156D01*
X61519Y-48290D01*
X61478Y-48352D01*
X61463Y-48425D01*
X61463Y-50689D01*
X61386Y-50766D01*
X61338Y-50881D01*
X61338Y-51007D01*
X61386Y-51123D01*
X61474Y-51211D01*
X61590Y-51259D01*
X61715Y-51259D01*
X61831Y-51212D01*
X61889Y-51154D01*
X61947Y-51211D01*
X62063Y-51259D01*
X62188Y-51259D01*
X62304Y-51212D01*
X62392Y-51123D01*
X62440Y-51007D01*
X62441Y-50898D01*
X62677Y-50662D01*
X66614Y-50662D01*
X66889Y-50937D01*
X66889Y-51440D01*
X66797Y-51218D01*
X66533Y-50953D01*
X66187Y-50810D01*
X65813Y-50809D01*
X65468Y-50952D01*
X65203Y-51216D01*
X65060Y-51562D01*
X65059Y-51936D01*
X65202Y-52281D01*
X65466Y-52546D01*
X65812Y-52689D01*
X66186Y-52690D01*
X66531Y-52547D01*
X66796Y-52283D01*
X66889Y-52059D01*
X66889Y-53940D01*
X66797Y-53718D01*
X66533Y-53453D01*
X66187Y-53310D01*
X65813Y-53309D01*
X65468Y-53452D01*
X65203Y-53716D01*
X65060Y-54062D01*
X65059Y-54436D01*
X65202Y-54781D01*
X65466Y-55046D01*
X65812Y-55189D01*
X66186Y-55190D01*
X66531Y-55047D01*
X66796Y-54783D01*
X66889Y-54559D01*
X66889Y-56443D01*
X66811Y-56240D01*
X66781Y-56194D01*
X66659Y-56104D01*
X66645Y-56118D01*
X66645Y-56090D01*
X66555Y-55968D01*
X66214Y-55815D01*
X65840Y-55805D01*
X65490Y-55938D01*
X65444Y-55968D01*
X65354Y-56090D01*
X66000Y-56735D01*
X66645Y-56090D01*
X66645Y-56118D01*
X66014Y-56750D01*
X66659Y-57395D01*
X66781Y-57305D01*
X66889Y-57064D01*
X66889Y-57330D01*
X66535Y-57684D01*
X66188Y-57684D01*
X66509Y-57561D01*
X66555Y-57531D01*
X66645Y-57409D01*
X66000Y-56764D01*
X65985Y-56778D01*
X65985Y-56750D01*
X65340Y-56104D01*
X65218Y-56194D01*
X65065Y-56535D01*
X65055Y-56909D01*
X65188Y-57259D01*
X65218Y-57305D01*
X65340Y-57395D01*
X65985Y-56750D01*
X65985Y-56778D01*
X65354Y-57409D01*
X65444Y-57531D01*
X65785Y-57684D01*
X63464Y-57684D01*
X63464Y-52929D01*
X63416Y-52813D01*
X63328Y-52725D01*
X63212Y-52677D01*
X63087Y-52677D01*
X62971Y-52724D01*
X62894Y-52802D01*
X56777Y-52802D01*
X56802Y-52777D01*
X56850Y-52661D01*
X56850Y-52552D01*
X58642Y-52552D01*
X58718Y-52629D01*
X58834Y-52677D01*
X58960Y-52677D01*
X59075Y-52629D01*
X59164Y-52540D01*
X59212Y-52425D01*
X59212Y-52299D01*
X59164Y-52184D01*
X59087Y-52106D01*
X59154Y-52078D01*
X59243Y-51989D01*
X59291Y-51873D01*
X59291Y-51748D01*
X59243Y-51632D01*
X59155Y-51544D01*
X59039Y-51496D01*
X59038Y-51496D01*
X59154Y-51448D01*
X59243Y-51359D01*
X59291Y-51244D01*
X59291Y-51118D01*
X59243Y-51002D01*
X59155Y-50914D01*
X59039Y-50866D01*
X58913Y-50866D01*
X58798Y-50913D01*
X58720Y-50991D01*
X57086Y-50991D01*
X56929Y-50991D01*
X56850Y-50991D01*
X56850Y-50991D01*
X56777Y-51005D01*
X56716Y-51046D01*
X56716Y-51046D01*
X56322Y-51440D01*
X56322Y-51440D01*
X55928Y-51834D01*
X55887Y-51895D01*
X55872Y-51968D01*
X55872Y-52500D01*
X55796Y-52577D01*
X55748Y-52692D01*
X55747Y-52818D01*
X55795Y-52934D01*
X55821Y-52959D01*
X55590Y-52959D01*
X55137Y-52959D01*
X55060Y-52882D01*
X54944Y-52834D01*
X54819Y-52834D01*
X54703Y-52882D01*
X54615Y-52970D01*
X54566Y-53086D01*
X54566Y-53211D01*
X54614Y-53327D01*
X54703Y-53416D01*
X54818Y-53464D01*
X54944Y-53464D01*
X55060Y-53416D01*
X55137Y-53339D01*
X55511Y-53339D01*
X55729Y-53557D01*
X55648Y-53591D01*
X55559Y-53679D01*
X55511Y-53795D01*
X55511Y-53920D01*
X55559Y-54036D01*
X55648Y-54125D01*
X55715Y-54153D01*
X55715Y-55033D01*
X55690Y-55008D01*
X55574Y-54960D01*
X55449Y-54960D01*
X55333Y-55008D01*
X55244Y-55096D01*
X55196Y-55212D01*
X55196Y-55337D01*
X55244Y-55453D01*
X55321Y-55531D01*
X55321Y-56280D01*
X55244Y-56356D01*
X55196Y-56472D01*
X55196Y-56597D01*
X55244Y-56713D01*
X55333Y-56802D01*
X55448Y-56850D01*
X55574Y-56850D01*
X55690Y-56802D01*
X55778Y-56714D01*
X55826Y-56598D01*
X55826Y-56473D01*
X55779Y-56357D01*
X55701Y-56279D01*
X55701Y-55832D01*
X55726Y-55857D01*
X55842Y-55905D01*
X55967Y-55905D01*
X56083Y-55857D01*
X56172Y-55769D01*
X56220Y-55653D01*
X56220Y-55528D01*
X56172Y-55412D01*
X56095Y-55335D01*
X56095Y-54032D01*
X56127Y-53955D01*
X57047Y-54875D01*
X57047Y-58571D01*
X56988Y-58596D01*
X56864Y-58719D01*
X56797Y-58881D01*
X56797Y-59056D01*
X56864Y-59218D01*
X56988Y-59342D01*
X57149Y-59409D01*
X57324Y-59409D01*
X57486Y-59342D01*
X57610Y-59218D01*
X57677Y-59057D01*
X57677Y-58882D01*
X57611Y-58720D01*
X57487Y-58596D01*
X57427Y-58571D01*
X57427Y-54796D01*
X57427Y-54796D01*
X57427Y-54796D01*
X57413Y-54724D01*
X57372Y-54662D01*
X57372Y-54662D01*
X57372Y-54662D01*
X56567Y-53858D01*
X56581Y-53858D01*
X58047Y-55324D01*
X58047Y-58571D01*
X57988Y-58596D01*
X57864Y-58719D01*
X57797Y-58881D01*
X57797Y-59056D01*
X57864Y-59218D01*
X57988Y-59342D01*
X58149Y-59409D01*
X58324Y-59409D01*
X58486Y-59342D01*
X58610Y-59218D01*
X58677Y-59057D01*
X58677Y-58882D01*
X58611Y-58720D01*
X58487Y-58596D01*
X58427Y-58571D01*
X58427Y-55245D01*
X58413Y-55172D01*
X58372Y-55111D01*
X58372Y-55111D01*
X56850Y-53589D01*
X56850Y-53480D01*
X56802Y-53365D01*
X56732Y-53294D01*
X56748Y-53283D01*
X56850Y-53182D01*
X62894Y-53182D01*
X62970Y-53259D01*
X63086Y-53307D01*
X63211Y-53307D01*
X63327Y-53259D01*
X63416Y-53170D01*
X63464Y-53055D01*
X63464Y-52929D01*
X63464Y-57684D01*
X63149Y-57684D01*
X63149Y-57684D01*
X63076Y-57698D01*
X63015Y-57739D01*
X63015Y-57739D01*
X62283Y-58471D01*
X62283Y-54898D01*
X62235Y-54782D01*
X62147Y-54693D01*
X62031Y-54645D01*
X61906Y-54645D01*
X61790Y-54693D01*
X61701Y-54781D01*
X61653Y-54897D01*
X61653Y-55006D01*
X61103Y-55556D01*
X61062Y-55618D01*
X61047Y-55691D01*
X61047Y-58571D01*
X60988Y-58596D01*
X60864Y-58719D01*
X60797Y-58881D01*
X60797Y-59056D01*
X60864Y-59218D01*
X60988Y-59342D01*
X61149Y-59409D01*
X61324Y-59409D01*
X61486Y-59342D01*
X61610Y-59218D01*
X61677Y-59057D01*
X61677Y-58882D01*
X61611Y-58720D01*
X61487Y-58596D01*
X61427Y-58571D01*
X61427Y-55770D01*
X61922Y-55275D01*
X62030Y-55275D01*
X62146Y-55227D01*
X62235Y-55139D01*
X62283Y-55023D01*
X62283Y-54898D01*
X62283Y-58471D01*
X62225Y-58529D01*
X62150Y-58529D01*
X61988Y-58596D01*
X61864Y-58719D01*
X61797Y-58881D01*
X61797Y-59056D01*
X61864Y-59218D01*
X61988Y-59342D01*
X62149Y-59409D01*
X62324Y-59409D01*
X62486Y-59342D01*
X62610Y-59218D01*
X62677Y-59057D01*
X62677Y-58882D01*
X62611Y-58720D01*
X62591Y-58700D01*
X63228Y-58064D01*
X66614Y-58064D01*
X66686Y-58049D01*
X66748Y-58008D01*
X66889Y-57867D01*
X66889Y-58984D01*
X66786Y-58736D01*
X66571Y-58521D01*
X66290Y-58404D01*
X65986Y-58404D01*
X65705Y-58520D01*
X65489Y-58735D01*
X65372Y-59016D01*
X65372Y-59320D01*
X65488Y-59602D01*
X65703Y-59817D01*
X65984Y-59934D01*
X66289Y-59934D01*
X66570Y-59818D01*
X66785Y-59603D01*
X66889Y-59354D01*
X66889Y-60117D01*
X66889Y-60117D01*
G37*
G54D17*
X66889Y-60117D02*
X64679Y-60117D01*
X64679Y-58889D01*
X64614Y-58726D01*
X64606Y-58713D01*
X64537Y-58683D01*
X64523Y-58698D01*
X64523Y-58669D01*
X64493Y-58600D01*
X64332Y-58530D01*
X64157Y-58527D01*
X63994Y-58592D01*
X63982Y-58600D01*
X63952Y-58669D01*
X64237Y-58955D01*
X64523Y-58669D01*
X64523Y-58698D01*
X64251Y-58969D01*
X64537Y-59254D01*
X64606Y-59224D01*
X64676Y-59064D01*
X64679Y-58889D01*
X64679Y-60117D01*
X64523Y-60117D01*
X64523Y-59268D01*
X64237Y-58983D01*
X64223Y-58997D01*
X64223Y-58969D01*
X63938Y-58683D01*
X63869Y-58713D01*
X63799Y-58874D01*
X63796Y-59049D01*
X63860Y-59212D01*
X63869Y-59224D01*
X63938Y-59254D01*
X64223Y-58969D01*
X64223Y-58997D01*
X63952Y-59268D01*
X63982Y-59338D01*
X64142Y-59407D01*
X64317Y-59410D01*
X64480Y-59346D01*
X64493Y-59338D01*
X64523Y-59268D01*
X64523Y-60117D01*
X63677Y-60117D01*
X63677Y-58882D01*
X63611Y-58720D01*
X63487Y-58596D01*
X63325Y-58529D01*
X63150Y-58529D01*
X62988Y-58596D01*
X62864Y-58719D01*
X62797Y-58881D01*
X62797Y-59056D01*
X62864Y-59218D01*
X62988Y-59342D01*
X63149Y-59409D01*
X63324Y-59409D01*
X63486Y-59342D01*
X63610Y-59218D01*
X63677Y-59057D01*
X63677Y-58882D01*
X63677Y-60117D01*
X60677Y-60117D01*
X60677Y-58882D01*
X60611Y-58720D01*
X60487Y-58596D01*
X60427Y-58571D01*
X60427Y-55119D01*
X60413Y-55046D01*
X60393Y-55017D01*
X60393Y-54898D01*
X60345Y-54782D01*
X60257Y-54693D01*
X60141Y-54645D01*
X60016Y-54645D01*
X59900Y-54693D01*
X59811Y-54781D01*
X59763Y-54897D01*
X59763Y-55023D01*
X59811Y-55138D01*
X59900Y-55227D01*
X60015Y-55275D01*
X60047Y-55275D01*
X60047Y-57500D01*
X60030Y-57459D01*
X59942Y-57370D01*
X59826Y-57322D01*
X59717Y-57322D01*
X59717Y-55039D01*
X59717Y-55039D01*
X59717Y-55039D01*
X59703Y-54966D01*
X59661Y-54905D01*
X59097Y-54340D01*
X59164Y-54273D01*
X59212Y-54157D01*
X59212Y-54032D01*
X59164Y-53916D01*
X59106Y-53858D01*
X59164Y-53800D01*
X59212Y-53684D01*
X59212Y-53559D01*
X59164Y-53443D01*
X59076Y-53355D01*
X58960Y-53307D01*
X58835Y-53306D01*
X58719Y-53354D01*
X58630Y-53443D01*
X58582Y-53559D01*
X58582Y-53668D01*
X58369Y-53881D01*
X58328Y-53943D01*
X58313Y-54015D01*
X58313Y-54488D01*
X58328Y-54560D01*
X58369Y-54622D01*
X58763Y-55016D01*
X58763Y-55016D01*
X58763Y-55016D01*
X59047Y-55300D01*
X59047Y-58571D01*
X58988Y-58596D01*
X58864Y-58719D01*
X58797Y-58881D01*
X58797Y-59056D01*
X58864Y-59218D01*
X58988Y-59342D01*
X59149Y-59409D01*
X59324Y-59409D01*
X59486Y-59342D01*
X59610Y-59218D01*
X59677Y-59057D01*
X59677Y-58882D01*
X59611Y-58720D01*
X59487Y-58596D01*
X59427Y-58571D01*
X59427Y-57570D01*
X59448Y-57591D01*
X59448Y-57700D01*
X59496Y-57815D01*
X59585Y-57904D01*
X59700Y-57952D01*
X59826Y-57952D01*
X59941Y-57904D01*
X60030Y-57816D01*
X60047Y-57775D01*
X60047Y-58571D01*
X59988Y-58596D01*
X59864Y-58719D01*
X59797Y-58881D01*
X59797Y-59056D01*
X59864Y-59218D01*
X59988Y-59342D01*
X60149Y-59409D01*
X60324Y-59409D01*
X60486Y-59342D01*
X60610Y-59218D01*
X60677Y-59057D01*
X60677Y-58882D01*
X60677Y-60117D01*
X56677Y-60117D01*
X56677Y-58882D01*
X56611Y-58720D01*
X56487Y-58596D01*
X56325Y-58529D01*
X56150Y-58529D01*
X55988Y-58596D01*
X55864Y-58719D01*
X55797Y-58881D01*
X55797Y-59056D01*
X55864Y-59218D01*
X55988Y-59342D01*
X56149Y-59409D01*
X56324Y-59409D01*
X56486Y-59342D01*
X56610Y-59218D01*
X56677Y-59057D01*
X56677Y-58882D01*
X56677Y-60117D01*
X55677Y-60117D01*
X55677Y-58882D01*
X55611Y-58720D01*
X55487Y-58596D01*
X55325Y-58529D01*
X55150Y-58529D01*
X54988Y-58596D01*
X54864Y-58719D01*
X54797Y-58881D01*
X54797Y-59056D01*
X54864Y-59218D01*
X54988Y-59342D01*
X55149Y-59409D01*
X55324Y-59409D01*
X55486Y-59342D01*
X55610Y-59218D01*
X55677Y-59057D01*
X55677Y-58882D01*
X55677Y-60117D01*
X54677Y-60117D01*
X54677Y-58882D01*
X54611Y-58720D01*
X54487Y-58596D01*
X54325Y-58529D01*
X54150Y-58529D01*
X53988Y-58596D01*
X53864Y-58719D01*
X53797Y-58881D01*
X53797Y-59056D01*
X53864Y-59218D01*
X53988Y-59342D01*
X54149Y-59409D01*
X54324Y-59409D01*
X54486Y-59342D01*
X54610Y-59218D01*
X54677Y-59057D01*
X54677Y-58882D01*
X54677Y-60117D01*
X53677Y-60117D01*
X53677Y-58882D01*
X53611Y-58720D01*
X53487Y-58596D01*
X53325Y-58529D01*
X53150Y-58529D01*
X52988Y-58596D01*
X52864Y-58719D01*
X52797Y-58881D01*
X52797Y-59056D01*
X52864Y-59218D01*
X52988Y-59342D01*
X53149Y-59409D01*
X53324Y-59409D01*
X53486Y-59342D01*
X53610Y-59218D01*
X53677Y-59057D01*
X53677Y-58882D01*
X53677Y-60117D01*
X52677Y-60117D01*
X52677Y-58882D01*
X52611Y-58720D01*
X52487Y-58596D01*
X52325Y-58529D01*
X52150Y-58529D01*
X51988Y-58596D01*
X51864Y-58719D01*
X51797Y-58881D01*
X51797Y-59056D01*
X51864Y-59218D01*
X51988Y-59342D01*
X52149Y-59409D01*
X52324Y-59409D01*
X52486Y-59342D01*
X52610Y-59218D01*
X52677Y-59057D01*
X52677Y-58882D01*
X52677Y-60117D01*
X51677Y-60117D01*
X51677Y-59297D01*
X51677Y-59241D01*
X51677Y-59014D01*
X51677Y-58924D01*
X51677Y-58697D01*
X51677Y-58641D01*
X51656Y-58589D01*
X51617Y-58550D01*
X51565Y-58529D01*
X51282Y-58529D01*
X51247Y-58564D01*
X51247Y-58959D01*
X51642Y-58959D01*
X51677Y-58924D01*
X51677Y-59014D01*
X51642Y-58979D01*
X51247Y-58979D01*
X51247Y-59374D01*
X51282Y-59409D01*
X51565Y-59409D01*
X51617Y-59387D01*
X51656Y-59348D01*
X51677Y-59297D01*
X51677Y-60117D01*
X51227Y-60117D01*
X51227Y-59374D01*
X51227Y-58979D01*
X51227Y-58959D01*
X51227Y-58564D01*
X51192Y-58529D01*
X50909Y-58529D01*
X50858Y-58550D01*
X50819Y-58589D01*
X50797Y-58641D01*
X50797Y-58697D01*
X50797Y-58924D01*
X50832Y-58959D01*
X51227Y-58959D01*
X51227Y-58979D01*
X50832Y-58979D01*
X50797Y-59014D01*
X50797Y-59241D01*
X50797Y-59297D01*
X50819Y-59348D01*
X50858Y-59387D01*
X50909Y-59409D01*
X51192Y-59409D01*
X51227Y-59374D01*
X51227Y-60117D01*
X50152Y-60117D01*
X50152Y-59017D01*
X50152Y-46767D01*
X50036Y-46486D01*
X49821Y-46271D01*
X49540Y-46154D01*
X49236Y-46154D01*
X48955Y-46270D01*
X48739Y-46485D01*
X48622Y-46766D01*
X48622Y-47070D01*
X48738Y-47352D01*
X48953Y-47567D01*
X49234Y-47684D01*
X49539Y-47684D01*
X49820Y-47568D01*
X50035Y-47353D01*
X50152Y-47072D01*
X50152Y-46767D01*
X50152Y-59017D01*
X50036Y-58736D01*
X49821Y-58521D01*
X49540Y-58404D01*
X49236Y-58404D01*
X48955Y-58520D01*
X48739Y-58735D01*
X48622Y-59016D01*
X48622Y-59320D01*
X48738Y-59602D01*
X48953Y-59817D01*
X49234Y-59934D01*
X49539Y-59934D01*
X49820Y-59818D01*
X50035Y-59603D01*
X50152Y-59322D01*
X50152Y-59017D01*
X50152Y-60117D01*
X48465Y-60117D01*
X48465Y-45866D01*
X66889Y-45866D01*
X66889Y-46734D01*
X66786Y-46486D01*
X66571Y-46271D01*
X66290Y-46154D01*
X65986Y-46154D01*
X65705Y-46270D01*
X65489Y-46485D01*
X65372Y-46766D01*
X65372Y-47070D01*
X65488Y-47352D01*
X65703Y-47567D01*
X65984Y-47684D01*
X66289Y-47684D01*
X66570Y-47568D01*
X66785Y-47353D01*
X66889Y-47104D01*
X66889Y-48940D01*
X66797Y-48718D01*
X66533Y-48453D01*
X66187Y-48310D01*
X65813Y-48309D01*
X65468Y-48452D01*
X65203Y-48716D01*
X65060Y-49062D01*
X65059Y-49436D01*
X65202Y-49781D01*
X65466Y-50046D01*
X65812Y-50189D01*
X66186Y-50190D01*
X66531Y-50047D01*
X66796Y-49783D01*
X66889Y-49559D01*
X66889Y-50399D01*
X66827Y-50338D01*
X66765Y-50296D01*
X66692Y-50282D01*
X62598Y-50282D01*
X62525Y-50296D01*
X62464Y-50338D01*
X62172Y-50629D01*
X62063Y-50629D01*
X61947Y-50677D01*
X61889Y-50735D01*
X61843Y-50689D01*
X61843Y-48503D01*
X61922Y-48425D01*
X62030Y-48425D01*
X62146Y-48377D01*
X62235Y-48288D01*
X62283Y-48173D01*
X62283Y-48047D01*
X62235Y-47932D01*
X62147Y-47843D01*
X62031Y-47795D01*
X61906Y-47795D01*
X61790Y-47843D01*
X61701Y-47931D01*
X61653Y-48047D01*
X61653Y-48156D01*
X61519Y-48290D01*
X61478Y-48352D01*
X61463Y-48425D01*
X61463Y-50689D01*
X61386Y-50766D01*
X61338Y-50881D01*
X61338Y-51007D01*
X61386Y-51123D01*
X61474Y-51211D01*
X61590Y-51259D01*
X61715Y-51259D01*
X61831Y-51212D01*
X61889Y-51154D01*
X61947Y-51211D01*
X62063Y-51259D01*
X62188Y-51259D01*
X62304Y-51212D01*
X62392Y-51123D01*
X62440Y-51007D01*
X62441Y-50898D01*
X62677Y-50662D01*
X66614Y-50662D01*
X66889Y-50937D01*
X66889Y-51440D01*
X66797Y-51218D01*
X66533Y-50953D01*
X66187Y-50810D01*
X65813Y-50809D01*
X65468Y-50952D01*
X65203Y-51216D01*
X65060Y-51562D01*
X65059Y-51936D01*
X65202Y-52281D01*
X65466Y-52546D01*
X65812Y-52689D01*
X66186Y-52690D01*
X66531Y-52547D01*
X66796Y-52283D01*
X66889Y-52059D01*
X66889Y-53940D01*
X66797Y-53718D01*
X66533Y-53453D01*
X66187Y-53310D01*
X65813Y-53309D01*
X65468Y-53452D01*
X65203Y-53716D01*
X65060Y-54062D01*
X65059Y-54436D01*
X65202Y-54781D01*
X65466Y-55046D01*
X65812Y-55189D01*
X66186Y-55190D01*
X66531Y-55047D01*
X66796Y-54783D01*
X66889Y-54559D01*
X66889Y-56443D01*
X66811Y-56240D01*
X66781Y-56194D01*
X66659Y-56104D01*
X66645Y-56118D01*
X66645Y-56090D01*
X66555Y-55968D01*
X66214Y-55815D01*
X65840Y-55805D01*
X65490Y-55938D01*
X65444Y-55968D01*
X65354Y-56090D01*
X66000Y-56735D01*
X66645Y-56090D01*
X66645Y-56118D01*
X66014Y-56750D01*
X66659Y-57395D01*
X66781Y-57305D01*
X66889Y-57064D01*
X66889Y-57330D01*
X66535Y-57684D01*
X66188Y-57684D01*
X66509Y-57561D01*
X66555Y-57531D01*
X66645Y-57409D01*
X66000Y-56764D01*
X65985Y-56778D01*
X65985Y-56750D01*
X65340Y-56104D01*
X65218Y-56194D01*
X65065Y-56535D01*
X65055Y-56909D01*
X65188Y-57259D01*
X65218Y-57305D01*
X65340Y-57395D01*
X65985Y-56750D01*
X65985Y-56778D01*
X65354Y-57409D01*
X65444Y-57531D01*
X65785Y-57684D01*
X63464Y-57684D01*
X63464Y-52929D01*
X63416Y-52813D01*
X63328Y-52725D01*
X63212Y-52677D01*
X63087Y-52677D01*
X62971Y-52724D01*
X62894Y-52802D01*
X56777Y-52802D01*
X56802Y-52777D01*
X56850Y-52661D01*
X56850Y-52552D01*
X58642Y-52552D01*
X58718Y-52629D01*
X58834Y-52677D01*
X58960Y-52677D01*
X59075Y-52629D01*
X59164Y-52540D01*
X59212Y-52425D01*
X59212Y-52299D01*
X59164Y-52184D01*
X59087Y-52106D01*
X59154Y-52078D01*
X59243Y-51989D01*
X59291Y-51873D01*
X59291Y-51748D01*
X59243Y-51632D01*
X59155Y-51544D01*
X59039Y-51496D01*
X59038Y-51496D01*
X59154Y-51448D01*
X59243Y-51359D01*
X59291Y-51244D01*
X59291Y-51118D01*
X59243Y-51002D01*
X59155Y-50914D01*
X59039Y-50866D01*
X58913Y-50866D01*
X58798Y-50913D01*
X58720Y-50991D01*
X57086Y-50991D01*
X56929Y-50991D01*
X56850Y-50991D01*
X56850Y-50991D01*
X56777Y-51005D01*
X56716Y-51046D01*
X56716Y-51046D01*
X56322Y-51440D01*
X56322Y-51440D01*
X55928Y-51834D01*
X55887Y-51895D01*
X55872Y-51968D01*
X55872Y-52500D01*
X55796Y-52577D01*
X55748Y-52692D01*
X55747Y-52818D01*
X55795Y-52934D01*
X55821Y-52959D01*
X55590Y-52959D01*
X55137Y-52959D01*
X55060Y-52882D01*
X54944Y-52834D01*
X54819Y-52834D01*
X54703Y-52882D01*
X54615Y-52970D01*
X54566Y-53086D01*
X54566Y-53211D01*
X54614Y-53327D01*
X54703Y-53416D01*
X54818Y-53464D01*
X54944Y-53464D01*
X55060Y-53416D01*
X55137Y-53339D01*
X55511Y-53339D01*
X55729Y-53557D01*
X55648Y-53591D01*
X55559Y-53679D01*
X55511Y-53795D01*
X55511Y-53920D01*
X55559Y-54036D01*
X55648Y-54125D01*
X55715Y-54153D01*
X55715Y-55033D01*
X55690Y-55008D01*
X55574Y-54960D01*
X55449Y-54960D01*
X55333Y-55008D01*
X55244Y-55096D01*
X55196Y-55212D01*
X55196Y-55337D01*
X55244Y-55453D01*
X55321Y-55531D01*
X55321Y-56280D01*
X55244Y-56356D01*
X55196Y-56472D01*
X55196Y-56597D01*
X55244Y-56713D01*
X55333Y-56802D01*
X55448Y-56850D01*
X55574Y-56850D01*
X55690Y-56802D01*
X55778Y-56714D01*
X55826Y-56598D01*
X55826Y-56473D01*
X55779Y-56357D01*
X55701Y-56279D01*
X55701Y-55832D01*
X55726Y-55857D01*
X55842Y-55905D01*
X55967Y-55905D01*
X56083Y-55857D01*
X56172Y-55769D01*
X56220Y-55653D01*
X56220Y-55528D01*
X56172Y-55412D01*
X56095Y-55335D01*
X56095Y-54032D01*
X56127Y-53955D01*
X57047Y-54875D01*
X57047Y-58571D01*
X56988Y-58596D01*
X56864Y-58719D01*
X56797Y-58881D01*
X56797Y-59056D01*
X56864Y-59218D01*
X56988Y-59342D01*
X57149Y-59409D01*
X57324Y-59409D01*
X57486Y-59342D01*
X57610Y-59218D01*
X57677Y-59057D01*
X57677Y-58882D01*
X57611Y-58720D01*
X57487Y-58596D01*
X57427Y-58571D01*
X57427Y-54796D01*
X57427Y-54796D01*
X57427Y-54796D01*
X57413Y-54724D01*
X57372Y-54662D01*
X57372Y-54662D01*
X57372Y-54662D01*
X56567Y-53858D01*
X56581Y-53858D01*
X58047Y-55324D01*
X58047Y-58571D01*
X57988Y-58596D01*
X57864Y-58719D01*
X57797Y-58881D01*
X57797Y-59056D01*
X57864Y-59218D01*
X57988Y-59342D01*
X58149Y-59409D01*
X58324Y-59409D01*
X58486Y-59342D01*
X58610Y-59218D01*
X58677Y-59057D01*
X58677Y-58882D01*
X58611Y-58720D01*
X58487Y-58596D01*
X58427Y-58571D01*
X58427Y-55245D01*
X58413Y-55172D01*
X58372Y-55111D01*
X58372Y-55111D01*
X56850Y-53589D01*
X56850Y-53480D01*
X56802Y-53365D01*
X56732Y-53294D01*
X56748Y-53283D01*
X56850Y-53182D01*
X62894Y-53182D01*
X62970Y-53259D01*
X63086Y-53307D01*
X63211Y-53307D01*
X63327Y-53259D01*
X63416Y-53170D01*
X63464Y-53055D01*
X63464Y-52929D01*
X63464Y-57684D01*
X63149Y-57684D01*
X63149Y-57684D01*
X63076Y-57698D01*
X63015Y-57739D01*
X63015Y-57739D01*
X62283Y-58471D01*
X62283Y-54898D01*
X62235Y-54782D01*
X62147Y-54693D01*
X62031Y-54645D01*
X61906Y-54645D01*
X61790Y-54693D01*
X61701Y-54781D01*
X61653Y-54897D01*
X61653Y-55006D01*
X61103Y-55556D01*
X61062Y-55618D01*
X61047Y-55691D01*
X61047Y-58571D01*
X60988Y-58596D01*
X60864Y-58719D01*
X60797Y-58881D01*
X60797Y-59056D01*
X60864Y-59218D01*
X60988Y-59342D01*
X61149Y-59409D01*
X61324Y-59409D01*
X61486Y-59342D01*
X61610Y-59218D01*
X61677Y-59057D01*
X61677Y-58882D01*
X61611Y-58720D01*
X61487Y-58596D01*
X61427Y-58571D01*
X61427Y-55770D01*
X61922Y-55275D01*
X62030Y-55275D01*
X62146Y-55227D01*
X62235Y-55139D01*
X62283Y-55023D01*
X62283Y-54898D01*
X62283Y-58471D01*
X62225Y-58529D01*
X62150Y-58529D01*
X61988Y-58596D01*
X61864Y-58719D01*
X61797Y-58881D01*
X61797Y-59056D01*
X61864Y-59218D01*
X61988Y-59342D01*
X62149Y-59409D01*
X62324Y-59409D01*
X62486Y-59342D01*
X62610Y-59218D01*
X62677Y-59057D01*
X62677Y-58882D01*
X62611Y-58720D01*
X62591Y-58700D01*
X63228Y-58064D01*
X66614Y-58064D01*
X66686Y-58049D01*
X66748Y-58008D01*
X66889Y-57867D01*
X66889Y-58984D01*
X66786Y-58736D01*
X66571Y-58521D01*
X66290Y-58404D01*
X65986Y-58404D01*
X65705Y-58520D01*
X65489Y-58735D01*
X65372Y-59016D01*
X65372Y-59320D01*
X65488Y-59602D01*
X65703Y-59817D01*
X65984Y-59934D01*
X66289Y-59934D01*
X66570Y-59818D01*
X66785Y-59603D01*
X66889Y-59354D01*
X66889Y-60117D01*
M02*
